/* XPM */
static char *_0199_1dfeb2cbd1e21c0760b0d959ec0f3ade8b81c32bbbd8788c6c60663219e9c774[] = {
/* columns rows colors chars-per-pixel */
"65 65 242 2 ",
"   c #0D0401",
".  c #0D0901",
"X  c #140601",
"o  c #190606",
"O  c #140B03",
"+  c #1A0B04",
"@  c #150C09",
"#  c #1A0B0A",
"$  c #151206",
"%  c #191305",
"&  c #1C1904",
"*  c #16120A",
"=  c #1C140A",
"-  c #1C1B0D",
";  c #1E1411",
":  c #1E1D12",
">  c #200E06",
",  c #2C1404",
"<  c #251508",
"1  c #2B150B",
"2  c #231A0D",
"3  c #2C1B0D",
"4  c #331B0C",
"5  c #3A1D09",
"6  c #241C12",
"7  c #2B1B13",
"8  c #281814",
"9  c #331F15",
"0  c #3C1D13",
"q  c #25210E",
"w  c #38220D",
"e  c #242314",
"r  c #2C2314",
"t  c #25251A",
"y  c #2B241A",
"u  c #272A1B",
"i  c #2B2C1C",
"p  c #332314",
"a  c #3B2314",
"s  c #372916",
"d  c #34251B",
"f  c #39261C",
"g  c #342B1D",
"h  c #3A2B1D",
"j  c #2D311F",
"k  c #31311D",
"l  c #3C1F21",
"z  c #2A2922",
"x  c #2D2D21",
"c  c #3B2720",
"v  c #332D21",
"b  c #3B2C22",
"n  c #2D3324",
"m  c #333224",
"M  c #3C3224",
"N  c #34342A",
"B  c #393729",
"V  c #3C3A2C",
"C  c #3E3D32",
"Z  c #411E07",
"A  c #46240B",
"S  c #522D0D",
"D  c #432314",
"F  c #472818",
"G  c #4C2C1B",
"H  c #532D1B",
"J  c #4B321C",
"K  c #573519",
"L  c #52321D",
"P  c #693B1C",
"I  c #733F1C",
"U  c #422D23",
"Y  c #4C2C24",
"T  c #443425",
"R  c #4B3323",
"E  c #473926",
"W  c #44352A",
"Q  c #4A3629",
"!  c #433A2B",
"~  c #4C3A2C",
"^  c #543523",
"/  c #593526",
"(  c #553925",
")  c #5B3B24",
"_  c #523329",
"`  c #533B2B",
"'  c #5A3D2B",
"]  c #463C34",
"[  c #633C26",
"{  c #6D3C24",
"}  c #713E27",
"|  c #613F33",
" . c #3F4230",
".. c #73411D",
"X. c #46422D",
"o. c #56412D",
"O. c #5C432D",
"+. c #444334",
"@. c #4B4433",
"#. c #484739",
"$. c #4D4B3B",
"%. c #574434",
"&. c #5C4533",
"*. c #534C3B",
"=. c #5D4B3B",
"-. c #57523E",
";. c #64432B",
":. c #69462A",
">. c #754324",
",. c #784726",
"<. c #794926",
"1. c #75442A",
"2. c #79462C",
"3. c #754A2C",
"4. c #7C4A2C",
"5. c #7B552E",
"6. c #644532",
"7. c #664737",
"8. c #6B4B34",
"9. c #624C3C",
"0. c #6C4C39",
"q. c #794632",
"w. c #774B37",
"e. c #7D4B33",
"r. c #6B513C",
"t. c #7E5235",
"y. c #74533A",
"u. c #775539",
"i. c #7B533A",
"p. c #4B4C42",
"a. c #534D44",
"s. c #584C40",
"d. c #545344",
"f. c #5B5243",
"g. c #57554E",
"h. c #5A5749",
"j. c #5A554A",
"k. c #674F41",
"l. c #635244",
"z. c #625B4A",
"x. c #755744",
"c. c #7B5A43",
"v. c #675D53",
"b. c #66624E",
"n. c #696655",
"m. c #6C6554",
"M. c #6E6B56",
"N. c #706D54",
"B. c #726B5B",
"V. c #6C715D",
"C. c #77735D",
"Z. c #786F61",
"A. c #7B7664",
"S. c #7D7B64",
"D. c #814F2D",
"F. c #83522D",
"G. c #814E34",
"H. c #824E3A",
"J. c #845334",
"K. c #885636",
"L. c #8B5935",
"P. c #85533A",
"I. c #89563B",
"U. c #845A3B",
"Y. c #8C5B3C",
"T. c #925C36",
"R. c #915E3D",
"E. c #89633D",
"W. c #96653B",
"Q. c #94633D",
"!. c #A06B3F",
"~. c #865A43",
"^. c #8C5B42",
"/. c #915E43",
"(. c #925F49",
"). c #8C6244",
"_. c #866448",
"`. c #8C694B",
"'. c #946344",
"]. c #996645",
"[. c #936A46",
"{. c #9B6A44",
"}. c #95644A",
"|. c #99664B",
" X c #956B4B",
".X c #9C6B4B",
"XX c #9B714C",
"oX c #8A6953",
"OX c #956A52",
"+X c #9D6C52",
"@X c #8F7254",
"#X c #997556",
"$X c #A56740",
"%X c #A16C45",
"&X c #A16E4C",
"*X c #A47145",
"=X c #A4734C",
"-X c #AA744D",
";X c #AA784B",
":X c #B2794D",
">X c #A16E52",
",X c #A26E5A",
"<X c #A47353",
"1X c #A97554",
"2X c #A47954",
"3X c #AB7B55",
"4X c #A67459",
"5X c #A9765B",
"6X c #A57B5B",
"7X c #AC7B5B",
"8X c #B17C55",
"9X c #B27E5C",
"0X c #817C65",
"qX c #827C6A",
"wX c #A37D61",
"eX c #AE7C61",
"rX c #B27E62",
"tX c #7E8168",
"yX c #AB825B",
"uX c #B6865A",
"iX c #B3825D",
"pX c #85826B",
"aX c #87846A",
"sX c #898876",
"dX c #938C7C",
"fX c #8D9176",
"gX c #AA8566",
"hX c #B48263",
"jX c #B98665",
"kX c #BA8964",
"lX c #B78669",
"zX c #BC8A6B",
"xX c #B98D70",
"cX c #C08F6D",
"vX c #C1916C",
"bX c #C49473",
"nX c #9A9784",
"mX c #A19D87",
"MX c #B4AF9B",
"NX c #B8B4A2",
"BX c #CDCAB6",
"VX c #E0DDCA",
/* pixels */
"w.}.<XR.W.W.J.|.6X4./.lX,XK.R.-X.X7X^.P.4X(.H.|.1XJ.&XD.4.eX}.4.6XzX&XP 1XiX-X3X{ +X4X2./.1XK.{.>X<.].4XJ.Y.jX5X(.e.iX7XhX'.q.4X/.",
"q.e.|.=XL.,.Y.zXyXY.K.(.(.|.1X-X].Y.4.4.H.3.w.^.&X.XL.G.+XbX5Xu.D.'.|.G.3X&XK.Q.P.>.2.D.>.R.9XY.,.J.7XlX2XJ.Y.|.(.t.7X'.Y.K.e.~.H.",
".X<.2.}.K.4..X-X7X.XY.D.} 2.(.9X<.4.Y.Y.K.^.'.2.e.|.2.Y.7X.X<X.X2.1.H.K.5X|.2.<.Y.R.T.&XK.} ].Y.2.4X9X=X3XY.{ t.P.P.eXY.>.J.Y.P.T.",
"kX.X1.q.H.'.iXW.T.-X3X/.D.2.G.G.<.1XkXiX3XzXlXI.:.e.} &X3XJ.].iX4XH.2.2.e.G.Y.7X1XiX9XiX7XG.2.G.t.7X{.F.3X9X^.~.2.H.}.e.R.rXhX9XrX",
";XzX}.q.H.^.2X&X-X9X%XD.T.9X+X2.P.7XiX=X-XiXhX6X}.2.3..X<X1X3X-X/.G.|.,XK.q.^.xXvX!.-X1X9X5X^.1.~.>X.X{.iX7X}.e..X.XG.>.=XzX3X7X-X",
"=XiX.XK.^.P.J.}.rXW.D.L.&X9XhX<Xq.I.L.].=X]..XjX[.e.Y.J.[ F F D D D 0 F 7X/.2.Y.%X!.-X{.9XrXK.^.Y.G..X7X.XD.K.Q.kXbX].t.K.).K.2X-X",
"2XY.Y.W.=X.X2.q.K.2.'.uXuX-X1X1XH.q.T.yXiX=X=X&XK.[.Y D Z XXyX'.I.'.w.{ D D Y 2.K.1X8X&X1XR.J.7XR.>.4.~.P.J.<XiX{.iX<X}.1.Y..XiX-X",
"|.>.W.yXiXhX^.w.} /.iX;XL.-XkX{.OXP.{.yX{.=X%XP Y 0 0 y.2XXX*X!.{.].'.(.8.^ 0 0 Y &X%X-XD.,.hX9XvX.XG.} P.,X3X{.*X=X&X1X1..XhX[.-X",
"J.'.iXiX{.3XhX|.G.Y.5X&X'.>X^.} 2.4.|.(.5X}.O.5 o.6.s u.iX].!.!.W.W.].'.`.L 6.gXx.4 hXP.^.4X7X.X-X3X5X^.G.>X9XR.=X'.2.q.q.P.+X+X1X",
"<.=X3X{.=XY.4.J.G.D.R.K.,.2.} ~.1XY.J.P.P.G.A 2XyX@X:.;.3XQ.$X].$X'..X#Xx.A 5.yXyXoXY ~ ^.4X1X<XR.K.J.P.G.K.K.} >.<.P.+X+XP.J.F.H.",
"4.K.XX=XF.4.Y.|.I.Y.&X/.K.}.(.(.hX5X<X,X2.G 2XyX;XXX3.K #X[._.u.y.;.&.7.0.K yX*X*X3X[ F Y >X>X}.I D.T.P.K.,X5X(..X'.K.+XxXlX<X4.D.",
"}.t.Y.Y.<.'.zXjX&X|.>X9XjXlX>XH.Y.>XzXrX4 _.iX;X!.yXu.( #XL D a s w h h o.S XX:X*X*X4X7.0 Y J.} R.9XcX1X(.>XrXrXhX7X}.K.^.4XhX<XH.",
"jX7XY.>.[.hXhX9XiXL.J.7XhX/.4.2.<.4.|./ K yX;X-XuX.XK F J , O @.m e = 1 7 F +X%X:X!.yX8./ | Y k.jX8XjXjX>XJ.^.rX<XW.{ ,.Y.].'.<.1X",
"3X7X4X^.I..X=X[.9X].F.Y.P.D.'..X9XJ.D `._.5.yX2XW.:.a < + O $ $.N u X + o 1 H _.7X:XQ.K ).oX` 7.].].].1X1XR.P.}.4.Y..XyX].>.4.I.9X",
"W.'.hX3X>.4.=X{.=X3X'.1.1..XvXiXbXU ~.7XXXP #XyXO., O # X @ @ g.n z + + o o # l O.c.K L.1X|.6.;.G.&X1X].&X.XP.1.|.4X3XkXuX.X'.Y.-X",
"E.].'.Y.J.4.Q.iX*X=XL.J.I.<XlX].]._ 1X3X;XE.K J , O # @ @ @ @ p.N y + + > # # @ 7 p K XX].XXI.[ ,.}.>X&X1X|.P.P.|.hX7X*XXX-XXX4.G.",
">.>.2.G.T.G.1.w.J.|.2.2.^.J.}.4XH +X:X:X=X Xw > * O @ @ # # @ a.m u O # X # * @ + + O.yX'.{.&Xt.[ ~.(.~.J.t.P U.e.}..X=X3XW.hX(.D.",
"OX X[.1XrX1XU.1.<.'.'.|.}.>.4.G ).hX-X-X9X:.1 + . @ O   X   @ p.m u O   + O     O $ 9.`.[.Q.{.|./ | w.c.U.I..X2XJ.,.R.1XXX].J.I.^.",
"+XeX7X1X3X1X'.t.4X7XhXhXhX.XD._ wX5X-X3X5.w < e z t  .h.d.d.d.C i n u m a.d.g.d.d.a.s J #X X.X Xx./ 0.c.~.zXkXyX3XK.J.}.J.Y.<..XH.",
"J.=X1XW.%X&X].J.1X4X9X&X6X7XJ.D `.wX2X@XK 9.r j N n N #.+. .#.n n i x N  .+.p. .#.+.k *.8.`. X X8.4 G 7.0.uX{.XX2X[.2.G.3.I.3XkX/.",
",.Y.&X=X8X9X'.>.<.K.1X[.R.[.L ) S c.@X;.w m.*.- u n i u i t i x x x x n n z z u t & +.b.w O.OXU.5 ;.J 7.x.>X{.-XW.Y./.}.(.P..X=X-X",
"1.'.1X3X1X].K.J.K.K..X7X.XG _.gX:.A O.s q B sXb.x : e u i m N x m i : - : e t N u B mX*.& w 8.A u.gX_.R 7.Y.=X{..X<.lXeX5X^.>.Q.-X",
"4.^.+X=XY.,.P.5X6X^.J.4X>XG ).2X`.A p % +.i M.h.V . . % 2 - = x n : $ $ * @ O - & M.V.+.< < 4 8.hXhX~.G 7.^.9X9X'.>.yX7X.X.X4.<X(.",
"3.t.^.XX'.e.~.xXhX}.4./.^.:..XW.`.J < . p.n X.N.h.O O + O O X u m & O O O @ @ O & S.b. .+ + % ~.8X3XOX) [ } 4.Y.P.}.=X*X<.F.1.q.} ",
"jX4.>.I.e.Y.3X*X].6X|.4.^ 7.1X&X#XL < . #.V u z.j.= + O % O O u m : O O # o # O e M.d.u ; # O x.8X-XwX' Y =XG.e.H.^.+X~.{ I.>X.X&X",
"7X2XY.q.H.+X+XY.'.<X<X}.^ `.+X(.u.5 + X p.N = a.dXc O @ O + O z m = O + o o @ * d.nXC v # o @ D .X3X6X`._ 7X}.K.I.1.{ t.wXcXrX9XrX",
"=XvX<X1.H././.+X4XeX.X,.G #X+X+X6.1 O . #. .% $.m.#.= @ O @ @ C n - O @ # @ O i tXV.B z ; @ O , P.hX#Xy.Y &XY.4.2XzX.X<.[.zX7X|.-X",
"{.3X.XK./.P.q.}.3XK.D.[.A A ~.c.^ > O . #.V * B z.Z.8 X @ X @ j.v 6 O X # @   C sXd.u x * @ O > J ~.:.w 5 L.R..X-XkX7XL.,.4.Y.9X-X",
"{.L.L.XXrX+Xt.{ 2.4..X[ :.E.P J 9 O + . #.N : : a.v.y o @ @ # a.v : O @ @ @ O C g. .C n * O @ o a 5 S _.&.` 9X3X%X-X2X[.4.Y.3XhX-X",
"Q.L.Q.4X7XhX5XP.I }.9XG 2XbXi.F 1 O @ . $.N x $ O 8 8 @ @ @ + a.m * . @ @ @ @ 8 : : g.u = O @ # < G [.xX~.F lX[.3X2X.XK.1..XkX.X1X",
"J.'.6X4X].<X3X+XY.Q.Y.G ).;X#X( # @ # X p.B x O O O O O @ @ @ f.m e @ @ # o o o o ; $.s & O @ o $ x.kXXXU.G <X^./.2.{ I.^.F.Y.].%X",
"e.|.3X1X.XJ.<.2.J.Y.J.F E.yX@X^ > # o X $.B z % O + O = * @ = m r t % O = = # # o 6 *.k u . = O O `.uXyX~.G e.1.} P.^.OXhX.X4...G.",
"F.J.<X(.P.e.XX=XY.].lX;.2X3X+Xa + # + O a.B u $ O O O m f.X.*.X.@.*.-.-.-.s $ % @ ; p.n e O @ # + ^ 2X8X`.H jX].uX%XQ.W.>XiXjX%Xw.",
"=XL.2.2.P.7XvXkX2XK.'.c.yX=Xy., X X .   N N z $ O . . n nXMXMXMXMXNXdXpXfX .  X   ; d.x : .     X , [.3X2X^ .X7XjX&XJ.G.(.7X1XG.Y.",
"kXiX|.'.J.3X7X-XzX'.J.0.yXyX:.3 6 - V +.N x n : : V  .n MXVXBXBXNXNXmXC.tXV V ] ] ] +.j i - ] ] M < _.yX#X^ .X7XG.^.H.H.H.H.P.I.9X",
"].iXyX.X4.I.].&X.X>XJ.;.6X).' p B x #.g.N z n n B d.$. .NXBXmXtX*.M.S.S.pX! a.g.g.a.j j k m d.g.d.s :.`.c.G K.e.H.}.eXrX5XP.q.|.1X",
").&X<XJ.J.J.&X7X.X5XK.Y :.S f d x n v i u n n n z x u B MXBXC.@.& $.aX0XS.B u t z z g k g m i z x d w A A w e.P.1XhXiXkXuX&XD.J.$X",
"J.I.'.<.K.4.Y.}.>X1XP.D :.P Y y e u t e n n n : t y - B MXBXC.k q i S.aXA.m y N v z m n u r t z z t 9.5.y.S 4.^.[.=X%XW.-X8X{.L.G.",
"} 3.e.L.|.P.2.H.K.G.K.0.xXXXc.1 % O = 6 u n t $ = 2 % g NXBXtXX.& +.tXpXA.g 6 v u u i k q % * @ @ 3 #XxXgX6.4.<.H.K.].$X&X>X4X+XP.",
"xXeX'.jXbXrXH.q.K.R.rXc.2XQ.N., O O 7 6 u n e e 7 2 6 M NXNXtXN.q M.pXpXM.r 6 6 6 e i u - r 2 @ X 1 _.W.[.[ vX3X~.} (.9X,XH.q.q.K.",
"OXeX8XT.&X7XK.R.9X9X9X8.=X'.x., + 2 8 8 M N 6 2 7 < 2 ! mXfXaXN.& N.aXC.z.k 2 7 6 6 C u 6 - 7 8 $ , yXW.[.P 3X:XrX}.4.e.e.4.].3XP.",
"} G.8X9X-X9X|.2./.%X-X1.XX{.i., + 8 8 8 a.] = 6 7 7 < h 0XaXpXN. .C.pXN.*.r 1 3 7 y d.u : 7 8 8 + ,  X{.XX:.XX%X5X(.G.2.G.'.4XkX'.",
"D.G.1X1X&X3X].} J.T.|.0.7X.Xc.1 > 9 8 8 @.B 6 6 7 r r e z.aX0XaXfXC.N.-.X.d 9 9 7 v g.u 6 6 8 8 + 4 `.[. X) ].Q.T.J.<X4X}.K.<.].3X",
"G.|.>X].}.R.D.'.P.G.|.[  X Xy., < 8 8 8 t z v t p g b 6 *.qXC.tXC.b.b.-.! d c U 9 v  .i 6 7 8 9 1 1 #X X`.^ 1X7X'.J.7XlX4X/.3.5X|.",
"I /.&X>X}.<.J.rXeXI.H.6.+X`.u.1 8 7 1 d t m v g c b b 7 M *.A.b.-.b.h.X.g g U U b b v x v r 7 8 2 , `.XX`.^ .X<X'.K.1X2X.X}.4./.K.",
"R.} G.(.P.J.1X1X9X&XJ._ w.P ( 4 3 7 8 h M x k v c U b v s i #.@.$.@.] d d h b h b v i m v v p 7 7 9 :.:.:.G 4.H.,.'.7XY.<.K.4.2.G.",
"cX/.} G.H.(.5X/.T.5X<XF H K R 7 7 7 h h g i v g b c b b b d 7 e q u y d M b b g b v v n d b g 7 r 3 ) S A G K.2.2.'.[.<.<.].eXhX3X",
"rXrXK.q.^.(.>X$X$X7X5Xk.wXU.x.3 1 r U g g m g v b c U b b v b v k m h v b c b b b v v d c b M p 2 s gXXXu._ >XP.^.J.>.L.yXzXjX|.-X",
":X8X>XH.3.~.|.'.lX+XL.8.U.3.0.9 7 U c b c b b v c c d y v h b h b d b b y r d b b g b c c b U c 7 a #X3.u.^ L.K.kXkX+XH.q.eX-XW.-X",
"T.>XR.^.4XK.{ './.4.'.8.).3.7.4 c c b b b d b b M r ! ! c b f b f b g h ! X.m g M c g b c c b h a 4 oXy.y.) '.6X=X8X4X(.} P.Q.8X-X",
"7XY.J.=XlX3Xt.{ e.H.<X6.).3.' 4 f b c b b b b d d b dXZ.7 T U b T F T r m.sXM v d M b c b W f U a 4 8.i.y.J rX&X{.uXrX}.H.|.1X1X3X",
"H.P..X8X2XeXhX|.e.^.rX^ y.y.| a b c U b c U d W 7 j.qXs.d Q ~ Q ! ~ ~ U X.v.j.d ! g f c c c h b U a 7.u.r.F 9X[.=X1XY.2.G..X3X&X>X",
"} 5XiX{.{..X'.}.^.H.^.( x.8.O.p U a c b b d T d d h.A.T b ~ Q ~ Q ` ] U b m.B.h c V b b U c b c h a r.y.8.F K.4.D.} } /.}.,.D.K.[.",
"^.|.4X.XR.J.t.,.^.I.].Y ;.L R a h U h c b b M v f.B.r M ~ ! Q ~ Q ! ! ~ M 2 f.B.b b ! b b b c c h a ( ( ~ F [.,.G.K.T.9XcX|.(.D.e.",
"J.,.}.>X<.I.kX3XY.|.jXf F D a p h b b g b ! r Z.dXV M ! ] ` R ~ ~ Q ~ ~ Q ! d nXZ.v ! ~ g b b g h s F F p 0 hXhXlXjXT.K.8XrXbX}.4.",
"lX>Xe.{ P.7XkXiX9XJ.Y.%.@Xx.~ d g g p r T +.! pXh.T E ~ T Q Q Q ~ ~ ~ Q ~ ] d f.v.] M ! i y g g h h u.y.o.T '.3X5X|.} } (./.5XH.}.",
"8X9X1XT.R.1X8X&X8X&X4.&.k.' ~ p s 2 V @.m g X.S.*.g ! ~ T ` Q E Q _ _ ~ Q ! T M C.z.s i *.+.e r u s ( o.%.T Y.4XH.^.L.Y.R.,.1.}.iX",
"$X5X9X}.G.J.].&X$X8XK.%.7./ a g *.f.dXS.g V B.! r T ~ Q ~ Q R ( Q Q Q Q Q ~ T M g m.d.q n.dXd.h.T s J O.` U e.e.q.>XjXzXrX'.K.(.3X",
"/.>X,X(.J.G.|.hX|.7XR.J O.6.p v.dXdXm.B.M.nX-.k E ~ ~ ~ ~ ` ` ~ ~ ~ _ ~ ` ~ ~ T k @.nX*.+.b.Z.mXN.3 o.o.%.b P.H.>XrXrX3X3X.XY.G.R.",
"q.} 2.G.P.G.H.^.>X.XG.%.0.( p c Z.qXC.X.pXm.@.h @.T %.k.=.9.9.=.k.9.9.9.l.=.=.%.T T z.b.B n.b.h.N.*.R O.~ 4 e.4.(.%X].].<X3X1X'.H.",
"^.H.I..X<X}.e.{ 1.>.t.F ' O.a @.f.~ g q b.v.h =.9.=.r.=.=.9.=.9.=.9.9.9.9.=.=.=.l.h -.C.T r s M Z.@.J &.E p Y.|.I D.].1X<X'.Y.'.I.",
"rX9XrXhXjX5X}.H. X2XlXU ` O.p p s r M T r p ` s.=.k.=.=.r.-.=.9.=.=.9.9.9.9.9.=.=.*.s k =.@.W h h p ` ` ~ 3 3XzX'.K.Y..XI.<.4.K.P.",
"R.&X>X%X{.&X].J.hXeX9XU &.( h h T ~ =.=.=.=.=.=.7.9.7.9.8.%.-.9.=.9.=.7.9.9.9.9.l.=.=.%.=.=.=.W ! g ( &.s 3 1X%XkXY.q.H.t.^.<XhXL.",
"} R.1X-X-X8X&XD.J.'.7Xb O.J 3 g @.=.=.=.l.=.=.k.k.9.k.7.9.9.9.=.=.=.9.7.9.9.9.9.=.9.9.l.=.=.k.=.` F Q ( s 9 -X%X=XK.P.~.e.J..X3X&X",
"q./.8X$X-X%XH.G.H.i./.9 9 p 9 h %.l.=.=.=.9.9.9.9.7.9.9.=.9.=.9.=.9.9.9.9.9.=.9.9.9.9.9.9.9.9.9.=.h r p 9 7 ].{.|.<.1XhX5X1.4.<X=X"
};
