/* XPM */
static char *_4556_2c7d4f9189da0a496ac5b62aba783f84ba5a9d73ed529b1f57e58a63231aa0aa[] = {
/* columns rows colors chars-per-pixel */
"65 65 219 2 ",
"   c #081013",
".  c #072B0C",
"X  c #1B1320",
"o  c #362E3B",
"O  c #67351C",
"+  c #6D3C1D",
"@  c #713E1D",
"#  c #6D3C23",
"$  c #713E24",
"%  c #713E2A",
"&  c #2E4D34",
"*  c #275B39",
"=  c #2A6837",
"-  c #36793D",
";  c #73421B",
":  c #6F4128",
">  c #744324",
",  c #784726",
"<  c #7A4A27",
"1  c #75442B",
"2  c #79462C",
"3  c #77492C",
"4  c #7C4A2C",
"5  c #754531",
"6  c #7A4632",
"7  c #794737",
"8  c #7D4C33",
"9  c #7D4D39",
"0  c #7E5034",
"q  c #7E5139",
"w  c #3D3860",
"e  c #7A2E52",
"r  c #483D67",
"t  c #6A3A62",
"y  c #114C49",
"u  c #1F554D",
"i  c #1A5B58",
"p  c #334B4D",
"a  c #235B43",
"s  c #265948",
"d  c #245B59",
"f  c #1C6653",
"g  c #296745",
"h  c #396A46",
"j  c #3B7C42",
"k  c #38794B",
"l  c #266759",
"z  c #3C6B59",
"x  c #3C7B56",
"c  c #0E4E6D",
"v  c #195567",
"b  c #195571",
"n  c #30456D",
"m  c #1B6363",
"M  c #1F6775",
"N  c #2E736B",
"B  c #276975",
"V  c #725551",
"C  c #4F6A4E",
"Z  c #417B49",
"A  c #4A7858",
"S  c #59576D",
"D  c #6A5B68",
"F  c #6B4D72",
"G  c #4F7A67",
"H  c #76676C",
"J  c #A91F36",
"K  c #9F233D",
"L  c #BA2A37",
"P  c #814E2D",
"I  c #83512E",
"U  c #8A532D",
"Y  c #814E33",
"T  c #814E39",
"R  c #845334",
"E  c #895635",
"W  c #865837",
"Q  c #8A5935",
"!  c #85533A",
"~  c #89563B",
"^  c #87583C",
"/  c #8C5B3C",
"(  c #915D36",
")  c #915E3D",
"_  c #8F613F",
"`  c #946338",
"'  c #94633D",
"]  c #99663D",
"[  c #993749",
"{  c #873250",
"}  c #A93E46",
"|  c #C83843",
" . c #E73A44",
".. c #855443",
"X. c #895641",
"o. c #8D5B42",
"O. c #8D5649",
"+. c #8B5B48",
"@. c #915E43",
"#. c #925F49",
"$. c #A84147",
"%. c #A5495E",
"&. c #8F6046",
"*. c #946343",
"=. c #996645",
"-. c #9B6A44",
";. c #956449",
":. c #99664B",
">. c #97684C",
",. c #9D6B4B",
"<. c #9F714D",
"1. c #816755",
"2. c #976651",
"3. c #9D6C52",
"4. c #927155",
"5. c #A16C46",
"6. c #A16E4C",
"7. c #A37146",
"8. c #A4724C",
"9. c #A87549",
"0. c #A9744E",
"q. c #AB794F",
"w. c #B07D4E",
"e. c #A26E52",
"r. c #A26E5A",
"t. c #A57353",
"y. c #A97554",
"u. c #A57851",
"i. c #AC7A55",
"p. c #A6745A",
"a. c #A9775A",
"s. c #A7795A",
"d. c #AC7B5B",
"f. c #B17C56",
"g. c #B17D5C",
"h. c #904D69",
"j. c #A55675",
"k. c #AD7B61",
"l. c #B17E62",
"z. c #D04855",
"x. c #39873B",
"c. c #369535",
"v. c #429B3F",
"b. c #368444",
"n. c #3C8444",
"m. c #3C8A45",
"M. c #3D864B",
"N. c #3D894A",
"B. c #3B8552",
"V. c #3C8956",
"C. c #3A8367",
"Z. c #428C46",
"A. c #46844A",
"S. c #42864C",
"D. c #428A4B",
"F. c #469646",
"G. c #438553",
"H. c #468855",
"J. c #568D53",
"K. c #4A9657",
"L. c #529958",
"P. c #55AB4B",
"I. c #4EA55B",
"U. c #58A757",
"Y. c #5DB554",
"T. c #67AA5A",
"R. c #67BF5E",
"E. c #448968",
"W. c #599966",
"Q. c #4E9170",
"!. c #628F68",
"~. c #639874",
"^. c #58A867",
"/. c #58AF77",
"(. c #64A068",
"). c #65B865",
"_. c #71BD65",
"`. c #67A577",
"'. c #67BB77",
"]. c #73C779",
"[. c #AF8054",
"{. c #B38356",
"}. c #B3825C",
"|. c #BA875D",
" X c #AF836C",
".X c #B48363",
"XX c #B88665",
"oX c #BA8965",
"OX c #B58369",
"+X c #B9856B",
"@X c #BC8A6B",
"#X c #B98872",
"$X c #C28F67",
"%X c #C2926C",
"&X c #C8976E",
"*X c #C18E71",
"=X c #C49272",
"-X c #C89778",
";X c #387E88",
":X c #548E90",
">X c #63998E",
",X c #53A098",
"<X c #6AAE87",
"1X c #78B985",
"2X c #74C193",
"3X c #89968F",
"4X c #86B98D",
"5X c #ABB2B1",
"6X c #C59581",
"7X c #8FC696",
"8X c #9CDD95",
"9X c #A2CB9F",
"0X c #B6D6B5",
"qX c #B1D6C2",
"wX c #CFDDD9",
"eX c #F4FFEC",
"rX c #EDFDF4",
"tX c #E6FBF8",
"yX c #F7FDF8",
/* pixels */
"7 ;.t.` ` ' R >.s.0 @.+Xr.E ) 0.<.s./ ^ r.#.T 2.y.R 6.P 8 k.&.9 s.@X,.+ y.}.8.i.$ 2.p.2 =.e.E -.8.< :.p.! / .Xy.&.q }.d..X*.9 r.=.",
"6 8 ;.t.Q > _ oXd./ ~ @.@.:.y.y.=./ 4 4 ! 6 8 X.8.,.Q P <.=Xs.0 4 *.:.R i.t.Q _ ! $ 4 P , ) d./ > ! d.oXp.W / ,.&.Y a.=./ W Y ~ ! ",
",.2 1 ;.! 4 ,.q.f.-./ Y $ % @.g.2 0 Q ' E +.*.1 3 >.1 ) d.,.t.,.2 > W / s.*., > / ) / 6.R $ :.~ 1 p.d.8.i.Q # T ^ ^ d./ > E X.! Q ",
"|.,.1 6 ! ;.[.` ( y.i.*.Y P Y Y 2 t.XX}.i.XXXXo.> 9 > ,.i.R -.}.p.q 3 1 0 q / d.0.|.g.g.f.Y 8 Y T d.-.I i.}.X.! 1 T @.Y ) .X.Xd.l.",
"q.@X;.6 9 o.t.8.6.f.5.I ( d.3.1 ! d.}.8.u.{..Xs.;.3 3 ,.t.t.i.t.&.q >.s.W 6 o.#X$X5.0.y.d.a.+.> X.3.,.=.{.d.;.9 3.<.R > t.XXi.d.0.",
"7.}.,.R X.R R =.XX] P U 6.|.l.p.6 ^ Q *.0.=.,.XX;.9 o.E R p.t.R I E d.-Xs.@.3 / 5.] 0.5.l.k.W o./ E ,.s.-.R W *.oX=X*.8 ~ *.W 8.0.",
"s./ _ ' t.>.3 6 ~ , ' oX}.8.0.y.9 6 / {.{.8.6.3.W =.u.Q > R R ! i.<.,.d.t.,.4 8 E w.g.5.y.) E d./ , 4 X.W R e.{.-.}.t.*.> ^ 8..X9.",
">.> ] [.{.XX+.9 $ @.}.q.( 9.oX5.2.^ ,.[.-.<.6.O =..XXXt.) > > 2.i.8.-.p.6.a.E Q $X5.5.y.P , .X}.@X<.8 1 ! p.d.-.7.8.<.t.3 <..X*.0.",
"R *.}.{.-.u..X>.Y / d.,.*.t.X.1 4 0 >.;.s.;./ :.XX5.9.p.l.) ) / q.=.,.p...% ! 1 -.,.XX! X.a.d.-.0.f.y.o.T e.g.) <.*.1 1 9 ! 3.,.y.",
"2 3.i.<.8._ 3 ! T 2 @.E , 1 2 ..t.W q R q R ~ }.-.y.6.R R P 2 Y Q < + 1 1 ;.k.+.I > 6 ^ o.p.i.t.) E ~ ! Y ~ E @ ; 2 X.3.3.! ! Y ! ",
"4 W <.8.I 3 / =./ / 6.@.E ;.#.#..Xs.t.t.3 8 2 =.i.=., P ) ) Q e.i.&.^ ,.;.;.d.p.p.*.1 Q R 3.t.=.@ P o.! ~ e.k.O.,.*.R 3.+XXXe.4 4 ",
"=.R / / < ] @XXX6.:.e.g.XX+Xe.8 _ <.#X XX.>./ I ) 4 4 .X@XXX=.*.s.}.OX@X*.R ,.s.oXp.E *.W I R > ) g.$Xy.@.e.l.l..X.X*.W o.p.XXt.T ",
".Xd.W > *..X.X.X}.Q E d..X*.4 1 3 4 =.W @.d.XX6.P Y :.$Xt..Xt.4 Q k.s.E + < *.4 ' E *..X.XR Q 2 |.g.l.XXe.Y @.l.t.' : > / *.*., q.",
"i.}.p.o.Q ,.<.=.{.*.R / ! 4 *.,.}.W R > >.d.XXy..XQ Q :./ t.d.-.^ *.R I *.8.<.3 # W d.d.XXd.d.! =.=.=.y.y.) ! :.3 / ,.}.-., 3 / d.",
"' *..Xs.> < 8.=.8.i.*.1 3 >.%X}.&Xs.=.W *.8.=.=.l.R 2 @..Xu.4.u.9 3 > 0.&X@X|.}.8 o.8.Q _ d.t.4 T 6.y.=.6.6.~ 1 >.t.s.oX}.<.=./ 0.",
"` -.*.Q R 0 *.{.5.0.Q Y / t.XX=.=.d.<.Q 3 ;.R 6.~ @.Y $ t.,.*.[.3 o.;.0.u.=.8.u.k.6 4 =._ -.q +.> :.6.0.y.:.T W >..X{.7.-.8.8.3 R ",
": : 1 R ) 8 1 q R ,.4 2 / ! =.a.-.g.d.,.*.9 : 5 , R >.5 3 y I.Y.m.V.B.l c 6.6.y.e.a.@.# % Y 2 Y 4 T 6 6 p.q ; R 9 ;.-.8.i.*..X&.0 ",
"4.>.=.8.l.y.W 1 4 *.&.;.*.> 3 t..X' I 8 ! o.3.2.,.d.}.c C.Q.'.c.b.b.H.E.B XXg./ P ~ 8 :.a.@.e.$Xl.o.4 3 ! / <.u.! > *.t.<.=.0 o._ ",
"t.d.d.y.i.y.*.q t.d..XXXXX,.4 / :.1 E ,.o.o.s.k.q.i.4.;X,X].I.x.`.W.j V.B =.^ 2 E 6.R ,.l.e..Xy.}.=.*.p.d.@XoX[.{.W R *.R / < ,.q ",
"R 8.y.] -.6.*.E t.p.d.<.s.d.R , 1 > ;.OXp.W / ,.<.' *.N ].P.c.x.`.W.n.M.C.: 1 X.0.$X=.E @.6.y.( =.,.2 ! 8.XX-.<.t.=.3 ! 6 Q i.oX' ",
"> ) 6.8.f.g.*., 1 E t.=.*.*.E *.;./ T :.l.@., @.{.-.oXQ.].F.v.Z.n.n.D.V.V.N c ! / ] u.0 R -.6.g.d.i.8 P / t.=.q.' Q &.;.;.W ,.-.<.",
"1 ' t.s.y.=.E ! W E ,.d.,./ / .X Xt.2 P a.;.Y p.-.W l 2X).Z.A.D.D.D.N.N.M.E.b *.K _ }.W Y f.5.9.=.P E +.2 / 7.-.<.3 XXk.p.&., *.<.",
"4 +.<.<./ , R s.s.o.W t.t.E ;.s.<.<.R Y ;.^ Y e.s.,.g 1XL.= G.G.Z.m.m.D.j z B g.T o.3.3 4 d.=.U ;.q 3.k.o.Q d.i.*.> }.d.,.,.4 p._ ",
"3 q o.<.*.8 o.#Xl.;.4 o.o.! t.p.Q E P 4 8 6 5 5 o.4.x '.`.= * h D.A.A.A & A :XU 6 5 5 q Y R =.y.> ^ k.OXk.3 3 _ X.;.8.7.< I 1 4 K ",
"}.4 > ^ 8 / i.8.=.s.>.4 1 ! ;.p.3 3 ;.<.) p.g.# 9 8 <XU.0XrX& & Z A G & 3XtX:X2 ,.t.8.6.=.4 $ .., 8.<.] i.t.0 9 T / 3.X.# / t.,.6.",
"{.p.o.2 T 3.,./ *.t.t.;./ 8 # > &.u.#X@Xg.}.@Xi.q 6 ^.8XyXyXyX5X. Z . C yXtX>X-XoXd.t.i.oX3.8 T _ s.=.Q 8.d.*.Q / 1 # q k.#X.Xd.g.",
"8.%Xt.1 8 @.@.3.s.d.,.> E .XXXR 0 8.}.p.0.6.8.}.&.^ /.8XeXyXo H 7Xh !.yX5X  z s s d d 5.f.y.Q $ 4 *.s.{.{.<./ 3 t.@X,.> >.XXd.=.0.",
"-.i.,.Q @.W 6 ;.s.E R =.t.{.[.-., 0 / ] y.y.8.}.W *./.8XeXyXX H 0X= !.eX3X  C g s s d 0.8.=.;.*.o.8 / =.&.E ' -.0.oX{.^ , 3 _ d.0.",
"-.Q Q <.d.t.T # 1 4 ,.XXi.<.0.u.&.3 *.i.i.i.*./ _ u.'.T.0XyXwX5XK.A.!.rXtXwXQ.& s p a g.=.I =.oXk.! # $ 1 *.f.d.7.7.u.*.4 W s..X6.",
"' W *.t.s.OXp.! + ,.}.,./ s.g.,.&.3 >.s.8.-.m ,X;Xf _.v.9XyXeXwX- N.A 4XtXqXA a A G s ) R ) 8.0..Xp.;.8 Y a.XX*.s.u.,.W 3 -.oX,.f.",
"E *.i.p.=.8.s.t./ / _ *.:.W 1 1 ^ 7 &.&.*.,./.'.C.b.].Y.(.1X'.(.b.m.j J.4XE.x a l z u ! R s.oX=.t.g.p.^ 9 ;.e.o.*.4 > ^ / R / =.5.",
"8 >.s.y.,.R 1 2 E / 0 2 R 8 7 X. Xr.&.: 0 W /.c.m.N.Y.P.= x.Z Z m.m.j v.- B.B.= s s d X.;.3.i.8.I 1 2 ! o.X.8 1 # X.X.2. X8.4 ; Y ",
"I Q p.+.8 8 t.7./ *.XX8.] XX8.! 8.0.d.OXX.+.>X~.N.Z.R._.4X!.A.Z.N.N.S.G.m.H.k u * d b Y 8 e.a.T T / s./ Q @XXX=.|.] ` *.8..XXX-.7 ",
"-.Q 2 6 W d.%XoXp.E ' d.XX}.;.4 I -.s.:.o.4.Q.<Xk Z.P.].7XJ.S.m.m.D.D.D.M.j g * s d b d.r.2 2 # ,..X*XXX' R ,.{.oX,.! 8 @.d.y.Y Q ",
"oX}.=.*.! s.d.u.XX*.R 8.,.P P P U I ! 4 p.s.m C.W.D.F.U.- W.H.N.m.m.m.m.W.W.g u ;.2 a.+X.X:.:.~ ,.}.p..Xp.R ,.k.! X.~ T T ~ ! ~ g.",
",.{.d.e.4 Q *.8.,.t.R R 4 R p.p.XX,.8 3 p.p.M N 7X^.F.U.b.1XK.M.m.m.Z.x.`.`.g i 2 8 l.p.r..Xd.Y _ 0.=.6.t./ ! 8 9 :.k.l.p.R 6 :.y.",
"*.,.t.W R R ,.d.,.d.~ 1 ^ g.=Xp.g.@X:.Y W 3.*.v <XW.Z.T.N.M.N.M.m.m.D.M.S.x l b / 6 ;.r.@.k.@.P < =.d.p.p.,.8 ! t..X}.|.XX6.P R 5.",
"R ^ _ 2 E 4 / ;.e.t.E > W :.e.6.=.d.e.3.T W 4 &.B Q.n.L.U.b.M.D.M.m.S.G.B.l b c a.@.8 Q Y @.E O.< , ,.3.,.;.4 / =.t.5.] 5.f.5.E Y ",
"% 6 0 Q =.~ 2 Y R ! ^ ! ! 8 Y g.{.5.:.e.^ 1 3 R M C.M.I.I.m.Z.A.m.S.S.x d v y.6.e.e.Y 2 2 P ~ #.>.3 > 8 W ! 2 < T Q =.5.6.e.p.3.! ",
"#Xk.*..X=XOXT 7 R / k.OXa.R $ 6.w.U R 1 ^ >. X>.<.i C.B.^.F.m.A.m.D.G.x v 6.6.) 2 Y ~ e.#X#.a.=X+X>.1 ! ;.e.%Xd...1 @.g.e.T 6 7 E ",
",.a.d.) 5.g.E / f.g.g.f.f.y.@.2 X.$ &..X;.0 <.d.5.c m C.^.L.x.A.M.S.G.d v X.! 5 *.}.Q Q 0.f.y.) 8.E ~ t.l.i.q.q.l.;.6 8 Y 4 =.i.! ",
", Y g.f.9.g.,.1 ) 6.0.0.y.0.O.$ Y P _ XX.X_ 4 ` y.5.8.i K.W.4XH.m.B.g i $ ! X.X.*.+Xe.I ~ 5.g.e.g.y.~ P a.}.8.5.a.*.8 3 Y ' t.oX*.",
"4 Y y.y.6.y.=.$ U ~ =.6.) Y ~ r.q.] @ < u.' < <.5.5.w.c Q.Q.L.A.N.H.f v =.y.:.P $ 2.s.! Y 6.g.5.e.,.2 + R =.=.=./ R t.t.;.Q < =.i.",
"P ,.t.=.=.) Y =.~ Y :.*Xf.P E $Xg.8.< R s.;.T t.5.5.6.U B E.k H.j = d v 6.XX}.5.Y @.k.) ~ y.e.) :.4 @.e.P Y p.f.] 0 d.oXs.+.4 s.=.",
"+ o.6.e.;.4 U l.a.~ ! e.t./ ) g.,.*.@.+.^ 6 7 O.0.] E @ y C A C C & p n -.y.6.=.T 7 ^ Y 4 :.5.e.R 4 y.*X*.P ,.p.*.E i.p.,.;.2 @.~ ",
") 2 P #.~ Y e.p.d.e.Y % % ! e.a.! 6 T 9 6 ....9 @.~ I R F 1.>.1.+.V D S t.,.4 > R Y Y E P Y ! e.> =.y.0.p./ 4 Y , ' d./ < W 2 2 Y ",
"$X@.$ Y T @.d.@.( a.p.^ 2 X.;./ > / <.p..XXXt.P 6 ! ! ,.h.$.} } } $.%.t ^ o.T ;.f.XXy..Xp.T 2 T I y.8.] i.i.~ 2 4 *.*.3 2 >.l.l.i.",
"l.l.~ 6 O.@.6.6.5.f.y.#.! X.! 3 _ oX%X7.7.{.{.}.7 ~ 1 =.[ L L } L J [ e Y T +.6X6.|.6.g.*X@.X.T / ] =.] -.i.e.! +.R > Q {.XXXX3.0.",
"f.f.e.T 6 o.>.*.XX<.( ; ( &X|.Q % @..X] 9.7.f.g.X.P T @.S j.z. .z.[ S =Xy.T ! 3.0.5.y.g.g.y.P R Q Q ,..Xt.Q Q W oXoX2.T 8 d.0.] 0.",
"( e.@.@.t.W + *.+.8 ) 8.i.}.y.i.O.O E 8.|.0.y.g.~ 5.=.$ r h.z. .| { r d.y.:.Y 6 ( 6.f.6.@.0.] =./ 2 3 =.' 4 *.d.9.i.p.#.% ! ' f.0.",
"y./ U e.@Xs.q # 8 Y t.d.y.y.t.d.@.T y.y.7.0.@.$ ) f.$Xe.w h.z.| J { r p.XX,.9 ! g.f.y.y.( E ( %X.X*.; + R p..X8.=..X}.;.T :.y.y.y.",
"~ ! 6.i.t..X.X2.8 o..Xg.6.p.;.^ Y Y :.0.y.5./ @.g.e.5.l.n F { { { t n ,.*.R 2 ! :.l.y.@.P 6.8.i.}.oXp.I 2 t.d.*.0.u./ 2 8 ,.i.6.t.",
"% a.}.-.-.,.o.:.X.Y @.~ 4 Y 2 T / @.4 2 ,.*.! OXf.6.Q ) ,.X.6 ! U I Q 4 # Q ,.W K / E E R |.g.=./ &.=./ 0 W E 4 U $ @ @.:., P R *.",
"o.2.p.,./ R R 1 X.~ =.P , @.@.O.y.*X6.U ! 8 # 3.-.5./ I 4 8 ^ >.-.< Q ;.R 2.@Xt.<.Q $ / ) 6.a.:.< , 4 3 Q ,.*.< Y R / l.*X:.@.Y 8 ",
"! 1 ;.e.4 / .X{.) :.XX.Xg.*Xe.T y.e.g.l.@.! 8 3.e.R 4 =.d.i.,.=.%X6.s.OX;.W =.t.+Xy.R ' 4 @.2.P E t.XXt./ 8..X.X+Xl.) E y.l.-X:.8 ",
"XX6.8 $ ^ d.oX{.g.R / 6.y.e.T Y P @.f.:.$ #X#X6 4 1 *.@X=XoX<.0 ] p..Xp.! 1 W ,.a.E P =X:.6 P 2 s.i.@XXX*.W ' s.d.2.$ $ :.@.y.T :.",
"g.l.p./ @.y.f.5.f.5.4 ;.p.8 0 / *.W # 1 ,.d.i.{.6.~ =.f.6.0.w.] E t._ 3 4 *.<.> % R f.l.f.f.5., g.9.5.q.8.) ) r.T X.^ / / > 1 ;.{.",
"=.y.y.;.Y R =.6.5.f.Q 1 9 &..XXXoXt.E E ,.y.<.-.y.E P @.5.y.0.] 3 0 0 ,..X@XXX8.~ / 6.6.5.f.y.O.P ) 6.y.y.@.4 Y 7 e.XX@X.X=.E ;.y.",
"@.6.p.;.Y Y :..X=.g.@.> ! y.XXt.f.0.,.) R W >.t.6.T $ ~ e.f.y.y.q 0 ^ .X$Xy.y.y.#.~ ~ / @.y.#.P P =.t.t.t.:.T T e.l..Xi.s.<.Q 8 / ",
"P 2 3 8 R T ! o.e.:.Y 1 W *.,.t.5.6.g.e.R 3 8 3 , Y T T ! ~ / =.0 3 q >.6.:.6.f.l.:.~ 2 P Y T T 2 R / @.;.@.Y 8 =.=.=.=.t.d.t.*.T ",
"^ T ^ :.e.:.9 O > > Y / ~ > > ,.g.6.=.) Y ~ #...) t.a.o.2 1 Y / ;.W q 3 / g.g.6.@.~ / X.T Y @.l.:.Y # % ^ ^ / :.; 4 =.s.t.*./ _ ^ ",
"l.d.l.XXXXd.;.T :.t.+X$X.X6.E *.:.R P Y Q :.k.l.0.|.l.6.^ o.6.d..X}.d.E Y e.@.4 P R @.e.l.l.p.g.#X:.2 ~ p.y.d.+X=.R / >.Q 3 4 Q X.",
"@.6.y.=.=.5.*.E .Xl.g.=.6.t.q 8 5 9 #.g.y.) E e.9.] 6.e./ / p.}.s.i.XX*.0 ^ 8 8 g.g.:.R e.l.y.] t.:.@.e.@XXX0.-.oX/ 4 T q / t..XQ ",
"$ @.y.7.q.f.6.Y R *.g.8.y.p.q q ....^ p.y.E P e.w.] y.l.) < _ ,.q.] 8.*.R q 3 ..U g.p., ! a.q.5.g.e.Y 2 ) y.0.7.8.Q W X.8 ! ,.s.6.",
"Y O.f.5.9.5.T Y T T ) @.5.Q R l.XX@.7 P d.=.Y e.9.9.5.#.Y T Y T @.5.6.P :.l.y./ 7 @.y./ R 6.y.9.6./ Y 9 8 / =.=.;.4 y..Xs.1 4 8.0."
};
