/* XPM */
static char *_0459_3b37606a4b502228a511503f4e0f801dc729aa0252b1002ae4fc859a74b734b2[] = {
/* columns rows colors chars-per-pixel */
"65 65 200 2 ",
"   c #010304",
".  c #0F0000",
"X  c #050906",
"o  c #030509",
"O  c #0D0709",
"+  c #05090A",
"@  c #0A0C0E",
"#  c #130000",
"$  c #15090B",
"%  c #1D0B0D",
"&  c #08100A",
"*  c #0D0F10",
"=  c #1D0C11",
"-  c #061510",
";  c #0D1313",
":  c #0F1418",
">  c #121515",
",  c #1B1414",
"<  c #131915",
"1  c #191915",
"2  c #121619",
"3  c #19131F",
"4  c #151A1A",
"5  c #1A1C1C",
"6  c #240A0A",
"7  c #2B1009",
"8  c #30130F",
"9  c #270E11",
"0  c #221010",
"q  c #2D1719",
"w  c #241D1C",
"e  c #17201F",
"r  c #1D201F",
"t  c #1A1F22",
"y  c #281F24",
"u  c #1D2224",
"i  c #1D2820",
"p  c #1E2628",
"a  c #1E2A2A",
"s  c #222325",
"d  c #2B2727",
"f  c #22262A",
"g  c #252A2C",
"h  c #2A2C2D",
"j  c #3B2124",
"k  c #2E302F",
"l  c #272F31",
"z  c #2A2F31",
"x  c #2D3234",
"c  c #2F3739",
"v  c #2E3839",
"b  c #313536",
"n  c #333A36",
"m  c #313639",
"M  c #34393C",
"N  c #3A3C3D",
"B  c #4A1818",
"V  c #531E1D",
"C  c #650F00",
"Z  c #6F150D",
"A  c #7D1608",
"S  c #641E13",
"D  c #671B1B",
"F  c #731D17",
"G  c #57241F",
"H  c #67351C",
"J  c #6D3C1D",
"K  c #713E1D",
"L  c #4E1D21",
"P  c #541D22",
"I  c #4E2020",
"U  c #6D2322",
"Y  c #762220",
"T  c #6E3C23",
"R  c #6F3F28",
"E  c #713E24",
"W  c #713E2A",
"Q  c #73421B",
"!  c #6F4127",
"~  c #6E4129",
"^  c #744324",
"/  c #784726",
"(  c #7A4A27",
")  c #75442B",
"_  c #79462B",
"`  c #77492C",
"'  c #7C4A2C",
"]  c #754531",
"[  c #7A4632",
"{  c #764830",
"}  c #7D4C32",
"|  c #7A463A",
" . c #7D4C39",
".. c #7E5034",
"X. c #7E5139",
"o. c #333A40",
"O. c #3A3E41",
"+. c #9F1C18",
"@. c #A71B1A",
"#. c #972827",
"$. c #9A2D27",
"%. c #9C2B2B",
"&. c #9A3428",
"*. c #963436",
"=. c #9B3532",
"-. c #A22720",
";. c #A22925",
":. c #814E2D",
">. c #83512E",
",. c #8A532D",
"<. c #814E33",
"1. c #814E39",
"2. c #845334",
"3. c #895635",
"4. c #865837",
"5. c #8A5935",
"6. c #85533A",
"7. c #89563B",
"8. c #87583C",
"9. c #8C5B3C",
"0. c #915D36",
"q. c #915E3D",
"w. c #8F613F",
"e. c #906137",
"r. c #94633D",
"t. c #99653D",
"y. c #9D683C",
"u. c #865443",
"i. c #895741",
"p. c #835941",
"a. c #8D5B42",
"s. c #8F5C4B",
"d. c #915E43",
"f. c #915D4B",
"g. c #945E52",
"h. c #8E6145",
"j. c #8F614A",
"k. c #946344",
"l. c #996645",
"z. c #976A43",
"x. c #9C6A44",
"c. c #956449",
"v. c #99664B",
"b. c #97684C",
"n. c #9D6B4B",
"m. c #9E714D",
"M. c #966651",
"N. c #9A6751",
"B. c #9D6C52",
"V. c #9F7251",
"C. c #9E7258",
"Z. c #A16D46",
"A. c #A16E4C",
"S. c #A37146",
"D. c #A87446",
"F. c #A4724C",
"G. c #A9744E",
"H. c #A7784D",
"J. c #AC794F",
"K. c #B07D4E",
"L. c #A26E53",
"P. c #A16D5B",
"I. c #A47353",
"U. c #A97554",
"Y. c #A57851",
"T. c #AC7A55",
"R. c #A6745A",
"E. c #A9765A",
"W. c #A7795B",
"Q. c #AC7B5B",
"!. c #B17C56",
"~. c #B17D5C",
"^. c #A37462",
"/. c #AD7B61",
"(. c #B27E62",
"). c #AE8059",
"_. c #B38356",
"`. c #B3825C",
"'. c #BA865C",
"]. c #B8895F",
"[. c #AF8263",
"{. c #AF8169",
"}. c #B48363",
"|. c #B88665",
" X c #BA8965",
".X c #B5836A",
"XX c #B8866B",
"oX c #B7896D",
"OX c #BC8A6B",
"+X c #B98672",
"@X c #B68870",
"#X c #BB8B73",
"$X c #C28F67",
"%X c #C2926B",
"&X c #C8976E",
"*X c #C18E71",
"=X c #C49272",
"-X c #C89674",
";X c #CD9B7D",
":X c #C59581",
/* pixels */
"| c.I.e.e.r.2.v.W.} d.+XR.,.d.G.n.W.a.7.P.d. .N.I.2.A.:._ /.j...W.OXn.J U.`.F.Y.T N.R.' d.I.3.n.F.' l.W.2.9.}.E.j...`.Q.}.k.} P.Z.",
"[ } c.I.5./ e.OX).9.7.d.d.v.U.U.l.w.' ' 2.} } i.F.n.5.<.I.*XW...' c.b.2.T.I.5.r.3.E ' <./ q.Q.9.^ 2.Q.XXY.5.9.v.j.<.W.k.9.7.<.7.1.",
"n._ _ c.6.' A.H.!.n.9.:.E _ d.~.( ' 8.9.6.d.d.) _ b.' 9.!.A.I.b._ ) 2.9.W.c./ / 9.q.9.Z.3.E l.7.) I.Q.F.Q.5.T 1.7.7.Q.9.^ 3.a.6.0.",
"].n.) [ 6.c.).e.0.U.T.d.<._ <.<._ Y.OX`.W.OXOX9.^ 1.E A.U.2.n.`.W.} ) ` ..2.i.W.I.'.~.|.Q.<.' <.2.Q.l.>.Q.`.i.2.) 1.c.} 9.}.}.Q.(.",
"H.OXc.[  .a.Y.F.A.!.Z.:.0.~.L.) 2.Q.}.F.H.`.}.Q.j.{ _ b.I.Y.T.I.h.X.c.R.6._ a.#X$XZ.D.U.Q.E.a.) a.B.n.x._.Q.k. .n.B.2.^ I.OXT.Q.U.",
"S.].b.4.a.2.2.b.|.t.:.3.A.~.}.I.[ 7.5.t.F.z.b..Xz...9.3.2.E.I.3.:.4.Q.;XQ.d.` 9.Z.t.G.l.~.(.6.a.i.2.b.E.l.2.9.w.OX=Xz.} 9.q.4.F.G.",
"I.9.w.t.I.b._ _ 3./ r.|.'.F.I.U.1.} 9.)._.F.L.n.6.z.I.7./ 2.2.2.Q.F.m.Q.F.B.' } ,.!.!.Z.U.q.3.Q.9.^ } 9.6.2.I.`.x.`.I.k.^ 4.m.`.D.",
"b.^ t.T._.}.f.| E d.].H.5.D. XZ.M.6.n._.x.F.n.J l.}.|.Y.d.E ) b.H.F.x.I.A.W.3.3.$XA.Z.T.:./ }.`.%Xn.2.W 6.W.Q.x.x.F.F.R.) V.}.k.G.",
"2.k.`.'.x.Y.}.c.<.i.Q.n.k.I.i.W _ ' b.j.^.b.9.v.'.Z.G.I.(.q.q.9.Y.z.b.R.6.) 2.) n.n.}.7.i.W.Q.b.G.E.U.a.1.L.~.d.F.k.) ) } 6.N.L.U.",
"_ m.T.x.F.w.' 6.<.' d.3./ _ ) i.I.9.4.2.2.2.3.~.x.U.A.2.3.:.' <.0.' J ) ) j./.s.' ^ } 6.a.W.E.F.q.,.7.1.<.3.3.E Q ' 7.C.B.6.2.>.1.",
"' 4.F.m.>.' 9.b.9.9.A.d.3.c.c.f.}.W.R.C.{ } _ b.Q.l./ :.5.a.5.L.T.k.9.b.c.c./.I.Y.k._ 9.2.B.Y.l.K ,.q.7.7.L.E.d.n.k.6.B.oX.XI.' ' ",
"c.2.9.9.( k.OX}.A.v.L.~.|.XXL.} 9.I.oX[.9.c.9.>.q.' ' (.*X|.l.d.W.~..XOXc.2.n.W.OXT.2.c.3.' 3.^ q.~.*XU.d.L.(.(.}.`.k.6.d.W.}.I.1.",
"}.Q.6.^ k.}.}.`.`.5.3.Q.(.k.' ) ' ' z.4.d.Q.}.A.2.' l.*XI.}.I.:.9.Q.W.5.J _ k.' 9.3.k.}.}.2.9._ '.~.(.|.L.2.a.(.I.k.Q ^ 9.l.k.( !.",
"T.`.Y.h.9.n.F.z.`.l.>.9.6.' k.n.`.3.2.^ b.Q.|.U.(.9.3.n.q.L.Q.l.6.k.>.>.r.F.F.' T 9.`.Q.}.T.Q.2.l.l.n.U.I.d.7.v.` 9.n.`.l.^ _ 9.!.",
"r.k.}.E.^ ( F.x.F.T.k._ ) b.=X`.=XW.z.4.z.B.k.Z.(.6./ d.}.Y.A.Y. .) ^ U.&X$X|.Q.} a.I.5.9.Q.I.} <.L.I.l.A.A.6.) b.Y.T. X].n.k.9.G.",
"e.z.k.9.2...r.Q.S.F.3.<.9.I. Xz.z.Q.V.5.' k.3.A.6.d.<.K U.b.t.T.} a.k.Y.Y.x.m.Y.R.} _ z.r.n.X.a.E l.G.A.I.l.6.2.v..XQ.m.x.H.m.' 1.",
"! ^ ) 2.9.<.) X.2.v._ _ 9.6.c.E.x.!.Q.n.k. .~ ] ( 3.c._ ] k.6.9.] T 2.3.U.A.A.H.R.E.d.T W <.' <.} 2.} [ R.2.J 4.} c.n.F.T.t.[.f.:.",
"B.b.l.G.(.U.6.) _ c.k.b.c.^ _ I.}.k.:.2.2.a.B.N.x.Q.[.c.] E 3.9.R.R.d.J ' }.~.9.:.5.[ v.E.a.L.$X}.7.[ ] 6.8.V.T.2.^ k.I.m.z.2.9.q.",
"C.`.W.I.T.I.k...I.Q.}.}.}.b.:.9.v.` 2.b.a.d.W./.H.Q.I./.c.9.XX}.Q.|.U.A.2.n.q.*.,.L.2.n.(.L.}.U.`.l.k.I.Q.OX X).Q.4.3.c.4.8._ n.1.",
"2.m.U.y.Z.F.k.3.Y.I.}.n.T.Q.2.( ) ^ c..XE.7.7.n.F.t.k.L.7.2.I.I.U.G.U.E.:.E W 7.A.$Xl.3.d.A.U.0.l.n.' 6.F.|.x.F.Y.l.) 2._ 9.T.|.d.",
"^ q.A.F.!.!.c.^ ( 3.I.z.r.c.2.k.b.8.2.v.Q.d./ d.`.n. XW.' _ 9.x.Z.Z.Z.<.q.d.g.6.0.Z.P.,.>.n.A.~.Q.W.' } 9.F.y.H.t.5.h.c.c.6.n.S.G.",
"_ k.I.T.U.l.3.3.6.3.n.Q.n.9.q.}.[.R.` ' W.v.<.U.x.  2 o _ 9.:.2.A.  *   E.(.(.d.:.i.(.1.<.~.Z.D.l.:.4.s.' 9.F.z.n._ OX/.E.a.^ k.G.",
"_ a.m.m.9.^ 2.^.W.9.4.I.L.3.c.Q.V.n.3.<.c.7.1.B.W.X y @ b..XI.' E.+ y @ L.L.L.!.1.d.L.[ <.U.x.>.c.2.B./.a.9.Q.).h.^ `.T.m.b.' I.d.",
"` X.a.n.z...h.@X.Xv._ a.a.2.I.W.9.5.:.' } [ ] ] 9.# 8 # B.OX|.2.E # 9 # U.U.,.,.[ [ W 1.<.2.t.U.^ 8./..X/.) ` 9.i.c.F.S.( >.) } W ",
"}.' ) 7.} a.T.F.l.W.b._ ) 2.c.^.` ' k.V.a.W.~.Q  .S F D V.l.A.T.u.S Y D N.h.X.) b.R.F.n.l.' W u./ m.m.t.T.Y.2.} 2.i.B.i.R 9.I.n.A.",
").Y.a._ 2.B.n.9.k.I.I.b.9.[ E T 8.  X   o + o . S &.-.&.V . O   C &.;.=.V # $   X   o    XB.<.<.w.T.x.5.F.T.c.6.a.) ! ..^.OX}.`.~.",
"F.%XY.) <.a.a.L.W.Q.l._ 3.|.].5.2.X r 5 3 2 5 7 F ;.@.%.V 9 w 2 A #.+.$.G 7 , 5 4 e u + `.U.9.T ' c.I.`.Q.m.9.' I.OXF.^ k.OXW.l.G.",
"x.Q.x.7.a.6.} c.W.3.>.l.Y.).T.x.) X 2 2 : : , 6 U =.;.*.I % 2 ; Z =.#.=.G 6 , > - - : o Z.x.k.k.a.} 9.b.r.5.r.x.F.|.Q.5.` _ r.Q.G.",
"x.5.5.A.Q.B.1.T _ _ n.|.T.A.H.Y.k.u g f f f f d L B B I q $ 4 - B L P V j d d f a a g u l.>.t.|./.6.E E _ k.Q.Q.F.F.Y.c.' 4.W.}.G.",
"r.5.c.I.Q..XW.6.g X o X         g m o.M o.o.M N w $ 0 % > 1 > : = = % % q N o.o.v M M O.f   X X     X    .E.}.l.Y.Y.n.4./ n. Xn.U.",
"2.c.T.Y.l.F.W.B.N * 1 4 4 4 4 4 b O.M c o.o.m n f , 1 4 < < > 4 2 , w 1 f M c M N m M M x 4 e < 4 1 5 * } c.L.9.k._ ^ 6.9.2.9.z.A.",
"} b.W.U.n.2.( _ N & > 2 : > > : y f f g a a i g >   o   & < > 3 X       - g f f f l u g u ; ; ; > ; > X a.i.<.) W 7.u.B.[.F.' Q <.",
">.9.I.a.<.' L.A.b f u f f f a u F.G.Q..X9.p.h.p.C.j.) p..XX 3 *  Xm.V.oXB.j.{.^..X.X2.<.} t f f p p g t 5. X|.l.'.y.r.t.F.`. Xx.| ",
"m.5._ _ 5   o   x m M M c M o.l >.z.Q.c.s.V.C.8...X.c.R.oX  5   m.[.[.C.8.} M.C.oXd.a./.L.l O.m M v N O.x   X   h n.6.' a./.U.<.0.",
"].`.v.c.b > 2 5 z m M m c m c g >.>.3.} W.W.}.).B.h.L.|.W.+ y + h./.b.4.4.9.h...c.' E.XX.Xf m b c m x x x : r ; N a.6.1.1.7.6.7.!.",
"x.Q.Q.A.z * 4 > b m m z m m c l |.A.} ) I.R.m.)..X6.2.l.c.  $ o } 8.) 4.T.).).r._ [ (.E.L.g O.m m c M o.h 1 ; * n n.E..XE.6.) N.I.",
"k.n.I.3.h > 2 > b m m m M b m z ~.OXc.1.6.C.k.x.I.3._ q.U.U.A.A.1.<.5.}.|.Y._.Y.9.[ c.L.c.f m b m x m m z 2 4 @ n }.`.|.|.A.:.2.Z.",
"2.9.w._ z @ 1 2 h m m m m m N z l.!.L.B.2.6.' w.7.9.:.<.A.R.A.A.1.[ 6.Q.T.w.F.F.E.d.} 9.' g M M N m m M z * > ; n H.Z.t.Z.!.x.3.<.",
"^ [ } 5.g > 2 4 x M m M m M O.z !.Z.n.L.7.) _ 6.:.d.d._ E [ 1.i.' <.^ :.l.F.T.D.L.L.<.) ' g O.m c c m m z 4 2 * N 5.l.Z.Z.I.W.N.6.",
"+X/.c.}.l * * 2 x m m m g f g t J.,.2._ 6.v..Xv.L.|.=XE.1.] g.P.E.;Xc.K 9.F.n.q._ 1.6.L.*X5 d d l m c m x ; 4 X M W d.~.L.<.| | 6.",
"N.W.Q.q.k r u u z o.m b Q.E.d.W i.E h.[.c...m.Q.A.F.v.N.d.d. X'.!.F.`.Q.) i.6.] c.`.5.3.G.!.U.q.A.z M M z p u 4 b v.' } <.:.l.T.6.",
"X     X x M M M m m b z U.I.9.W <.>.w.}.}.w.' r.T.Z.A.Q.c.:.l.I.Z.Z.T.l.E 2.i.i.k.|.I.>.3.A.~.L.~.z m m c N M N z o +   t d.H.|.k.",
"5 1 2 5 x m M m m m b b q.,.9.L.J.t.Q ( Y.r.( F.Z.Z.~.U.2.E _ k.x.z.A.5.l.U.l.2.W N.E.2.<.A.!.A.I.g o.m c m z M k 5 4 > x 6._ l.T.",
"2 1 > 2 c m x b m m m b !.:.,.*X`.F.( 2.W.c.2.I.Z.l.D.>.' l.7.2.}.U.z.Q A. X`.x.} d./.a.9.U.L.q.v.z m x M c M m z 4 4 * h k._ E.l.",
"> > 4 4 x m M m c m M z I.9.d.~.c.c.a.a.u.| | s.G.t.3.K r.=XI.:.c.n.b.' A.U.A.l.1.} 7.<.' v.Z.L.3.g N m x m M m x 2 2 ; k z._ d.7.",
"2 2 * 4 l M M m M m m z W 7.A.E.6.} 2.1.} 1.u.} d.7.>.2.G.}.L.k.^ ' 9.9.I.n.' E 3.<.<.3.:.<.1.L.E z m m m m m m x ; > ; d 4._ [ 2.",
"> > 2 2 c c M c M M O.z ' i.j.9.) 9.m.I.`.OXI.' ] 6.3.x.F.r.t.Q.k.' ^ <.7.a.<.c.U.|.T.}.E.1.) 1.<.g N O.M c m M x 4 > ; k b.}./.T.",
"> > 2 2 z M c c z g g g 2.u.6.) r. X$XF.m.)._.'.| i._ k.U.y.Z.T.W.a.1.d.<.6.s.:XF.`.A.~.*Xd.i.1.q.s l f l m c M x : 4 * h OX}.n.G.",
"> 2 : 2 x n n b |.A.5.Q e.&X].5.W s.~.t.D.G.U.(.q.:.<.a.v.U.Q.I.4.' I.%XW.<.7.N.G.Z.U.~.!.U.:.3.3.5.n.}.I.b x c x : 4 * g (.F.t.D.",
"< 2 : 4 x b b b d.} d.F.!.'.H.U.s.H 3.G.'.G.U.~.7.A.d.E J d.v.^ k.R.T.T.U.c.<.} 0.A.!.A.q.U.d.l.q./ _ l.r.x N M x : 2 > z 2.r._.G.",
": 4 4 4 M M m N } <.U.~.U.U.I.Q.a.<.U.!.Z.G.d.K 0.~.$XL.' T } M.W.).F.Y.|.B.} 6.~.!.!.U.0.3.q.$X}.r.Q J 2.h M n x 2 4 ; k n.I.T.U.",
"- @ X @ g h h l } i.(.Q.A.E.f.7.<.<.l.A.U.Z.9.d.~.G.A.(..X7.[ B.}.I.l.b.l.2.) 6.v.(.U.d.:.A.F.T.}..XY.2.' h z z f * + o s v.T.A.I.",
"W W.}.n.x.l.d.c.i.<.d.3.' <.) 1.a.d.:.:.l.c.1..X!.A.5.9.b.a.} 2.5.2.3.' T 9.n.3.*.q.3.3.3.(.`.l.9.r.k.9.>.4.4.' :./ E d.v./ :.3.c.",
"a.v.I.A.9.4.>.` i.7.l.<._ d.s.d.U.$XA.<.3.<.T B.A.x.9.2.' :.6.b.x.' 4.k.<.N.OXI.A.7.K 9.0.L.E.l._ ^ ' ' 5.A.c./ <.1.5.(.*Xv.d.:.} ",
"6.^ c.B._ 9.}.).9.v.|.}.(.*XL.1.I.I.~.(.d.u.} B.A.2.' l.Q.I.m.k.%XA.W..Xc.7.n.I.|.E.<.d.' d.A._ 4.I.OXI.9.F.`.`.XX(.q.5.E.(.-Xc.} ",
"|.L.} E 9.Q. X_.(.3.5.A.U.A.1.<.:.q.Q.v.E +X#X_ ' _ k. X=XOXV.2.k.Y..XR.2.) 3.n.E.5.:.*Xv.' [ [ W.Q.OX}.c.2.k.Q.E.A.E E l.d.E.1.c.",
"!.|.I.a.d.U.!.A.!.Z.' c.C.} ..9.k.4.T ) n.~.T._.A.3.l.!.A.G.J.y.3.I.k._ ' k.n.^ W 2.!.|.!.!.Z._ !.D.Z.G.F.q.q.P.1.i.7.9.9.^ / c._.",
"l.U.E.c.<.5.k.n.Z.!.3.)  .k.}.|. XI.4.3.n.I.A.z.E.3.:.d.A.U.D.t.` ....n.`.OXOXI.7.q.A.A.Z.U.U.a.<.q.F.T.U.q.} } [ L.|.OX}.c.3.c.E.",
"d.A.I.c.<.<.v.}.d.~.d.^ 2.E.|.I.!.G.n.a.2.4.b.Y.A.<.E 7.A.E.U.T.X...8.[.OXU.I.U.f.6.6.9.d.R.f.:.:.l.I.I.I.v.7.1.L.|.(.T.T.F.9.} 0.",
"' _ _  .2.<.1.a.L.A.<._ 9.k.n.I.Z.A.~.I.2.`  .` :.<.<.1.7.7.q.l...` 4.c.A.l.A.!.(.v.3.' :.<.<.2._ 6.9.d.v.a.} [ d.v.l.l.I.W.V.z.1.",
"7.2.6.N.L.c.} T ) ^ <.5.3.^ ^ b.~.A.k.0.2.7.f.1.5.U.E.a.[ ) <.9.c.8...) q.~.~.Z.q.7.i.i.6. .d.(.v.<.T W 9.7.i.v.Q ' l.W.I.k.9.w.7.",
"/.(.(.|.|.Q.v.<.v.L.OXOX}.n.3.c.b.6.:.2.7.l./.+XU.(.(.A.6.i.F.W.}.`.W.3.<.I.d._ :.2.d.L.(.(.R.~.oXv._ 7.L.E.E.$Xc.3.9.b.4._ ' 4.i.",
"q.A.I.l.l.A.k.3.|./.~.Z.A.A.2. .[  .c.Q.U.9.3.L.D.l.A.L.9.9.I.`.Y.!.XXk...8. .X.~.~.v.3.N.|.U.y.I.v.a.L.OX XG.Z.|.9._ 2.2.8.I.}.5.",
"E d.G.G.D.~.A.:.2.k.Q.G.U.W.X.X.u. .9.I.Q.3.:.A.K.y.G.(.r._ w.F.G.l.F.r.4.6.~ 8.3.~.I._ 2.U.G.Z.~.L.2._ q.I.H.Z.H.5.3.i. .6.n.W.A.",
"} d.!.A.D.Z.1.<.1. .q.f.Z.5.3.(.(.k.} <.E.l.<.L.D.D.Z.f.<.<.<.1.l.l.A.' c..XE.9.[ k.I.9.2.A.E.D.A.9.<.<. .4.l.l.v.' F.}.W.) } F.G."
};
