/* XPM */
static char *_222_e1fca18fb1ba6c76c481a114c28e3a3126c5b1cd62aee1fd71123b3243aeab21[] = {
/* columns rows colors chars-per-pixel */
"65 65 224 2 ",
"   c #011628",
".  c #001F32",
"X  c #012235",
"o  c #02243C",
"O  c #03283C",
"+  c #122B3F",
"@  c #67361C",
"#  c #6D3C1C",
"$  c #703F1C",
"%  c #6D3C22",
"&  c #6E3B2A",
"*  c #713F24",
"=  c #713D2A",
"-  c #73431D",
";  c #6D4229",
":  c #744325",
">  c #794626",
",  c #7A4A26",
"<  c #75442B",
"1  c #79462C",
"2  c #76492D",
"3  c #7C4A2C",
"4  c #794633",
"5  c #794536",
"6  c #754A31",
"7  c #7D4B32",
"8  c #7E4D3B",
"9  c #7D5135",
"0  c #7F5239",
"q  c #002646",
"w  c #022A45",
"e  c #012949",
"r  c #043145",
"t  c #09344D",
"y  c #002B51",
"u  c #013554",
"i  c #04365B",
"p  c #023B5D",
"a  c #163A51",
"s  c #033E63",
"d  c #04405C",
"f  c #2D4652",
"g  c #044263",
"h  c #00456B",
"j  c #024875",
"k  c #02507E",
"l  c #1B5B7D",
"z  c #255674",
"x  c #7E5841",
"c  c #4B6273",
"v  c #814E2E",
"b  c #83522D",
"n  c #89582F",
"m  c #814E34",
"M  c #814E39",
"N  c #845334",
"B  c #895635",
"V  c #855837",
"C  c #8A5A35",
"Z  c #85533A",
"A  c #89563B",
"S  c #86583D",
"D  c #8C5B3C",
"F  c #915C35",
"G  c #915D3E",
"H  c #8F613C",
"J  c #926337",
"K  c #94633D",
"L  c #99653D",
"P  c #9B6A3D",
"I  c #855443",
"U  c #895642",
"Y  c #8D5B42",
"T  c #8A5649",
"R  c #8F5C4A",
"E  c #915E43",
"W  c #915F49",
"Q  c #8F6145",
"!  c #8E6249",
"~  c #946343",
"^  c #9A6644",
"/  c #956945",
"(  c #9B6A45",
")  c #95644A",
"_  c #99664B",
"`  c #96694D",
"'  c #9D6B4B",
"]  c #9E704A",
"[  c #9A6754",
"{  c #9D6B52",
"}  c #9F7255",
"|  c #A26D46",
" . c #A26E4C",
".. c #A27246",
"X. c #A7764A",
"o. c #A3724C",
"O. c #A9744D",
"+. c #AA7A4D",
"@. c #A16E53",
"#. c #A36E59",
"$. c #A57353",
"%. c #A97554",
"&. c #AB7A54",
"*. c #A5745A",
"=. c #A9765A",
"-. c #A77858",
";. c #AD7B5B",
":. c #B27D55",
">. c #B17D5C",
",. c #A77661",
"<. c #AD7B62",
"1. c #B17E63",
"2. c #B17E69",
"3. c #AF8055",
"4. c #B68758",
"5. c #B2825C",
"6. c #B9845D",
"7. c #AE8167",
"8. c #B48363",
"9. c #B98665",
"0. c #BB8A64",
"q. c #B5836A",
"w. c #BA8769",
"e. c #B1886E",
"r. c #BC8B6B",
"t. c #B78571",
"y. c #BC8A72",
"u. c #BF9072",
"i. c #C08E6E",
"p. c #C19360",
"a. c #C5946D",
"s. c #C18F73",
"d. c #C49372",
"f. c #C99879",
"g. c #0A5D8D",
"h. c #0C608F",
"j. c #18628B",
"k. c #00629C",
"l. c #0B679A",
"z. c #156494",
"x. c #1A6995",
"c. c #116799",
"v. c #136B9B",
"b. c #056BA3",
"n. c #0B6CA3",
"m. c #066AA8",
"M. c #116CA1",
"N. c #0A73AE",
"B. c #1874A7",
"V. c #097EB9",
"C. c #137BB5",
"Z. c #137CBA",
"A. c #297AB0",
"S. c #427EA2",
"D. c #027EC2",
"F. c #0A80BC",
"G. c #1482BC",
"H. c #3286B4",
"J. c #5296B9",
"K. c #73A5BC",
"L. c #0383C5",
"P. c #0B83C5",
"I. c #0583CB",
"U. c #0B84CB",
"Y. c #058ACD",
"T. c #0B8ACC",
"R. c #1586C4",
"E. c #1688C6",
"W. c #1389CB",
"Q. c #168DCF",
"!. c #0B85D1",
"~. c #0A89D4",
"^. c #1795D7",
"/. c #2D93C8",
"(. c #2C9EDD",
"). c #1FA2DF",
"_. c #35A7DB",
"`. c #1D9BE0",
"'. c #2C9FE2",
"]. c #22A6E5",
"[. c #37ABE4",
"{. c #33ACEB",
"}. c #35ACF2",
"|. c #3AB5F3",
" X c #39B6F5",
".X c #3EBBFC",
"XX c #579CC0",
"oX c #4EACD8",
"OX c #65ADCE",
"+X c #70B3D8",
"@X c #4EB3E7",
"#X c #49B5E8",
"$X c #48BAF4",
"%X c #42BCFC",
"&X c #77BFE7",
"*X c #3FC1FF",
"=X c #52C9FF",
"-X c #5AC9FD",
";X c #73CCF7",
":X c #889699",
">X c #9CA4AE",
",X c #9FABB5",
"<X c #A3AEB7",
"1X c #90B9D0",
"2X c #8BC2DD",
"3X c #B5C2CA",
"4X c #B1C6D5",
"5X c #B5C6D6",
"6X c #81C2E2",
"7X c #9BD8EA",
"8X c #8DD9FC",
"9X c #96D9FB",
"0X c #AFD3E9",
"qX c #AADAF2",
"wX c #B4E5FA",
"eX c #C6D0D6",
"rX c #C1E9F9",
"tX c #DAEFFF",
"yX c #CBF8FF",
"uX c #DAFBFF",
"iX c #E5E9ED",
"pX c #E3F8FD",
"aX c #EDFEFF",
"sX c #FBFFFF",
/* pixels */
"5 ) =.J J K 9 [ -.9 W s.#.b G :.] ;.U Z } T 7 [ $.B  .v 3 <.! 9 ;.w. .# -.5.o.&.= { #.< K &.C ( o., ) =.N Y 0.$.Q N 8.&.;.~ 8 [ E ",
"4 7 _ ' C 1 J w.5.D A E Y W O.O.( D 3 7 M 7 7 U  .' B v $.y.-.9 7 Q _ N &.o.B K N * 3 N : D ;.D : N ;.r.$.C D _ ~ 7 ;./ D A M U B ",
"' 1 3 ) N 3 ] %.&.| D v * 1 W >., 1 D H S ~ E 1 3 ' < D ;. .$. .3 < S D -.) 1 > D G G  .N : ) C < *.;.o.&.D % Z S Z <.D > N Y Z D ",
"4.] 1 5 8 ) 5.J C %.%.E m v m m 2 o.r.5.%.r.8.D ; 0 : { ;.v | 6.=.7 < 1 7 N D -.o.6.>.9.;.N 1 M 8 <.( b &.5.U I < m E N D 8.5.>.1.",
"+.r.) 4 M Y &...| >.| v G ;.{ < Z ;.5...o.4.8.;.! 6 3 ' *. .&.%.Y N ' $.S 7 Y y.6.O.O.%.=.=.U 1 U { ' ( 3.5.~ 8 ' { 7 > $.r.-.&.O.",
"..9._ S Y m N _ 9.L v b | 5.8.*.7 N D K o./ ^ 8.~ 9 Y S N $.$.N b N <.f.;.~ 1 S L | O.| >.>.Z E D Z _ ;./ b N D 9.f._ 7 C ~ C o.O.",
"-.D D ( o./ 1 4 B > K 0.6.O.o.%.I 4 D 5.5.+.@.@.V ^ %.B : N 9 9 ;.o.' ;.o.{ 3 7 F :.:.| O.E B %.J : 3 R Z Z $.4.( 5.$.~ < C o.8.O.",
"` : K 3.5.8.W 5 < E 8.X.F O.9.| W Z ' 3.( o.' % ( 6.9.$.Q : 2 ` %.o.] $.$.=.N B 9. .| O.v > 8.8.p.' 7 = I #.;.P X.....*.< { 8./  .",
"m ~ 5.5.( &.8._ 7 D ;._ K $.U < 1 9 ) W <.) S / 9.( o.%.>.G G D &.( ` *.M < Z <  .( 8.Z U =.;.] O.%.=.U m [ >.G ] Q < < 7 Z ' @.%.",
"7 $.-.] o.~ 3 Z Z 1 ~ B > < < I $.D N Z M 7 N 5.( %.o.B B m 1 m n 3 % < < W <.E 3 : 3 Z Y *.$.o.K B A A m B B * - 3 S #.{ M N v Z ",
"3 N ] o.b 1 D / D Y ' ~ V ) ) U 0.*.@.*.3 7 1 ( &.( > v G D B @.%.~ D [ ) W ;.$.$./ 1 B N $.} ~ $ b E B A #.;.G ' ~ Z { r.w.@.v 7 ",
"( N D D , K r.8.' ' $.;.8.w.#.7 D ' r.2.U _ G N G , , 1.i.w.~ ~ 5.<.8.0./ 7 ' ;.w.;.Z ~ N N N : K >.r.$.) @.1.=.7.5.~ S Y *.8.$.m ",
"8.;.N : ~ 8.8.5.5.B V ;.8.E 3 3 3 , _ S Y ;.8.( m m ^ i.%.8.o.v D 7.%.V # , ~ 9 Y B ~ 8.8.N S 3 8.>.8.w.$.N Y 1.} H - : C ~ ~ 3 &.",
";.8.%.Q D ' $./ 5.K b D S 3 )  .5.V b , ' 5.8.%.8.A B  .G  .;.( Z H N N / o.] 3 % C ;.>.w.&.;.N ^ ^ ^ $.$.E B [ 3 D ' 5._ : 3 D :.",
"K ~ 8.;.: 3 %.( ..&.~ 1 < ' a.;.a.%.) S ' } ^ ( >.m : ) 8.$.| $.7 1 > %.f.r.0.5.7 ~ o.C D ;.$.7 m  .$.(  .' Z < [ %.&.r.8.' ~ D $.",
"J / ~ S N 9 K 3.] o.B S A { 0.( ( ;.' C 3 ~ C  .A E m $ %.( ~ &.7 E ~ ] +.P ] $.,.7 3 / K ' 7 ~ < ^  .o.%.^ m S ) 8.&...] $.] 3 B ",
"; < 1 N D 7 2 9 N ' 3 1 S N / *.^ >.>._ Y 7 ; 6 1 N / 1 4 W A E < 1 V D %.^  .X.$.;.U % 4 m 1 B 3 Z 7 4 ,.N @ N 7 ` ' X.+.K q.W m ",
"` ` ^  .8.=.S ; 1 ~ ~ ` / < 1 *.5.~ N b N Q [ [ ( >.1.) K.J.XXJ.XXJ.OX6X1X;X1X2X1XpX1 _ =.Y ' i.8.A 1 < 7 C $.%.Z : ~ $.] / 7 Y U ",
"-.5.;.%.&.%.~ 9 $.;.8.8.w.' 7 J _ > 9 _ D E *.<.X.&.$.;.H.N.Z.Z.Z.C.^.#X#X#X#X@XOXyXm _ 2.@.>.o.5._ E *.;.r.0.5.5.N N ) N D , ' m ",
"N ' $.L | o.~ V %.$.;.' &.>.b : 2 < ) e.=.B A  .o.L 2X&XH.T.U.!.U.I.^.].).].).(./.8X0XpX~  .%.C ( ' 3 B $.8.( ..+./ < M 4 S 5.6.E ",
"> G | O.:.>.E > , B $./ K / N ~ ` S 7 _ 1.G > E 3.( A.C.G.G.E.E.U.D.I.D.D.Y.D.I.F.oXOXwXm | | 6.;.;.3 7 D o./ +.J C R ) W S ' ..X.",
"1 ) @.&.%.^ A B V N ] 5.o.B D 8.7.-.2 v =._ v iX>X1XA.V.F.C.n.k.Z.'.`.`.`.^.`.Y.T.(._.8XwXtX|  ._ 3 S E 3 D ..K ] > e.<.,.Y : K  .",
"2 Q ] ' C , N <.;.A N $.} N ~ ;.o.' B m _ Y m 3X  O v.N.b.b.h q Z.$X%X%X%X%X%XY.L.P.V.oXoX7X| b / m { <.Y C <.;.~ : 5.&.' ' 3 $.G ",
"2 9 Y ' ) 9 Y e.2.' 3 Y E Z *.*.F C v 3 7 1 = 3X+ u v.b.b.v.g o N.#X[.{.{.%X XT.P.Y.L.[.@X9X( o.: A q.2.<.1 3 K U ` ...., N 1 4 m ",
"9.2 : Z 7 A &.] _ ;./ 1 3 Z R *.6 6 ) ] H -.;.3XX i j.n.l.v.g w k.D.D.V.Q.%X$XU.!.I.I.{.#X9X; I , o.../ &.$.7 7 7 U [ R & S $.( @.",
"5.-.A < Z { $.D ~ o.$.) Y 3 * * A -.u.r.>.5.r.4Xo i z.M.n.v.g e M.E.R.D.^.%X|.!.~.D.I.}.#X8XuXpX~ $.( C ..;.) S D < @ Z ;.r.8.&.&.",
"o.a.$.: m ~ E @.-.;.( < N 8.8.V 9 $.5.$.O.<Xr a e i z.n.n.v.s q k.E.W.!.^.%X|.!.!.~.I.{.$X@X+X;X3 Y %.5.5.' C 3 o.a.' > ) w.;./ O.",
"( 3.' N Y M 7 ) ;.N m ( &.5.3.( > 9 C K O.<XX r w i z.n.m.v.s e k.Z.D.!.^.%X XT.I.~.I.{.$X$X[.-XY 7 D ' ~ V K ] X.0.&.C < 3 G ;.O.",
"( C V o.1.{ 8 & 3 3 ' 0.;.' o.X.E 1 ~ &.&.,XX t t u z.n.n.v.s e k.E.U.U.^.%X|.Y.Y.I.I.{._.=X=X-Xq.N & : 1 ~ 5.&.X...%._ N A -.8.O.",
"K V K %.;.8.,.Z @ ' 8._ H &.8.( Y 1 ] -.$.,XX r w u x.n.b.v.s e k.E.P.L.^.%X XY.Y.Y.I.{.*X*X_.-X<.*.) 7 7 *.9./ 3.o.' N : ' 0._ %.",
"N ~ ;.-./ ' ;.{ D H ~ ) ) Z < < I 6 ! Y _ <XX t r u c.n.b.v.g w k.E.U.P.^..X XT.P.U.P.{.*X$X$X-X$.;.*.Z 7 ) $.D ~ : * A D 9 N ]  .",
"7 ` ;.$.( N > 3 N D N 1 N 7 4 Y 7.,.! % 9 >X  O r u v.m.b.v.g O k.E.U.L.^.*X XT.U.U.L.{..X|.[.-Xb , 3 Z R U 7 < & S R [ 2.o.1 - m ",
"N B $.W Z 7 #.] Y / 9.X./ 5.$.N o.%.>.8.F eX:XJ.o i c.n.m.v.d O m.U.D.D.^..X|.E.U.P.!.}.@X;XqX0XN D ;.D V 0.0.( 4.( L ^ o.8.9.| 5 ",
"] C 1 1 N ;.d.4.*.N H 5.0.8.~ 7 b ( ;._ E | | 5XX u c.m.n.v.g O k././.D.(.|. XW.P.!.!.}.@X9X> &  .5.d.8.K N ' 5.w.' m 7 E >.$.m A ",
"0.5./ E 9 &.;.$.w.~ N ] ( b N 3 n v N m %.=.9.3XX s z.n.m.v.s O j j.j.h.G.$X X~.!.!.L.[.oX9X/ C ..;.$.0.;.N ' <.m I M m Z A M A :.",
"( ;.5.' 3 C ( o.' $.N N , N %.*.i._ 7 1 #.$.%.3X. w x.M.n.B.p u e y y y g.$X.X!.T.Y.E.[.oX7X=.7 D $./ ' $.Y Z 7 7 _ 1.1.=.m 1 [ %.",
"~ ] $.V N V ..;._ ;.C 3 Y ;.d.=.;.w.W N S } ~ eXc c l j.c.c.k h h h h j h.oX(.!.I.W.Z.@X2XrXE 7 3 / >.*.$.{ 7 N $.8.0.6.0. .N N  .",
"N A K 1 B 1 C ) ] *.m < Z _ *.' L ;.O.@.N V 9 C n sXt q j.x.x.x.x.x.x.v.c.n.m.D.G.G.B.wX3 E S E , , ' ' { ' 1 Y ^ o.| J | :. .B 7 ",
"& 4 3 C _ S < 7 N N S M Z 7 N >.:.| _ @.U < < N v iXf a z j.j.h.j.x.c.M.n.m.N.Z.G.H.S.wX1 3 m E { 4 * 7 S N 3 1 M A ( ( |  .$.[ A ",
"t.,.) w.d.q.M 5 B ~ <.2.*.Z * ' O.B B < A _ 2.{  .sXpXtXz y s s p i k v.v.M.M.v.v.wXpXaXs.E =.f.2._ < Z D $.d.;.I < E >. .M 4 7 B ",
"' =.&.F ..;.B Y >.6.:.:.:.$.E 4 A = Y <.~ N ' ;.| o._ aXf . o q o q i l j.j.g.l z yXB b %.;.%.K o.B A =.1.&.+.:.1._ 3 7 m 7 ( &.B ",
"1 v 5.>...>.' 1 G ' O.O.&.$.E * v m ~ 4.8.D b K &.(  .sX5X3X5X5X5X4X0XqXqXqXqX0X0XaX$.b B | %.o.;.>.B v %.5...| ;.E 7 < 7 ~ %.0.~ ",
"v N %.%.' &.^ * N D _ _ G B G #.X.K - 3 &.K , ] X.^ >.&.B * > ) ( ^ ] C / %._ N = _ =.N v O.>. . . .1 @ N _ ~ L C N $.*./ S , ~ &.",
"m ' @.~ ^ G v ) C m _ w.%.v B 9.5.$.b b ;.) 7 *.( ( O.v 1 / A B 5.$./ - ] 0.5.( M E ,.E A ;. .E ' 1 E @.3 m =.;.^ b ;.0.=.Y 4 -.^ ",
"@ Y  . ./ 1 N 9.>.A M %.#.G G >.' _ Y U S 4 5 R O.L C # K d.$.7 / ' ' 1 ..&.' ( M m U m 1 _ ^  .A > %.s.E m  .=./ N %.%.' _ 7 W A ",
"G 1 m W A m @.%.1. .Z * * A  .;.8 7 8 7 4 I Z 5 E A N B o.9.@.^ * 3 D D *.' 1 : M m Z N m m Z #.: ~ $.%.$.G 1 m > H 5.D 1 C 1 < m ",
"i.E * m M W =.^ F O.%.A v U Y Z 1 D { -.5.r.$.7 4 Z N ( X.K K ;.) 7 * 7 A R 7 ) %.9.&.>.;.Z = M v &.O.K &.&.Z 1 3 W / , , ' 8.2.;.",
";.i.G 4 U E _ ' | :.#.T I U S 2 D r.a.+...+.4.4.5 A 1 K &.L  .&.*.D Z W 7 Z R f.| 6. .>.r.W A Z D L ( P ( ;.$.m R Z : B ;.0.8.( X.",
"X.&.@.M 4 Y ' ( 8.' C - J a.6.C = E >.L | X.=.>.E 4 v E _ $.5.@.N 9 $.d.%.v Z [ O.| O.>.>.%.v B B V  .8.$.G V N 0.0. .M 7 >. .L %.",
"F O.~ Y *.Z @ ~ ) 3 G %.:.6.o.%.R @ B X.6.| O.>.A  .| * $ E / : ~ -.&.&.&./ 7 7 F  .:. .G %.G ^ ~ > 1 / D 9 ~ >.o.3.@.W = m K 6.X.",
"=.C v o.r.-.7 & 7 m $.;.$.%.%.;.T M =.O.+.%.~ * D >.r.@.3 % 7 _ ;.>.o.$.8.{ 7 A 1.O.@.O.F B D a.8.D $ @ b $.8.' P 8.1._ m ' %.X.X.",
"I N ] 3.+.5.q.[ 4 Y 1.>.$.$.) Z m m ^ O.%.( F E 5.o. .>.8.I 7 [ 5.$./ ' _ N 1 S  .1.%.G v | +.+.8.w.&.N 3 { 5._ o.%.D < 7 ' ;. .$.",
"= <.8.( P ( Y ) Y m U G 3 m 1 M E F 1 v ~ G Z 8.&.o.D D _ D 7 Z D N N 3 % A ' N = E A D B 8.9.~ ~ D ~ C 9 N C 3 v > * E ) < v B ~ ",
"U ` $.' J V b 2 Y A ~ v > A E U >.w.O.M N N & [ ( ( K b 3 7 A ) ( , B / 7 ' y.%.*.A $ D C  .$.( 1 , , 3 C o.^ 1 m B A 1.y.^ E m 1 ",
"N > ` #.1 C 8.&.A | r.8.1.i.#.M O. .>.2.E Z 2 { $.N 1 ^ ;.;.' ~ a.' ;.q.) Z ' $.9.&.B G 1 E @.1 N $.r.$.Y ' 8.;.r.2.E B =.1.f.^ 7 ",
"9. .7 & Z ;.0.4.1.N C | ;.@.Z M v E ;.E < y.t.7 7 > ~ e.d.8.$.9 K $.8.*.M < B ' %.B m i.@.1 7 7 ;.;.r.8./ N / ;.*.^ * > _ E =.M _ ",
":.>.&.G G %.:.o.:.| 9 ` } 6 7 G / N % < ' 5.3.4.' B | %.| | :.L N $.K 3 9 ~ ' : * B %.0.:.&._ 1 >.O.| X. .G G #.M U V D ~ : = ) 4.",
"L =.>.) m B ^ ( | %.V < 2 Q 1.r.0.$.V S { %.] P ;.B m E  .O.O.L 2 N 3 ` 5.w.r.] A G |  .^ %.%.E v G  .>.%.G m 7 7 #.9.w.8./ Z ) %.",
"E  .#.) m M ' 8.L >.E > S *.9.@.:.$.' D m V ' $.' N = A #.;.&.%.0 0 D 8.r.%.$.%.Y A D E ' $._ v v ) $.$.%.^ S M @.8.8.&.&. .C 7 G ",
"7 : < 7 M m 9 Y @._ N 1 C /  .%.|  .>.$.N < 9 2 , m m m A A D ^ 6 9 0 `  .^  .:.2._ B 7 3 m M M 1 N A E _ Y 3 2 ~ ^ ^ ( $.;.$.~ M ",
"Y Z S _ *.) 7 @ < : v A N * > ' 8.| E G Z A E M D %.=.E 7 < 3 D Q S 7 3 E >.%. .E A U A Z m E 1.' 8 % < B A U _ - 3 ^ ;.$.~ D J U ",
"<.<.>.8.8.=.~ Z ' *.w.i.w.' N ~ _ S v B B ^ ,.t.%.>.1. .C Y @.;.8.8.;.N B ' E 3 > B G #.2.1.=.>.r.) 2 Z #.%.;.u.( V A _ C 2 9 B Z ",
"Y |  .^ ^ | _ N 7.5.>.|  .{ 8 7 6 6 ~ ;.=.D A @.O.L  .@.A D $.5.%.:.w.~ 7 V 7 8 :.>.E M  .<.%.L O.E D #.i.i.o.| w.D 4 m M D $.4.B ",
"* ~ %.O.%.:. .b 9 H &.O.%.=.8 x I I A @.&.C v | :.P %.1.G 1 K  .O.^ ..Q V S 2 x B >.%.v N %.%.| 2.O.N 1 E  .O.X.o.V Z U 7 S ' *. .",
"7 E %.| O. .B m 7 7 E ^ _ D N 8.5.) 1 M &.( > #.O.|  .| m m 8 M ~ ) ' 3 ( 8.;.B 4 ~ %.C N @.%... .G m 7 8 S / ^ ) 3 %.8.=.4 3 ..%."
};
