/* XPM */
static char *_3937_e90c2f71d1bb659446e38bd67c60ea51610eb1fa4390b7b0d54f6420a06638ef[] = {
/* columns rows colors chars-per-pixel */
"65 65 242 2 ",
"   c #0C0500",
".  c #0E0901",
"X  c #130602",
"o  c #190704",
"O  c #150A04",
"+  c #190B04",
"@  c #150C09",
"#  c #1A0C09",
"$  c #171507",
"%  c #1D120C",
"&  c #1C190D",
"*  c #1A0B10",
"=  c #1A1710",
"-  c #1D1B12",
";  c #220E06",
":  c #251204",
">  c #2B1505",
",  c #291A05",
"<  c #23140E",
"1  c #2A150B",
"2  c #241C0D",
"3  c #2D1A0D",
"4  c #331B0D",
"5  c #3B1D08",
"6  c #231611",
"7  c #2A1711",
"8  c #261A13",
"9  c #2A1B13",
"0  c #2C1D18",
"q  c #311E15",
"w  c #371D14",
"e  c #1F2115",
"r  c #2A210D",
"t  c #3B240D",
"y  c #242315",
"u  c #2C2214",
"i  c #262618",
"p  c #2C241A",
"a  c #2B2A1C",
"s  c #332315",
"d  c #3B2414",
"f  c #372815",
"g  c #332319",
"h  c #3A261C",
"j  c #332A1B",
"k  c #3B2A1E",
"l  c #36331E",
"z  c #39321D",
"x  c #2D2D21",
"c  c #382720",
"v  c #332D23",
"b  c #3C2B22",
"n  c #2E3122",
"m  c #333224",
"M  c #3C3323",
"N  c #323329",
"B  c #3C382A",
"V  c #3E3C31",
"C  c #411E09",
"Z  c #45260A",
"A  c #512D0D",
"S  c #422313",
"D  c #462914",
"F  c #4B2A14",
"G  c #45241A",
"H  c #452A1C",
"J  c #4B2B1B",
"K  c #522D1A",
"L  c #49311C",
"P  c #543419",
"I  c #693B1C",
"U  c #733F1C",
"Y  c #422E24",
"T  c #4C2D26",
"R  c #423325",
"E  c #4C3322",
"W  c #443429",
"Q  c #433A2B",
"!  c #483828",
"~  c #4A3B2C",
"^  c #533523",
"/  c #5B3522",
"(  c #543924",
")  c #5B3B23",
"_  c #543C2A",
"`  c #5A3D2B",
"'  c #423F31",
"]  c #4A3D30",
"[  c #563732",
"{  c #643C25",
"}  c #6D3C24",
"|  c #713E27",
" . c #603F30",
".. c #73411D",
"X. c #49412E",
"o. c #56412C",
"O. c #5C432D",
"+. c #494332",
"@. c #494635",
"#. c #464539",
"$. c #4B493B",
"%. c #544232",
"&. c #5A4433",
"*. c #534B3B",
"=. c #554839",
"-. c #5D4C3C",
";. c #55523D",
":. c #64432B",
">. c #694629",
",. c #754324",
"<. c #784726",
"1. c #794926",
"2. c #75442A",
"3. c #79462C",
"4. c #754A2C",
"5. c #7C4A2C",
"6. c #7B552E",
"7. c #644532",
"8. c #694532",
"9. c #654A34",
"0. c #6C4B33",
"q. c #614D3D",
"w. c #6B4C39",
"e. c #794632",
"r. c #7D4B33",
"t. c #784A36",
"y. c #6F523A",
"u. c #7E5235",
"i. c #74543B",
"p. c #78563A",
"a. c #534D43",
"s. c #594E43",
"d. c #555342",
"f. c #505147",
"g. c #5A5343",
"h. c #595747",
"j. c #664F41",
"k. c #625041",
"l. c #675C46",
"z. c #625D4B",
"x. c #765844",
"c. c #7A5B42",
"v. c #64634C",
"b. c #7C634A",
"n. c #636253",
"m. c #6A6654",
"M. c #6C6957",
"N. c #736D58",
"B. c #75725D",
"V. c #797A5F",
"C. c #6A6C61",
"Z. c #7C7965",
"A. c #814F2D",
"S. c #83522D",
"D. c #814E34",
"F. c #824E3A",
"G. c #845335",
"H. c #885636",
"J. c #8B5935",
"K. c #85533A",
"L. c #89563B",
"P. c #845A3B",
"I. c #8C5B3C",
"U. c #925C36",
"Y. c #915E3D",
"T. c #8A633D",
"R. c #95633A",
"E. c #94633D",
"W. c #A06A3E",
"Q. c #895641",
"!. c #845D42",
"~. c #8D5B42",
"^. c #915E43",
"/. c #925F49",
"(. c #8B6243",
"). c #886647",
"_. c #946344",
"`. c #996645",
"'. c #946946",
"]. c #9B6A44",
"[. c #95644A",
"{. c #99664B",
"}. c #946A4C",
"|. c #9D6B4B",
" X c #9C704A",
".X c #8A6953",
"XX c #956A52",
"oX c #9D6C52",
"OX c #8A7059",
"+X c #9B7353",
"@X c #987557",
"#X c #A56740",
"$X c #A16C45",
"%X c #A16E4C",
"&X c #A47145",
"*X c #A3734C",
"=X c #A9744D",
"-X c #AA784C",
";X c #A16E52",
":X c #A26E5A",
">X c #A47353",
",X c #A97554",
"<X c #A47953",
"1X c #AB7A55",
"2X c #A6745A",
"3X c #A9765B",
"4X c #A47B5B",
"5X c #AC7B5B",
"6X c #B17551",
"7X c #B17C55",
"8X c #B17E5C",
"9X c #817E65",
"0X c #837E69",
"qX c #A47C61",
"wX c #AE7C61",
"eX c #B27E62",
"rX c #7E806B",
"tX c #AA825A",
"yX c #B6865A",
"uX c #B3825C",
"iX c #868269",
"pX c #83826C",
"aX c #8A8773",
"sX c #918A78",
"dX c #95937E",
"fX c #A98363",
"gX c #B48263",
"hX c #B98665",
"jX c #BA8964",
"kX c #B6876A",
"lX c #BC8A6B",
"zX c #B78D71",
"xX c #C08F6D",
"cX c #C1916C",
"vX c #C49473",
"bX c #9C9884",
"nX c #A09F8B",
"mX c #AEAC98",
"MX c #B8B3A1",
"NX c #C8C8B1",
"BX c #C9C9B1",
"VX c #D7D6C2",
/* pixels */
"t.{.;XR.R.R.G.{.3X5.^.kX:XG.Y.6X|.5X~.P.:X/.F.XX;XG.%XA.5.wX[.t.5XlX$XI ,XuX=X1X} oX2X3.^.,XJ.].%X5.`.,XG.I.lX2X[.r.gX5XuX_.r.:X`.",
"e.r.[.>XJ.<.T.lXtXI.G././.{.=X6X_.E.5.5.K.e.r.P.%X%XL.A.>XxX2Xu.5._.{.D.5X*XJ.Y.K.,.3.D.,.Y.5XI.2.G.5XlX<XG.I.{.(.r.5X_.I.K.D.L.F.",
"|.1.2.[.K.5. X=X5X|.U.D.| 3./.8X1.5.I.I.G.~._.2.5.{.<.Y.5X|.>X|.3.3.K.L.3X[.2.1.Y.Y.Y.%XH.| _.L.2.2X5X&X1XI.} u.Q.L.wXI.,.G.~.K.U.",
"jX|.2.e.K.[.5XR.U.=X1X_.A.5.e.D.1.>XjXuX1XlXlXI.| D.| ;X1XG.].gX2Xr.3.3.r.D.I.5X=XuX7XuX5XD.A.D.u.wX].S.1XeX~.K.2.F._.r.U.gXgX5X8X",
"-XlX{.e.F.~.,X&X=X7X$XA.Y.5X|.3.K.5XuX*X=XuXgX5X[.4.5.|.>X>X1X<X^.F.[.:XL.e.~.zXcX$X-X,X5X3X~.2.Q.oX|.].uX5X_.F.|.oXr.,.>XlX<X5X,X",
"*XuX|.J.Q.G.G.[.hXR.A.H.$XgXgX2Xe.K.H.`.*X].{.gX}.r.I.L.{ F D S C G C J 5X_.3.L.&XE.=X].8XgXK.~.I.K.{.5X{.S.J._.jXvX`.G.P._.G.=X=X",
"<XI.I.E.<X|.3.e.H.<.E.jXyX*X=X<XQ.e.I.tXuX*X%X%XG.`.K S C +X<XE.~.^.t.{ S G H A.U.6X7X$X,XY.G.5XI.,.5.Q.K.K.;XyX].uX>X_.2.P. XgX$X",
"{.,.R.tXuXgX~.t.| ^.gX-XJ.=XjX$X[.P.].yX]. X%XI T w w y.4X X&XW.$X`._.^.0.^ C w H %X%X=XA.<.gXuXcX|.G.| P.>X5XE.&X*X>X>X2.|.gX].6X",
"G._.uXuX].<XgX{.D.L.5X|._.;X~.| 5.r.{.^.qX[.:.t o.9.t p.gXE.#X#XY.]._._.).( >.fXp.t fXP.Q.3X5X{.,X6X,X~.F.;X8XY. X_.2.| t.K.|.;X,X",
"3.+X1X X$XR.5.K.F.A.^.H.<.<.e.Q.>XI.G.K.D.D.Z @XtX@X:.>.4XE.$X].$X_.oX+Xc.Z u.tXtX).G K.~.2X3X=XY.G.L.K.D.L.G.| ..5.P.>X:XK.G.D.L.",
"5.H. X&XG.5.I.'.L.L.%X^.L._././.hX2X;X2XT J +XyX XtX0.P +X'.(.t.i.>.9.9.9.P <X-X$X1X:.L.K.;X;X`.U A.I.K.G.;XwX^.|._.K.oXzXkX;XA.3.",
"`.G.I.I.1._.lXkX%X`.>X8XhXlX;Xe.~.oX .T 5 !.yX-X&X&X6.o.@XP D f t f q b %.F =X6X=X=X2X0.5 A.G.<.E.7XxX6X/.;XeXeXgXuX_.K.~.,XgX>XF.",
"gX5XI.,._.gXgXuXuXJ.G.5XgX_.5.2.1.5.T _ ) tX=X-XtX&X) D L : + +.a & $ < q D XX$X-X#XuX0.P 7.L.1.hX8XgXhX;XD.~.eX+XE.,.,.I.`._.,.,X",
"1X5X,X~.I.|.|.`.7X`.S.I.K.5._.|.uXG.G ).c.6.uX1XR.>.d : o o $ $.N & X o < 1 J [.tX1X'.P (..X_ G.`.`.].,X=X^.K.{.1.I.|.uX].,.5.I.8X",
"E._.gX3X,.5.&X].&X5X_.3.2.{.vXuXvX5X~.1X<XI +X@X) 3 O # X # @ f.n & + o o o o c O.c.P S.>X}.8.7.D.%X>X].%X%XP.2.oX>X1XjXgX|._.I.=X",
"R.]._.I.G.S.(.uX X=XH.G.I.>XjX_.T ^ 3X1X-XP.P ( , O @ @ # . @ a.N i + ; ; * * X 3 t P +X|.$XQ./ c.`.;X%X,X{.F.K.{.gX1X&X X=X|.5.G.",
">.>.3.G.I.r.2.u.G.{.3.3.Q.K.[.3XK >X6X6X,X_.t + @ O @ # O # @ a.m a + O @ O # O + o O.fX(.].].G.{ F.e.e.qXr.I H.r.[.].=X1X_.gX/.A.",
"}.{.`.>XeX,XP.2.5._._.{._.,.5.;XT.uX=X,X5X>.t $ @ @ @ @ @ O @ a.j p @ % O O + + o % %.OX+XR.$X'./ ~.3.3.K.I.|.<XP.,.^.<X X].D.P.~.",
">XwX5X=X5X,X_.u.>X5XgXhXhX{.[ _ 4X<X>X3XP.t f O     . .   X O d.m a X   . .   .   2 -.( @X'. X'.x.( w.2XtXxXjXtX5XH.G._.r.I.1.|.F.",
"G.%X=X`.$X%X_.G.<X3X5X X5X5Xh S ).tX4X@XZ t l i x f.a.d.a.f.a.X.m a i v f.f.d.f.s.a.z r O.'.'. X8.5 D L.*XgX].-X=X_.2.K.e.I.1XjX^.",
",.Y.%X*X7X8X_.,.1.H.>X`.E._.P O.A (.OX:.O.~ j n m #.X.#.#.#.#.m a n a m f.#.#.#.#.#.a ~ O.>..Xc.5 O.J q.I.>XE.-XE.J.~.}.[.K.].*X=X",
"3._.>X5X,X`.H.G.H.G.|.5X|.T c.tX) Z O.d B.+.a n m i m a e n a x x N v n x a i a x p i X.b.f 9.Z p.fX).E ,.I.*X]. X2.lXwX2X~.,.E.=X",
"3.~.*X XI.<.G.qX5X~.K.>X>XF (.<X}.Z 4 s.M.#.i i - 8 e e x N n n n a - y - e i m N N i n.v.P , w.gXgX).F ~.L.8X5X_.2.uX1X X{.5.,X^.",
"3.u.~.|._.r.~.zXgX[.5.~.` 9.|.E.).( o m.n.f.e . $ O $ . = - % i n e O @ $ . $ & = e i rX*.&.+ b.uX=XXX) qX5.5.I.Q._.*X&X1.S.2.t.| ",
"hX5.,.P.e.I.1X X_.5X|.3.^ w.>X%XXX( + X.C.#.= . $ O O O @ . @ ' m & O @ @ O O . . @ e h.M.M + y.7X=XqX` 1X*XD.r.D.Q.oXQ.| L.>X|.%X",
"uX>XI.e.K.oXoXR._.>X>X[.K .X;X[.p.r O - n.V = @ . @ $ O @ @ @ f.m & O + $ O $ O O = V n m.2 X H |.1X4X.X*X5X[.P.L.2.} u.qXzXgX8XeX",
"*XcX>X,.D.^.^.oX5X5X[.1.K @XXXoX:.> O $ h.N % O O + O O # @ @ a.n & X @ + + o +   = f.x h.+ o > u.gX@Xi.uX XI.5.,XlX|.,._.lX5X`.=X",
"].1X|.K.^.K.e.[.5XG.G._.C Z (.!.^ : O & n.B 0 # + o o o o # O a.m & X + O + o + @ - f.N M.0 X : J ).>.5 t H.E.{.=XjXuXH.1.5.Y.5X=X",
"].T.H. XgXoXF.} 2.1.|.{ >.(.:.F w o   a.n.$.0 % O # # o # o # a.m y X # + # + # O % N n.n.Q   + d 5 A T.9._ 5X1X*X*X<X_.u.I.<XgX=X",
"E.S._.>X5XkX2XP.U {.eXF +XvXp.D > #   M.h.a.p @ X @ O O # # O V m p @ # @ # # o @ @ y Z.*.@.. O : L '.zX!.S hX_.,X<X|.K.,.|.jX|.6X",
"H._.,X>X_.>X3XoXI.T.E.K '.<X+X( ; @ O #.M.@.j % @ @ O # # + X i m p O @ X # # o @ % e h.m.B O $ . c.jX+XP.T ;XI._.3.,.P.I.G.I.`.%X",
"D.|.5X,X|.G.<.1.G.I.D.D T.tX}.( + # . = M.Q p @ @ @ O O o o $ p m a O @ @ o # # @ @ x B m.6 O $ O OXyX-XQ.J D.2.| L.Q.XXgX|.5...D.",
"S.G.2X^.G.e. X&XI.`.hXO.<X<XXXS + @ @ O V B b + O @ # O # O @ c M p # @ # # # o O O c V Q   @ + O ) <X6X[.P gX].yX].E.E.=XgXhX].t.",
"&XJ.3.e.K.5XvXhX2XG._.c.tX<Xi.> o # @ X 6 0 - @ O O O O + X X 8 8 6 O O O X + O X % 9 8 6 O + @ O : |.1X>X) |.5XhX|.K.r.~.wX,XD.I.",
"gXuX_._.G.5X5X=XlX_.H.y.tX1X:.: o # O @ X X X % % = % % < % # 6 % % % % < % < % < @ X + X o X + + , ).tX4XF |.wXK.~.K.F.F.K.L.K.7X",
"].uXtX|.5.I.`.%X|.>XG.7.<XT. .1 o # O @ # @ % 8 9 0 8 8 8 6 0 8 6 0 8 0 0 9 9 9 0 < % # # # O O O 2 :.T.b.D K.D.r.{.wXeX2XH.e.{.,X",
"_.|.>XG.A.H.%X5X{.5XL.^ { A T 1 X + # X # 6 9 8 8 9 8 9 9 8 0 9 9 9 8 9 8 8 9 9 0 9 0 < + o # # * < f Z Z t r.K.,XgXuXjXhX$XG.G.$X",
"P.P.E.5.H.5.~.[.%X>XG.G >.I T 1 o o # % 6 8 9 9 9 8 8 9 8 9 9 7 9 9 8 8 8 9 9 8 0 6 9 0 8 # # # * 0 9.6.0.Z 1.I.`.>X$XR.$X7X].H.D.",
"| e.r.J.{.L.| r.G.D.K.w.zX+Xb.1 o O # 0 p 8 8 9 9 9 9 9 9 9 6 9 8 9 9 9 9 9 9 9 9 6 1 0 0 9 < X X 3 @XzXzX:.1.1.D.L.`.#X%X;X3XoXK.",
"zXwX[.gXvXkXF.F.H.Y.eXc.>XT.).> o # 8 9 8 9 9 8 9 9 9 8 9 0 6 0 9 8 9 9 8 9 9 9 9 0 9 2 9 8 9 + o 1 ).E.'.:.lXtXQ.2.^.8X;XF.t.t.K.",
"{.3X5XY.&X,XJ.~.8X8X7X2.*X_.p.4 X 9 9 9 9 8 9 9 9 9 9 9 q 9 9 9 9 9 9 9 9 7 9 9 9 7 q 7 7 9 7 6 # > tX].`.{ 1X-XwX{.3.r.r.5.`.1XK.",
"3.D.8X8X=X7X|.3.Y.%X6X0.*X'.p.: o 9 0 9 9 9 9 8 7 9 9 7 1 3 7 0 8 2 2 9 9 0 9 3 7 9 9 0 9 9 0 7 o > '.]. X>.&X$X5X^.r.3.D._.,XjX_.",
"3.A.,X,X%X,X`.| D.J.[.t.4X|.c.3 ; 9 9 6 7 9 9 1 0 q g q q 0 q g q 0 g g q 0 q g q 0 3 7 7 q 0 7 + 4 {.`.'.{ `.E.I.G.>X2X[.K.4.].1X",
"D.%X;X].].Y.G.^.L.D.{. .}.}.i.: 1 9 9 1 0 g 0 q c b b b b b b b b b b b b b b b h q q q 7 9 9 9 8 1 +X_.}.^ ,X5X_.A.5XlX5X~.5.2X`.",
"U ~.%X;X/.5.G.eXwXK.F.7.+X_.i.> 7 7 0 q h b c b b k b b b b b b b b k b k b b b c c c Y c 0 0 9 6 > '.}.'.E |.2X_.G.<X>X|.'.e._.K.",
"I.<.D./.L.D.;X6X8X%XG.^ t.{ ( s 3 9 q c b Y b Y b b k k k k b b k b k M k b b h Y c Y Y b h 0 7 9 q >.4.>.J 5.D.1._.5XI.<.G.3.3.G.",
"xX^.| F.F.^.5X`.Y.,X,XG K P J 9 6 0 c b c b h k b b b b b b z M b b b k Y b k b Y c Y c Y Y g 7 9 r ) A Z H L.3.1._.].5.1.'.eXgX1X",
"eXeXK.e.~./.%X`.$X7X3Xj.qXP.x.4 7 g Y Y c b b b k b h j f g u f g g g g g h k b c c Y c c b b c 1 f fX@Xi.^ >XK.~.G.,.J.5XjXhX{.=X",
"6X5X%XF.2.Q.}.].kX|.U.0.P.4.w.q q b b h Y h Y h Y j b g B z z X.M M M R Q f b b k b h b k b b b u d @X0.i.P P.I.jXjX{.F.r.eX>XR.=X",
"U.=XY.~.2XP.} _.^.5.^.0.(.4.8.4 w Y c Y c h b c h b j Q sXnXdXdXbXbXdXaXaX~ g b k b b b k k k k f 4 .Xp.i.) _.1X&X1X2X/.| F.E.7X=X",
"5XI.G.>XlX,XG.{ r.F.;X7.!.t.` q c Y c b Y b c b b m p M mXVXBXBXBXBXnXZ.0XQ s j k k k k k k b k d 4 0.p.y.P gX*X].hX5X{.D.|.,X1X,X",
"F.G.|.7X<XgXgX[.t.^.eX^ t.p.` d c b b b c h Y b b b v M MXVXmXiXv.V.rXpXpXM l R b k k b b b b H H d 7.p.y.H 5X_.=X<XI.3.r.{.5X$X>X",
"| 3XgX|.].`.~.{.~.F.^.( c.y._ d k b H k h h k R ] ' Q l MXNXiX;.$ h.rXrX0XQ M Q R Y b c c c Y c k d w.y.w.J I.5.A.| | ^.{.3.A.H._.",
"~.{.>X|.I.H.G.1.~.L.`.T :.^ L f b b k h k Y R ~ W ~ R M mXNXV.z & l rXrXZ.R Q ~ ] ~ W Y b b Y h b d ) ( ^ Y _.,.G.G.J.eXxX{./.A.r.",
"G.2._.;X1.I.gX1XL.{.hXh H D d g b h b b R ! ! ~ ] W M M MXNX9Xz r z rXiXV.k M ! ~ ~ ~ W Y b k k k f D D d w gX8XhXeXU.H.5XeXvX[.5.",
"lX;Xr.} L.5XjXuXeXH.J.%.OXx.E j b c b b ! ] W ! g j W B MXNX9Xv.r v.iXiXN.z z 9 Y Y ~ ~ W R k j k f x.y._ W _.5X3X;X| | `.^.3XD.[.",
"8XeX>XY.Y.6X8X%X7X$XA.&.w._ ~ q p p m u M j u j *.+.j z mXdXrXb.& v.iXiXv.l X.;.b p j M p b x u f f ) o.%.Y Y.:XF.L.L.Y.J.2.2.{.uX",
"`.6X5X[.D.H.^.%X$X6XJ.&.8._ j h ;.V M g.v +.$.B.bXv.j X.iXiXiXN.r rXiXv.X.f X.mXm.$.*.p a.X.x h.M u E O.%.Y 5.r.D.;XhXxXeX`.K.^.,X",
"^.%X>X[.D.G.{.gX`.5X^.Y ` 7.w z.bXn.aXpXm.sXaXaXz.*.iXiXv.iXiXrXrXrXrX;.M.aXX.v.z.aXbX;.M.dX@.aXB.r &.o._ b L.F.;XeXeX,X1X|.I.D.Y.",
"3.<.3.D.F.F.F.~.>X|.D.&.w.^ j b v.Z.B.g.pXm.g.Z.*.$.iX@.l.iXiX9XrXM.;.X.@.v.;.l B.z.h.v.n.z.V.B.v.=.E o._ s r.3./.`.`.].>X5X*X`.F.",
"~.D.L.{.2X[.r.} 2.,.5.Y o.&.d =.$.@.Z.z l.m.a B r +.Z.Q M v.B.N.v.;.v.@.l B.h.2 B j g.B.a m.m.+.Z.=.E O.! s I.{...A.`.1X>X_.I.T.P.",
"wXeXeXhXgX5X[.F.}.,XlXY ) O.f 9 j b u R Q j u b d.] j p i M ;.;.-.;.;.Q X.r l v.~ 9 a f j u j u u 9 ( o.! u 1XlX`.G.I.{.I.1.A.L.Q.",
"I.%X=X].].$X`.H.gXwX5XY O.( j k Q %.-.-.-.&.-.-.s.k.=.*.;.o.r f f j r =.-.;.;.-.=.k.-.-.&.-.%.~ +.f ( &.f 3 =X].hXI.3.F.F.I.>XgXJ.",
"| ^.,X=X=X7X$XS.u._.7Xb %.L 3 k _ q.q.q.q.q.q.k.q.-.k.q.q.-.-.=.-.-.-.-.-.-.q.-.k.-.-.k.q.k.q.q.~ H ! o.f 0 =X$X=XH.K.Q.u.K.|.,X%X",
"D.~.6X%X&X#XF.G.F.Q.~.0 w w 9 k -.q.-.-.q.q.9.-.q.-.q.-.-.q.-.q.q.q.-.q.-.q.-.-.q.-.q.-.q.&.q.q.-.h s s u u `.`.[.5.,XuX5X2.e.*X=X"
};
