/* XPM */
static char *_520_730f888b1e30b5bb6fabfa112c9ecb25f4d04dff93912107a5a65de96f2da00e[] = {
/* columns rows colors chars-per-pixel */
"65 65 222 2 ",
"   c #000E0A",
".  c #09310E",
"X  c #232429",
"o  c #67351C",
"O  c #6D3C1D",
"+  c #713E1D",
"@  c #6D3C23",
"#  c #713E24",
"$  c #713E2A",
"%  c #2E4E30",
"&  c #275A3B",
"*  c #296133",
"=  c #34743D",
"-  c #73421B",
";  c #6F4128",
":  c #744324",
">  c #784726",
",  c #7A4A27",
"<  c #75442A",
"1  c #79462C",
"2  c #77492C",
"3  c #7C4A2C",
"4  c #754531",
"5  c #7A4632",
"6  c #794737",
"7  c #7D4C33",
"8  c #7D4D39",
"9  c #7E5034",
"0  c #7E5139",
"q  c #4B633F",
"w  c #78304F",
"e  c #483D67",
"r  c #6A3A62",
"t  c #1C4352",
"y  c #1C5757",
"u  c #354D49",
"i  c #265947",
"p  c #24554C",
"a  c #255B4B",
"s  c #235C52",
"d  c #255B59",
"f  c #1D674E",
"g  c #286546",
"h  c #396848",
"j  c #3B7B44",
"k  c #3B7C49",
"l  c #25695B",
"z  c #3D6A5A",
"x  c #3C7A58",
"c  c #164F68",
"v  c #195967",
"b  c #1A5874",
"n  c #264766",
"m  c #225861",
"M  c #1B606D",
"N  c #2A6B66",
"B  c #367C69",
"V  c #286974",
"C  c #367570",
"Z  c #73544F",
"A  c #447C4B",
"S  c #437D56",
"D  c #517053",
"F  c #585773",
"G  c #6C506E",
"H  c #4E7A69",
"J  c #6C646B",
"K  c #972332",
"L  c #A9263A",
"P  c #BA2738",
"I  c #814E2D",
"U  c #83512E",
"Y  c #8A532D",
"T  c #814E33",
"R  c #814E39",
"E  c #845334",
"W  c #895635",
"Q  c #865837",
"!  c #8A5935",
"~  c #85533A",
"^  c #89563B",
"/  c #87583C",
"(  c #8C5B3C",
")  c #915D36",
"_  c #915E3D",
"`  c #8F613F",
"'  c #946338",
"]  c #94633D",
"[  c #99663D",
"{  c #983748",
"}  c #873250",
"|  c #AF3642",
" . c #C83843",
".. c #E73A44",
"X. c #855443",
"o. c #895641",
"O. c #8D5B42",
"+. c #8D5649",
"@. c #8B5B48",
"#. c #915E43",
"$. c #925F49",
"%. c #AA414A",
"&. c #A04C5B",
"*. c #8F6046",
"=. c #946344",
"-. c #996645",
";. c #9B6A44",
":. c #956449",
">. c #99664B",
",. c #97694A",
"<. c #9D6B4B",
"1. c #9F714D",
"2. c #816654",
"3. c #976651",
"4. c #9D6C52",
"5. c #927155",
"6. c #A16C46",
"7. c #A16E4C",
"8. c #A37146",
"9. c #A4724C",
"0. c #A87549",
"q. c #A9744E",
"w. c #AB794F",
"e. c #B07D4E",
"r. c #A26E52",
"t. c #A26E5A",
"y. c #A47353",
"u. c #A97654",
"i. c #A57851",
"p. c #AC7A55",
"a. c #A6745A",
"s. c #A9775A",
"d. c #A7795A",
"f. c #AC7B5B",
"g. c #B17C56",
"h. c #B17D5C",
"j. c #8A4F6D",
"k. c #924C65",
"l. c #A55675",
"z. c #AD7B61",
"x. c #B17E62",
"c. c #D04855",
"v. c #38853B",
"b. c #3B903F",
"n. c #368646",
"m. c #3B8444",
"M. c #3D8944",
"N. c #3B854B",
"B. c #368C4F",
"V. c #3E8B4A",
"C. c #3A8654",
"Z. c #3A8267",
"A. c #43854B",
"S. c #448648",
"D. c #418B4B",
"F. c #479547",
"G. c #519C49",
"H. c #438453",
"J. c #448B56",
"K. c #4A8B54",
"L. c #4B9454",
"P. c #539A59",
"I. c #4EA74C",
"U. c #58A858",
"Y. c #60AB5C",
"T. c #65BF5D",
"R. c #478B66",
"E. c #4B9768",
"W. c #579865",
"Q. c #4A9478",
"!. c #638865",
"~. c #638E73",
"^. c #5AA665",
"/. c #5DB171",
"(. c #63B76A",
"). c #67A875",
"_. c #70AD75",
"`. c #65B878",
"'. c #6EC570",
"]. c #AF8054",
"[. c #B38356",
"{. c #B3825C",
"}. c #BA875D",
"|. c #AF836C",
" X c #B48363",
".X c #B88665",
"XX c #BA8965",
"oX c #B58369",
"OX c #B9856B",
"+X c #BC8A6B",
"@X c #B98872",
"#X c #C28F67",
"$X c #C2926C",
"%X c #C8976E",
"&X c #C18E71",
"*X c #C49272",
"=X c #C99777",
"-X c #2A6D80",
";X c #508F86",
":X c #63938F",
">X c #5EAB83",
",X c #6CB08B",
"<X c #77BC84",
"1X c #989D97",
"2X c #8EA990",
"3X c #ABB3B5",
"4X c #C59581",
"5X c #83CA8E",
"6X c #9BDF93",
"7X c #A0CB9E",
"8X c #9CE191",
"9X c #98D2AD",
"0X c #AED6B1",
"qX c #BAC4C5",
"wX c #C6E3CF",
"eX c #D3EBE0",
"rX c #E1ECE8",
"tX c #E7FDEB",
"yX c #F1FFED",
"uX c #EDFCF4",
"iX c #F4FEF5",
"pX c #F8FCFA",
/* pixels */
"6 :.y.' ' ] E ,.d.9 #.OXt.W _ q.1.d.O.^ 4.$.8 4.y.W 7.3 3 z.:.7 f.OX7.O u.{.9.p.# 3.a.1 =.u.W -.9.3 -.d.~ ( .Xd.*.7  Xf. X=.7 t.-.",
"5 7 :.y.! > ` XXf.( ~ #.#.>.u.u.-.` 3 3 ~ 6 5 O.9.<.( I r.&Xd.9 3 =.,.9 p.y.W ` E # 1 T : _ f._ : E f.OXy.W ( ,.$.E d.=.( ~ T ^ R ",
"<.1 < :.~ 3 1.q.g.;.( T # $ #.h.> 3 ! *.~ O.=.< 3 -.> ( h.<.y.,.2 < ~ ( d.,.> > ( _ ( 6.W # -.^ 2 u.f.9.f.! @ R o.o.f.( > W O.~ ) ",
"}.<.< 5 ~ =.f.' ) u.g.=.T I T T 1 y.XX{.p.+XOX( ; R < <.p.E ;.{.a.9 2 < 7 9 / f.q.}.h..Xf.T 7 T 8 f.;.U p.[.O.~ 2 7 =.7 (  X Xf.h.",
"w.+X,.6 8 O.i.9.7.g.6.U ) f.4.< ~ f.{.8.i.[. Xf.*.4 3 ,.y.y.p.y.*.9 :.d.~ 3 O.@X#X6.w.u.f.s.O.2 o.4.<.;.[.f.:.7 4.<.7 > r.OXp.f.q.",
"8.{.,.E O.E E :..X[ I Y 7.}.x.a.5 ~ ! ;.9.;.,..X,.9 ( W E s.y.W 9 E  X=Xf.*.2 ( 6.[ 0.;.h.z.~ ( O.E ,.d.,.E Q =.XX*X-.T ! =.Q 9.q.",
"d.( ` [ y.,.1 5 ~ > ] XX{.9.q.u.R 5 ` f.[.9.r.4.Q =.d.W : E E E f.1.<.f.y.7.3 3 Y g.g.6.u._ W f.( : 3 O.~ E r.{.;.[.y.=.: / 1. Xq.",
",.: [ p.]..X$.6 # #.{.w.) 0.XX6.3.~ ,.[.;.9.<.O ;. X Xi.#.: < 3.w.9.;.u.<.d.~ ! XX7.7.u.I >  X X#X<.E $ ^ y.f.;.8.9.1.y.2 1. X=.q.",
"E =.{.[.;.i. X:.T O.f.<.=.u.O.$ 2 9 ,.*.z.:.( -..X6.7.u.x._ ( ( p.;.-.d.X.$ E < <.<.oX^ o.d.f.-.q.u.u.#.T r.h.#.1.=.2 < 6 ~ ,.r.u.",
"1 y.p.<.9.` 3 ~ T 1 #.W > < 4 ~ 1.( E ~ 0 9 ~ x.;.u.6.W W I 3 T ! , @ < 4 :.z.@.U - 7 ~ O.a.u.y._ W ^ R T W W + : 3 ^ y.4.~ E T ~ ",
"3 E 1.1.U 3 ( ,.( ( 7.#.W :.:.$. Xd.r.r.2 7 3 -.f.;.> 3 ( _ ( r.p.=./ ,.:.:.z.u.y.=.1 ! E y.y.=.+ Y ( ^ ^ r.a.#.,.=.~ 4.@XoXy.3 I ",
"-.E ! ` , =.+XXX7.>.r.h. XOXr.7 ( i.@X|.( ,.( U _ 3 I  XOX.X-.=.d.f.oX+X=.T ,.d.OXd.W =.Q 3 W > _ g.&Xu.$.r.OXx.{. X=.~ O.y..Xy.R ",
" Xf./ : =. X X{.{.! W f. X=.3 < 3 3 -.Q =.f. X7.U I -.&Xi. Xy.3 ( f.d.Q O , =.9 ] W =. X XE / ,  Xg. XOXr.E #.x.r.=.- : ( -.=.> u.",
"p.{.y.*.( ,.9.-.g.=.E ( ~ 3 =.<.{.Q 9 > ,.f. Xp. X^ ~ <.( 9.f.-.^ =.E 9 ] 9.1.3 @ / f.f.XXp.f.W -.-.;.u.u.( R 3.2 ( <.{.;.: 3 ( g.",
"[ =. Xd.: 1 9.;.8.f.=.1 < ,.*X{.%Xd.-.Q :.r.-.;.h.T > _  Xd.l Q.B B M 1.%X+XXXf.7 O.y.! ! f.y.5 T 7.y.-.7.7.~ 4 <.y.p.XX.X<.=.! q.",
"' -.=.! E U ` [.1.q.! T ( y.XX-.-.f.1.Q 3 =.W 7.~ :.T # i.,.>X(.C.Z.B -Xb =.1.i.d.7 1 ;.=.,.E @.< -.r.q.u.-.~ ~ ,. X].;.1.i.1.3 R ",
"; ; < W ( T < 0 E :.1 1 O.E :.s.;.g.f.<.=.7 ; 4 > 9 ,.2 B.U.T.V.A A D.C.V 7.7.u.r.s.O.@ $ 7 1 T 3 T 6 5 a.9 O E 7 ,.,.q.p.=. X=.I ",
"5.,.-.r.h.u.~ < 3 =.=.>.:.: 3 y. X=.I 9 E @.4.3.,.{.{.V >X'.I.v._.^.m.J.N .Xh._ I ^ 7 >.s._ r.&Xx.O.1 3 ~ ( 1.d.~ > =.i.1.=.E O._ ",
"r.{.d.q.p.u.=.9 i.f..X.X X,.I ( -.< W ,.O.#.z.z.i.].z.C '.I.B.b.^.P.m.C.B <.^ 1 Y r.W <.x.r.}.u.h.-.*.a.f.+XXX].f.Q E =.E ( 1 ;.R ",
"E 1.u.;.;.9.=.Q y.d.f.<.d.f.E > < < :.oXu.^ ^ <.1.=.b ;X'.b.b.M.j S.D.H.H.C $ #.q.#X-.W #.7.u.) ,.<.3 W 9..X;.1.w.=.< ~ 5 / p.XX#.",
"> _ 6.9.g.h.=.> 1 E i.-.=.=.W =.:.O.9 >.z.#.> =.].1.N <X).G.S.A M.D.n.n.K.R.b ^ ( 6.t.W U ;.7.h.f.p.7 T ( 9.;.w.[ ! *.:.:.~ ;.9.q.",
"< =.y.d.u.-.W E W W <.f.<.! _  X|.y.3 3 d.:.T y.1.! f '.P.* A K.A.m.V.K.h h V $.I ^ x.E E h.6.9.-.I E $.1 ( 1.-.1.> OXz.d.O.: ] q.",
"2 O.1.1.( > ~ d.d.( W y.y.W :.d.1.<.W T :.^ R 4.i.,.x _._.D % h K.A.K.A % H ;Xg.R +.r.$ 7 u.-.Y :.9 r.z.#.! f.[.*.:  Xp.1.;.3 d.$.",
"4 9 *.<.=.7 O.@X|.:.3 O.O.~ t.s.! Q I 3 T 5 4 4 ` 1.,XY.0XiXz % = k A % 1XpX:XY T $ T R T E -.q.: / z.|.z.< 2 ( O.:.9.8., U < 5 $ ",
" X3 < ^ 5 ( p.9.-.d.,.3 2 ~ :.d.3 2 *.1.#.u.f.+ 8 7 /.6XyXpXuX3X. h . D pXrX:X> -.y.y.7.-.7 $ X.> 9.9.=.p.y.E 7 7 o.4.O.$ / 1.<.6.",
"[.i.O.1 ~ 4.<.` =.y.y.:.( 7 @ @ O.d.+X+Xh.{.+Xd.R 5 /.6XyXpXX J 9Xh !.iX1X  z p s d y.g..X7.T R O.i.;.! 9.f.=.~ O.< @ 9 z.@X Xf.h.",
"9.$Xy.< 7 #.#.r.d.f.:., E  X XE 9 y. Xd.q.7.y.{.@.^ /.8XiXpXX J 9Xh !.yX1X  z g i i s 7.g.d.( # 3 =.d.[.[.1.( 3 y.+X<.: =.+Xd.;.q.",
";.p.;.^ #.~ 5 :.f.W E =.i.[.].;., 3 ( ] q.u.9.x.! ] `.U.0XpXeXqXL.A !.tXtXeX~.i i i a 9.7.-.=.] @.7 ( ,.` W ] ,.0.XX[./ 2 3 _ f.q.",
"1.! Q <. X4.8 @ < 1 ,.XXp.1.q.w.*.3 =.p.p.p.l >XQ.f '.G.7XtXiXwX= A.D.2XtX9XS i H H p h.;.U -.XXx.~ @ @ < =.[.f.8.8.i.=.3 ! d. Xq.",
"` Y =.u.f. Xd.^ O ,. X<.( u.x.<.*.2 <.p.9.;.>X/.C.n.T.Y.!._._.~.V.D.S.S.>XE.S & h z p #.E _ 9.q. Xd.:.T 7 d..X=.p.y.<./ 2 ,.XX<.u.",
"E =.d.u.:.1.f.4.] O.] :.:.~ < < X.4 *.( =.<.>XM.n.B.'.I.= k S.m.D.M.M.D.j N.H.& & u d ~ T f.XX-.i.h.y.X.6 :.r.( =.2 : ~ ( E ( ;.7.",
"9 ,.d.p.;.W < 1 E ! 3 3 ~ 7 7 o.|.a.2.; E ~ >X(.v.b.T.'.5XW.m.M.S.D.V.n.V.J.j * & p v O.$.4.u.9.U < 1 ~ O.O.7 < $ o.^ 4.|.7.3 - T ",
"U ! a.*.7 7 1.9.( =.XX9.[  Xy.E 8.w.f.oXo.O.C >Xk m.U.'.2XK.m.D.V.D.M.M.N.C.g i a y W ~ 3 r.s.T R O.f.( ! XXXX;.}.[ ] ] 9. X.X6.6 ",
"1.! 1 5 ~ f.$X.Xu.E =.f.XX X=.3 U -.f.:.$.5.M Z.W.L.F.Y.= ).L.n.M.M.F.= ^.E.g a s c O.f.r.1 < # <. X+X.X=.E 1.f.XX<.~ 7 #.f.u.T ( ",
"}.{.=.=.W d.f.w.OX=.E 1.<.I I T E U W 7 a.d.M C 9XW.F.U.m.<XL.n.D.A.D.M.).).g y #.7 f.OXoX,.3.^ <.{.u..Xu.9 <.z.~ o.~ R ~ ^ R ^ g.",
"-.{.{.<.7 ! =.1.<.y.W E 3 E t.u..X<.5 2 a.y.1.M ,XW.F.U.V.n.V.b.D.N.V.V.S B s y 7 1 x.a.4.oXf.T ` y.,.<.y.O.~ 7 7 <.z.x.t.~ 1 3.u.",
"*.<.y.Q E U 9.f.,.f.^ < ^ h.*Xa.h.+X:.R ^ 4.=.=.N K.v.I.U.m.v.V.M.D.M.k x N g.p.O.7 #.t.$.s.#.I , =.x.u.u.4.7 ~ y. X{.}.}.6.E E 6.",
"E / ] 1 ! 1 O.:.y.y.E > W :.y.7.-.g.r.4.E ~ 9 ` V B N.P.U.v.M.S.M.m.D.x y c 9.8.a.#.T ^ T $.~ #., , ,.<.4.:.1 ( -.y.6.[ 6.g.<.W T ",
"$ 5 3 ! -.^ 5 5 W E ^ ~ ~ T R h.g.6.<.r.^ < < ~ 3 :.B n.U.U.m.D.V.D.H.x y 9.p.9.r.r.T 1 I 1 ^ $.,.< : 7 ~ E 1 2 T ^ -.6.7.r.u.4.~ ",
"@Xz.:..X&XOXR 6 W _ f.|.a.W # 7.p.Y W < ^ >.|.,.9..XM Z.^.L.n.J.M.J.S s b 9.9.! > R ~ <.&X$.s.*XOX4.< ~ =.y.+X{.X.< #.h.r.R 6 6 W ",
",.s.f.) 7.f.W _ h.h.h.g.g.u.$.$ ^ $ *.|.,.9 1.f.6.y.-.4.E.P.S.H.M.D.g d < ^ X.4 =.{.! W q.g.u._ 7.W ~ y. Xp.w.p.x.-.3 6 E 3 ;.p.~ ",
"< T h.g.q.g.<.< _ 6.q.q.q.u.o.$ U I ]  X{.` 3 ] p.6.r.f.R.^._.K.n.N.g m # ~ O.^ :..Xr.U W 7.h.r.g.g.~ T u.{.9.6.d.=.7 2 7 ] y.XX=.",
"3 E u.p.7.p.-.# T ( -.7._ I _ r.q.] - , y.] , 1.6.6.g.u.Q.E.P.S.V.C.l c -.u.-.T # 3.f.E T 7.g.7.t.7.3 O T >.-.[ ( W y.u.:.~ 1 =.f.",
"I <.y.-.-._ T #.^ T >.#Xg.I W #X{.q.3 U d.:.E y.6.;.7.Y N H.A S.m.g d c 7.XX{.<.7 #.z.O.^ s.q._ -.3 #.<.I E a.g.=.I f.oXp.=.3 d.-.",
"o #.7.r.-.1 R  Xs.^ ~ t.y.^ _ h.,.:.O.O.^ 6 6 $.q.[ W + t D !.D q % u n 1.i.6.;.R T ^ T 1 >.>.7.~ > u.&X=.T <.a.=.W p.i.,.-.3 @.W ",
"_ 1 T $.^ T q.u.z.7.T $ $ ^ 7.f.~ 6 E 8 6 ~ X.6 #.( I W F J 2.2.2.Z G F 9.<.3 : ~ T T ^ I T ~ r.: =.u.u.y._ 1 T > =.f.( 1 Q 3 1 T ",
"#X#.# T ~ $.f.#.) u.a.o.7 o.$.O.> ! 1.d. XOXy.7 4 ~ W ;.k.%.| | | %.&.G ^ O.T :.p. Xg. Xs.T 1 R U p.q.] p.p.^ 1 2 =.-.3 , ,.x.x.p.",
"x.x.^ 1 +.+.7.6.6.g.s.$.R ^ 0 2 ' +X+X0.8.[.[.[.6 o.< =.{ P P  .P L K w 8 ~ @.4X7.[.7.h.&X$.o.R _ ] ;.[ ;.p.r.~ @.E : ! f.OX X4.q.",
"g.g.7.R 5 o.,.=..X1._ - ) %X}.! $ O.x.[ 8.q.u.h.#.I T #.F l. ...c.{ F $Xp.T ^ 3.q.6.u.x.h.u.I W W ! <. Xy./ Q ! XXXX<.R 5 x.9.[ q.",
") q.#.+.u.~ ; =.@.3 _ 9.p.[.u.p.+.o W q.}.0.u.h.W 7.$.# e k.c... .{ e d.s.:.T 5 ) q.g.7._ u._ -.( , 1 -.=.3 ] f.8.p.a.$.$ R ] g.q.",
"f.( E 9.OXp.9 @ 7 T y.h.y.f.y.f.O.R u.u.q.q.$.# _ h.#Xr.e j.c. .L } e u..X<.7 ^ h.u.u.u.) W _ $X{.*.- O E u. X1.;.{.x.:.T <.u.p.u.",
"^ E <.g.i.{.|.3.7 O. Xf.7.y.:.^ T T 6.7.q.6.( ( g.q.6.x.oXF } } w r :.-.-.E 1 ^ 6.x.u.#.I 6.9.p. XOXu.U 3 9.z.=.q.d.( 1 7 <.f.6.y.",
"$ a. X;.;.-.=.3.+.T #.W 3 T 1 R ^ #.I I -.:.~ oXg.7.! ( <.( 6 ~ Y E E 3 # W 7.~ I ^ Y ^ W x.{.-.` ` =.! E Q Q 3 Y : # #.:.1 I W :.",
"O.<.y.7.( W 9 < ^ ^ -.T 1 #.+.O.u.&X7.W E T @ 3.;.<.( E 3 7 ^ ,.;., ! =.T 3.OXy.t.^ # _ _ r.u.-.1 > 3 3 ! 1.=.> T R ( x.&X:.#.I 7 ",
"~ : :.4.3 !  X[._ >.XX Xx.&Xt.T u.7.x.x.$.^ 7 4.r.E 3 -.f.s.<.=.$X4.f.oX6.^ >.r.x.u.Y +.> #.<.1 E y.+Xy.( 9. X{..Xx._ W f.x.=X:.3 ",
".Xr.7 $ ^ z.XX[.h.W W 7.p.r.T T I _ f.>.# @X@X2 3 < -.XX*XXX1.E =.u.x.a.R $ ^ 7.h.W Y &X7.1 7 5 p.f.+X X=.E =.f.a.7.: + $.#.s.R ,.",
"h.h.u.O.#.u.h.7.g.6.3 :.a.7 9 ( =.Q @ < ,.h.].[.6.W -.g.7.q.e.[ ! y.*., 3 =.1.: $ R g.}.g.g.6.1 g.0.6.q.9._ ( t.R o.^ ( ( > < :.[.",
"-.a.f.#.T W =.7.6.g.! < 7 *. XOXXXy.! W <.u.9.;.f.^ I #.6.q.q.[ 2 9 9 ,. X+X+X<.^ _ 7.7.6.u.y.#.I _ 9.u.u.#.T 7 5 r..X+X{.-.~ *.u.",
"#.7.a.:.T T -.x.$.f._ : ~ u..Xy.g.u.<._ E / ,.y.7.T $ ^ r.u.p.u.9 9 O. X&Xp.u.u.#.~ ^ ( #.t.6.5 I -.y.y.y.-.^ R r.x.x.f.p.1.( 9 _ ",
"1 > 3 T R T T O.r.7.T < / =.<.y.6.7.g.r.E < 7 4 1 T T R ^ ^ _ -.9 2 9 ,.6.>.7.g..X>.R 1 I T T R 1 ~ O.=.:.O.T 1 $.6.-.-.y.f.9.=.8 ",
"O.~ ^ >.y.>.7 @ < : T ^ W : : ,.h.7.=._ E o.$.R ( u.f.#.1 < T ( *./ 9 2 ^ h.g.7._ ( ^ O.~ T #.x.>.R @ < ^ ^ ( >.- 3 -.d.y.=.( ` ^ ",
"x.f.x. X Xf.:.R ,.y.OX#X.X<.W =.,.~ I E ^ >.z.x.q. Xx.>.~ O.7.f. X Xf.E E r.#.1 I R #.r.x.x.s.h.OX:.1 ~ t.f.f.XX;.E ( ,.! 2 3 ! o.",
"_ 7.u.-.;.7.=.W  Xx.h.>.7.<.0 0 4 6 #.f.u.( ^ r.8.6.7.r.( O.d.{.p.p.XX=.3 / 7 E h.h.>.~ 4.x.u.[ y.-.O.r.+XOXu.6.XX( 3 8 0 ( y. X! ",
"# =.u.7.q.g.7.I E =.g.q.u.d.~ 0 X.X.( u.f.W I q.e.[ q.x.( , ` 1.q.[ q.=.Q 0 4 X.W g.u.1 E s.q.6.h.t.W < _ q.9.8.9.W ~ O.7 ~ <.d.7.",
"5 #.g.7.0.6.R T R R _ $.6.^ W x.h.=.5 T f.;.T r.8.0.6.$.T R R R [ -.7.I :.x.f.( 7 #.y.^ W r.u.8.7._ T 7 7 ( -.-.:.3 y. Xf.< 5 9.q."
};
