/* XPM */
static char *_3806_2ab8045ebe21470e091c5b77775f441a93155abe1f746d5dfb9a25edaf28fbcd[] = {
/* columns rows colors chars-per-pixel */
"65 65 198 2 ",
"   c #010303",
".  c #0D0304",
"X  c #040A06",
"o  c #0A0C07",
"O  c #050608",
"+  c #050A0B",
"@  c #0B0D0D",
"#  c #130000",
"$  c #190907",
"%  c #150A0C",
"&  c #1B0C0E",
"*  c #0B180F",
"=  c #15110E",
"-  c #0D0E13",
";  c #110F10",
":  c #1F0F10",
">  c #0D1313",
",  c #0C1418",
"<  c #0F191B",
"1  c #131415",
"2  c #1B1516",
"3  c #151A17",
"4  c #1B1B17",
"5  c #141619",
"6  c #141A1A",
"7  c #1A1C1D",
"8  c #250D06",
"9  c #2D110E",
"0  c #31140E",
"q  c #20161A",
"w  c #211B1B",
"e  c #19231E",
"r  c #23241F",
"t  c #131A20",
"y  c #1B1E21",
"u  c #251F21",
"i  c #291F22",
"p  c #1D2223",
"a  c #1E252A",
"s  c #1F292B",
"d  c #232426",
"f  c #292325",
"g  c #23262A",
"h  c #29272C",
"j  c #24292B",
"k  c #2A2B2D",
"l  c #35282C",
"z  c #3A2B2E",
"x  c #252D31",
"c  c #2A2E31",
"v  c #392D31",
"b  c #2D3335",
"n  c #2F3932",
"m  c #2F373B",
"M  c #2F383D",
"N  c #313536",
"B  c #32363A",
"V  c #34393B",
"C  c #3B3B3D",
"Z  c #4E171C",
"A  c #5E1617",
"S  c #531C1B",
"D  c #6E0F09",
"F  c #781501",
"G  c #631516",
"H  c #671814",
"J  c #721C16",
"K  c #61221B",
"L  c #752212",
"P  c #67351C",
"I  c #6D3B1D",
"U  c #713E1D",
"Y  c #6E1C20",
"T  c #402C2E",
"R  c #6E3C23",
"E  c #713E24",
"W  c #723E2B",
"Q  c #73421B",
"!  c #6F4127",
"~  c #6E4129",
"^  c #744324",
"/  c #784726",
"(  c #7A4A27",
")  c #75442B",
"_  c #79462B",
"`  c #77492C",
"'  c #7C4A2C",
"]  c #754531",
"[  c #7A4632",
"{  c #764830",
"}  c #7D4B32",
"|  c #7A463A",
" . c #7D4D39",
".. c #7E5034",
"X. c #7E5139",
"o. c #353C41",
"O. c #3A3E42",
"+. c #444748",
"@. c #9E1817",
"#. c #A6261A",
"$. c #B5251A",
"%. c #9C2925",
"&. c #9D3435",
"*. c #A42E24",
"=. c #A4292B",
"-. c #B12420",
";. c #A23331",
":. c #814E2D",
">. c #82512E",
",. c #8A532D",
"<. c #814E33",
"1. c #814E39",
"2. c #845334",
"3. c #895635",
"4. c #865837",
"5. c #8A5935",
"6. c #85533A",
"7. c #89563B",
"8. c #87583D",
"9. c #8C5A3C",
"0. c #915D36",
"q. c #915E3D",
"w. c #8F613F",
"e. c #906137",
"r. c #94633D",
"t. c #99663D",
"y. c #9D683C",
"u. c #854D40",
"i. c #865443",
"p. c #895740",
"a. c #835941",
"s. c #8D5B42",
"d. c #8F5C4B",
"f. c #915E43",
"g. c #925F49",
"h. c #945E52",
"j. c #8F6045",
"k. c #946344",
"l. c #996645",
"z. c #976A43",
"x. c #9C6A44",
"c. c #956449",
"v. c #99664B",
"b. c #97684C",
"n. c #9D6B4B",
"m. c #9F714D",
"M. c #956351",
"N. c #9A6751",
"B. c #976B50",
"V. c #9D6C52",
"C. c #9E7058",
"Z. c #A16C46",
"A. c #A16E4C",
"S. c #A37146",
"D. c #A87446",
"F. c #A4724C",
"G. c #A9744E",
"H. c #A7784D",
"J. c #AB794F",
"K. c #B07D4E",
"L. c #A26E52",
"P. c #A26E5A",
"I. c #A47353",
"U. c #A97554",
"Y. c #A57851",
"T. c #AC7A55",
"R. c #A6745A",
"E. c #A9765A",
"W. c #A7795A",
"Q. c #AC7B5B",
"!. c #B17C55",
"~. c #B17D5C",
"^. c #AD7B61",
"/. c #B17E62",
"(. c #AF8054",
"). c #B38356",
"_. c #B3825C",
"`. c #BA865D",
"'. c #BA8A5F",
"]. c #AF8265",
"[. c #B48263",
"{. c #B88665",
"}. c #BB8965",
"|. c #B5836A",
" X c #B9866B",
".X c #BC8A6B",
"XX c #B98672",
"oX c #B68870",
"OX c #BB8B73",
"+X c #C28F67",
"@X c #C2926C",
"#X c #C8976E",
"$X c #C18E71",
"%X c #C49273",
"&X c #C99870",
"*X c #C5947A",
"=X c #CD9B7D",
"-X c #C59581",
/* pixels */
"| v.I.0.e.r.2.b.W.' f.XXP.3.q.G.n.W.s.8.P.s.1.N.Y.3.Z.:.' ^.j...Q..Xm.I Y._.S.T.E N.R._ c.G.5.x.I.( b.R.6.9.{.R.k.X.~.Q.{.k.} P.Z.",
"] } b.I.5./ e..X_.9.3.g.g.l.U.G.x.w.' ' 6.[ [ p.L.n.7.<.L.$XW...' k.n...T.I.5.w.2.^ ' <./ 9.Q.9.^ 2.Q.}.Y.5.9.b.c.} T.c.9.6.<.i.u.",
"n._ ) c.6.' F.Y.Q.n.q.:.W _ g.~./ ' 9.w.6.s.k.) ' b./ q.Q.A.G.n._ ) 6.9.T.c./ / 9.9.9.n.3.E l.7.) R.Q.F.T.5.R 1.8.8.^.9./ 3.9.6.,.",
"'.A.) ] 6.c.Q.e.0.G.T.f.:._ :.<.` I.}._.T..X.X9.~ X.^ n.U.2.n._.R. .) ) ..X.p.W.G.`.~.`.E.<.} <.1.Q.x.>.Q.Q.s.6.) <.f.} 9.[.[.Q./.",
"H..Xb.] 1.s.Y.S.A.~.Z.>.q.~.V._ 2.Q._.F.G._.[.Q.c.` ' b.Y.I.W.I.j...c.R.6.} s.OX+XZ.G.U.~.E.s.) p.V.A.z.).Q.k. .n.V.} / I..XT.Q.G.",
"S._.b.2.p.2.2.v.{.t.:.,.A.~.[.I.[ 6.9.t.F.z.b.{.c.} s.2.2.U.I.2...4.^.=XQ.s.` 4.Z.t.G.x././.6.9.9.2.b.W.x.2.5.w.}.%Xz.' 9.w.4.F.G.",
"T.9.9.z.I.b._ _ 3./ r.}._.F.G.Y. .} w.)._.F.I.n.4.k.T.3.^ 2.2.2.Q.m.n.Q.F.L.' } ,.!.!.Z.U.q.2.Q.w.^ ' p.6.2.I._.x._.I.c.) 4.m._.D.",
"b.^ t.(.).{.d.| E f._.H.0.G.}.Z.M.6.n.(.x.m.A.P z.[.{.I.f.^ ) B.H.S.x.T.n.T.2.7.+XA.Z.U.:./ [._.@Xn.<.) 6.P.~.x.S.F.F.I.` n.[.c.G.",
"2.k._._.x.Y.[.b.<.p.Q.n.k.I.p.) ' ..b.c.W.b.9.v.`.n.G.U.~.q.q.9.T.z.n.R.p.W 6._ n.b.{.6.p.R.Q.n.G.U.U.f.<.L.~.f.F.k.) ) } 6.V.V.U.",
"_ I.Y.m.S.w.' 2.3._ f.5./ _ ) i.I.9.2.X. .2.2./.x.U.n.2.3.:.' <.5.( R ) ) f.^.s.' / ' 6.s.I.W.Y.q.3.7.1.<.3.3.E Q _ 6.I.V.6.2.:.6.",
"' 3.n.S.2.' 9.b.7.7.A.f.3.c.g.g.|.W.I.C.` } _ x.Q.x.( :.7.q.7.L.T.k.9.b.b.c.Q.Y.I.c._ 9.2.I.F.c.U ,.q.6.6.L.E.f.n.k.2.C.XX|.I.' :.",
"z.2.9.w._ r..X{.A.v.L.~.{. XL.} 9.m..X].9.b.9.>.r._ ' [..X{.l.k.W.Q.{..Xc.} n.W.}.T.2.c.2...2./ r.~.$XU.g.L././.[.].c.2.j.I.{.I.1.",
"[.Q.6.^ k.[._.[._.5.3.W.[.k.' ) _ ' b.4.f.Q.[.Z.<.:.l.$XI.[.I.' 9.Q.T.2.I _ k...9.4.k.[.[.2.9./ _.~.{.{.L.2.f./.m.k.Q ^ 9.z.k./ U.",
"T._.I.j.9.n.m.z._.l.>.9.6.' k.n._.5.2.^ b.Q.{.T.[.7.3.n.9.I.~.l.p.k.2.>.r.F.F.' R 9.Q.Q.{.Q.^.2.k.l.l.U.I.q.6.N.' 9.n._.x.^ ' 9.~.",
"r.k.[.W.^ _ F.x.S.T.k._ ) b.%X_.%XW.z.4.b.A.k.n./.2./ f._.U.F.Y. .) / Y.&X@X}.Q.} s.I.5.e.Q.I.} <.L.I.l.A.n.6._ b.I.T.}._.n.k.9.G.",
"e.z.k.9.2.>.r.Q.m.G.3.2.9.I.{.z.z.Q.m.4.' k.3.n.3.g.<.U I.n.k.T.{ s.k.G.Y.z.x.W.E.} _ z.r.b.} f._ k.A.G.U.l.6.6.b.|.Q.S.m.Y.n.' 1.",
"~ ^ _ 2.9.<.) X.<.b._ _ 9.6.b.R.x.~.Q.n.f.} ~ ` / 2.c._ _ d.6.9.W W 6.7.U.G.A.G.P.E.p.E ) <.' <._ 6.[ [ R...! 2. .c.n.G.T.r.[.c.:.",
"B.b.c.G.~.U.4.) ' k.k.b.c.^ ' I.[.q.2.>.2.d.N.B.n.]._.b._ ^ 2.4.P.E.q.I :././.q.:.7.:.b.R.9.L.$X[.7.[ ' 2.9.m.Y.2./ f.Y.m.k.X.9.s.",
"C._.W.U.T.U.k.X.Y.Q.{.{.[.b.:.9.v.) 2.b.s.f.^.^.H.(.I.Q.c.p..X{.~.{.E.A.:.v.q._ 3.A.2.n./.L._.U.~.b.k.I.Q.OX.X(.Q.4.2.k.2.9.( b.<.",
"3.m.U.t.x.F.k.2.I.W.Q.n.U.Q.2.( ) / c.|.I.7.7.n.S.r.c.I.6.2.I.I.U.G.G.U.<.E W p.G.+Xl.3.f.A.U.0.x.n.' 6.F.{.x.S.H.z._ 6.] 9.Q.'.f.",
"/ q.n.G.!.~.k./ _ 2.Y.l.q.l.3.r.c.s.<.b.[.9._ k.).m.}.^.' _ 9.x.Z.Z.Z.3.9.g.h.7.0.b.I.2.>.n.A._.Q.T.' } 9.G.x.H.t.5.j.c.c.2.n.S.G.",
"_ k.Y.I.U.l.3.2.3.2.n.Q.n.  @   ].I.' ' R.b.<.I.x.5.n.s.' 9.:.2.Z.U.A.<.E./.~.f.&.4.].2.>.  o   x.' 2.d.' 9.F.t.m.' |.^.R.f./ k.G.",
"_ s.m.m.9./ 2.^.Q.s.2.Y.I.@ 7 - m.n.2.2.c.p.1.V.U.b.s.6.b.|.I.' U.~.f.1.L.G.A.~.<.d.V.' } @ t + b.X.L.^.s.4.Q.Q.j.^ _.T.m.n.' I.f.",
"` X.w.n.k.X.p.oX/.b.' s.d.O 5 o 9.4.:.' } [ ) [ q.L.} ] V. X{.2.E h.<.q.E.U.:.,.[ ) ] 1.X.+ 6 O ^ 6.^.|.^.` ` w.9.b.F.S.( >.) [ W ",
"[.' ) 8.} s.T.S.b.W.b.' ` j j d ` ` c.m.0.R.~.R  .} 2.b.I.x.A.T.u.[ _ 8.V.j.X.` b.Y.A.A.l.s h a / F.S.r.T.F.2.}  .p.V.p.~ 9.I.b.A.",
"(.I.9.] <.V.n.9.k   O O c B V V * X X   ~.{..XT. .  >   A.r.l.!./.. @   } ^ j.*X{.  O O < o.o.o.g O +   V Q.c.6.7.) R X.^..X[.Q.~.",
"H.+XI.) <.s.f.V.C 1 7 1 b B b B e 3 7 o G.A.G.~.j.o 4 o A.W.T.U._ . r X I.6.6.].F.+ u y a o.m m c 5 p > +.F.9._ U..Xn.) c..XQ.x.G.",
"x.Q.n.9.f.6.[ c.V + < 1 b m B m 3 1 3   G.U.A.~.9.# 0 # 2.l.b.3.:.# 9 . [.b._ { q.  5 - t V B o.k > 1 X +.2.r.x.G.}.(.4./ ' 9.Q.G.",
"x.5.5.n./.V.1.R B d j j b m V C x d h d T.!.x.q.9.G J G ) E ' 2.!.A Y A R.I.8.1.A.d h h x V V B b g j d B k.(.Q.F.F.Y.c.' 4.W._.G.",
"w.3.k.I.7   O   b B V V b m b b B N V O.- O o # H ;.#.&.Z # X   D &.&.&.S # .   1 o.o.B o.V B B n V n O.c   +   j F.n.6.` n.}.n.G.",
"2.k.T.Y.N 1 7 7 b N B b V B V m V o.B V s < t 8 L %.#.%.S & 7 1 F %.@.=.K 8 w 5 h V B o.V m n n C b n B b 3 7 > C ' ^ 8.9.2.9.x.A.",
"..b.W.T.k @ 1 1 b B N B B B b M x a k j t , , $ L #.$.*.S : 2 - F #.-.=.K 8 = > t h g a x m n n n V n B b 1 > o V 8.s.N.].m.' Q <.",
">.2.I.d.x j g g b V b B B m V b H.G.Q.|.4.p d f h v z z i 2 1 1 r T z l l f f 7 |.[.6.2.} b B n N N B B b j p p B y.r.r.F.[.[.Z.| ",
"O O   O B V B V V V b B B m M x >.x.W.v.j.c V C u % : ; 2 ; 5 5 8 & & % i C O.k |.d.s.Q.L.g V B B m B B B B V V c X O   y Q.I.2.0.",
"7 p 7 p N B V V V o.V V V V V b >.>.2.<.W.j O.C i q 2 q 2 1 5 > 2 2 w 4 f N C h c.' Q. X|.k C V V V C V V V V C n 6 p 5 v 7.3.i.~.",
"  O   O d j d j j h a s j k h y [.n.} ` R.t j d %   . O % 1 1 < o .     4 k d 2 ' [ /.R.V.7 k f g s g j g d d d d X O   y 6._ v.U.",
"k.n.I.2.2.2.n.Q.v.Q.7._ 9.Q.%XR.~..Xv.<.7.V.c.z.R.<._ q.I.> 1 > 1.<.7.[.{.U.).Y.9.] c.L.g.E.f.:.( z.~.I.I.V.} 6.I.[._.'.[.A.>.2.Z.",
"2.8.r.' 5._ 9.b.L.L.2.^ 6.b.L.A.x.~.L.V.2.6.' w.3.f.:.:.A.  p   <._ 7.~.U.r.F.F.E.f.<.7.<.g.6.f.( _ b.V.V.b._ s.l.G.x.t.S.!.x.2.<.",
"W ] } 5.v.3.] } 3.2.7.6.6.} <.~.!.Z.n.L.p.) ) 3.<.v.f.:.E + p O _ 3.^ ' b.F.T.S.L.L.<._ _ :.7.f.b._ E <.6.2._ ( <.9.l.Z.A.I.W.V.6.",
"XX^.b.[.%X X1.[ 3.s.^.].R.3.E A.J.,.<._ 6.N./.N.A./.$XE.1.  -   R.=Xc.I 9.G.A.0._ 1.3.L.XXg.E.*X Xb._ 6.c.F.@XQ.i.W f.~.L.1.[ | 3.",
"n.R.T.q.Z.!.3.9.~.~.!.!.!.U.g.W 7.W j.].c.4.n.Q.Z.Y.v.N.p.f..X`.!.F._.Q.) p.6.] c._.5.2.G.~.G.q.L.3.3.I.[.T.H.K.[.b.[ } } ' z.T.6.",
"/ <.~.~.G.~.n._ q.A.G.G.U.G.s.E <.:.r.{.].w.( r.T.A.A.~.c.:.k.I.Z.Z.T.l.E 2.p.p.k.}.I.>.7.A.~.A.~.E.3.<.U.[.F.Z.R.f.} ' 2.w.Y.}.k.",
"' <.U.!.Z.T.l.E 1.0.l.A.q.:.q.L.J.t.U ( Y.r.( F.Z.y.Q.U.3.E ( c.x.z.n.9.l.U.n.<.W b.Q.<.:.A.~.Z.L.Z._ I <.n.l.k.9.2.I.I.b.6._ l.T.",
":.n.I.k.v.q.:.g.7.<.l.$XQ.:.,.$X_.F.( >.W.b. .I.Z.x.F.,._ k.7.3.[.U.z.Q A.}.~.x.} g.^.f.7.U.L.q.v.' f.A.:.<.T.E.r.>.Q..XU.k.' R.x.",
"I f.A.L.k._ 3./.E.7.6.L.L.q.q.~.b.b.s.s.8.| | g.G.t.5.U k.$XI.:.z.n.n._ A.Y.A.x.1.<.7.<.' v.A.L.3._ U.$Xk.<.n.R.k.2.T.Y.b.l.' d.7.",
"q.W :.g.7.<.U.E./.A.<.W E 7.L.W.<.[ 2. .[ 1.i.| f.7.:.3.G.{.A.g.! ' 9.9.I.Z._ ^ <.<.<.3.<.<.6.L.E l.U.Y.I.q.' <.( k.Q.9._ 3.' ) <.",
"+Xd.W <.1.f.E.f.0.U.R.8.[ p.c.p.) 9.m.W._..XI.' ] 6.2.x.G.q.l.!.c.} ^ } 7.s.} c.T.[.T./.I.<._ 1.>.U.G.r.T.U.7.] ' k.c.( ( b.[.^.T.",
"~.+X6.[ f.d.Z.A.Z.Q.R.g.6.7.6._ e.}.+XF.m.(.).`.| p._ r.T.t.Z.T.R.q.<.g.1.6.d.-XA.`.F.~.$Xg.p.1.0.t.z.t.x.T.L.6.s.2.^ 5.Q..X{.n.G.",
"G.!.A.1.[ s.b.z.|.n.9.Q e.#X`.5.W d./.t.Z.D.U./.q.:.<.f.b.I./.I.2...Y.@XU.<.7.V.G.Z.U.~.~.U.:.3.9.9.b.[.I.9.3.5.'.}.N.1.[ ^.G.t.G.",
"0.L.q.g.I.6.! k.k.' q.G.!._.U.Y.g.P 3.G.`.G.U.~.7.A.g.E I q.l.^ k.I.Q.U.R.v.<.] 0.Z.~.A.q.U.q.x.9./ _ x.k.' k.W.D.Q.R.g.W 3.r.!.G.",
"Q.9.<.L..XR.X.R ] <.I.Q.U.E.I.Q.p.<.T.G.G.G.f.U 0.~.+XA.} R } c.W._.F.Y.{.n.} 6./.!.U.U.0.3.0.$X[.k.Q I 2.Y.[.n.z.[.~.c.<.n.U.Y.U.",
"3.2.n.!.Y._.[.M.<.s./.~.A.I.c.7.<.<.n.A.G.A.3.f.~.G.A./.[.p.[ V.~.Y.c.x.b.2._ 8.v.~.U.q.:.A.G.U._.{.Y...' V._.z.G.U.9._ [ n.Q.A.L.",
"W E.[.x.x.b.r.b.f.<.g.3.' <._ 1.q.f.' :.l.c.X.|.~.A.5.9.n.s.} 6.9.2.2.' I 7.n.6.&.9.3.2.3._._.l.9.f.k.9.>.4.4.' :.^ E f.v./ :.3.c.",
"s.N.I.A.e.2...( p.7.k.:.( f.f.s.I..XL.3.2.<.R V.x.x.9.<.' } 6.b.x._ 5.c.<.V..XI.V.9.U q.9.L.U.n._ ( ' _ 9.n.k./ ,.1.q.~.$Xv.f.<.' ",
"2./ c.V.' 9.[.Q.7.n.{.[./.$XP.1.U.G.~./.f.p.[ V.L.>.' x.Q.W.n.z.@XA.W.|.b.7.v.Y. XU.2.f._ f.A._ 2.Y..XI.9.F.[.[. X/.q.3.Q./.*Xk.} ",
" XL.} R p.Q.}._./.,.7.A.U.A.1.<.2.q.E.v.E XXOX' ' _ k..X%X}.m...l.Y.|.I.<./ 4.b.Q.3.:.$XA._ [ [ T.W..X{.k.2.r.Q.E.N.E E k.f.E.1.v.",
"~./.I.9.f.T.!.A.~.Z.' b.C...<.9.k.4.R ) A.~.Q.).A.3.l.!.A.G.J.y.3.I.j.' ' c.m.^ W <.!.{.!.!.n.( ~.G.Z.G.G.q.9.R.1.p.9.9.9./ / c.).",
"l.E.Q.c.<.3.k.n.Z.U.3.)  .s.[.{.}.I.4.2.n.I.F.x.E.7.:.f.Z.U.G.t.` ....n._..X.Xm.7.s.A.A.Z.U.T.f.:.q.F.T.I.q.<.} [ L.{..X[.k.6.j.T.",
"f.A.I.c.<.<.v.[.l.~.p.) 6.U.{.I.!.G.n.9.2.9.b.m.A.<.W 7.L.U.T.U.X...w.]..XI.I.U.g.3.3.q.l.U.h._ :.l.I.I.I.v.7.1.L./.[.T.T.m.9.} 7.",
"( _ ` <.1.<.6.p.L.A.<.( 9.k.n.I.Z.A.~.I.2.` } ` ( <.<.<.7.7.q.l...) ..c.A.Z.A.!.[.N.1._ _ <.<.<._ 2.7.f.b.s.<.] k.n.l.l.I.W.I.z.1.",
"p.6.6.b.R.c.[ R ^ / :.7.2.^ ^ n.~.Z.c.q.2.7.d.1.q.U.R.p._ _ <.9.c.4.../ q.~.~.Z.f.7.f.7.6.<.g./.b.<.R W 7.7.9.b.Q ' l.R.I.k.9.w.8.",
"/.~./.[.{.Q.b.<.b.I. X$X{.n.2.c.b.6.:.2.7.c.^. XG.{./.A.6.s.A.W.|.[.W.2.<.L.f._ _ ,.f.L././.U.~..Xv._ 7.I.R.E..Xz.2.9.b.9.) ' 4.8.",
"f.A.U.l.t.Z.l.2.[./.~.x.n.F.2. .] | c.Q.U.9.3.L.D.Z.A.L.7.9.Y._.H.Q.}.c.} 8. .<.~./.v.3.V./.U.t.L.v.s.L..X.XU.x.}.0._ 6.X.9.Y.[.5.",
"E q.U.G.G.~.A.:.2.k.~.G.U.R.X.X.i.6.7.Y.Q.3.:.G.J.t.G./.k.' 9.m.G.t.G.k.2.X.` a.3.~.I._ 2.U.T.y./.L.2._ q.G.G.Z.G.7.2.9. .6.n.W.A.",
"[ f.!.A.D.Z.1.<.1.1.q.g.Z.7.3./._.k.] <.E.x.<.L.D.D.Z.h.:.<.<.1.k.n.A._ n./.Q.9.[ k.I.7.3.L.U.D.A.9.<.}  .4.l.x.c.' U.[.W.) ' I.G."
};
