/* XPM */
static char *_0193_67a76bc45bd9a588b4bd80ca8cb475294f1db980e16c3773aa7d9a09dc0cf034[] = {
/* columns rows colors chars-per-pixel */
"65 65 219 2 ",
"   c #021C2C",
".  c #02253A",
"X  c #00283C",
"o  c #16323F",
"O  c #67361C",
"+  c #6D3C1D",
"@  c #703F1C",
"#  c #6D3C22",
"$  c #6E3B2A",
"%  c #713E24",
"&  c #713D2A",
"*  c #73431D",
"=  c #6D4229",
"-  c #744325",
";  c #794626",
":  c #7A4A26",
">  c #75442B",
",  c #79462C",
"<  c #76492D",
"1  c #7C4A2C",
"2  c #794633",
"3  c #794536",
"4  c #754A32",
"5  c #7D4B32",
"6  c #7E4D3B",
"7  c #7D5135",
"8  c #7F5239",
"9  c #012946",
"0  c #07324A",
"q  c #163A4E",
"w  c #002B54",
"e  c #002B58",
"r  c #003252",
"t  c #043A5B",
"y  c #293D48",
"u  c #304753",
"i  c #074769",
"p  c #054C77",
"a  c #0E5374",
"s  c #0B547E",
"d  c #105177",
"f  c #1E617E",
"g  c #7E5841",
"h  c #4B5C64",
"j  c #4B6774",
"k  c #814E2E",
"l  c #83522D",
"z  c #89582F",
"x  c #814E34",
"c  c #814E3A",
"v  c #845334",
"b  c #895635",
"n  c #855837",
"m  c #8A5A35",
"M  c #85533A",
"N  c #89563B",
"B  c #86583C",
"V  c #8C5B3C",
"C  c #915C35",
"Z  c #915D3E",
"A  c #8F613C",
"S  c #926337",
"D  c #94633D",
"F  c #99653D",
"G  c #9B6A3D",
"H  c #855443",
"J  c #895642",
"K  c #8D5B42",
"L  c #8A5649",
"P  c #8F5C4A",
"I  c #915E43",
"U  c #915F4A",
"Y  c #8F6145",
"T  c #8E6249",
"R  c #946343",
"E  c #996644",
"W  c #956944",
"Q  c #9B6A45",
"!  c #95644A",
"~  c #99664B",
"^  c #96694D",
"/  c #9D6B4B",
"(  c #9E704A",
")  c #9A6754",
"_  c #9D6B52",
"`  c #9F7255",
"'  c #A26D46",
"]  c #A26E4C",
"[  c #A27246",
"{  c #A7764A",
"}  c #A3724C",
"|  c #A9744D",
" . c #AA7A4D",
".. c #A16E53",
"X. c #A36E59",
"o. c #A57353",
"O. c #A97554",
"+. c #AB7A54",
"@. c #A57459",
"#. c #A9765A",
"$. c #A77858",
"%. c #AD7B5B",
"&. c #B17D55",
"*. c #B17D5C",
"=. c #A77660",
"-. c #AD7B62",
";. c #B17E63",
":. c #B17E69",
">. c #AE8057",
",. c #B68758",
"<. c #B2825C",
"1. c #B9845D",
"2. c #AE8167",
"3. c #B48363",
"4. c #B98665",
"5. c #BB8A64",
"6. c #B5836A",
"7. c #BA8769",
"8. c #B1886E",
"9. c #BC8B6B",
"0. c #B78571",
"q. c #BC8A72",
"w. c #BF9072",
"e. c #C08E6E",
"r. c #C19360",
"t. c #C5946D",
"y. c #C18F73",
"u. c #C49372",
"i. c #C99879",
"p. c #004C84",
"a. c #0C5381",
"s. c #04598A",
"d. c #125F89",
"f. c #025C95",
"g. c #16638E",
"h. c #03659A",
"j. c #166796",
"k. c #266B94",
"l. c #076BA6",
"z. c #0671AA",
"x. c #1775A9",
"c. c #0879B6",
"v. c #157AB4",
"b. c #2B79A4",
"n. c #007EC2",
"m. c #1A84BA",
"M. c #3B82A6",
"N. c #2687BB",
"B. c #5798BB",
"V. c #75A4B6",
"C. c #0585C5",
"Z. c #0C84C3",
"A. c #0A89C5",
"S. c #0585CB",
"D. c #0B86CB",
"F. c #0188CC",
"G. c #0C8ACC",
"H. c #1385C4",
"J. c #1B84C4",
"K. c #1689C8",
"L. c #148BCB",
"P. c #0D8AD2",
"I. c #148DD3",
"U. c #1895D7",
"Y. c #1A94DA",
"T. c #2086C0",
"R. c #2798D4",
"E. c #1FA3DE",
"W. c #29A6E5",
"Q. c #36ABE8",
"!. c #3AB2EC",
"~. c #36B4F3",
"^. c #3BB5F4",
"/. c #3DBBF6",
"(. c #3DBBFA",
"). c #4C98C2",
"_. c #46AEDC",
"`. c #48AADC",
"'. c #53AAD5",
"]. c #68ADD4",
"[. c #72B3D2",
"{. c #48ADE3",
"}. c #49B5E6",
"|. c #45B4EC",
" X c #4AB5EB",
".X c #58B7E6",
"XX c #41BAF6",
"oX c #48BAF5",
"OX c #42BBFC",
"+X c #55BEF3",
"@X c #3FC1FD",
"#X c #72C3EC",
"$X c #C69380",
"%X c #8FBEDA",
"&X c #AABDC7",
"*X c #89C3DD",
"=X c #B5C5CE",
"-X c #AEC8D8",
";X c #83C4E3",
":X c #91CDEC",
">X c #9BDCFE",
",X c #ABD3EA",
"<X c #B8DCEA",
"1X c #A6D9F6",
"2X c #A5E3FF",
"3X c #BAE3F4",
"4X c #B4E5FC",
"5X c #B9E5FA",
"6X c #B7F0FF",
"7X c #C8D1D6",
"8X c #CCEAFB",
"9X c #C9FFFF",
"0X c #D9F7FE",
"qX c #DCFFFF",
"wX c #E3EDEF",
"eX c #E3FDFE",
"rX c #EAF9FC",
"tX c #F3FFFF",
"yX c #FAFEFD",
/* pixels */
"3 ! #.S S D 7 _ $.5 U q.X.l Z &./ $.K M X.P 3 ) | b ] k 1 -.T 7 %.6./ * o.,.} +.& ) @., R O.m Q } : ! $.7 I 4. .K v 3.%.%.R 5 ) I ",
"2 5 ~ / m : V 9.%.V N I I U | | Q V 1 2 M 2 < K ] / N k @.q.$.7 1 R ~ v $.} V D v % 1 x * V %.V - v #.7.o.m V ~ R 5 %.R V B c L b ",
"/ 1 1 ! M 5 (  .&.' V k % , U *.: 1 V A v D R , 1 ~ ; B *.' o./ 2 > M V $.~ ; ; V Z V ] b - ! V & $.%.} +.V # 6 J M -.V ; v B N C ",
",./ , 2 6 ! >.S C O.O.I x k x x < } 9.>.$.9.7.B = M > / #.x ' ,.%.5 , < 5 7 V @.} 4.&.4.%.v 2 x 6 3.Q l +.<.K J > 5 R v V 3.<.<.;.",
" .9.! 2 c K +.[ ' *.' k Z %._ > b %.<.}  .,.3.%.T 4 1 ^ $.] #.O.R 5 ~ $.N 2 K q.1.' | &.#.#.I & J _ / Q >.>.Y 6 / ` 5 ; o.9.+.+.O.",
"} 3.~ B K v v ~ 4.F k l ' <.3.$.2 M V G } W ~ 3.W 7 K b v O.o.z 5 b *.i.%.R 1 B ' E | ' &.;.b I V M ~ %.~ l b V 7.u.~ 5 B D m } ' ",
"$.V V G o.R 1 2 b ; D 5.,.| } O.H 3 V >.>. .o._ n E O.N - v 7 M >.} Q %.o./ 1 5 C &.&.' | I k %.S ; 1 P M M o.,.Q <.o.R - M ( 3.| ",
"^ - D >.<.3.P 3 > I <.| C | e.E U M / >.Q } / + Q 1.3.o.Y - > ^ +.} / $.} $.v N 4.] ' | k ; 4.3.r./ 5 & 6 @.<.G [ } } @., / 7.W | ",
"v R >.<.Q $.6./ 5 J %./ D ..J 2 1 1 ! U =.! M ~ 5.Q } O.*.I Z V +.W / @.c 2 c > } / 3.M K @.%./ | O.#.J x _ *.Z ( R > > 5 M _ ..o.",
"2 } $.} } D 1 M M 1 K m ; < > M O.V M M M 5 b %.Q O.] b N 1 1 x z 1 # > > ! -.I 1 * 1 M K $.$.} D b b N x N v % - : M @.) M v k N ",
"5 n ( } l : V R V V / R n ! ! J 3.$._ @.1 x 1 Q +.Q ; k V Z N o.$.R B _ ! I %.$.o.Q , M v _ ( R @ l I N N ..#.Z / R M _ 0.3.o.1 5 ",
"~ l V V ; R 9.6./ ~ O.%.3.7.X.5 V ` q.3.J ! V v Z ; : ;.e.4.R R %.%.3.7.W 7 ~ %.7.#.v R b 7 b ; D *.9.O.I X.;.*.%.3.W M D @.7.o.x ",
"3.>.b - R 3.3.>.>.V v %.3.R 1 1 l : ~ M R %.3.~ x k ~ e.O.3.o.k I %.o.b + 1 Y 1 Y b D 3.3.v B 1 4.*.3.4...v Z :.` R * - V R R 1 +.",
"%.<.$.R V / o.Q >.G 1 V M 5 R / <.v l ; ^ %.3. .3.V N ' V } +.Q M R v v D } o.1 + M %.%.4.$.%.b ~ R E o.o.I M ~ 1 V ^ <.W * 1 B &.",
"R R 3.#.- 1 o.Q } +.R 1 1 ~ t.>.u.$.R B / o.E Q *.x - I 3.O.' } 2 , ;  .i.5.5.>.5 Y } V D %.` 2 x ] o.Q } ] c > / $.+.5.3.Q R K o.",
"S Q R M 7 v D >.[ } V v M ` 4./ Q >.] M 1 R b ' V R x % o.Q R +.x R Y }  .Q ( o.%.5 1 E D / 5 R > E } } O.E c M ! 3.+.} [ o.] 1 v ",
"= = 1 b V 1 > 7 5 / 2 1 B v ! @.F *.%./ K 6 = 4 : b R , tXeXeXqXqXqXqXqXeXeXeXeXyX#.J # 2 x , b < M x 2 @.v + v 6 ! / { +.D 3.P x ",
"_ ^ E ..3.$.B = 1 W R ~ ! ; 1 o.3.R l v v K ) ^ / %.-.! eXV.B.).B.[.;X*X*X#X;X*XeXV 1 ~ #.K / e.;.V < > 7 V `  .M - D o.( E 7 K K ",
"` >.%.| O.O.R 8 @.#.3.3.7./ 1 A R < v ^ K I @.;.{ +.} *.qXM.x.v.c.R. X X}._.{.'.qX..v E ;...*.o.*.R I #.%.9.5.>.%.b v ! x D 1 Q x ",
"n / O.E ' } R n  .o.+./ $.<.l ; < > T 7.O.b b ..} D eX*X#XN.J.K.Z.U.W.E.E.W.(..X>X,XrXN R ] +.m ~ ] , b o.3.E (  .W > 6 2 B %.1.I ",
"; Z ' | *.*.I ; 1 z o.W D R z R ^ B 7 ~ ;.Z % E &.' qXb.c.m.c.Z.L.H.Z.Z.n.Y.OX X`.].0XM x Q ' ,.<.#.5 5 V } G  .S m K ! U M ( [ | ",
"1 R o.O.| ' V v b b / 3.( V V 6.2.o.< 5 #.! k #.0X:X:Xm.L.Y.R.c.h.h.h.z.D.I.Q.W.XX.X1X<XeX*.' } Q 1 b R : V } E / < 7.-.=.K - R ' ",
"4 K ( / V ; v =.#.B v $._ b R #.} ( b v ! J c ) 1Xk.v.Z.m.~.+Xp.9 r e s.K.D.n.D.^.XX|.'.<X#.Q l ~ v _ =.K B %.%.R - <.+./ / 1 $.R ",
"4 7 Y / R 7 K 8.3.! 1 Y K M @.@.Z b k 1 5 4 > 2 2Xx.K.C.F.!.+Xh.i t w s J.L.n.P.(.(.(.{.4Xb E | - M 6.:.-.1 1 A J ^ } [ : v , > 2 ",
"4.1 - M 2 V $.[ / #.R 1 1 M P @.< 4 ! ( K $.>.+ 2Xx.Z.D.A.~.OXL.N.f.w d J.S.A.G.^.(.OX{.5X1 & H ; } } G >.o.x 5 5 P ` P & M o.Q o.",
">.$.B , M _ } V R o.` ~ V 4 # - B $.w.9.&.4.9.#.>Xx.H.D.C.~.OXI.T.f.e a.J.S.S.G.^.OXOX{.5X/ c c A O.W m } #.R B V - O 7 #.9.3.%.O.",
"} t.o.- x R I _ $.%.Q ; z 4.4.z 7 @.>.o.| ' | *.1Xx.K.Z.C.~.OXI.v.f.e a.J.S.S.P.^.(.OX`.5X$.N % 2 R #.<.>.} V 1 } 9./ ; ! 7.%.E | ",
"Q >.~ v I M 2 ! -.v v W $.>.>.Q ; l V D | | ] *.1Xx.m.A.A.~.OXU.J.f.e a.J.G.S.G.^.(.(._.3XR R D K 5 B / D v D / { 5.>.m 1 1 V %.| ",
"Q m z ` %._ c $ , 1 / 4.%.( } } K 1 W $.+.&.I Z 1Xj.v.H.Z.^.OXL.K.f.e a.J.P.S.P.^.XX/.`.5Xl D 5.3.c # # < R *.+.[ } $.Q 7 V O.3.| ",
"R z R  .%.3.=.M + ~ 3./ D $.3.Q K , ( $...' k k ,Xd.z.c.Z.^.OXL.m.f.w a.J.F.S.P.XXXXXX_.5XZ o.O.3.@.^ 5 5 $.7.R +.} / M ; ^ 4.~ O.",
"v ! #.+.W / %._ V A I R ~ M , , M 4 P J E _ V -.1Xd.l.z.c.Q.(.I.m.f.w a.L.F.S.G.^.XX/._.4X%.5.F o.%.@.M 5 ! _ V R ; - M K 7 n / ] ",
"5 ^ #.$.Q v 1 , v V v , 5 5 2 K 8.=.T # 7 B # =.1Xd.x.l.z.Q.OXI.m.s.9 s L.F.A.A.^./.@X_.4X_ $.} l 1 1 M K P 5 , - M K ) :.} : * x ",
"l B @.R M 5 } } V R 5.} G 3.o.v {  .#.7.J H B Y -Xq d g.l.Q.oXH.m.h.w s J.A.C.A.^.OX/._.4X` #.M 5 B %.V n 5.5.Q ,.Q F E ] 4.1.Q 3 ",
"( b , , v %.u.3.$.n D >.4.3.R 1 l Q %.~ T _ ` B &X. t j.x.|.oXR.T.s.w s J.S.C.L.XX~.@X_.5X1 > % / 3.t.3.D v ( <.6./ x k I *.@.v V ",
"5.>.R R 7 $.%.} 7.R b / Q 1 v 5 l k b 7 $.$.3.>.-X. t a s.`. Xc.f a w a.K.D.S.G.~./.@X_.5X_ ~ N ( <.@.4.O.v / -.c J M c c N c N &.",
"Q <.<./ k m ~ ( ~ @.n l 1 n O.O.7./ 5 < @.o.o.>.&X  X w t '.+Xs.9 r w s.K.S.C.P./.oX!.'.<X6.%.5 V } R / $.K M 5 5 ! %.:.O.c 2 _ +.",
"R / o.m n z / %.~ %.B 1 B %.i.$.*.6.! c M ` W W 7Xh j 0 w M.B.s.p.a.p.l.D.P.Y.Y.XX|.#X%X8X-.I 5 : E %.$.$./ 2 v o.3.,.1.5.' v v ' ",
"v M R : m 1 V R } o.v > M ~ X./ E &.....v M 1 A b V rXo . 0 w k.T.T.v.n.D.Y.OXoX X.X0XM k R M I : : / / ) ~ 1 K R } } F [ &.' b 2 ",
"# 2 1 V ~ M , 5 v v M M M 5 c *.&.' ' X.K > > v k ' wXu q 0 w k.v.v.H.D.S.I.oX X.X[.0X> 1 1 x I _ 2 % 5 N v 1 , c V E Q ' ] @._ N ",
"0.=.! 3.u.6.6 3 b I -.:.@.N % ]  .b b - J ^ -.~ ' *.yXrX0Xu 9 q i j.m.K.n.R.+X.X9XqXyX_ y.U #.i.6.^ > M I } u.%.H 2 I *.] c 2 3 b ",
"_ #.$.S ' $.b Z *.1.&.&.&.o.K 2 N & K -.W v / +.Q } / / V y   . . p b.x.x.N.'.].eX<.z z O.&.O.D ] b N O.3.O.{ &.;.! 1 5 5 v W +.M ",
", x <.*.} *./ , Z / | | $.O.I % v 1 R ,.3.V l R +.' ..*.! =X=X=X-X,X4X1X2X2X6X8XtX4.o.1 b ' O.} &.%.N k #.,.[ ' +.I 5 , 5 R o.5.R ",
"k v O.O./ +.E % v V E ' Z b Z o.} G * 1 +.D ; Q [ Q *.#.N % ; U E W o.V E $.~ v & ~ #.v k ..&.] o./ 1 O x E E D V v o.@.! M : R +.",
"x / ] R E Z v R M 5 E e.O.k b 4.<.} 1 v %.! 7 @.Q Q | l ; ! V M <.$.R * ( 5.<.Q c I =.K V %...I / ; K ..5 v #.%.D l *.4.#.K , %.E ",
"+ I ] ] E < c 4.=.N c X.O.V Z *./ ~ K K M 2 2 P | E m @ Z i.@.x ! / / 1 ' $.Q Q M 2 J 5 1 / E ] V > O.y.I x ..#.W v +.o./ ! 1 U V ",
"V , x U N x ..O.;.] b & & V ] %.8 2 6 5 6 M H 3 I b v l } 3.] R > : V V O./ 1 - c x M v x x M ..% E o.O.} Z , x ; D %.V 1 V < , x ",
"e.I & x c I &.R C O.O.N x N K M < V _ @.<.9.@.1 2 M b Q | S F %.! 1 - 5 K K 5 ^ &.3.%.*.#.M & c k +.| D +.O.N , < I W : : / 3.;.%.",
"%.e.J 2 J I / / ' &.O.L H H M 2 V 5.t. .[  .,.,.3 J ; D +.D [ $.@.B M U 5 c P $X[ 1.' *.9.U J M V F Q G ' %...M P M - m %.5.3.~ | ",
"{ +.] c 5 P ~ W 7./ m * F t.,.m & I ;.G ' [ O.;.I 2 k I ~ $.%.o.v 1  .t.$.x c _ | ' | *.%.O.k c m b / 3.$.V m b 5.5.' c 2 &.O.F | ",
"C | R K @.M O D R 1 Z | &.<.| O.P O b ' 1.| | ;.N ] ' % + I R ; R $.%.$.+.R x 2 C ] &.] Z &.Z Q R ; 1 W V k D -.} &.X.U & c D >.} ",
"$.M k } 9.#.6 # 2 c O.%.} O.o.%.J c &.|  . .E % V *.7...5 + 5 ~ %.3.o.o.4./ x N *.| o.O.C b C t.3.D + O 7 o.3.] G 3.%.! c / O. .| ",
"M b } +. .>.6.) 5 K ;.%...@.! M x x ~ ] O.Q b I ,.o.' *.3.N 2 ) 3.o.R Q ~ v < M ] ;.O.I ; ' | +.;.4.$.v 1 } -.W } $.V , 2 / %.' O.",
"> =.3.Q G Q K ! K x V V k 5 , c I N k k R R M 3.+.} V V ~ V 5 H m v b 1 # B ] v x K b V b 1.3.D D K D V 1 n V 1 l % % I ! > k b R ",
"J ) o./ A z l ; J b I v ; V K J *.7.] b v 7 # _ Q / Z v 1 5 M ! Q : M R 5 / 9.$.X.v # V V ] $.E : ; < : V ] R 1 v v V ;.y.E I x 1 ",
"v , ! @.1 B 3.+.V ] 5.5.;.e.X.c | ] *.:.I M 1 _ o.v 1 W %.$._ W u.( $.6.! M / @.4.O.b Z , I ..2 b $.7.o.V ] 3.%.7.:.Z b #.;.i.E 1 ",
"5./ 5 $ M %.5.,.;.v b ] #...N c k Z %.! & q.0.2 1 > I 4.u.4.o.l G o.3.@.x > b ' $.b x e.] 2 1 , $.%.7.7.R n R %.X.] > > E I #.c ~ ",
"&.*.%.I V O.&.} &.' 1 ^ ` 4 v V W n # > ( 3.>.,.Q N ' | ] ' | G v o.R 1 1 R ^ ; % b O.5.&.O.] , %.| ' | ] Z K X.c J N V S , > ! >.",
"F %.%.I x b E Q ' &.n > 4 Y ;.7.4.@.n M / $.( G #.N x U ] &.| F < 7 1 ~ 3.9.7.( N Z ] ' E O.@.I k Z ] &.&.I k 5 2 ..4.9.3.R M P +.",
"I ] X.R c v ~ 3.Z %.I ; M #.7.o.&.o./ V 5 B / o.] v % N X.%.O.| 8 8 V <.7.O.o.O.I N N I / O./ , k E O.$.o.E M M ..3.3.$.$.} V 1 Z ",
"x % - x c c 7 K ] / c 1 B R ] O.' ] &.O.v , 1 < 1 v x x N N Z E 4 7 8 ^ ] E | &.:.~ b k 1 x c c < c B I ~ J 2 , E E E Q o.+.o.R c ",
"K M M / @.! 2 # , - k b b - - / 3.Q E I v N K c b O.#.J < > k V ! B 5 1 I %.&.' V V J J M x I :.~ M # = N B V ^ * 1 E %.o.R V A J ",
";.-.%.3.3.#.R M ^ @.7.e.4./ v W / v 1 v V ! =.e.| 3.4...N V ..#.3.3.#.b v ] K 1 k v V X.:.;.O.*.9.~ < M X.#.%.t.E v V ~ V : 1 m M ",
"Z ] ..E G ' E v 3.>.*.' ' X.6 6 = 6 R %.O.V N X.' F ' ..V V $.3.} *.4.R 7 B 5 8 &.*.U c ] ;.O.Z | U V X.e.4.| ' 5.V < c 6 K  .3.V ",
"% I  .| O.*.] l 7 Y %.} O.@.8 6 H H K } $.N k ] &.G | ;.Z 1 V ] | G } A M 8 4 g z *.O.k v O.| ' 4.] x k I | } [ } B M J 5 M / $./ ",
"k I %.' ' ] v x 5 c I E E V M ;.1.R 2 c $.Q 1 X.| ' ' ] k x 5 c R R ..1 ~ 3.%.m > R $.V v X. .' ' Z x 5 6 M ~ Q ! 1 } 4.#.2 1 } | "
};
