/* XPM */
static char *_5328_20e15961e8a2dc59f0bd70aceb3b805a07c1f2a984812146518eec7b49d19164[] = {
/* columns rows colors chars-per-pixel */
"65 65 239 2 ",
"   c #0D0501",
".  c #140602",
"X  c #190602",
"o  c #150B05",
"O  c #190A05",
"+  c #14070A",
"@  c #160C09",
"#  c #1A0A09",
"$  c #1A1006",
"%  c #1D120B",
"&  c #1C1511",
"*  c #220C03",
"=  c #271503",
"-  c #2B1505",
";  c #22130D",
":  c #2A160B",
">  c #2D1A0D",
",  c #3A1E03",
"<  c #331B0D",
"1  c #3B1E0C",
"2  c #231611",
"3  c #261A13",
"4  c #291B14",
"5  c #2B1B16",
"6  c #311F15",
"7  c #3F1D13",
"8  c #38220D",
"9  c #2D2315",
"0  c #292516",
"q  c #2E241B",
"w  c #2F2A1A",
"e  c #332314",
"r  c #3B2414",
"t  c #332916",
"y  c #33241A",
"u  c #3A261B",
"i  c #332B1C",
"p  c #3B291E",
"a  c #36311E",
"s  c #2F2B21",
"d  c #362720",
"f  c #342B22",
"g  c #3D2B22",
"h  c #3C3224",
"j  c #3B3626",
"k  c #421E0E",
"l  c #45270A",
"z  c #51310C",
"x  c #452417",
"c  c #452915",
"v  c #4B2B14",
"b  c #442B1C",
"n  c #4B2C1B",
"m  c #532D1B",
"M  c #49311C",
"N  c #543315",
"B  c #52341D",
"V  c #593A1E",
"C  c #693B1B",
"Z  c #733F1C",
"A  c #422E23",
"S  c #4C2C23",
"D  c #4A2E2B",
"F  c #522D24",
"G  c #443225",
"H  c #4D3422",
"J  c #4C3A24",
"K  c #45352B",
"L  c #49362B",
"P  c #433A2C",
"I  c #4B3A2D",
"U  c #533523",
"Y  c #5A3624",
"T  c #543A24",
"R  c #5B3B23",
"E  c #543C2B",
"W  c #5B3E2A",
"Q  c #483D32",
"!  c #5B3F32",
"~  c #633C23",
"^  c #6D3C24",
"/  c #623D29",
"(  c #713E24",
")  c #723E2A",
"_  c #613F33",
"`  c #73411D",
"'  c #4A472E",
"]  c #54402D",
"[  c #5C432D",
"{  c #434233",
"}  c #4B4435",
"|  c #4E4935",
" . c #4C4539",
".. c #4D493B",
"X. c #544433",
"o. c #5A4232",
"O. c #594738",
"+. c #534C3C",
"@. c #5D4B3C",
"#. c #555439",
"$. c #64432B",
"%. c #69472A",
"&. c #754324",
"*. c #784726",
"=. c #794926",
"-. c #75442A",
";. c #79462C",
":. c #754B2C",
">. c #7C4A2C",
",. c #7C552E",
"<. c #644532",
"1. c #664B34",
"2. c #6C4B33",
"3. c #6B4539",
"4. c #614D3D",
"5. c #6B4C39",
"6. c #794632",
"7. c #754B31",
"8. c #7D4B33",
"9. c #794A39",
"0. c #6D5239",
"q. c #7E5234",
"w. c #74543B",
"e. c #7A5439",
"r. c #78573A",
"t. c #554C41",
"y. c #5A5542",
"u. c #5D5B45",
"i. c #5B5649",
"p. c #664E40",
"a. c #625142",
"s. c #635E4C",
"d. c #745945",
"f. c #7C5B44",
"g. c #625D52",
"h. c #66644E",
"j. c #7F6144",
"k. c #666252",
"l. c #6A6555",
"z. c #6C6758",
"x. c #6D6A5A",
"c. c #736B5A",
"v. c #74725C",
"b. c #7B795E",
"n. c #777662",
"m. c #7A7563",
"M. c #7C7A65",
"N. c #814F2D",
"B. c #83522D",
"V. c #814E34",
"C. c #824E3A",
"Z. c #845335",
"A. c #885636",
"S. c #855836",
"D. c #8B5935",
"F. c #85533A",
"G. c #89563B",
"H. c #845B3D",
"J. c #8C5B3C",
"K. c #925C36",
"L. c #925E3D",
"P. c #8C643D",
"I. c #956439",
"U. c #94633D",
"Y. c #A0663E",
"T. c #895740",
"R. c #885743",
"E. c #845D42",
"W. c #8D5B42",
"Q. c #915E43",
"!. c #925F49",
"~. c #846244",
"^. c #8C6242",
"/. c #8C6944",
"(. c #87654B",
"). c #946344",
"_. c #996645",
"`. c #956A46",
"'. c #9B6A44",
"]. c #95644A",
"[. c #99664B",
"{. c #946A4A",
"}. c #9C6B4B",
"|. c #91704D",
" X c #9C714D",
".X c #8A6A55",
"XX c #976452",
"oX c #956D54",
"OX c #9D6C52",
"+X c #947252",
"@X c #9B7254",
"#X c #9B7759",
"$X c #A16C45",
"%X c #A16E4C",
"&X c #A37246",
"*X c #A3724C",
"=X c #A9744D",
"-X c #A6784D",
";X c #AB7A4B",
":X c #A16E52",
">X c #A26E5A",
",X c #A47353",
"<X c #A97554",
"1X c #A57954",
"2X c #AC7A55",
"3X c #A67459",
"4X c #A9765A",
"5X c #A47B5B",
"6X c #AC7B5B",
"7X c #B17353",
"8X c #B27B55",
"9X c #B17E5C",
"0X c #897C6A",
"qX c #A57B62",
"wX c #AE7C61",
"eX c #B27E62",
"rX c #7E8067",
"tX c #AA815B",
"yX c #B58559",
"uX c #B3825D",
"iX c #868769",
"pX c #84836C",
"aX c #8C8A77",
"sX c #909176",
"dX c #97967A",
"fX c #A98465",
"gX c #B48263",
"hX c #B88665",
"jX c #BA8964",
"kX c #B6876A",
"lX c #BC8A6B",
"zX c #B4926F",
"xX c #B98872",
"cX c #C08F64",
"vX c #C1916C",
"bX c #C18F71",
"nX c #C49473",
"mX c #9C9886",
"MX c #A3A18A",
/* pixels */
"9.].,XK.I.I.Z.[.6X>.!.kX>XZ.L.7X}.6XW.G.>XW.8.XX<XA.%XN.>.wX].7.6XkX$XC <XuX*X2X^ OX3X;.Q.<XD.'.:X=._.1XZ.J.kX3X].8.9X6XgX).8.>X'.",
"6.8.[.,XD.*.J.lXtXJ.Z.!.!._.=X7X_.P.>.>.F.8.8.T.%X}.G.N.:XbX5XZ.>.).[.V.4X,XD.U.G.( >.V.&.L.9XJ.-.Z.6XlX,XS.J.}.!.q.6X).J.G.V.F.C.",
"}.>.-.].G.>.}.-X6X}.J.N.( ;.!.9X=.>.J.W.F.W.).-.>.[.;.L.6X}.*X}.>.-.F.G.4X[.*.*.J.L.L.$XA.( _.G.-.3X6X*X2XJ.^ C.F.G.wXJ.-.Z.J.F.D.",
"yX}.-.6.C.).tXI.K.=X8X).N.>.8.8.=.,XjXuX2XlXkXJ.-.e.( }.2XV.}.gX3XV.;.;.V.V.G.6X=XyX9XgX4XV.>.V.C.6X'.B.2X9XW.F.-.e.].8.J.gXgX9XeX",
"-XlX].6.C.W.,X*X=X8X$XN.L.6X}.;.Z.6XgX-X-XuXgX6X].:.;.}.1X:X2X1XQ.V.].:XG.;.W.xXcX$X=X<X6X4XW.-.W.OX}.'.uX6X).V.}.%XZ.-.*XlX1X6X=X",
"*XyX}.Z.W.Z.Z.).eXI.N.D.%XuXgX3X6.F.D.I.*X'.}.gX].7.W.F./ v c c k x x n 6XQ.;.J.$X'.=X'.9XeXF.J.J.Z.].6X}.B.A.Q.hXnX).V.G.U.A.-X=X",
"1XJ.J.`.*X}.;.6.G.*.U.jXyX*X-X,XC.6.D.yXuX*X*X}.S.3.F k l @X1X`.W.W.7.$.R o.>.N.K.;X8X%X<XL.A.6XJ.-.>.T.F.Z.OXyX'.uX,X`.-.G.}.gX=X",
"[.&.U.yXuXgX!.9.( Q.gX;XD.=XjX$XXXF.}.tX'.*X$XC S k 1 w.3X}.&XI.$X[.`.^.2.[ W ! jX%X$X=XN.*.gXgXcX}.V.-.F.3XtX'.&X*X X,X;.}.gX`.=X",
"Z.).uXyX'.2XgX[.V.W.4X$X).>XT.-.>.V.[.!.4X].[ 8 ] %.c w.gX_.$XY.L.$X).`.~.V f.fX~.1 kXF.W.3X6X}.<X<X<XW.V.:X9XL.*X).-.) 9.F.[.:X<X",
">.*X1X}.*XJ.>.Z.V.N.Q.A.*.;.-.T.:XJ.Z.F.V.V.8 tXtX|.$.%.6XU.'._.[.!.+X+Xr.l ,.tX5X+Xx F.W.3X4X*XK.A.F.F.V.F.A.Z ` >.G.OX>XG.Z.N.F.",
">.Z.}.*XB.>.P.[.G.J.%XL.G.).!.!.gX6X:X,X6.M #XtX'.tX7.N #X{.~.r.e.$.$.4.1.N 2X=X=X<X<.x S }.*X_.Z N.J.A.G.:X4X!.}.).F.:XxXkX,X>.6.",
"`.Z.J.J.=.).lXgX%X_.:XeXhXkXOX8.J.:XlXD 1 j.uX;XY.;X7.T +XN l c r t p r ] v *X7X=X=X#X<.< V.Z.*.U.9XbX<X!.:XeXeXtXeX`.A.Q.3XgX,XC.",
"gX6XJ.&.).gXuXuXuXD.Z.6XgXQ.>.;.>.>.}.Y R tX-X*XyX}.[ l H - X $ O $ $ = e c OX:X=X$XtX2.R W D ;.hX9XgXhX:XC.W.eX,XP.&.&.D.`.).*.8X",
"6X6X,XW.G.}.,X).8X_.Z.J.F.N.).}.9XZ.x (.j.,.yX1X`.$.r * * X o o $ o O O O : x !.6X,X`.N ~.oXY V._._._.<X=XW.A.XX;.J.}.uX'.-.>.J.7X",
"U.U.gX6X&.>.*X'.*X2XU.;.-.[.nXuXnX4XR.6X*XC  XtXT > % % X * @ @ @ o X X X * * A o.~.N q. X[.2.<.V.%X<X_.%X:XF.6.}.,X2XjXgX'.).J.=X",
"I.'.).J.Z.Z.U.tX&X*XD.V.J.,XhX`.D Y 4X8X;XH.N J = $ @ + # X + @ @ o O * O O # X 4 8 V  X}. XH.Y -._.%X%X=X`.F.F.[.gX2X*X$X-X}.>.F.",
"%.&.;.Z.J.V.-.e.C.[.;.;.J.F.!.4Xm :X7X7X8X{.8 o X O # # # + o o # # O X O O O O O X 4.qX).).*XZ.;.F.6.6.3Xq.C S.9.].}.-X2XU.gX].N.",
"oX].[.=X9X<XF.-.>.).).[.).-.;.S E.hX7X<X,X2.= $ # # # # + @ o O # # # O O O o O X X 1 .XoX).I.'.Y _ ;.-.H.J.}.1XZ.-.U.,X}.).8.J.J.",
"@X6X6X<X2X<X).q.1X6XgXgXgX}.>.E fX,X2X6XH.8 o o # X # # # @ O O # # # @ O O O O O O X M qX{.}.`.w.E 5.f.6XlXjXtX6XA.Z.].q.J.>.'.V.",
"Z.%X<XU.$X*X).Z.,X1XuX}.6X6Xx r ~.5XqXoXz X $ @ X # # # # # # o # # O O o O o o $ O X * [ (.|.`.2., n 5.,XyX'.*X;X`.-.Z.6.J.2XjXQ.",
"-.L.%X*X8X9X).&.>.Z.,X'.U.).B [ z ~.+X4.[ t o o @ O # # # # # O @ @ o @ O @ @ o o o o = [ $.|.j., [ M <.J.,X'.;XU.D.^.].].F.'.*X=X",
"*.).,X2X<X_.G.Z.D.Z.}.6X}.J.j.tX%.l o.b b.{ o o o # # # # O @ @ o @ @ o O @ @ @ $ o o h c.8 %.l r.fX(.M >.J.-XU.}.-.lXwX3XW.&.U.=X",
";.W.}. XJ.-.Z.4X6XW.Z.,X@Xv ^.1XP.l > t.l.} % o o # # # # # @ @ @ o o # O # @ @ @   o z.a.X.= 1.gXgXE.n W.G.9X6X).&.uX2X'.}.>.3X!.",
"7.q.^.}.).q.W.xXgX].;.Q.W.2.}.U.^.B o z.g.t.$ O X o # # X # @ @ @ o # o # # @ @ @ @ @ 0X..| o j.uX<XoXR qX;.>.J.J.].*X*X=.B.-.6.) ",
"gX>.-.G.6.J.2X*X`.4X}.;.U 3.,X%X+XB o Q x.t.@ @ o o O O O O @ @ o @ # O # # # # @ @ @ g.k.j   w.8X=XfX/ F ,XZ.8.9.T.OXT.) J.,X'.%X",
"uX,XJ.;.C.OX@XK.).:X,X].Y .X}._.r.8 @ & z.f   o O O O O O O @ @ @ o O # # # # # @ @ o s x.0 o b }.2X#X(.F 2X].F.J.-.^ e.5XxXgX9X9X",
"-XvX,X&.8.).W.OX4X6X}.-.m oXOXoX$.- o o i.q . # O O O O O O o @ o @ O O # # X # # o   q i.@ o = F.gX#Xw.S *XJ.=.,XlX}.&.`.lX4X}.=X",
"'.2X'.G.).F.6.].4XS.B.).k l ~.E.U O o 0 z.h % # O $ O @ X O o @ @ o O # # # # # @ @ @ f x.3 o $ n E.%.8 8 Z.U.}.=XjXuXD.-.>.J.6X=X",
"}.D.A.}.eXOX8.) >.>.}.~ %.P.C n 6 O   ..x...# # X o O o O O o o @ X # # # # * + @ o $ k.g.j o O r , z ~.o.E 9X2X*X*X1X[.>.D.6XgX=X",
"I.S.).<X6XgX3XF.Z `.eXv 1XnXr.c = ;   l.s.y.@ # O O @ @ # @ O o @ @ + # * + # X o   $ pXQ } o o = M `.zX(.x gX_.2X-X}.S.;.}.hX}.<X",
"Z.).3X1X[.,X6XOXJ.P.Q.n ^.1X#XT X @ o | c.} % @ @ o @ @ # @ O o @ o # @ # # # # o o % i.z.P o O o d.jX-XE.n :XJ.Q.;.( G.J.Z.J.'.%X",
"8.}.6X1X'.Z.*.>.Z.J.N.n P.2X+XH % @ o % h.g @ + @ @ @ O @ # # O @ o X + # # # X @ o @ d z.& O $ o .XuX-XR.n 8.-.( F.T.OXfX}.=.` V.",
"B.Z.,X!.C.8.*X*XJ.'.gX$.1X1XoXx X @ # . f # o # O o o O # O O # O O O # O # o # # o o O f . O O X W 2X;X].B gX'.yX'.U.).*XgXhX$X9.",
"*XD.;.;.F.6XvXgX3XF.).j.tX-Xw.- O @ @ @ O O O o o O O O . o O O X O o O X # o o . # # o # @ # X o * }.2X,XR  X6XhX%XZ.8.Q.6X<XV.J.",
"jXuX[.).Z.6X6X-XlX).Z.0.tX1X$.* X # o X o o o % ; ; % % ; # # ; ; % ; % ; & ; ; 2 # . # o o o # $ - P.tX#Xv }.6XC.T.G.C.C.G.C.G.8X",
"'.tXtX}.=.J.'.}.}.:XZ.<.5XP.<.: # o # # o O 2 3 3 5 5 5 5 4 3 5 5 5 5 5 5 5 3 5 5 & & # X # # o o 3 %.~.~.b F.8.V.[.wXeX4XV.8.[.<X",
").OX,XA.Z.Z.%X6X}.6XG.F ^ v n : X O # o # ; 9 5 3 4 4 3 3 5 5 5 5 5 5 5 3 5 5 5 3 5 q & O O O @ # 2 r l 8 8 8.F.<XuX9XjXgX*XN.Z.$X",
"Z.G.U.=.A.>.J.].%X:XZ.x %.C D : . # O # 3 0 2 5 5 3 4 3 5 3 3 5 3 4 3 3 3 5 3 3 5 3 5 3 3 ; . # + 5 %.r.:.v >.W._.,X$XI.$X8X'.A.V.",
") 7.8.D.[.G.;.C.A.Z.G.5.zXOXf.= O o # 9 3 5 3 3 4 4 4 4 4 5 4 4 4 4 4 4 4 4 3 3 0 3 3 5 5 5 # O + : #XzXzX$.=.=.V.G._.$X$X:X4XOXF.",
"xXwX].gXnXeXC.6.A.J.eXf.1X^.(.> X # 2 3 5 3 4 4 4 3 > 3 > 4 4 4 4 4 4 3 4 3 5 5 4 3 3 4 5 4 5 O X : /.P.`.$.cX6XR.) Q.9X3XC.6.9.G.",
"XX4X4XK.*X2XA.W.9X9X9X:. XU.r.- X 4 5 3 4 4 4 4 4 > 3 4 > 3 4 4 4 3 4 4 4 4 3 4 5 4 4 4 4 4 4 ; O - gXI.{.~ ;X;XeX[.;.8.V.>.'.2XF.",
";.N.9X8X=X9X'.;.L.$X7X:.,X'.r.- X 3 5 4 4 4 > 4 4 4 3 4 4 4 4 4 4 : > 4 5 5 5 3 4 3 4 4 4 5 4 4 O - {.'. X^ *X&X6X!.V.;.V.).,XhX).",
">.V.<X2X%X2X_.( Z.G.[.3.5X{.f.: * 4 5 : : 4 4 4 6 6 6 6 9 y 5 y 6 y 5 9 6 6 6 6 5 4 : 4 4 > 4 4 O < [._.[.R _.U.J.A.@X3X].Z.>.`.2X",
"N.%X:X_._.L.V.).G.V.[./ [.{.w.= : 5 4 4 5 6 y y g g g g g g g g g g g g g g g g u y 5 6 5 > 4 5 2 > oX`.{.Y <X6XU.V.6XhX6X!.;.4X_.",
"Z L.%X:X!.>.A.eX6XG.C.<.@X/.w.- : 4 5 6 p g g g p p p p p p p p g g p p p d p p g p g g d 6 5 5 2 = /. X{.H }.3X).Z.2X,X}.`.>.Q.G.",
"L.) V.!.A.V.:X<X6X%XF.U 9.C T < 4 5 6 d g g g g g A g g g g g g g g g g g g g g g g g g g d 6 : 3 e %.:.$.n >.V.=.).6XJ.-.A.;.-.V.",
"bXL.) V.C.Q.6X!.L.<X4Xx m N S 5 : 6 u g g p g p p d g i p p p g d p p p p p p p g p u p g g d 5 5 > V z l c G.;.;.).`.=.*.}.9XgX2X",
"eXeXT.) !.Q.%X$X$X8X4Xp.qXE.f.: 4 6 g g p p g g p p g p g g p g g g g p g p g p p g g g g g g d ; e zX|.r.U ,XF.W.Z.&.D.2XlXgX}.=X",
"7X8X:XC.7.R.[.[.gXOXD.2.S.7.5.< 6 A g d A u x g g u A A g p i p p g p p p p A p A u p p p g g p 5 r #X%.r.B S.Z.jXjX[.C.8.eX*XU.=X",
"K.*XL.W.,XG.` ^.).>.).2.~.7.2.< 6 g g g A d d S g x u 6 d g g g f i f g p u p g p p p p g i p g r 1 .Xr.w.W ).6X&X8X3X!.) V.L.yX=X",
"6XJ.Z.,XlX1X8.^ 6.C.<X<.H.9.W 6 u g d g g g g d g g g d d f s s w f d f u g g g p u g g g g g G u < 2.r.0.B gX}.'.gXeX[.C.[.<X2X<X",
"C.Z.%X2X,XgXgXXX8.W.eXU w.w.W r g g g A g d g d g g g d q q s s f f s q q i g g A g p p g g p p b r <.w.0.c uX_.-X<XJ.;.8.}.2X$X,X",
") 4XeX}.'.'.Q.[.W.C.Q.E f.2.W e g p p p p p g G Q Q P f ....t.{ { { .... .f K P A A p p p p r p p r 2.w.5.b A.>.N.( ( Q.].*.N.A.`.",
"W.[.1X%XJ.Z.,.>.T.G.).H $.B H u b u p u b A G I Q K P q  . .{ w & s { { ..i P Q I L G g p u p p p r T T U b _.;.V.A.G.eXbX[.!.N.8.",
"Z.-.).OX>.J.gX2XJ.[.hXu v c r e p p g p A L K Q D K Q d  . .+.P q j t.{ t.d K L I I I L A A p p p t v c r 6 gX9XhXhXL.A.7XeXnX].>.",
"hX,X8.^ F.6XhXyXeXA.J.X..Xd.G u p g A g L I K I K P P j +. .} P w { ....t.j K L L L L I K A g u p r d.w.] G ).6X4X[.&.( ].W.4XA.].",
"8X9X<XL.Q.<X8X%X8X$X>.<.5.W L y q w f i g i 9 G a t a a z.u.h.u.u.u.#.#.u.a a 0 h 0 9 j q f f 5 t t T [ o.A J.3XC.T.A.J.J.&.-.[.uX",
"$X4X6X!.V.A._.$X$X8XD.o.1.E y u y.j h t.h } +.i | ' t J b.iXdXsXrXrXiXv.#.w j #.P y...t ..{ w i.h 9 J [ E A 8.8.V.:XhXvXgX_.Z.!.<X",
"Q.%X:X[.V.V.[.eX!.9XQ.A W <.e s.mXk.aXpXl.sXn.v.dXh.iXh.#.iXdXsXrXrXrX#.h.iXu.MXM.pXmX..v.mX{ aXv.9 [ ] } A F.C.:XeXeX2X2X}.J.V.L.",
">.) >.V.C.C.F.W.=X[.V.! 5.T e g g.n.v.u.pXs.k.pX#.b.iX' ' rXiXrXrXiXrX#.' u.h.u.u.l.u.s.u.u.n.M.s.X.H [ I < 8.;.!._._._.,X2X,X_.C.",
"W.C.G.[.,X[.6.^ &.-.N.p W [ u  .+.{ m.h s.x.i m.#.P M.j } b.pX0XpXM.z.#.j x.#.j k.0 y.v.w l.x.{ M.O.H [ J 9 J.[.` N.`.6X,X).J.U.G.",
"wX9XeXhXgX6X].C.{.,XlXA E [ e 9 u h e K G 5 Q u i } t a y.u.l.0Xn.h.u.y.' t 0 w i e w w w t 0 9 9 < E ] J 9 6XlX_.Z.G.[.J.-.>.D.F.",
"J.%X=X_.'.%X'.Z.gXwXuXA [ B u p L I X.@.@.O.@.y.y.@.@.] 9 t e i t t t 9 9 ] #.#.O.y.O.O.@.@.X.I ' r T o.r > <X$XhXK.;.V.9.J.,XgXD.",
"( Q.<X=X=X8X%XN.Z.).6XA ] M 9 u E @.p.4.4.4.a.@.@.@.@.@.@.O.@.O.O.@.@.@.@.4.a.4.a.4.4.4.4.@.0.@.I p J ] t 5 =X$X*XA.F.W.V.F.}.6X%X",
"V.Q.7X%X&X&XC.V.V.R.T.6 7 6 5 p O.4.4.4.4.4.4.4.4.@.4.4.4.4.4.4.4.@.1.@.4.@.@.4.4.@.4.@.4.@.1.@.@.p 9 e 9 5 '.'.].>.=XgX5X-.>.,X=X"
};
