/* XPM */
static char *_1719_48850b78bb000024e4273028ee6b3c1d7a117ed0cc2b3311fbe0f7a9602cb5c2[] = {
/* columns rows colors chars-per-pixel */
"65 65 220 2 ",
"   c #01110B",
".  c #092F10",
"X  c #222428",
"o  c #67351C",
"O  c #6D3C1D",
"+  c #713E1D",
"@  c #6D3C23",
"#  c #713E24",
"$  c #713E2A",
"%  c #1C5630",
"&  c #2C4B30",
"*  c #28593B",
"=  c #2B6127",
"-  c #28613D",
";  c #32773A",
":  c #73421B",
">  c #6F4128",
",  c #744324",
"<  c #784726",
"1  c #7A4A27",
"2  c #75442A",
"3  c #79462C",
"4  c #77492C",
"5  c #7C4A2C",
"6  c #754531",
"7  c #7A4632",
"8  c #794737",
"9  c #7D4C33",
"0  c #7D4D39",
"q  c #7E5034",
"w  c #7E5139",
"e  c #3D3860",
"r  c #7A2F50",
"t  c #483D67",
"y  c #6A3A62",
"u  c #165542",
"i  c #1A5758",
"p  c #2E484D",
"a  c #265A46",
"s  c #265956",
"d  c #1C684F",
"f  c #2A6447",
"g  c #386A48",
"h  c #3C7849",
"j  c #226458",
"k  c #396952",
"l  c #3A7856",
"z  c #1A4D68",
"x  c #175667",
"c  c #2D4A6C",
"v  c #276969",
"b  c #2B756D",
"n  c #377B6A",
"m  c #296B75",
"M  c #5B585D",
"N  c #476649",
"B  c #427E4A",
"V  c #447C48",
"C  c #4F7150",
"Z  c #457D58",
"A  c #6B5270",
"S  c #4D7864",
"D  c #6C6469",
"F  c #932A38",
"G  c #A92638",
"H  c #BB2A36",
"J  c #C3253E",
"K  c #814E2D",
"L  c #83512E",
"P  c #814E33",
"I  c #814E39",
"U  c #845334",
"Y  c #895635",
"T  c #865837",
"R  c #8A5935",
"E  c #85533A",
"W  c #89563B",
"Q  c #87583D",
"!  c #8C5B3C",
"~  c #915D36",
"^  c #915E3D",
"/  c #8F613F",
"(  c #946338",
")  c #94633D",
"_  c #99663D",
"`  c #8E354D",
"'  c #AA3D42",
"]  c #C83843",
"[  c #E73A44",
"{  c #855443",
"}  c #895641",
"|  c #8D5B42",
" . c #8B5B48",
".. c #89594C",
"X. c #915E43",
"o. c #925F49",
"O. c #A6464F",
"+. c #8F6046",
"@. c #946344",
"#. c #996645",
"$. c #9B6A44",
"%. c #956449",
"&. c #99664B",
"*. c #97694A",
"=. c #9D6B4B",
"-. c #9F714D",
";. c #8C6E53",
":. c #976651",
">. c #9D6C52",
",. c #A16C46",
"<. c #A16E4C",
"1. c #A37146",
"2. c #A4724C",
"3. c #A87549",
"4. c #A9744E",
"5. c #AB794F",
"6. c #B07D4E",
"7. c #A26E52",
"8. c #A26E5A",
"9. c #A47353",
"0. c #A97654",
"q. c #A57851",
"w. c #AC7A55",
"e. c #A6745A",
"r. c #A9765B",
"t. c #A7795A",
"y. c #AC7B5B",
"u. c #B17C56",
"i. c #B17D5C",
"p. c #8F4E68",
"a. c #A55675",
"s. c #AD7B61",
"d. c #B17E62",
"f. c #D04855",
"g. c #38873C",
"h. c #408C3E",
"j. c #429637",
"k. c #358640",
"l. c #3C8444",
"z. c #3C8B45",
"x. c #378549",
"c. c #3C8549",
"v. c #348B4E",
"b. c #3D8949",
"n. c #3C8656",
"m. c #438846",
"M. c #42834A",
"N. c #428B4B",
"B. c #469346",
"V. c #529B40",
"C. c #468757",
"Z. c #438B53",
"A. c #42845D",
"S. c #558958",
"D. c #4B9757",
"F. c #549C5A",
"G. c #4DA74C",
"H. c #5BA74E",
"J. c #5BA95A",
"K. c #68BD5E",
"L. c #478A66",
"P. c #48956A",
"I. c #569B66",
"U. c #4F9179",
"Y. c #678C67",
"T. c #659977",
"R. c #5BA469",
"E. c #5EB06E",
"W. c #66B86B",
"Q. c #71BC69",
"!. c #67AA77",
"~. c #75A47A",
"^. c #6BC15C",
"/. c #6CC263",
"(. c #6EC677",
"). c #AE8059",
"_. c #B38356",
"`. c #B3825C",
"'. c #BA875D",
"]. c #AF836C",
"[. c #B48363",
"{. c #B88665",
"}. c #BA8965",
"|. c #B58369",
" X c #B9866B",
".X c #BC8A6B",
"XX c #B98872",
"oX c #C28F67",
"OX c #C2926C",
"+X c #C8976E",
"@X c #C18E71",
"#X c #C49273",
"$X c #C99777",
"%X c #2A6D80",
"&X c #4A8F85",
"*X c #629589",
"=X c #5AA680",
"-X c #63A68A",
";X c #68BC87",
":X c #78BA86",
">X c #66ADA5",
",X c #71C182",
"<X c #989D9D",
"1X c #82BB85",
"2X c #8CA296",
"3X c #AAB2B4",
"4X c #9DDE8F",
"5X c #85CC94",
"6X c #A3CF9E",
"7X c #9CE393",
"8X c #8DCAAB",
"9X c #AAD4AF",
"0X c #BAC6C6",
"qX c #CBE6D8",
"wX c #D2E5E1",
"eX c #E1EDEB",
"rX c #E8FDE9",
"tX c #F2FEED",
"yX c #EDFDF6",
"uX c #F5FDF8",
/* pixels */
"8 %.9.( ( ) U *.t.q X. X8.Y ^ 4.=.t.| E e. .I :.0.Y ,.P 5 s.+.9 y..X=.O 0.`.4.q.$ :.e.3 @.0.W $.2.3 *.t.Y ! [.t.%.9 [.y.[.@.9 8.#.",
"7 9 %.9.R < / }.y.! E o.o.#.0.0.$./ 5 9 U 7 9 } <.=.W K 9.@Xt.q 5 @.*.U t.2.R ) U # 5 P , ~ y.! , Y y.{.e.Y ! *.%.9 t.#.! Y P { I ",
"=.3 2 %.E 5 -.4.u.$.^ K $ $ X.i.< 5 R +.W ^ @.3 5 *.3 ! i.=.9.*.4 3 E Q t.&., 3 ! ^ ^ ,.E # #.W 2 t.y.2.y.T @ 0 Q Q y.T , Y ! U ~ ",
"'.=.2 7 E @.y.( ~ 0.w.@.P K K P 3 9.}.`.t..X XT > E , =.0.U ,.`.e.9 4 4 9 q ! t.4.'.i.i.i.P 5 P I y.$.L w._.| E 2 I X.I ^ d.[.d.i.",
"5..X*.8 0 | q.2.<.u.,.L ~ i.7.2 Y t.[.2.q._.[.t.+.4 5 *.9.9.t.9.| U %.t.T 7 | XXoX,.4.0.i.t.| 2 } >.<.#._.y.@.0 =.>.U , 9..Xq.y.4.",
"1.`.*.U | U U %.{._ K Y <.i.[.e.7 E R _ 4.#.$.|.*.q ! Y U r.9.Y U T y.$Xy.X.4 ! ,._ 4.,.i.s.E | ! U *.t.*.U Y @.}.#X@.q E @.T 4.4.",
"t.! / _ 9.*.3 7 Y < ) }._.2.4.q.I 8 ! _.`.1.9.>.Y @.t.W , U U U y.-.=.y.9.=.5 q Y 5.i.,.0.^ Y y.! , 5 W E U 9.`.$.`.9.@.2 T 2.`.3.",
"*., _ w._.[.o.8 # X.`.4.~ 4.}.,.:.Q *._.$.-.=.O #.[.[.q.X., 2 *.5.2.$.t.=.r.Y Y oX<.,.4.K < [.`.OX=.I 2 W 9.y.$.$.3.-.9.4 >.[.@.0.",
"U @.`._.$.q.[.%.P } i.=.@.7.} 2 4 q *.+.s.%.! #.{.$.4.0.d.^ ! ! q.#.*.t.{ $ w 2 =.=.|.Q } r.y.=.4.0.r.} I 7.i.^ 2.@.3 2 8 E *.7.0.",
"3 2.t.-.2./ 5 E U 5 X.Y < 3 2 { 9.T U E w q E i.$.0.=.Y Y K 5 P R 5 O 2 4 %.s.X.K : 9 U | t.r.2.^ Y Y W P W Y # , 5 } >.>.Q U P I ",
"1 Y =.2.L 1 ! *.W ! <.X.Y %.%.o.|.t.7.7.5 9 5 &.w.$.< 1 ! ^ ! 7.t.@.T >.%.%.y.e.q.@.3 W U >.9.#.+ L X.W W 7.r.X.=.@.E >. X|.9.5 3 ",
"*.U ! / 1 @..X}.<.&.7.i.{. X7.7 ! q..X].Q *.! L ^ 5 K d.@X[.#.@.w.s.[..X%.U *.y..Xt.Y @.T 5 Y < _ i.oX0.X.7.d.d.`.`.@.T X.t.[.9.I ",
"[.y.E , @.[.[.`.`.R Y y.[.@.5 2 1 5 *.T @.y.[.=.U K #.@X9.[.9.5 ! y.y.R O 3 @.5 ! W @.[.[.U T 3 i.i.[.{.7.P X.d.9.@.: , T $.@., u.",
"t.`.9.@.! *.2.#._.@.U ! E 5 @.=.`.T U , *.y.{.0.d.! Y &./ 7.).*.Q @.L U ) 4.-.9 # T y.y.}.w.y.U #.#.&.0.0.^ I :.4 ! =._.=., 5 ! u.",
") @.[.t., 1 2.$.2.w.) 3 2 *.#X`.#Xt.#.T @.9.#.=.d.Y 3 ^ [.q.d U.n b x q.+XoX}.).I | 7.R ! y.9.9 U 7.0.#.<.<.E 2 *.e.t.}.`.=.@.! 0.",
"( $.@.T U q ) `.$.4.E U ! 9.}.#.#.).-.T 3 @.Y ,.I @.P # ).;.=XE.v.L.b %Xq.#.$.q.t.5 5 #.) *.U  .< X.4.<.0.&.U E &.[.y.2.1.q.-.5 Y ",
"> > 3 U ! P 2 0 U &.5 3 ! U %.r.$.u.y.=.@.0 > 6 1 T %.2 v.J.K.j.B M.N.n.v <.<.0.7.r.| # 2 9 5 P 5 U 8 7 e.q : T 9 %.*.4.w._ ].@.K ",
">.*.#.9.d.0.T 2 3 @.@.%.@.2 3 9.[.@.L q U  .>.:.*.).[.m ;X(.G.g.!.I.l.C.v [.i.^ K ! 7 &.e.X.7.@Xd.} 7 3 E ! >.q.U 2 @.9.-.@.q ! } ",
"7.y.y.4.w.e.@.q e.y.[.[.|.*.K / #.2 U *.| X.t.s.q.).8.L.(.G.g.g.R.F.l.n.n i | 3 Y <.Y &.d.<.i.0.y.$.@.9.y..X.X).).T Y @.U ! 3 $.P ",
"T -.q.#.$.2.@.Y q.t.y.-.0.y.U < 3 2 %.|.e.W W <.-.+.%.&X(.g.g.v.c.M.Z.n.C.n 2 } 4.oX#.Y X.<.0.~ *.<.5 E 9.'.$.$.q.#.2 E 7 ! w.}.X.",
"< ^ <.2.u.i.) < < Y 9.#.@.#.Y @.%.| U &.i.X.< X._.=.v ,X!.V.N.M.M.N.x.x.C.L.:.E ~ $.9.U L ,.<.i.u.t.P 5 ! q.$.5._ R | %.%.E =.$.4.",
"3 @.q.t.0.#.Y U R U =.y.=.T ! |.].9.4 5 t.%.P 0.$.R d (.F.= V S.N.l.b.Z.g k m o.F / `.U P i.,.4.$.K U  .3 ! 1.$.-.3 .Xs.t.| < @.4.",
"3 | -.=.! , E t.t.| E 9.9.Y @.t.-.=.Y P %.W I >.r.*.l Q.~.N & N B.m.B.B a S &Xx I  .>.4 P w.$.L %.0 7.s.X.T y.y.+., `.y.-.*.5 t.o.",
"4 0 / -.@.0 | XX[.%.5 | | E e.r.R R K 5 9 7 6 6 ^ =.;XK.9XtXN p ; M.h & 2XyX*Xi 7 6 6 I P L #.0., Q s.|.s.2 3 / | @.2.1.1 L 2 5 $ ",
"[.1 2 Q 7 ! t.1.*.t.*.5 3 E o.e.4 4 %.>.^ 0.[.: 0 9 E.7XrXtXtX3X. - X S uXwX*Xu #.9.-.=.$.5 @ { < 2.1.) w.9.U 9 I } >. .@ Q 9.$.<.",
"_.9.| 3 E =.2.! @.9.9.%.! 5 # # +.q..X.Xy.`..Xe.0 7 E.4XtXuXX A 9XN Y.uX<X  k f * a s _.{.>.P I ) t.*.R 2.t.%.T ! 2 @ U s.XX[.y.i.",
"3.OX9.2 U | X.7.t.t.&.< Y [.[.Y q 9.`.t.9.2.9.[.+.E E.4XuXuXX D 6XN Y.tX<X  C f * f a <.u.0.W # 9 @.t._.w.2.! 5 9..X=.2 @..Xt.=.4.",
"$.w.=.T | E 7 %.t.Y U #.q.)._.$.1 5 ! ) 4.0.m >X&Xd W.H.9XyXeX0XZ.V Y.rXeXqXT.% Z S a 4.2.$.@.@.| 9 ! *./ R / $.3.}.).T < 5 ^ y.4.",
"$.R T 2.y.>.I @ 3 3 =.[.y.-.4.q.+.5 @.t.u.w.-XE.n.x./.V.6XyXtXqX; m.M.1XrX9XA.* f k i y.#.L _ }.s.I @ # < @.u.y.1.-.t.#.9 R y.[.4.",
") T @.0.t.|.t.E O $.[.=.) q.i.=.+.4 *.y.<.$.!.m.g.z./.H.I.~.~.T.b.l.h.N.!.L.l - * a s @.U ^ q.4.[.t.%.9 9 r.|.#.t.5.*.U , *.}.*.0.",
"U @.t.e.$.2.r.>.^ @.! %.%.U 2 2 { 6 +.Q #.=.-X!.z.g.^.J.; h M.m.b.b.b.m.l.M.g f * s 7.U P y.}.#.q.y.e.W 9 %.9.! @.3 , T ! U ! $.,.",
"0 *.w.0.*.Y 3 3 Y T 5 5 U 0 8 } ].e.;.@ q E n !.k.z././.5XI.g.h.b.b.b.l.b.Z.- a a s 2 } o.>.e.4.L 3 3 E  .} 0 2 # W | :.].-.5 : P ",
"L T 9.o.0 9 -.-.T @.{.2.#.[.9.U 1.4.y.|.} | +.w -XS.H./.,XS.l.b.b.b.z.z.k.n.- s |.|.U I 5 7.r.I P | y.! R }.[.*.'._ ) #.2.[.{.,.7 ",
"2.T 3 5 E y.OX}.r.Y @.y.{.[.@.5 L $.y.%.+.;.9./ 8XR.B.J.; !.Z.x.b.x.N.k.F.I.f s  XX.| s.7.3 2 # =.d.@X[.@.Y =._.{.<.U 5 X.r.0.P ! ",
"}.).%.@.Y t.y.5..X@.U 2.=.L 5 P U L Y 9 t.t.[.).-XF.B.J.M.:XD.c.N.b.N.c.!.=Xs q %.5 r. X|.&.*.Q =.).e.}.e.L *.i.U } W I I W U } i.",
"*.).`.=.5 R @.2.=.9.Y L 5 U 0.0.}.=.9 4 e.9.9.).v A.Z.J.N.l.b.N.b.b.b.b.n L.x @.3 9 d.e.7.|.s.9 / 4.#.=.9.| Q 0 I :.r.|.e.I 7 &.0.",
"@.7.9.U U U =.y.&.y.W 3 } d.#Xe.y..X%.I Q >.@.@.m n h J.J.g.l.g.b.Z.m.h S v w.5.W 5 &.7.o.r.X.K 1 @.i.t.9.:.9 U 9.[.`.'.'.,.L U ,.",
"U W ) 5 R 3 ! &.<.9.U 2 U &.7.<.#.u.7.>.U E 5 / W X.l I.H.g.g.B.N.l.N.Z i x 2.1.r.o.P W P o.W | 1 1 *.=.>.&.3 | #.9.,._ <.u.=.Y P ",
"$ 7 5 R #.W 7 P U Y W E U P U d.u.,.=.7.Q 2 2 U q %.x A.R.D.g.m.b.b.M.l i 2.w.2.7.7.P $ 3 K W o.=.5 @ 9 W U 3 < I Y #.,.,.7.t.>.E ",
"XXs.%.[.@X|.I 8 Y ! y.].r.U # 7.5.Y U 3 Q *.].:.2.|.XXs.P.F.m.m.z.N.h f ! 4.$.^ $ W W >.@XX.r.#X X:.3 Q @.9.OXy.{ 2 X.d.7.P 8 8 Y ",
"*.y.i.^ ,.u.Y ^ i.i.u.u.u.0.| $ W # +.[.*.q *.).<.4.&.>.P.D.M.M.z.b.f a 3 } E 6 @.`.T Y 7.u.0.^ <.Y Y e.i.w.5.6.d.&.5 9 9 5 $.t.W ",
"3 P u.i.<.i.=.3 ^ ,.4.4.0.4.! # U K ) [.[./ 5 ) 5.,.<.y.U.I.:XC.x.n.f i # U } } @..X7.L Y <.i.4.i.i.E K r.[.2.,.t.X.I 3 P ) 4.}.X.",
"3 P 0.w.,.r.#.# P ! #.<.^ P ^ 8.4.@.: 1 q.) 1 2.,.,.i.0.U.P.I.Z.n.A.j x *.0.&.U $ &.t.U P <.u.,.<.=.5 o U #.#.@.! U 9.9.%.E 3 #.w.",
"K =.9.#.&.^ K @.! P &.@Xu.K Y oX_.4.1 U t.%.0 9.,.#.2.L v n.h M.h k s z <.}.u.$.8 o.s.X.! 0.7.^ &.5 X.<.P P w.r.) U y.}.t.| 5 t.#.",
"O ^ <.7.@.5 Y d.r.W I 7.7.~ ^ i.$.%.| | } 7 8 ..q.) Y + p M S C N & p c =.0.<.#.W 7 W P 5 &.<.7.Y 3 0.@X@.P =.e.@.Y 0.q.=.%.5 X.! ",
"^ $ P o.W P 7.0.i.7.I # 2 E 7.r.E 8 U 0 8 E { 0 @.R L Y A D ;.;.D w A M 9.=.5 , Y P P Y P P E 7.# #.0.4.9.^ 5 P , @.y.! < R 5 3 K ",
"oXX.$ P I X.r.@.~ 0.e.} 7 } +.| 2 T -.t.`..X0.5 4 w T $.p.O.' ' ' O.O.A W | I %.0.[.w.[.0.P $ I L t.4.) w.0.W 3 5 @.#.5 < *.s.[.t.",
"d.d.W 7 o. .,.<.,.u.e.o.E E E 3 ( .X.X4.1.w._.'.0 { 4 ) F G J J H G G r I I  .$X1.'.<.i.@Xo.} I ^ ) $._ $.w.9.E  .U , ! )..X[.:.4.",
"u.u.7.I 4 | *.*.[.=.! : ( +X'.R $  .d._ 1.4.u.i.} F q +.A a.f.[ f.' t OXt.P I >.4.,.0.d.i.0.K Y R R =.[.q.T W R '.}.&.I 8 d.<._ 4.",
"~ <.X.X.e.U @ @.@.9 ^ 4.w._.0.q. .o Y 4.'.4.0.i.~ <.@., t p.f.[ ] ` t y.w.&.P 7 ~ <.u.,.^ 0.^ #.! 1 < #.) 5 @.y.3.w.e.o.$ Y ) _.4.",
"r.^ U 4..Xt.w @ 7 P 9.y.0.w.0.y.| P 0.0.<.4.X.+ ( y.}.-.e p.f.] G ` t e.{.=.9 E i.u.0.0.~ Y ^ oX[./ : O U e.[.2.#.`.d.%.I &.0.0.0.",
"I P <.w.e.`.[.:.9 | d.i.<.e.%.W P P #.4.4.<.~ X.`.4.=.[.c A r ` r y c &.#.U 3 Q &.d.0.X.K <.4.0.`.}.e.U 3 9.y.@.4.t.! 3 9 =.w.<.9.",
"$ r.[.$.$.*.@.%.| P X.Y 5 P 7 I W X.K K #.@.q |.w.2.R ! =.| 8 E ! L Y 5 @ T =.W F ! W Y Y i.'.#.! @.@.! L Y R 5 L # # X.#.3 K Y @.",
"} 7.0.=.^ U L 3 | W #.P 3 W | | 0.@X<.U Y I @ >.$.$.! q 5 5 T *.$.5 T %.U :..X9.4.R + ! ! 7.0.&.3 , 5 5 T =.@.< U U ! d.@X&.o.K 9 ",
"Y 2 %.>.5 T [.w.W &.{.d.d.@X8.I 0.<.d.d.o.E 9 >.9.U 1 $.y.t.=.@.OX<.t. X%.W $.9. X0.U X.3 X.&.K T q..X2.! 9.[.[. Xd.^ Y r.d.#X&.9 ",
"{.7.9 # Q y.}.'.d.Y Y <.u.<.I P P ^ u.&.# XXXX7 5 2 @..X#X.X-.U @.0.[.e.U 2 T =.r.Y K #X<.5 7 7 t.w..X|.@.Y ) t.r.<.# # #.X.r.P &.",
"i.i.0.| X.w.u.<.u.,.5 %.9.9 U T @.T @ 2 =.i.w._.&.W #.u.<.4.6._ Y 9.+.1 5 @.=., $ U u.d.u.u.<.< u.4.,.0.4.^ ! e.I } ! ! ! < 2 %._.",
"#.r.r.@.P Y @.$.,.u.W 2 0 +.[.{.}.9.R Y *.e.-.$.i.Y K X.<.0.<._ 2 q q *.[..X.X9.W ! <.<.,.u.0.X.K ^ <.w.q.^ P 5 7 7.{..X[.@.E @.0.",
"X.<.9.%.P P &.[.o.i.X., E t.[.e.i.4.=.! U T *.9.,.P $ W <.u.w.0.q q +.[.oXw.4.0.o.W W ! o.8.,.$ K #.9.9.9.%.E I 7.d.[.w.t.-.! 9 ! ",
"5 3 3 0 U I I | 4.&.P 3 W @.,.q.,.<.u.9.U 4 9 5 3 P P I W W ~ #.q 4 q *.<.&.<.w.d.&.W 5 K K I I 5 U ! X.%.X.I 7 X.&.#.#.9.w.9.#.I ",
"! U W :.e.&.9 @ , , K ! Y # , $.i.,.#.^ Y W o.{ ~ 0.r.X.3 2 P ! +.T q 4 W i.i.<.^ W | W U 0 X.d.&.I @ $ W W W &.: K #.t.2.@.! / W ",
"s.y.i.|.[.y.%.I &.9. X.X|.=.Y %.*.E K I W o.s.d.0.[.[.&.E | 7.y.[.[.t.U P 7.X.3 K U | 7.d.d.0.i. X&.3 E 9.r.y..X#.U ! *.! 4 5 T Q ",
"X.<.0.#.#.,.#.U |.i.i.,.,.7.U 0 6 8 %.y.0.! Y 7.3.#.<.<.! ! e.`.t.u.}.@.q Q P I i.i.&.Y >.d.0._ 9.#.X.7..X X0.$.}.! 7 U E ! q.[.R ",
"# ^ 0.4.4.u.<.K U @.y.0.0.t.w w { { W 0.w.Y K 4.6._ 0.d./ < / 2.4._ 4.@.U q 6 Q Y i.9.3 E r.4.,.d.7.U 3 ^ 4.4.1.2.Y U W 0 E *.t.<.",
"7 X.u.<.3.,.I P I I ^ X.,.! U d.[.X.7 P y.$.P <.4.3.,.o.K P I I @.#.<.K &.d.r.! 8 ) 0.W Y 7.0.1.<.! P P 0 T &.#.&.5 4.[.t.4 5 7.4."
};
