/* XPM */
static char *_1191_9a5f76fd454ab306601101a5eb3713f795d1c90e805e5f1e4401f07a6b161800[] = {
/* columns rows colors chars-per-pixel */
"65 65 195 2 ",
"   c #010303",
".  c #0D0303",
"X  c #070807",
"o  c #050709",
"O  c #06090A",
"+  c #0A0C0D",
"@  c #130000",
"#  c #1A0705",
"$  c #1D0A0C",
"%  c #0E0F11",
"&  c #180F14",
"*  c #0D1213",
"=  c #0E1618",
"-  c #111415",
";  c #1A1313",
":  c #151917",
">  c #191816",
",  c #131619",
"<  c #1B171C",
"1  c #151A1B",
"2  c #1A1C1D",
"3  c #230B0E",
"4  c #280B0A",
"5  c #29100C",
"6  c #231C1B",
"7  c #291F1E",
"8  c #31191B",
"9  c #1A201D",
"0  c #1A1E21",
"q  c #1B1E24",
"w  c #1C2224",
"e  c #232224",
"r  c #23262A",
"t  c #252A2C",
"y  c #2A2C2E",
"u  c #3C2628",
"i  c #27302D",
"p  c #272A31",
"a  c #2A2E31",
"s  c #2E3235",
"d  c #2F363A",
"f  c #313535",
"g  c #313639",
"h  c #34393C",
"j  c #3A3C3D",
"k  c #471617",
"l  c #531E1C",
"z  c #6D0D04",
"x  c #6F0E08",
"c  c #691105",
"v  c #7F1109",
"b  c #631910",
"n  c #741716",
"m  c #57261F",
"M  c #67351C",
"N  c #6D3B1D",
"B  c #713E1D",
"V  c #4B2322",
"C  c #562423",
"Z  c #5C2626",
"A  c #6D2322",
"S  c #6E3C23",
"D  c #6F3F28",
"F  c #713E24",
"G  c #723E2B",
"H  c #73421B",
"J  c #6F4127",
"K  c #6E4029",
"L  c #744324",
"P  c #784727",
"I  c #7A4A27",
"U  c #75442B",
"Y  c #79462B",
"T  c #77492C",
"R  c #7C4A2C",
"E  c #754531",
"W  c #7A4632",
"Q  c #764931",
"!  c #7D4C32",
"~  c #7A463A",
"^  c #7D4D39",
"/  c #7E5034",
"(  c #7E513A",
")  c #373B42",
"_  c #3A3D42",
"`  c #444646",
"'  c #464847",
"]  c #424549",
"[  c #45494B",
"{  c #494B4D",
"}  c #4E5254",
"|  c #515355",
" . c #54585B",
".. c #585A59",
"X. c #59645E",
"o. c #636E68",
"O. c #696D70",
"+. c #A11E1C",
"@. c #A0211B",
"#. c #9F2924",
"$. c #952A28",
"%. c #9C2E2C",
"&. c #96332B",
"*. c #8F3433",
"=. c #983733",
"-. c #A12A25",
";. c #824E2D",
":. c #82512E",
">. c #8A532D",
",. c #814E33",
"<. c #814E39",
"1. c #845334",
"2. c #895635",
"3. c #865837",
"4. c #8B5936",
"5. c #85533A",
"6. c #89563B",
"7. c #87583D",
"8. c #8C5A3C",
"9. c #915D36",
"0. c #915E3D",
"q. c #8F613F",
"w. c #916237",
"e. c #94633D",
"r. c #99663D",
"t. c #9D683C",
"y. c #854D40",
"u. c #865443",
"i. c #895741",
"p. c #865941",
"a. c #8D5B42",
"s. c #8F5C4B",
"d. c #915E43",
"f. c #925F49",
"g. c #945E52",
"h. c #8F6045",
"j. c #8F614A",
"k. c #946344",
"l. c #996645",
"z. c #9C6A44",
"x. c #956449",
"c. c #99664B",
"v. c #96684B",
"b. c #9D6B4B",
"n. c #9F714D",
"m. c #956351",
"M. c #9A6752",
"N. c #9D6C52",
"B. c #9E7258",
"V. c #A16C46",
"C. c #A16E4C",
"Z. c #A37146",
"A. c #A87446",
"S. c #A4724C",
"D. c #A9744E",
"F. c #A7784D",
"G. c #AB794F",
"H. c #B07D4E",
"J. c #A26E52",
"K. c #A26E5A",
"L. c #A57353",
"P. c #A97654",
"I. c #A57851",
"U. c #AC7A55",
"Y. c #A6745A",
"T. c #A9765A",
"R. c #A7795A",
"E. c #AC7B5B",
"W. c #B17C55",
"Q. c #B17D5C",
"!. c #A57662",
"~. c #AD7B61",
"^. c #B17E62",
"/. c #AF8054",
"(. c #B38356",
"). c #B3825D",
"_. c #BA865C",
"`. c #BA8A5F",
"'. c #AF8267",
"]. c #B48363",
"[. c #B88665",
"{. c #BA8964",
"}. c #B5846A",
"|. c #B9866B",
" X c #BC8A6B",
".X c #B98672",
"XX c #BB8B73",
"oX c #C28F67",
"OX c #C2926C",
"+X c #C8976E",
"@X c #C18E71",
"#X c #C49272",
"$X c #CB9A77",
"%X c #C5947A",
"&X c #C59581",
/* pixels */
"~ c.L.9.w.e.1.v.R.! d.|.K.2.0.D.n.R.a.6.K.s.^ M.L.1.C.;.T ~.x.! R. Xb.N P.).S.U.G v.Y.Y k.D.4.z.S.Y c.R.1.8.{.R.x.! ).E.].k.^ K.V.",
"E ! v.L.4.P w. X).8.6.d.d.c.P.P.c.8.R R 5.W ! 8.C.b.4.,.L.@XR./ R k.c.1.U.L.3.w.5.L Y ,.P 0.E.8.L 1.E.{.L.3.8.v.x.! R.x.0.1.,.6.y.",
"b.Y U x.5.R n.R.U.z.8.,.F Y d.Q.P R 8.8.1.h.k.U T v.Y 0.Q.b.L.b.T U 1.8.R.v.I P 8.8.8.V.1.F l.6.U P.E.F.U.6.S <.u.7.E.8.P 1.a.5.2.",
"`.C.U E 5.x.W.w.9.P.U.k.,.Y ,.,.I L. X).U. X X6.J 5.L b.U.1.z.).Y.^ T U / / i.R.D._.Q.[.Q.,.W ,.^ E.l.:.U.).8.5.U 1.d.! 0.].].E.^.",
"F. Xv.W ^ a.I.Z.A.Q.V.:.9.Q.J.U 5.E.].F.F.).].E.x.T Y b.L.F.R.L.h.1.v.Y.5.T a.XXoXV.D.P.E.T.a.U i.N.S.z./.E.v.^ N.n.1.L C. XR.U.D.",
"Z.).b.1.i.1.1.l.[.e.:.>.C.Q.].Y.E 7.4.e.Z.z.c.].v.! h.1.1.Y.L.1./ 1.~.$XE.k.Y 7.V.t.D.l.Q.^.5.a.i.1.c.R.l.1.1.h.{.#Xl.R 6.k.3.F.D.",
"R.8.w.k.L.v.W Y 5.P e.{.).A.S.P.^ ! 8.(.).F.S.N.1.k.I.5.L 1.1.1.E.n.b.E.L.C.R R 2.H.W.V.P.0.1.E.e.L R i.5.5.L.(.z.(.L.x.U 7.C.).A.",
"c.L r./.(.].s.~ F d.).G.4.D.{.V.m.5.b./.z.n.b.N l.].{.P.d.L U v.P.A.z.P.b.R.2.6.oXC.V.P.;.P ].). Xn.1.G 7.L.E.z.n.S.n.L.U n.].k.D.",
"1.k.).(.l.P.].v.,.i.E.b.k.L.i.U Y / v.h.!.v.8.c.[.z.S.P.^.0.0.8.U.k.b.R.u.U <.Y b.b.].8.i.Y.E.b.D.P.P.d.<.J.Q.d.S.k.Y U ! 6.b.C.P.",
"a a a y * + % + <.R d.2.P Y U u.L.8.1.5./ 1.5.).z.P.C.1.1.;.R ,.4.I N U U f.~.a.R L T 5.i.Y.R.F.e.1.6.5.! o % O * y y t { <.1.,.5.",
"g h h h 1 : : < 8.8.C.d.1.x.f.f.].R.B.B.W ! Y l.U.z.P ;.8.0.2.J.I.h.7.b.k.v.E.L.F.l.Y 8.1.L.L.k.B >.d.6.6.+ 1 0 2 j h a [ |.J.R ;.",
"h h g g 1 , - - C.l.J.Q.[.|.J.! 8.S. X'.8.v.8.:.0.R Y [. X[.l.k.R.).}. Xx.,.b.R. XR.1.x.1.:.3.P e.Q. XL.k.% 2 * 2 s g s [ P.].L.,.",
"g f g g a a s a ).8.1.E.].k.R U R R v.3.d.E.].C.1.;.l.@XL.].L.R 8.~.P.5.N I k./ 8.1.k.].].1.7.Y ).Q.].[.J.a a a s g g s { c.k.I P.",
"g g h g h g h g - O + + 5.R x.b.(.3./ P v.E.[.U.^.8.2.c.0.S.E.b.7.k.1.:.k.F.n.R L 6.E.E.[.R.E.1.l.  - o 1 g d g g g g s { L R 8.Q.",
"d d g g g g g g < : < % U v.OX).+XE.v.3.x.S.k.z.Q.5.Y 0.^.L.S.D.^ U P F.+X X[.E.^ d.L.4.w.E.L.R 1.% - : 1 d j g d g h s { b.k.6.D.",
"d h g g g g g h 1 , - * 8.L.{.l.k.E.n.4.Y k.2.b.6.k.,.F P.b.e.R.W a.k.F.F.z.n.I.Y.R Y z.e.c./ s.U o 2 - 0 d d g g d d s ' F.n.R <.",
"s g f f h f s h 0 * = * i.5.v.Y.l.W.E.b.k.! K U P 1.k.U E k.3.8.G G <.2.P.C.D.J.J.T.i.S U ,.R 1.T + : * 0 d g g f d h s [ k.].d.;.",
"g g f h f h s h 0 * 1 O x.L Y L.).k.:./ 1.s.N.M.b.).].v.U G 1.3.K.T.0.N ;.^.Q.8.;.6.,.c.Y.a.J. X].o 2 : 0 d g d g g g a [ x.1.a.d.",
"h h h h d s f d 0 = 1 * ].z.R e.c.U 1.c.8.k.R.~.I.E.L.~.v.8.|.}.Q.[.T.C.,.V.0.;.2.C.1.C.^.J.Q.P.).+ 1 % q h d ) f g j s { q.Y z.<.",
"r i r i d h s h 1 * - + R.E.1.I U U x.|.Y.5.6.N.Z.e.k.P.5.1.P.L.P.D.D.T.,.F G i.D.oXl.5.0.C.P.9.v.o = , 2 g a f g p p r ` 6.U.{.d.",
"L e.C.A.` s d d i i t t e.k.3.k.x.h./ c.].8.Y k./.n.{.E./ Y 4.l.V.V.V.>.0.d.c.<.9.c.P.1.:.b.C._.E.t i p a g g d { 4.s.x.x.5.b.n.D.",
"U k.L.R.{ s d h h h j g * o O   ].L.Y R Y.v.,.L.z.4.b.a.Y 6.1.1.C.P.C.<.T.^.^.d.*.8.].1.;.  X   = j g g j g d a  .I |.~.Y.a.H e.D.",
"T a.S.N.' f g g s d h h 9 = 9 * n.b.5.,.x.8.<.N.R.b.i.5.c.].L.R T.Q.d.<.J.J.C.Q.,.s.N.T ! + 2 < w h s h d d g a } L ].I.n.z./ P.d.",
"Q / 8.n.{ i g g h s h s 9 = = O 4.3.;.;.W E E W d.n.! ! N.|.[.1.F g.,.0.T.P.;.>.W U E <.1.o < * 0 s h d s h j i } v.F.Z.I :.U W G ",
"].Y U 7.{ y j g g f g g 1 = = + T Q x.n.d.P.Q.B ^ ^ 1.v.L.l.C.W.y.Y E 8.N.h./ T v.L.S.C.z.o : * 0 j g g g f j s } i.N.p.D 8.L.z.V.",
"(.P.8.Y } a g g j g f g 1 = 1 + h.I.XX XW.[. XT.^ W 1.b.S.e.l.U.^.f.R <.! L j.%X{.E.L.E.{.o 2 - q d g d j g g y | U S 5.!.XX].Q.Q.",
"Z.OXL.U { f j g d g f ) 0 = 0 O / L.).L.S.C.D.Q.h.7./ q.S.R.U.P.;.>.d.P.P.5.( '.F.L.C.V.W.O 2 = 0 g d s g g _ f .. Xn.L k. XE.l.D.",
"z./.b.6.j e r t f d g f 0 * = O I R 8.k.D.P.S.Q.7.h.1.P 1.l.c.5.;.V.P.].].v.U T w.S.D.F.S.  , * 0 g g j s r y 9 ' {.E.4.P R q.E.D.",
"z.4.4.S.~.N.<.D ] d g d t r t w h.R k.P.W.W.k.0.4.P.T.k.U F R 1.W.).P.L.T.L.7.5.A.z.P.Q.c.w s w p d g s P k.E.U.n.Z.I.l.R 3.E.).D.",
"e.3.e.L.E.}.R.5.| a h d g h h ) *       C.c.1.;.I.  %   J.R / v.U.  +   J.a.5.5.C.  O   2 g d h h h h t ^ T.[.k.U.L.b.1.T v.{.b.P.",
"1.k.R.P.l.n.R.N. .d ) h j ) h j e : q % x.b.a.R.U.O e O b.i.7.p.E.o e + <.,.6.,.k.+ : w w ) h h g j j s ^ k.J.8.k.T L 7.8.1.8.l.V.",
"^ c.R.R.z.1.Y R ] q r r w p w t : - :   :.5.D !.G.  :   T 7.p.Q i.  <   <.J.XXC.1.  2 * , t t r r t r 1 a.i.^ U G 6.p.N.'.b./ H ,.",
":.4.Y.d.^ ! S.S.4.x.{.S.e.[.S.5.] w w w p.i.i.i.M.z +.x ^.x.^ ~. Xc @.c j.j.'.!.].9 t q W L.T.1.^ a.R.8.4.{.{.c._.t.e.e.S.].[.z.~ ",
"n.4.Y T 1.]. X{.P.1.k.E. X].k.R O.i ) _ =   X @ b &.@.=.k .     c &.-.&.k @ .   9 j j p N.Y Y S b.].OX].k.1.b.(.{.b.5.! d.E.P.1.8.",
"{.(.x.k.1.R.E.F.|.x.1.S.z.;.,.,.o.i _ j w 1 ; 5 n $.+.$.l & 6 , v #.@.%.A 5 > : w h ) a |.v.v.6.b.).P.].Y.1.b.E.5.i.5.<.<.6.<.6.W.",
"l.E.^.n.R 4.k.C.b.S.2.:.R 5.L.L.X.1 y w 0 = % 4 A &.%.*.V $ < - n =.$.*.C # ; * 9 t p 1 N.|.T.<.w.L.c.C.L.8.5.^ ^ c.~.^.Y.5.W c.P.",
"k.b.L.3.1.1.b.E.c.E.6.Y 8.E.%XP.^. Xc.<.6.2 r 7 V m m C 8 & , % k Z Z C u e r 0 6.W x.J.f.T.d.;.R k.Q.P.Y.v.! 5.L.).).`._.C.:.1.V.",
"5.7.e.I 4.R 8.v.L.L.1.L 5.c.J.C.l.E.J.b.5.a j h 6 # 5 $ & < - , 3 3 4 # e g ) r T.d.,.6.,.f.5.d.I I v.b.N.c.Y 8.l.L.V.e.V.W.b.2.,.",
"G E ! 4.l.5.Y ! 1.6.5.5.5.R 1.Q.W.V.b.J.7.r h _ e > > > 1 , - : 0 & 6 & r ) _ p J.J.,.Y ;.Y 6.d.v.T L ! 6.1.T I <.6.l.V.C.L.P.M.5.",
".X~.v.].#X}.<.^ 2.8.~.'.Y.5.F J.G.2.1.Y 7.0 i t =     o % , - : % o o   , r p 0 P <.6.M.@Xf.T.%X|.M.U 5.k.L.#XE.u.U d.Q.J.^ ! ~ 2.",
"b.T.W.0.V.E.8.8.Q.Q.Q.W.W.P.d.G 8.F h.'.v./ n.E.S.S.c.b.i.* > % P.F.Q.E.U 6.u.E k.).4.1.D.Q.P.0.C.1.1.K.Q.R.G.H.^.c.T ! <.R z.U.6.",
"P ,.Q.Q.A.Q.b.Y 0.V.D.D.P.D.i.G ;.,.e.[.].w.R q.U.V.C.~.k.  9   V.V.U.l.L 1.i.7.k.|.L.:.2.C.Q.C.W.Q.8.;.T.).S.V.P.k.! T ,.e.L.[.k.",
"R ,.P.P.C.R.l.F ,.8.l.C.0.;.0.J.D.e.H I I.e.I S.V.z.Q.P.6.X 2 X z.t.C.8.l.T.l.:.G M.T.5.;.C.Q.C.J.C.R N 1.l.l.l.6.1.L.L.v.1.I l.U.",
";.c.L.l.l.8.>.d.8.,.c.@XW.;.2.oX).S.R :.R.v.^ L.z.z.A.1.R   %   ].R.k.H C.[.).V.! d.~.0.8.T.C.0.c.R d.b.;.5.L.E.k.:.).|.Y.k.T R.l.",
"N 0.c.C.l.R <.^.T.6.<.J.J.8.d.Q.v.x.s.i.u.W ~ s.D.k.2.N e.#XL.;.v.b.b.R S.P.C.l.<.W 6.,.R c.c.C.1.Y P.@Xk.,.b.Y.x.3.I.P.b.x.Y k.6.",
"0.Y ,.g.6.,.J.P.Q.C.<.F Y 6.C.R.<.! 1.5.! <.u.~ k.2.>.>.S.].J.l.H R 8.6.F.c.R F 1.,.,.2.;.,.5.J.L k.D.P.L.0.R ,.L k.E.4.Y 3.Y Y ,.",
"oXf.F ,.<.d.Q.d.8.P.Y.6.Y i.j.8.L 8.n.I.].{.P.R E 5.5.l.P.e.l.P.x.! L ! 7.a.<.x.W._.R.].Y.<.Y <.:.R.D.r.U.P.2.R T k.l.R Y c.^.].U.",
"^.^.6.Y s.s.C.V.V.W.E.f.<.u.5.T e.{. XA.n.(.(.).~ 6.Y r.P.r.V.U.R.a.<.d.^ 5.a.&XS.).C.Q.@Xf.6.<.9.e.z.r.z.E.J.5.a.5.L 6.(. X].v.D.",
"G.W.J.<.E a.c.k.].n.9.H w.+X_.4.G i.^.l.A.C.P.Q.d.*.! h.c.P.Q.J.1./ L.+XU.,.6.M.D.V.P.Q.Q.P.;.1.4.6.b.].L.6.3.4.`.{.c.<.! ^.D.r.D.",
"9.D.d.d.P.5.J k.k.R d.S.W.).P.P.f.M 8.A._.D.P.Q.9.C.x.L N d.v.L k.L.U.U.P.x.,.E 9.C.Q.V.0.P.k.l.8.I R l.k.R k.E.A.U.Y.f.G <.e.W.P.",
"E.8.,.S. XR./ D ! ,.L.E.L.P.L.E.i.<.P.G.C.S.l.F 9.Q.{.C.! S ! v.R.).S.L.[.b.! 7.Q.W.T.P.9.2.0.oX].e.H N 1.P.).S.z.].^.x.<.b.P.P.L.",
"<.5.b.W.I.~.].m.^ i.^.Q.L.T.k.6.,.,.V.C.G.V.2.d.).S.b.].].6.E N.).I.k.c.l.5.Y 7.c.Q.P.d.;.V.A.U.].{.L./ R n.E.x.L.I.8.Y ! z.R.C.L.",
"G E.].z.l.l.k.v.i.,.d.6.R ,.Y <.d.d.Y ;.l.k.5.'.U.S.4.8.b.a.W 5.3.1.3.R N 6.b.5.*.0.2.1.2.).].l.8.q.x.8.:.4.2.R >.F B f.x.Y ;.1.k.",
"a.c.L.C.e.3.:.Y a.6.l.;.P a.d.i.L.oXJ.1.5.^ S N.z.z.8./ R ! 7.M.z.T 6.k.<.b. XL.J.8.B 0.0.C.P.c.Y P R R 4.b.x.I <.1.8.Q.@Xl.l.,.! ",
"1.P x.N.T 6.]./.8.c.{.].^.@XK.<.P.J.Q.^.d.6.! N.L.1.R l.E.I.n.k.OXS.R.].c.5.l.L.|.L.1.d.Y d.c.;.3.L. XS.8.F.).).|.^.d.2.E.^.%Xl.R ",
"|.J.! F 7.E.{.).^.>.4.C.P.J.<.,.;.0.Q.c.F .XXXW R P k. X#X{.n.1.k.L.}.Y.5.U 2.c.E.6.>.@Xb.R W W R.R. X].x.1.k.R.T.C.F B f.d.T.,.v.",
"Q.^.L.8.d.P.W.V.W.V.R v.B.! 1.8.x.3.N U b.).U.(.V.6.V.T.C.S.G.t.4.L.e.R R k.b.L F 1.Q.Q.W.W.C.Y Q.A.V.P.S.0.0.Y.<.i.6.8.8.L Y v.(.",
"d.E.E.x.<.1.l.b.V.Q.6.U ! h.].].{.L.6.1.b.P.S.z.E.2.;.d.C.P.A.t.P / / v.]. X|.n.6.d.C.C.V.W.J.d.;.e.C.P.P.0.! R W J.[. X).l.5.k.P.",
"d.C.L.k.5.,.c.].f.Q.a.L 1.Y.[.L.W.D.b.0.1.7.c.n.C.,.G 2.J.T.P.P./ / h.'.oXP.L.U.d.6.6.0.x.P.c.Y ;.l.L.L.L.c.6.<.J.].].R.P.n.6./ 0.",
";.Y U ^ 1.,.5.i.J.V.,.Y 6.k.b.P.C.C.W.J.1.U / T Y ,.,.,.6.8.0.l./ Q / v.J.l.C.W.^.c.<.Y Y ,.,.<.Y 5.8.d.v.a.<.E d.c.l.l.L.R.L.l.<.",
"8.5.5.c.L.x.^ N L U ,.8.6.L L l.Q.C.k.0.5.6.f.<.8.D.T.a.Y U ,.8.j.7./ P 8.Q.W.C.0.6.i.i.5.^ d.^.c.<.S L 6.6.8.c.H R x.T.F.k.8.q.6.",
"~.Q.^.].[.E.x.<.c.L.{. X].C.1.v.c.7.R 1.6.k.~..XD.[.^.c.5.a.S.R.].].E.1.,.J.d.R ;.1.d.J.^.^.T.Q.|.x.Y 5.J.E.E.|.z.1.8.v.7.P / 3.7.",
"d.C.P.l.l.V.l.5.].^.Q.b.b.S.1.( E ^ k.E.P.8.6.J.V.t.D.J.6.8.I.).P.U.{.x./ 7.^ ! Q.Q.c.1.N.].P.t.J.l.d.J.|.[.D.V.{.8.Y 5.( 8.L.).4.",
"F r.P.C.D.W.C.;.1.k.W.D.P.Y.( ( u.( i.P.W.1.;.D.H.r.P.^.k.Y q.n.D.t.S.k.1./ E p.2.Q.P.P 5.P.P.t.^.J.5.Y 0.P.F.Z.S.2.1.8.^ 5.b.R.C.",
"W d.W.C.A.V.<.,.<.^ 0.f.V.8.,.^.).k.! ,.E.l.,.J.A.A.V.g.;.<.<.<.e.l.C.R c.].E.8.E d.P.8.5.C.P.A.C.8.<.! ^ 7.l.t.x.R L.].R.U R L.D."
};
