/* XPM */
static char *_1372_381c415f94183cebbe6189947abf57e47d3e083313534f78a52e41f3529c8ba9[] = {
/* columns rows colors chars-per-pixel */
"65 65 193 2 ",
"   c #001A2F",
".  c #001E3D",
"X  c #03253D",
"o  c #67361C",
"O  c #6D3C1D",
"+  c #703F1C",
"@  c #6D3C22",
"#  c #6E3B2A",
"$  c #713E24",
"%  c #713D2A",
"&  c #73431D",
"*  c #6E4329",
"=  c #744325",
"-  c #794626",
";  c #7A4A26",
":  c #75442B",
">  c #79462C",
",  c #76492D",
"<  c #7C4A2C",
"1  c #744332",
"2  c #794633",
"3  c #764A32",
"4  c #7D4B32",
"5  c #7B4639",
"6  c #7E4E3A",
"7  c #7E5035",
"8  c #7E5239",
"9  c #002142",
"0  c #002F59",
"q  c #033959",
"w  c #094B77",
"e  c #174E75",
"r  c #07517C",
"t  c #0C527E",
"y  c #10507D",
"u  c #7E5841",
"i  c #6E7276",
"p  c #66777E",
"a  c #6E777B",
"s  c #6C787D",
"d  c #814E2E",
"f  c #83522D",
"g  c #8A552F",
"h  c #814E33",
"j  c #824E39",
"k  c #845334",
"l  c #895635",
"z  c #855837",
"x  c #8A5935",
"c  c #85533A",
"v  c #89563B",
"b  c #86583D",
"n  c #8C5B3C",
"m  c #915C35",
"M  c #915D3E",
"N  c #8F6036",
"B  c #8F623F",
"V  c #926337",
"C  c #94633D",
"Z  c #99653D",
"A  c #9B6A3D",
"S  c #814D40",
"D  c #855443",
"F  c #895641",
"G  c #855C40",
"H  c #8D5B42",
"J  c #8F5C4B",
"K  c #915E43",
"L  c #925F49",
"P  c #935F51",
"I  c #8F6045",
"U  c #8E6449",
"Y  c #946343",
"T  c #996644",
"R  c #956944",
"E  c #9B6A45",
"W  c #95644A",
"Q  c #99664B",
"!  c #95694D",
"~  c #9D6B4B",
"^  c #9E704A",
"/  c #976652",
"(  c #9D6B52",
")  c #9D6957",
"_  c #9E7153",
"`  c #9E7259",
"'  c #A26D46",
"]  c #A16E4C",
"[  c #A27246",
"{  c #A87347",
"}  c #A3724C",
"|  c #A9744D",
" . c #A7784C",
".. c #AA7A4D",
"X. c #A16E53",
"o. c #A36E59",
"O. c #A47353",
"+. c #A97554",
"@. c #A67856",
"#. c #AB7A54",
"$. c #A5745A",
"%. c #A9765A",
"&. c #A5785C",
"*. c #AD7B5B",
"=. c #B17D55",
"-. c #B17D5C",
";. c #A27560",
":. c #AA7761",
">. c #AD7B62",
",. c #B17E63",
"<. c #B17E69",
"1. c #AF8055",
"2. c #AC805B",
"3. c #B48555",
"4. c #B2825C",
"5. c #B9845D",
"6. c #BA8A5F",
"7. c #AF8064",
"8. c #AD836D",
"9. c #B48363",
"0. c #B98665",
"q. c #BB8A64",
"w. c #B5836A",
"e. c #B9866A",
"r. c #B1886E",
"t. c #BC8B6B",
"y. c #B78571",
"u. c #BC8A72",
"i. c #C08E6E",
"p. c #C19360",
"a. c #C5946D",
"s. c #C18F73",
"d. c #C49372",
"f. c #C59379",
"g. c #CC9C79",
"h. c #065785",
"j. c #016296",
"k. c #00649C",
"l. c #2C789D",
"z. c #0E7AB7",
"x. c #127AB5",
"c. c #2779A9",
"v. c #677A84",
"b. c #087FC9",
"n. c #1783BC",
"m. c #2483B5",
"M. c #2885B7",
"N. c #2984BC",
"B. c #79909F",
"V. c #7A95A3",
"C. c #7C98A7",
"Z. c #7B9AA9",
"A. c #619CBC",
"S. c #0384C7",
"D. c #0A80C7",
"F. c #0484CE",
"G. c #0C83CB",
"H. c #1483C3",
"J. c #1986C6",
"K. c #1A88CA",
"L. c #0987D2",
"P. c #148FD5",
"I. c #158FDA",
"U. c #1693D8",
"Y. c #2588C3",
"T. c #328DC1",
"R. c #24A1DF",
"E. c #3DBBF4",
"W. c #3BBDFC",
"Q. c #47B2DC",
"!. c #5AB8DD",
"~. c #60B1CC",
"^. c #7EBFDF",
"/. c #49B7E8",
"(. c #57B8E3",
"). c #41B9F7",
"_. c #60B7E4",
"`. c #809AA9",
"'. c #9BB1BE",
"]. c #C69380",
"[. c #90C3D8",
"{. c #AEC1CF",
"}. c #AEC6D4",
"|. c #84C3E7",
" X c #ACCFE2",
".X c #AFDFF3",
"XX c #AAE0FA",
"oX c #D6DADD",
"OX c #D5FBFF",
"+X c #DCFDFF",
"@X c #E3FDFE",
"#X c #EEFFFF",
"$X c #F4FFFF",
/* pixels */
"5 W @.n V V 7 ( @.4 L u.o.g M =.~ %.H b o.H 2 ) | k | d < >.U 8 *.e.] O #.4.} #.% ) o.: Y @.x R } ; Q %.k K 0. .H k 9.%.4.H 4 o.K ",
"2 4 Q } x < n t.*.n l L K L | | E n < 3 j 2 3 H ] ~ v d O.u.%.7 < I ! k @.} x C l $ < k & n *.n = k %.e.O.x n Q W 4 *.Y n n j D l ",
"~ < < Y c < ^  .-.] n d $ > L -.- < n n c Y Y : , ! = n -.] O.~ < = c n @.! < = M n m ] l = W n % @.*.} #.n @ j b v >.n = k v b m ",
"6.~ > 2 6 W 4.V m | +.M h < 4 h < ~ a.4.#.t.9.n : 8 = ( +.d ] 5.*.4 1 > 4 k v %.| 5.-.,.*.k 2 h 6 9.E f #.4.F D : 4 K k C ,.4.4.,.",
" .t.W 2 6 H @.[ { -.' d M *.( : l *.6.} } 6.9.*.W , < ! O.X.#.+.K 4 Q %.v 4 H u.p.' | %.%.%.H 2 F o.~ E 3.*.Y 6 ( ( k = O.t.#.1.O.",
"} 9.E v H h k Q ,.Z f f ' 9.7.@.3 v l C } R Q 9.R 7 C v k +.O.z k z *.g.*.Y > b Z T | ' -.-.j H v k Q >.Q f z n q.d.Q 4 v I z } | ",
"@.n n R O.Y < 2 l - C q.5.| } +.j 3 C 2.3.} O.( z Y %.l = k 7 k #.} ~ #.} ( < 4 m =.=.' | M g %.V = < H c b } 4.R 4.O.Y = n } 4.| ",
"! = Z 1.4.9.L 5 % K 4...m | 0.' P j ~ 1.E } ~ @ T 5.9.O.I = : ! #.} ~ @.O.+.k v 0.' ' | d d 9.9.p.^ 4 % 6 &.-.A { } } @.: ( 9.Y { ",
"k Y 4.4.E #.9.! 4 H *.~ Y _ F 1 < < Q J :.W v R 0.E } +.-.M M M #.R ~ $.j 1 c = ] ~ 9.c H $.*.' } %.%.H 2 ) -.K ^ Y : > 4 c ! O.O.",
"3 O.@.^ } Y < k c < n n - - : c @.n k c c 4 k -.E +.} l v 4 < h z ; # = : W >.K ; = < b H %.O.} Z l l v h l l + O < c o.) c k < v ",
"< l ^ } f < n Q n n ~ Y z Q W J 0.%._ o.2 4 < E #.~ - d n n k X.@.Y n ( Q K *.@.} Q > c k O.X.R + d M l v X.%.M ~ Y c ( y.9.O.< 4 ",
"Q k n n - C t.9.~ Q +.*.9.e.( 4 n ( t.9.v ! n k M ; - 9.i.0.T K *.>.9.0.Y h Q %.e.%.k Y k h z = C -.e.%.T o.,.-.4.7.Y n K @.9.@.h ",
"9.*.z = Y 9.9.*.4.n z *.9.M < < ; ; ! v K *.9.~ d h T i.@.9.} d M *.@.z O ; Y 7 I z C 9.9.k v < 0.-.9.0.O.k n <.( C & = n Y Y < #.",
"#.9.@.C v ~ @.E 1.C d v c h Y ~ 4.k k - ~ *.9.+.9.n k ~ M ] *.E c Y k f T } ^ < O n *.-.q.%.*.k Q Y T O.O.K l / < n ~ 4.E = < n =.",
"R Y 9.%.= < } E } #.C < > ! d.4.d.#.R z Q O.R E ,.g - K 9.+.' } 4 : - @.g.t.0.4.4 K O.n n *.O.3 h ] O.E ] ] c = ( @.@.q.6.~ Y n O.",
"m E Y c k 7 C 3.^ } n c v ^ e.E E -.~ v < Y l ] l K k $ O.E T #.6 K C } ..A ^ O.%.4 ; R C ~ 4 Y = T } } +.W j c Q 9.*.[ ^ O.~ > k ",
"* * > z n 4 : 8 4 ~ < > v k W O.T -.-.~ H 4 * 1 < z Y : 2 L c #X@X@X+X+X@X@X$X+.O.-.H @ 2 h > l 2 c 4 2 &.h O k 4 Q ~ } ..C 9.L h ",
"( ! T ] 9.+.b * < R Y ! T : < O.9.Y h h k H ) ! R 4.>.Q > $ h '.M.A.|.|.^.[.@XM - v > W %.H ~ i.9.v > > h n O.O.c = Y +.} R 4 H H ",
"O.>.*.+.+.+.Y 7 O.%.9.9.e.~ 7 C Y - z ~ n K &.,.} #.O.*.! n q.B.y m././.Q.~.@X> k | h ~ <.X.-.} *.E K $.%.t.t.1.4.k k W k n < E h ",
"k ^ +.A ' ] R z #.O.*.~ %.4.f & , : U r.%.k n ] } C R O.v h @.C.j.n.R.R.).!.OXF | i.~ k Y ] #.m ~ ~ < c O.6.R ^ @.R = j 2 v *.6.K ",
"- M ' | -.-.K - ; x O.R C R f Y ! G 7 Q ,.M $ ' 1.^ q.4.7 = v Z.k.x.b.P.)._.@Xj M ~ X.v h E ] 3.2.*.4 k n } A  .C x H W J c ~ [ | ",
"< Y X.+.| ' n k l z ^ -.~ n n w.7.O.- 4 %.W d o.A x O.v < n d V.k.x.G.I.W.(.+XH - n :.l h -.' } ~ ; k W < n ^ A ^ : t.>.:.I - C ' ",
"3 I } ~ n = k :.%.v k @.O.k Y *.O.~ l k Q v j / @.~ n h Q <.X.V.j.z.K.I.W.(.+X=.h L X.2 < *.' f T h o.:.F v *.*.Y = 4.#.~ ~ , @.M ",
", 7 I ~ Y 7 H r.<.Q < K H c o.&.m x d < 4 3 1 2 M O.4 2 ( w.r.Z.k.x.D.I.W.(.OXg j % 2 j 4 k T +.= b >.<.>.< < B F ! } [ ; k > : h ",
"9.< = c 4 n @.~ ~ %.Q < < c H $.3 3 R _ M @.*.@ 8 3 c ! O.E ' Z.j.z.G.P.E.!.OX- E O.} ' E 4 % D - } } A #.O.h 4 4 F ( J $ c O.E X.",
"4.O.b > j ( O.m R ] O.Y n < @ = b &.t.q.-.9.t.+.8 3 c ~ } C T V.k.n.G.U.).!.+Xf.9.-.O.4.e.~ h j Y O.R x } %.W b n = o k :.t.9.*.+.",
"} a.O.= h K K X.%.*.Q - k 0.e.x 7 O.7.} | ' ] -.K b k H O.*.*.`.k.z.G.U.).!.+X9.} +.} [ =.%.v @ < Y @.4.4.^ n ; } a.~ = Y e.*.R +.",
"E 2.E c K c 3 W *.z 7 E @.4.1.E : d n Z | | | ,.F n z = f ~ Q V.j.x.G.P.).(.+X2 C ' ..| ' T Y Y H 4 n ~ Y k C ^  .q.*.z > < C *.| ",
"E x z ' 9.( 6 # > < ! q.*.^ } } Y < Y #.=.=.T m n O.%.Y - = < v.0 h.n.U.E.(.+Xj } ' #.4.T f C q.>.c @ @ < Y 2.#. .} O.Q 4 n %.4.| ",
"C z C #.%.9.%.D O Q 4.Q C @.9.~ H > ~ %.} ~ h < #.#.0.q.~ 4 4 p 9 r n.U.E.(.+Xk ] +.@.Y h M O.| 9.$.! 4 4 %.9.T #.} ~ z : ~ e.~ +.",
"k W %.@.R ~ *.( n B C Q Q c = = D 3 U G Q ~ n >.=.] T ~ ~ H c v.9 h.J.G.P.T.OX4 Z X.X.j k *.q.E O.%.X.F 4 W o.n R = % v F k z E ] ",
"4 Q *.@.E k - < k n k > h 4 2 H <.;.U @ 7 c @ :...| C d , b G v.9 y H.F.b.M.OX_ l $ % n L X.@.} f < < v J F 4 = = c H / w.^ < & h ",
"f v $.U j 4 _ ^ n R q.} A 6.( k } +.-.9.F G G G ` U : G 8.! 8 s 9 t K.F.S.M.OX&.w.w.j h < o.%.j 4 n *.n x q.q.E 5.E Z T } 9.0.' 2 ",
"^ x > - k *.a.6.%.k C *.e.9.Y < f E *.W Y ) _ N 8 c W :.r.r.O.a 9 t K.L.F.m.OX` w.K M >.O.> = $ ~ 9.d.9.Y k ^ 2.0.~ j < K *.O.k n ",
"q.4.Y Y k %.*.O.e.Y k ^ R 7 h k g d z h &.*.9.2.! v X.9.@.q.q.a 9 t H.b.D.M.OX7 W < %.e.w.! Q v ~ 4.@.9.%.k Q ,.k F j j j v j v 4.",
"E *.4.~ ; n E } ! O.n f - f +.@.0.~ 4 2 _ O._ 2.w.v j ~ T ' +.a X t K.L.F.M.OXR < 3 9.%.( e.*.h N O.T ~ +.H k 4 4 W >.9.%.k 2 / | ",
"Y ^ O.z k k } %.~ *.v < n >.f.%.-.0.W h c O.R A %.j - M +.+.| a . w J.L.G.N.OX#.v 4 W X.Y >.K 4 ; R -.+.@./ 3 c O.9.5.q.0.' k k ] ",
"k v C < n ; n Y ] O.k : c Q O.~ T -.X.X.k c 7 n k M d h ] X.L a . e Y.G.D.Y.OX' &.Y 4 v 4 Y v H - < ! X.X.~ > H T } ' V { =.' l 2 ",
"@ 1 < n Q k : 4 k k b j c 4 k -.=.' ] o.F : : k d T M > % 2 j a . e c.x.H.M.OX} o.o.h : > > k Y ( > $ 4 k k < < j v E E E | @./ l ",
"y.:.W 9.f.w.j 2 z Y >.<.$.c $ ] ..g k = v ! 7.( ] ,.d.%.j 5 L i X 0 q h.n.M.+XM = k k X.u.W %.f.<.! : c K ] d.*.D : K -.] j 2 5 v ",
"( %.#.V ' @.l K 5.5.=.=.#.O.F 2 F % H >.R k Q *.' } Q ~ n K 0.i   X X q l.l.+X% E -.l g +.#.+.C } k l %.,.#...=.,.Q 4 4 h 4 E #.c ",
"< d 4.-.} -.~ > M E } | #.%.M $ d d Y 4.4.n 7 A #.' ] >.Y h T oX{.{.}. XXX.X#Xb ~ e.} f l ' #.} -.*.v d +.4.' [ %.Y 4 > 4 Y @.q.Y ",
"d h +.+.~ +.T $ k n T ] m k K o.} Z & f @.C - ^ ' R -.*.c $ - T T R } m Y %.E k $ / %.h d X.-.] ] ] < o k Q T C n k O.O.W c - R #.",
"h ~ X.Y E M h T v h Q e.+.d l i.4.@.< f %.Q 4 O.' E } d - W n j 9.@.T & ~ q.4.^ j H :.K v -.] M Q < K X.< h %.*.C f *.q.%.K > %.T ",
"o M ] ] Y - k 0.-.j j X.o.M M -.Q Q H F b 2 5 J } T x + C f.@.h Y ~ ~ < ~ #.' Q c 2 F 4 4 Q Q ] n - O.s.Y h ] %.R k +.@.~ ! > L n ",
"M > h L v j X.+.-.o.k > $ v ] *.j 3 c 6 4 D c 1 M n k g } 9.] Y = < n n @.~ ; = j h c k h h j X.$ T O.+.O.n > h = Y *.N < x > > h ",
"i.K $ j j K *.Y m | o.F h v H c < n ( O.4.t.+.h 2 j k E | C T *.W 4 = 4 v H 4 W +.5.*.-.%.j > c d @.| C #.+.c > < L Y ; ; ~ 9.<.#.",
"-.e.F 2 H K Q ] ' =.+.K S F b , n t.a. .[ #.3.3.5 v - C #.Z ' #.$.v c L 4 c J ].| 5.' -.t.W c j n Z ' A ' *.X.k J c = x 1.q.9.Q | ",
"| #.O.j 2 H ~ R 0.] x & Z a.6.g % K ,.Z [ { %.-.K h h K Q @.*.O.k < +.a.@.d c ( | ' | =.-.=.d k x x ~ 9.+.n x v q.q.] j h -.] Z | ",
"m } Y H %.c O H K < M O.=.4.} #.J o k | 5.{ | -.v ] T $ + K Y = Y @.*.@.@.Y 4 2 m ] =.' M +.K T Y = < Y n < Y *.} #.X.L % h C 4.} ",
"%.x f } t.@.h # 4 j O.*.O.%.+.*.F j +.| | +.T $ n 4.e.] < @ 4 ! *.9.O.} 0.] 4 F ,.| o.+.g l m a.9.C & o 4 @.9.~ A 0.*.W j Q +...+.",
"c z ~ 1. .-.w./ 2 K ,.-.] O.Y c h h T | #.E k K 4.} ' ,.9.v 2 ) ,.@.Y E Q z > c ] ,.+.K d ' } #.,.0.@.k < } ,.E } @.n > 2 ~ *.' +.",
"% :.9.E A R n W F j F m h 4 > j K v d d Y Y k w.#.} x n Q H 4 c x k z < O v X.k h K v m l 9.0.Z Y n Y n f z x < h $ + L Q - h k Y ",
"F / @.~ m x 7 < M v T k - n H H -.0.| j h h # ( E ^ C k < < v ! E ; v Y 4 ( t.@.X.j @ n n ~ +.R < = - < n ~ ! = k k M ,.i.T Y h > ",
"z = ! o.< n 9.#.v Q 0.9.,.s.o.j | ] -.<.K c < ( O.k < Q *.%.! Y d.^ %.e.W c ! @.0.+.k M < K X.4 k O.t.O.B ~ 9.4.e.0.M k *.-.f.Q < ",
"q.] 4 # c *.q.3.9.k n ' %.] c j d K -.L = u.y.3 < : Y 9.d.e.} k C O.9.O.j - l ' @.l h i.~ < 2 2 *.*.t.9.Y k Y *.o.Q % - Q K %.j Q ",
"=.-.*.K M +.=.} =.A 7 ! _ 4 4 n R z @ : ( 4.=.3.~ n T +.' | =.Z z O.C < ; Y ~ = - g +.5.=.#.] - *.| ' | { M K o.c F c n C = = / 3.",
"Z %.-.K h k T E ' =.x : , I <.e.e.O.k z ~ @.^ A *.l h L ] | { Z : k 7 Q 9.t.t.~ v M ] ] E O.+.K d M ] =.+.M h 4 2 X.0.t.9.Y c W #.",
"K ] o.W h j ~ 9.T *.K : z %.0.O.=.| ~ n h b ! @.~ k $ v o.%.+.+.7 8 B 7.e.+.+.+.L v m K ~ +.Q 2 d T @.O.O.W c c X.9.9.@.@.} n < K ",
"2 - = 4 c h k F ] ~ j ; v T ~ +.' ] -.+.k - 7 , - k h h v v M T 7 3 7 ! ] T ] =.<.Q j 2 < 4 j j > c F K W M 4 , T T T E O.@.O.Y h ",
"H c c ! O.Q 3 @ > = h k z = = ~ 5.~ K M z v K j n +.%.F < % d M U F h ; K -.-.' K n v F j h L <.! c @ = l v F Q & ; E %.O.Y n N F ",
",.>.4.9.9.#.W h ( O.0.i.0.~ k R ! c d k v W >.<.| 5.9.X.v H X.@.9.9.%.l k ] K > ; k M X.<.,.+.-.t.W 1 c o.%.*.t.Y z n Q n < ; x c ",
"H ' ] T T ] T k 7.4.-.' ] X.6 3 1 4 Y *.@.M v o.{ A ] ] n n @.9.| =.0.C 7 b 4 8 -.4.L k ] -.| Z | K n X.i.i.| E t.n > j j H @.9.n ",
"$ T +.| | -.] d 7 I *.{ +.%.S u D G b O.+.l d ] =.Z +.,.n < B ' | T ] I z 8 , u g -.+.d k o.+.Z i.o.h d K } } { } n c F 4 c ] @.~ ",
"2 K +.{ { ' j h 4 j K T ~ n k >.4.Y 2 c @.' - o.| { ' Q d h 6 j Y Y ~ h Q 9.*.x : Y @.n k X.+.{ ] l h j 4 G T T W < +.9.%.2 < } | "
};
