/* XPM */
static char *_56_00c92514dad20e7510528d7bb7fc95499df3f510dce043183dbd5c927e425844[] = {
/* columns rows colors chars-per-pixel */
"65 65 222 2 ",
"   c #000E0A",
".  c #09310E",
"X  c #232429",
"o  c #67351C",
"O  c #6D3C1D",
"+  c #713E1D",
"@  c #6D3C23",
"#  c #713E24",
"$  c #713E2A",
"%  c #2E4E30",
"&  c #275A3B",
"*  c #296133",
"=  c #34743D",
"-  c #73421B",
";  c #6F4128",
":  c #744324",
">  c #784726",
",  c #7A4A27",
"<  c #75442A",
"1  c #79462C",
"2  c #77492C",
"3  c #7C4A2C",
"4  c #754531",
"5  c #7A4632",
"6  c #794737",
"7  c #7D4C33",
"8  c #7D4D39",
"9  c #7E5034",
"0  c #7E5139",
"q  c #4B633F",
"w  c #78304F",
"e  c #6A3A62",
"r  c #1C4352",
"t  c #1C5658",
"y  c #354D49",
"u  c #265947",
"i  c #24554C",
"p  c #255B4B",
"a  c #235C52",
"s  c #255C5B",
"d  c #1D674E",
"f  c #286546",
"g  c #396848",
"h  c #3B7B44",
"j  c #3B7C49",
"k  c #25695B",
"l  c #3D6A5A",
"z  c #3C7A58",
"x  c #195A66",
"c  c #245063",
"v  c #2A6B66",
"b  c #367C69",
"n  c #286974",
"m  c #367570",
"M  c #73544F",
"N  c #447C4B",
"B  c #437D56",
"V  c #517053",
"C  c #585773",
"Z  c #70526C",
"A  c #4E7A69",
"S  c #64646D",
"D  c #7B6568",
"F  c #972332",
"G  c #A9263A",
"H  c #BA2738",
"J  c #814E2D",
"K  c #83512E",
"L  c #8A532D",
"P  c #814E33",
"I  c #814E39",
"U  c #845334",
"Y  c #895635",
"T  c #865837",
"R  c #8A5935",
"E  c #85533A",
"W  c #89563B",
"Q  c #87583C",
"!  c #8C5B3C",
"~  c #915D36",
"^  c #915E3D",
"/  c #8F613F",
"(  c #946338",
")  c #94633D",
"_  c #99663D",
"`  c #983748",
"'  c #873250",
"]  c #AF3642",
"[  c #C83843",
"{  c #E73A44",
"}  c #855443",
"|  c #895641",
" . c #8D5B42",
".. c #8D5649",
"X. c #8B5B48",
"o. c #915E43",
"O. c #925F49",
"+. c #AA414A",
"@. c #A04C5B",
"#. c #8F6046",
"$. c #946344",
"%. c #996645",
"&. c #9B6A44",
"*. c #956449",
"=. c #99664B",
"-. c #97694A",
";. c #9D6B4B",
":. c #9F714D",
">. c #816654",
",. c #976651",
"<. c #9D6C52",
"1. c #927155",
"2. c #A16C46",
"3. c #A16E4C",
"4. c #A37146",
"5. c #A4724C",
"6. c #A87549",
"7. c #A9744E",
"8. c #AB794F",
"9. c #B07D4E",
"0. c #A26E52",
"q. c #A26E5A",
"w. c #A47353",
"e. c #A97654",
"r. c #A57851",
"t. c #AC7A55",
"y. c #A6745A",
"u. c #A9775A",
"i. c #A7795A",
"p. c #AC7B5B",
"a. c #B17C56",
"s. c #B17D5C",
"d. c #8A4F6D",
"f. c #924C65",
"g. c #A55675",
"h. c #AD7B61",
"j. c #B17E62",
"k. c #CF4C54",
"l. c #D24557",
"z. c #38853B",
"x. c #3B903F",
"c. c #419736",
"v. c #368646",
"b. c #3B8444",
"n. c #3D8944",
"m. c #3B854B",
"M. c #368C4F",
"N. c #3E8B4A",
"B. c #3A8654",
"V. c #3A8267",
"C. c #43854B",
"Z. c #448648",
"A. c #418B4B",
"S. c #479547",
"D. c #519C49",
"F. c #438453",
"G. c #438B53",
"H. c #4A8B54",
"J. c #448A5B",
"K. c #4B9454",
"L. c #539A59",
"P. c #4EA74C",
"I. c #58A858",
"U. c #60AB5C",
"Y. c #65BF5D",
"T. c #478B66",
"R. c #4B9768",
"E. c #579865",
"W. c #4A9478",
"Q. c #638865",
"!. c #638E73",
"~. c #5AA665",
"^. c #5DB171",
"/. c #63B76A",
"(. c #67A875",
"). c #70AD75",
"_. c #65B878",
"`. c #6EC46C",
"'. c #6DC875",
"]. c #AF8054",
"[. c #B38356",
"{. c #B3825C",
"}. c #BA875D",
"|. c #AF836C",
" X c #B48363",
".X c #B88665",
"XX c #BA8965",
"oX c #B58369",
"OX c #B9856B",
"+X c #BC8A6B",
"@X c #B98872",
"#X c #C28F67",
"$X c #C2926C",
"%X c #C8976E",
"&X c #C18E71",
"*X c #C49273",
"=X c #C99777",
"-X c #2A6D80",
";X c #508F86",
":X c #63938F",
">X c #5EAB83",
",X c #6CB08B",
"<X c #77BC84",
"1X c #989D97",
"2X c #8EA990",
"3X c #ABB3B5",
"4X c #C59581",
"5X c #83CA8E",
"6X c #9BDF93",
"7X c #A0CB9E",
"8X c #9CE191",
"9X c #98D2AD",
"0X c #AED6B1",
"qX c #BAC4C5",
"wX c #C6E3CF",
"eX c #D3EBE0",
"rX c #E1ECE8",
"tX c #E7FDEB",
"yX c #F1FFED",
"uX c #EDFCF4",
"iX c #F4FEF5",
"pX c #F8FCFA",
/* pixels */
"6 *.w.( ( ) U -.i.9 o.OXq.Y ^ 7.;.p. .E q. .8 ,.w.U 3.J 3 h.#.7 i.+X3.O e.{.5.t.$ =.y.1 $.w.R &.w., =.i.E ! .Xi.#.9 {.p..X$.7 q.%.",
"5 7 *.w.R > / XXp.! E o.o.=.e.e.-.! 3 7 E 7 7  .5.;.R J w.&Xi.U 7 $.-.U t.5.R / E # 3 P > ~ p.! : U p.OXe.R ! -.$.8 i.$.! E P W } ",
";.1 < *.E 3 :.7.a.&.! P # $ o.s.> 3 ! ) E  .$.< 3 -.1 ^ p.;.w.;.2 < U Q i.-.: , ^ ^ ! 2.Y # %.! < e.p.5.t.R @ 8 Q W h.! : Y  .E L ",
"}.;.< 5 E $.p.( ~ e.a.$.P J P P > w.XX{.t.+XOX! ; U $ ;.e.Y &.s.y.8 2 < 7 9 | p.7.{.s.}.u.P 5 P 8 p.&.K t.p. .E < I o.7 ^  X Xp.j.",
"8.+X-.6 8  .r.5.3.s.2.J ~ s.0.< E i.{.5.r.[. Xp.#.5 3 -.w.w.p.r.#.9 -.y.Q 3  .@X#X2.7.e.s.u. .<  .<.3.&.[.p.$.E ;.<.9 : w.+Xr.p.7.",
"4.{.-.U  .U U *..X_ J L 3.{. Xy.7 W ! ) 7.&.-. X$.9 ! T U u.5.T 9 U h.=Xp. .3 Q 2._ 7.%.s.j.E Q Q U -.i.-.U E ) XX*X&.9 E $.T 7.7.",
"i.! / _ w.-.1 5 Y > ) XX{.5.5.e.8 6 ! [.[.5.w.<.Q $.r.Q : U U U [.;.;.p.5.<.3 7 L a.s.2.e.^ T p.^ : 7 W E U 0.{.&.{.r.$.: Q 5.{.7.",
"-.: _ t.]..XO.6 # o.{.8.~ 6.XX2.,.E ;.].&.:.3.o %.}..Xw.o.$ : ,.r.5.&.e.5.e.Y Q #X3.2.e.J >  X{.#X;.7 < W y.p.&.5.4.<.w.> <. X$.7.",
"U $.{.[.&.t. X-.P | p.;.$.w.| < 2 9 -.#.h.*.! %..X2.3.e.j.^ ^ ! t.&.-.y.} $ U 1 ;.;..XQ | u.p.;.7.e.u.o.P 0.s.o.:.$.< 2 5 E <.;.e.",
"1 :.t.:.:.! 3 U P 3 o.Y > 1 < } w.! U E 0 9 W s.&.e.3.U Y J 3 P R , @ 2 4 O.h. .3 : 7 E  .y.u.5.^ Y W I P W Y # - 1 E y.<.E U U I ",
"3 T :.5.K 3 ! -.! ! 3.o.Y *.O.O. Xi.<.w.2 7 3 =.t.&.> J R  .R 0.t.$.! -.*.-.p.w.w.$.< ! P 0.r.$.+ L ! W W 0.u.o.;.$.U <.@XoXw.3 J ",
"$.U ! ! , $.+X.X3.=.0.s..XOX0.7 / :.+X|.Q =.! K ^ 3 3 .X+X.X%.$.i.p..XOX$.P ;.i.OXe.Y $.T J T : ^ s.#Xe.O.0.j.j. X X$.E $.w. Xw.I ",
" Xp.E : $. X X{.{.! Y p. X$.3 < 3 3 -.T o.h..X2.P J =.&Xw. Xw.3 ! h.e.T O 1 ) 9 ) T $. X XU ! > {.s..X.X3.P o.j.w.$.- : ! $.$.> a.",
"p.{.r.#.! -.5.%.[.$.K ! E 3 $.;.{.T 9 > -.p. Xe. XR Y =.! w.p.=.Q $.U P ) 5.:.3 @ Q p.p..Xp.h.U %.%.%.e.e.o.E ,.> ! ;.{.&.: 3 ! a.",
") )  Xu.: , 5.&.5.t.$.1 < -.*X{.%Xi.$.T %.<.%.;.j.E > o.j.e.k W.b b < r.%X$X Xp.7  .5.R / p.w.7 U 3.w.%.3.;.E 4 ;.w.t.XX}.-.$.! 7.",
"( &.$.! U 9 $.[.2.5.Y U Q w.XX%.$.{.:.R 3 $.Y 2.E o.P + e.<.^.^.M.V.b -Xr.&.4.i.u.7 3 %./ &.9  .< O.5.5.e.%.E E -. Xt.:.:.w.:.3 I ",
"; ; < U ~ P < 8 E *.3 3 Q E *.i.%.s.p.3.o.8 ; 4 , T $.5 M.I./.c.N N A.F.n 7.3.e.e.u. .@ $ 7 7 P 3 P 7 5 y.0 - U 8 *.&.8.t.)  X#.J ",
"1.-.%.w.j.e.Q < 2 $.$.*.$.: 3 w. X) P P U  .<.,.-.[.j.n >X'.P.z.).~.z.J.v j.j.W J W 5 =.u.o.0.#Xj. .5 1 E ! :.r.E : #.e.:.$.U  .| ",
"w.p.p.7.t.e.$.9 w.p. X X.X-.J ! %.< U -.!  .i.h.i.p.i.V.'.P.x.z.~.L.v.B.b 2. .J Y 3.Y ;.j.3.s.e.p.%.o.y.p.+XXX].[.T U *.U ! 1 &.P ",
"U 3.e.%.&.3.$.T w.e.{.:.i.p.U > 2 < $.OXi.W W 0.1.*.x ;X'.x.x.n.j b.A.F.B m $ | 3.#X%.Y o.3.e.~ &.3.3 W 5..X&.:.w.%.> 0 7 Q t.XX^ ",
": ^ 3.5.a.s.$.> 1 Y w.%.$.$.T o.*. .U =.j.^ 1 $.[.:.v <X).S.Z.C.Z.A.v.b.F.T.,.E ^ =.e.L K &.3.s.p.t.7 P ! 7._ 8._ R #.*.*.E ;.:.7.",
"3 ) w.i.e.%.Y U Y U ;.p.;.! !  X|.w.2 3 u.*.P w.&.T d '.L.* N J.A.b.N.G.N g n o.J W j.I U p.3.6.%.J 9 O.1 ! :._ :., OXh.y. .: ) 7.",
"2  .:.:.! : U h.p. .E w.w.T *.p.:.;.Y P *.W I <.r.-.z ).).V % g H.C.H.N % A ;Xa.I ..q.J P e._ L *.9 0.h. .Q p.{.#.:  Xt.-.&.3 e.| ",
"2 8  .:.$.9 | @X X*.3  . .U w.u.R R J 3 7 5 4 4 / :.,XU.0XiXq y = j N % 1XpX:XL P $ $ I P U %.e.< E h.oXh.2 > / Q *.r.4., K < 7 P ",
" X3 < Q 7  .t.4.-.u.-.1 < E O.y.2 2 *.<.^ u.s.: 8 5 ^.6XyXpXuX3X. = . V pXeX:X5 ;.w.w.3.%.7 $ } > :.4.$.t.w.U 7 I | <.X.@ Q r.;.3.",
"[.w. .1 P <.;./ $.w.w.=.! 7 : @ #.r.+X+Xs.{.+Xe.8 7 ^.6XyXpXX S 0Xg Q.iX1X  A i i s t s..X;.P I #.e.&.R :.p.*.E ! < @ 9 h.@X Xp.s.",
"4.$Xw.< P  .o.<.u.p.%.1 T  X{.U 9 5.{.r.w.3.5. X#.x ^.8XyXpXX S 9Xg Q.yX1X  l p u u a 2.s.e.! # 3 $.e.{.].:.! 3 w.+X;.: $.OXp.%.7.",
"&.t.&.! o.I 7 -.i.T 9 %.r.{.].&.> 9 ! $.7.e.5.{.Q t _.I.0XpXrXqXG.N Q.tXtXeX!.& u u u 7.3.%.$.) ! 8 ! -.) T ) &.7.XX[.Q > 3 ^ p.7.",
"&.R T :.h.<.8 @ > 1 ;..Xt.:.7.8.#.3 $.t.t.t.k >XV.d `.D.7XuXiXwX= Z.A.2XtX9XB u A A i s.%.K $.XXh.E @ $ < $.s.t.:.4.i.$.9 T t. X7.",
") T $.e.p. Xp.E + -. X;./ e.s.;.#.2 -.i.5.-.>X^.B.M.Y.U.E.).).!.A.A.z.H._.T.z u a V i O.U ) 7.e. Xy.*.7 7 i. X%.t.8.-.U > -.XX;.e.",
"E $.i.e.-.3.u.<.! / ^ $.*.T < < } 4 #.#.$.;.>Xn.v.N.`.P.= N j b.A.A.n.A.h j F.* & i s E P i.XX%.r.p.e.Q 7 *.0.! $.1 : Q ! K ! &.3.",
"7 -.i.t.&.T 1 1 Y ! 3 3 E 8 5 } |.y.#.; U E >X/.x.x.Y.`.5XE.b.n.A.A.A.b.M.G.h * & p c Q *.<.e.5.K 1 1 E  . .8 < $ Q | <.|.<.3 - P ",
"K R y. .I 7 5.5.Q $..X5._  Xw.U 4.7.p.OX0 #.m >Xj c.I.).2XH.n.n.n.A.n.n.m.B.u u p t U P 7 0.u.U P  .p.! T XX X&.}._ ) %.5. X.X&.6 ",
":.R 1 7 E p.$XXXu.Y ) p..X X$.3 K &.i.-.#.q.x V.E.K.c./.= (.K.n.N.b.A.b.~.E.f p a x  .h.0.1 < $ ;.j.+X.X) T ;.{.XX;.Y 5 o.p.e.P R ",
".X[.$.$.U i.p.r.+X$.U 3.;.K P 7 K K E 9 h.i. Xm 9XE.S.I.b.<XK.v.A.Z.A.b.^.(.f a $.5 u.OXoX,.-.W ;.{.i..Xe.U ;.p.E | W I I W E W s.",
"%.{.{.;.3 ! $.;.;.5.T U 3 U e.e.XX;.2 2 y.y.:.x ,XR.S.I.B.v.N.z.A.m.n.N.z z t t 5 7 j.y.0. Xu.P ! w.&.;.w. .E 8 7 ,.h.j.y.P 5 =.e.",
"#.;.r.T U U 3.p.=.s.W 1 ! p.*Xy.p.+X*.P W <.$.&.v H.= I.~.z.n.A.n.A.m.m.b v a.8.! 5 %.0.O.u.o.J 3 %.{.e.e.-.7 E e. Xs..X.X3.K U 2.",
"U Q ^ 1 Y 3 ! -.0.w.U : E %.0.3.%.s.0.0.U E 9 / n b m.P.I.z.n.A.N.b.A.z t ( 5.5.u.o.7 ! P O.W ^ , , -.;.<.-.1 ! %.5.2._ 2.a.2.Y P ",
"$ 5 J ! =.W 5 J U T W E E P U s.a.2.=.0.Q < > U J *.b m.I.P.b.G.N.N.F.z x 5.t.6.0.0.P < 3 J I O.-.7 $ 7 E U 3 , P W %.2.2.w.i.,.E ",
"@Xh.$. X*Xj.I 6 Y  .p.|.u.I # 0.8.Y U 1 E ,.|.,.3. X*XV.~.K.b.G.n.A.N p ! 5.;.~ 1 I E 0.@Xo.u.=XoX-.< E *.0.&Xp.} < o.s.w.I 6 6 Y ",
"-.u.a.^ 2.a.Y ! s.s.s.a.a.e.o.$ ! $ #. X#.9 -.[.3.5.=.<.R.L.Z.F.n.A.f s.< W } 4 $.{.Y Y 7.a.e.^ 3.Y E w. Xt.8.8.j.=.3 7 8 3 &.r.E ",
"1 P s.s.5.s.;.1 ^ 2.7.7.e.7.! $ J J $. XXX/ 3 / t.2.3.p.T.~.).H.b.B.f %.# U  .Q $.OXw.K Y 3.s.0.s.p.Y P e. X4.3.i.$.7 2 P ) r.XX$.",
"3 P e.e.2.t.%.# U W %.3.^ P ~ q.8._ - , r.) , 5.2.2.s.e.W.R.L.Z.M.B.s ! %.u.%.U # ,.u.U P 3.a.3.0.2.3 O U =.%._ ! T 0.e.*.E 1 %.t.",
"J ;.w.%.=.^ P $.W P =.&Xa.J Y #Xs.5.3 K i.*.8 w.2.&.5.K v F.N Z.h f k - 3.XXs.2.7 O.u.o.W e.0.^ =.7 o.;.J P e.u.) J p.OXi.o.3 u.%.",
"O o.3.0.%.3 P j.h.W I 0.w.! ^ s.=.*. . .} 5 6 O.5.%.Y + r V V N q % y c ;.t.3.%.I P W P 3 =.2.0.Y , e.&X$.P ;.y.$.Y i.r.;.*.3 o.W ",
"^ < J O.W P 7.u.p.0.P # # E 0.u.E 7 P P 7 E ..6 $.Y K L C D 1.1.>.M Z C w.-.3 : E P P Y J P E 0.# $.e.e.w.^ 3 P : $.s.! , Y 1 2 P ",
"#Xo.$ P I ..u.O.~ e.y.Q 5 | $. .< ! :.i. XXXw.7 5 E U &.f.+.] ] ] +.@.Z Q  .P *.t..Xe. Xy.I < I K e.5._ t.e.Y 5 3 $.&.1 , -.j.j.t.",
"j.j.W 5 o.o.3.2.2.a.u.O.E W E < / XX+X6.:.].[.{.6 } 1 $.` H H ] H G F w P I X.4X3.}.3.s.&Xo.| I ~ ) &._ &.p.0.E  .U : R p.OX X<.7.",
"e.a.0.I 5  .-.%. X:.R - ( %X}.R $ ...X_ 4.7.e.s. .J P o.=.g.l.{ k.` r.$Xu.P W ,.7.2.a.s.s.e.J Y ! ! ;. Xw.Q T ! }.XX,.I 6 j.3._ 6.",
"~ 7.o.o.e.E @ #.$.7 $.5.t.{.7.e...o Y 6.s.7.e.s.W 3.o.$ @ f.l.{ [ ` t.i.e.%.P 5 ~ 3.a.3.^ e.o.%.! : 1 &.$.3 ) p.5.t.y.O.$ Y ) [.e.",
"u.R P e.OXi.9 @ 7 P w.p.e.u.r.s.| I e.e.7.7.%.+ ^ a.#X3.6 d.k.[ G ' 5.r..X<.7 Q j.e.e.e.~ Y ~ $X X$.- O U e. X:.&. Xs.*.P =.e.8.e.",
"W E 2.t.r.{.oX,.7 | j.s.3.y.O.W P J 2.3.7.3.Y o.s.7.3.j.@XZ w ' ' e %.-.$.U 1 Q 3.s.e.^ J 3.5.e. X.Xr.9 3 5.p.$.7.r.! 1 P =.p.3.w.",
"$ y. X&.&.-.o.-...P o.W 3 P < I ! o.J J %.$.U oXa.3.R ! -. .7 E R Y Y 3 # Y ;.E J +.U U Y j..X%.! ! $.! K T ! 3 L # # o.%.< P Y $.",
"o.,.w.3.^ T P 1 ! W %.J > o.o...w.&X3.Y U 8 @ <.2.&.! U 3 P Q -.&.1 Q $.P ,.+Xw.0.W + ~ ~ 0.e.%.1 , 3 3 ! ;.$.: P U W j.&X%.o.P 7 ",
"Y : *.<.1 W  X[.! =.XX Xj.&X0.I e.5.j.j.O.W 6 <.0.U 3 %.p.e.;.$.$X;.i..X=.W -.w.OXy.U o.< o.;.5 T r.+Xw.! 3. X XOXj.^ Y a.j.=XO.3 ",
"OX0.7 # Q p.XX[.s.U R 3.e.0.I P U ^ e.=.# @X@X3 3 1 $.XX*XXX<.U %.e.j.y.U < R ;.e.R J &X3.3 5 J t.i.+X X$.Y ) p.y.;.# # %.o.u.I =.",
"s.j.w. .o.e.s.3.a.2.3 =.<.8 U ! $.T @ : ;.{.].[.2.Y %.a.3.7.9._ R w.) 3 3 $.;.: $ Y e.j.a.a.2.$ s.6.2.8.5.^ ! q.I | ! ! ! : 1 -.{.",
"%.e.p.$.P Y $.2.2.a.W < 9 #.j..XXXw.Y E ;.e.;.&.u.W J ^ 3.7.7._ > 7 9 -. X+X+X:.W  .3.3.2.a.e.^ J ^ 3.t.e.^ P 7 P 0..X+X{.$.E #.e.",
"o.3.y.*.P P =.j.%.p.o.# U u..Xw.a.7.;.^ U Q -.w.3.P $ W 0.e.t.e.0 0 / |.#Xe.w.e.O.W W W %.q.O.J J %.w.w.w.=.W I 0.j. Xt.i.:.! 7 ^ ",
"J < > 8 E P E | 0.;.P 3 W $.;.r.2.3.s.0.U 2 8 2 J P I P W W ! %.9 2 9 -.3.=.3.a.j.=.U J J J I I 3 P Q $.=. .P 1 O.=.%.%.w.t.w.%.I ",
"W E W -.0.=.7 @ $ > P R Y : : -.s.2.$.^ Y | O.I R e.y. .1 1 P ! #.Q 0 > ! s.s.2.^ W  .| I 8 o.j.=.I @ $ W W | =.- 3 %.i.w.$.! / W ",
"h.p.j. X.Xs.*.P -.w.OX#X.X;.U *.;.E P P R =.h.j.e..Xj.;.E  .3.p. X Xp.U P 0.o.3 J U  .0.j.j.e.s.@X%.1 E w.i.p.+X%.Y ! -.! > 9 T E ",
"o.3.e.%._ 3.$.Y  Xj.s.%.3.;.U 8 4 7 O.u.y.! W 0.4.2.3.0.Q ! e.{.t.t..X$.9 Q 7 8 s.s.=.U 0.j.7.%.0.%.o.0.+XOX7.2.XX! 1 I U Q 5. XR ",
"# o.e.5.7.s.3.J U $.p.e.e.i.E 0 } } Q e.a.Y J 5.9._ 7.j.#.> / :.8._ 7.) U 0 4 | Y s.w.3 U u.8.2.j.0.Y < ~ e.7.2.5.T E  .P E -.i.3.",
"J o.a.3.4.2.I P I I  .O.2.W Y j.s.$.J P h.%.P 3.7.4.2.O.P P I I $.2.3.1 =.j.a.! 6 o.w.! Y 0.e.4.3.! P 7 P Q =.%.%.3 w. Xp.< 3 w.5."
};
