/* XPM */
static char *_8575_f3d2b83798351471874d202b138beb6f9f9d27cf80a5fed4707b95cc97d83031[] = {
/* columns rows colors chars-per-pixel */
"65 65 219 2 ",
"   c #001A2B",
".  c #001C38",
"X  c #0C222B",
"o  c #062739",
"O  c #0D2D39",
"+  c #112C36",
"@  c #16313A",
"#  c #67361C",
"$  c #6D3C1D",
"%  c #703F1C",
"&  c #6D3C22",
"*  c #6E3B2A",
"=  c #713E24",
"-  c #713D2A",
";  c #73431D",
":  c #6D4229",
">  c #744325",
",  c #794626",
"<  c #7A4A26",
"1  c #75442B",
"2  c #79462C",
"3  c #76492D",
"4  c #7C4A2C",
"5  c #744431",
"6  c #794633",
"7  c #754A32",
"8  c #7D4B32",
"9  c #7B4639",
"0  c #7E4D3B",
"q  c #7D5135",
"w  c #7F5239",
"e  c #042D43",
"r  c #0C2E40",
"t  c #012E4C",
"y  c #083246",
"u  c #02314D",
"i  c #14334B",
"p  c #002E53",
"a  c #003254",
"s  c #00335A",
"d  c #003A5B",
"f  c #173A50",
"g  c #294657",
"h  c #124D6E",
"j  c #024973",
"k  c #004D7E",
"l  c #06537C",
"z  c #30566C",
"x  c #7E5841",
"c  c #465866",
"v  c #49616B",
"b  c #496474",
"n  c #814E2E",
"m  c #83522D",
"M  c #89582F",
"N  c #814E34",
"B  c #814E3A",
"V  c #845334",
"C  c #895635",
"Z  c #855837",
"A  c #8A5A35",
"S  c #85533A",
"D  c #89563B",
"F  c #86583C",
"G  c #8C5B3C",
"H  c #915C35",
"J  c #915D3E",
"K  c #8F613C",
"L  c #926337",
"P  c #94633D",
"I  c #99653D",
"U  c #9B6A3D",
"Y  c #855443",
"T  c #895642",
"R  c #8D5B42",
"E  c #8A5649",
"W  c #8F5C4A",
"Q  c #915E43",
"!  c #915F49",
"~  c #8F6145",
"^  c #8E6249",
"/  c #946343",
"(  c #9A6644",
")  c #956944",
"_  c #9B6A45",
"`  c #95644A",
"'  c #99664B",
"]  c #96694D",
"[  c #9D6B4B",
"{  c #9E704A",
"}  c #9A6754",
"|  c #9D6B52",
" . c #9F7255",
".. c #A26D46",
"X. c #A26E4C",
"o. c #A27246",
"O. c #A7764A",
"+. c #A3724C",
"@. c #A9744D",
"#. c #AA7A4D",
"$. c #A16E53",
"%. c #A36E59",
"&. c #A57353",
"*. c #A97554",
"=. c #AB7A54",
"-. c #A57459",
";. c #A9765A",
":. c #A77858",
">. c #AD7B5B",
",. c #B17D55",
"<. c #B17D5C",
"1. c #A77660",
"2. c #AD7B62",
"3. c #B17E63",
"4. c #B17E69",
"5. c #AE8057",
"6. c #B68758",
"7. c #B2825C",
"8. c #B9845D",
"9. c #AE8167",
"0. c #B48363",
"q. c #B98665",
"w. c #BB8A64",
"e. c #B5836A",
"r. c #BA8769",
"t. c #B1886E",
"y. c #BC8B6B",
"u. c #B78571",
"i. c #BC8A72",
"p. c #BF9072",
"a. c #C08E6E",
"s. c #C19360",
"d. c #C5946D",
"f. c #C18F73",
"g. c #C49372",
"h. c #C99879",
"j. c #0D5785",
"k. c #155C86",
"l. c #11628E",
"z. c #09689B",
"x. c #166997",
"c. c #2B729A",
"v. c #026DA4",
"b. c #0A6DA3",
"n. c #146DA1",
"m. c #196CA0",
"M. c #0C75A8",
"N. c #0B75AC",
"B. c #1375AE",
"V. c #1B75A9",
"C. c #0C79B8",
"Z. c #1275B2",
"A. c #177AB5",
"S. c #127FBC",
"D. c #0782BF",
"F. c #1782BC",
"G. c #2787BB",
"H. c #5A8299",
"J. c #77888F",
"K. c #5597BB",
"L. c #7D95A1",
"P. c #0482C5",
"I. c #0788C7",
"U. c #0584CB",
"Y. c #0C85CA",
"T. c #0D8ACB",
"R. c #1384C5",
"E. c #1789C7",
"W. c #0787D2",
"Q. c #098AD4",
"!. c #1187D3",
"~. c #1898D8",
"^. c #1B99DC",
"/. c #2693CC",
"(. c #3097CC",
"). c #349CD2",
"_. c #34A5DA",
"`. c #1E98E1",
"'. c #2EAAEB",
"]. c #35AAE5",
"[. c #32AAEC",
"{. c #38B2F1",
"}. c #519CC5",
"|. c #53A5CC",
" X c #53A5D4",
".X c #73B6D3",
"XX c #45ACE5",
"oX c #4CB5EB",
"OX c #51B9E8",
"+X c #4BBDF6",
"@X c #43BDFE",
"#X c #49C2FD",
"$X c #55C4FD",
"%X c #7CC5E3",
"&X c #96A7AF",
"*X c #9CAFB7",
"=X c #C69380",
"-X c #8AB6CF",
";X c #89BAD5",
":X c #85BCDB",
">X c #8ABAE2",
",X c #B3C4CB",
"<X c #AEC9DA",
"1X c #B5C3D3",
"2X c #92D1F3",
"3X c #A8CDE3",
"4X c #ACD5E9",
"5X c #A8DCF5",
"6X c #B8DEF4",
"7X c #A6E6FF",
"8X c #B1E9FF",
"9X c #C9D4D8",
"0X c #CCDFE4",
"qX c #CBE0E6",
"wX c #D7E7EF",
"eX c #CCF4FF",
"rX c #DDFCFF",
"tX c #E8F8FD",
"yX c azure",
/* pixels */
"9 ` :.A L P m } :.8 ! i.%.n J ,.[ >.R S %.W 6 } @.M X.n 4 2.^ 8 >.t.[ ; &.0.+.=.- } &.2 / =.A ) +.< ' ;.V R r.#.R V 0.=.>.` 9  .Q ",
"6 8 ' +.A < G y.>.K D ! Q ( @.@.' A 4 7 B 6 5 R &.[ C 4 $.f.:.V 4 / ' V =.+.G L S > 4 N > G >.G > V *.y.&.A G ' / 8 >.` G A 0 Y D ",
"[ 4 4 ` B 8 { #.>...H n = 2 ! <.< 4 D G V P R 2 8 ] 2 G <.X.&.[ 7 1 S G =.` < > G G H X.V > / D 1 -.>.O.=.G & B T S 2.G > V D S H ",
"6.[ 2 6 0 ` 7.L A *.*.Q N 8 N N < +.p.7.=.p.q.G : w > | ;.n ..8.;.N 2 2 8 V R -.@.8.<.3.>.S 4 B 0 2._ m =.7.D Y 1 8 / V / 7.0.7.8.",
"#.y.` 6 B R #.{ @.<...n H >.| 1 S >.8.O.O.6.7.=.^ 3 4 ] &.+.>.&.R V ` :.S 7 R i.8...,.*.;.;.T 2 T | [ _ 5.5.` 0 } %.V > &.y.=.=.X.",
"+.q.' D R N V ' 3.I n m X.7.0.:.6 S A P +.) ' e./ q ~ C V *.O.Z V V <.h.>./ 2 D ..I @...<.3.C R G S ' >.' m V K r.g.) 8 S P Z O.@.",
"&.G K ) &./ 4 6 C , P w.6.@.+.*.x 6 G 5.7.#.{ %.A ( *.C > q V w =.+.[ >.&.[ 4 8 H ,.,...@.Q V ,.L , 4 W S S &.7.U 7.&.` > A +.0.@.",
"] > P 5.6.0.W 9 - Q 7.O.H @.a.( ` S [ 5._ +.} & ) q.q.$.R 2 1 ] #.#.{ &.&.;.S A q.X...@.n , 3.q.s.[ 8 - 0 ;.5.U o.+.{ -.2 [ 0.` @.",
"V / 7.7._ =.e.[ N G >.[ / &.T 5 3 4 ` ` 1.` A [ w._ X.*.<.Q Q G =.) [ -.S 1 B > [ [ 0.S T -.>._ @.*.*.R N ' >./ { / 1 5 8 S [ $.&.",
"7 | =.+.+.P 4 V S 4 J C > 2 1 S &.G S S S 8 V >._ *.X.A D 4 4 n V 4 & 1 2 W 2./ 4 > 4 S R :.:.+.P C D S N D D % ; 4 S  .} S V n D ",
"4 V { +.m 4 G ` D G [ / Z ` ` T r.=.%.&.2 8 4 _ =.[ , n G H C &.=./ D } / ` >.:.+.` 4 S V &.+./ % m Q D S %.;.J ] / S &.i.0.$.4 9 ",
"' V A G < ~ y.0.[ [ :.>.0.r.%.8 G | y.4.T ' G V J , < 0.a.e.` / >.5.e.r.` 8 ' =.r.>.V / S V V > J <.y.*./ %.3.<.7.0./ S Q :.0.:.N ",
"q.5.V > ` 7.0.>.7.A Z >.0.Q 4 4 4 4 _ Z / >.0._ n N ( a.&.0.&.n R >.=.V $ 4 / q ~ V / 0.0.V D 4 q.3.0.q.$.V G 4.| P ; > A ` / 4 =.",
"=.0.=./ G [ &._ 5./ m D S N / [ 7.V V > ] >.0.=.0.G C X.J +.=._ S / V m ) +.| 4 & A >.<.r.=.>.S ( / ( *.:.Q D ' 4 G ] 7.' ; 4 G ,.",
"P ` 0.;.> 4 O._ +.=.P 4 3 [ d.7.g.=.` Z [ &./ _ <.N 1 Q 0.*.X.&.7 2 > &.h.w.q.7.8 / +.A K >.&.7 N X.O.( X.[ S 1 | =.=.w.8.[ / G +.",
"L ) / S N q / 5.{ O.G V S | r._ _ 5.X.S 4 / C ..D ( B % &._ P =.N / / +.#._ { #.1.8 4 ) K [ 8 / 2 / &.+.*.( B S ` 0.>.o.{ &.[ 4 D ",
": : 2 V G 8 3 q 8 [ 7 2 D V ` &.( <.>.[ R 0 : 5 < V ` 2 6 ` S ~ 1 2 V J *.( @.#.%.<.T & 2 N 2 D 2 S 8 6 -.V $ V 8 ' [ O.#.P 4.! N ",
"| ] ( &.0.*.F : 3 ` ` _ ` 1 4 &.0./ m V V R | ] [ >.2.` 2 J.z H.}.K.}. X%X.X2X;XtXC 4 ` ;.Q [ y.0.D 2 2 N Z [ =.S > ~ =.{ ) V R G ",
" .0.>.@.*.*./ w &.>.0.0.r.[ 4 G ` 3 V ] G Q ;.2.O.=.X.;.` b   z F.S.C.E.OXOXXX|.eX&.N ' 4.$.<.&.5.` R -.>.p.w.5.7.V V ` V ~ , [ B ",
"V { +.( ..+./ Z #.+.>.[ =.7.m < 3 > ^ r.;.D C $.o.I ( &XL.g p k.Q.W.Q.!.^._.{.oX2X4XtXC / X.*.A [ +.4 S  .q._ { #./ 1 0 5 D >.6.Q ",
", J X.@.,.<.Q , < A &._ P ) V P ] R 8 ' 3.J , Q 5.o.s.g   e s l.T.I.P.R.S.F.$XoXXX|.eXV N ( ..6.5.>.N 4 G #.I #.P A R ^ ! S [ o.@.",
"4 / &.*.*...C S C S [ 7.[ A K e.9.&.3 4 ;.` n ;.tX*X*Xg e h k m.T.T.`.E.z.z.G.G.{.oX2X6XrX>...O._ 4 V ` 4 G +./ [ < y.2.;.! , P o.",
"7 ~ { [ G > V 2.;.G V :.&.S / ;.{ { C V ` R N } 9XX   e p c.G.R.P.~.$X).t t t a _.#XoX X3X-...n ` 8 %.1.R S 7.7./ > 7.=.[ [ 4 &.J ",
"3 8 R [ ) q R t.0.' 7 R R V -.;.H A n 4 8 7 5 6 0X+ i t p x.R.Y.U.~.#X).j h u d (.'.{.XX5XS ( @.> D 2.e.1.4 4 G T ' +.o.< V 2 5 6 ",
"r.4 > S 4 G =...[ >.` 2 4 S W %.7 7 ) | P :.>.& 0XO e u s n.T.W.P.^.#X].F.V.a s M.D.'.oX5X7 - T , +.+.U =.&.N 8 0 R | W & S :._ &.",
"5.&.F 2 B | &.G / +.&.` G 8 & > T :.y.y.<.<.y.*.qXO y a s n.R.W.U.^.{.'.T.B.s a M.T.[.XX2X| B B J :.) A +.>.` D Z > # S 1.y.6.>.*.",
"O.g.&.> N ! ! | >.>.) 2 V 0.q.Z q &.7.&.@...X.<.qXO e a s m.E.W.U.^.@X[.R.A.s a M.I.T.A.:X=.D = 4 / :.7.5.{ A 4 O.p.[ > ` r.>.' @.",
"_ 5._ S Q S 7 ` >.V 8 _ #.7.5._ 3 4 K P @.,.X.<.qXO e u s x.T.U.U.`.@X[.R.V.a a M.T.Y.B.:X( / Q R 8 G [ / V P { O.w.=.A 4 4 G >.@.",
"_ A Z [ 7.| 0 & 3 4 [ r.=.{ +.O./ 4 / =.=.,.( J qXO y u s m.E.U.U.`.@X'.R.B.p a B.Y.!.B..Xm / q.4.V & > 4 / 5.>.o.+.=.' q D =.0.@.",
"P Z / =.>.0.;.S $ ' 7.[ K >.0._ R 1 | :.+.[ n 4 qXO y u s x.R.I.P.^.@X[.Y.Z.a s B.Y.Y.A.:XJ &.O.2.-.' 8 N -.0./ 5.+.[ S > [ r.' @.",
"V ` :.&.` { >.%.G K Q ` ` S 2 1 S 7 W ~ ( | G 2.qXO o u a k.C.D.P.~.@X'.!.C.s s Z.Y.!.Z.:X<.r.U &.>.-.S 6 ` | G / > = S R V Z _ X.",
"6 [ >.=._ m 2 3 V G V 2 N 8 6 R 9.1.^ & q F & 1.qXO e u p j.b.C.P.~.+X[.Y.C.s s Z.R.!.Z.>X$.:.+.m 4 4 S W R q 2 > S R } 4.{ 4 ; N ",
"m D :.! S 8 { +.G ` r.O.) 0.| V o.=.>.0.F Y F ~ 0X+ O u s j.M.N.C.E.+X].Y.Z.s s C.W.W.C.:X$.;.V 8 G >.D A w.w._ 6._ I _ X.0.8...9 ",
"{ A > 2 V 2.g.0.-.V K 5.w.6.` 4 m _ >.' ^ |  .F qXo r t a l.z.v.v.E.$X].E.V.s p N.T.W.A.:X2 1 = [ 0.g.0./ m [ 7.0.[ B 6 Q <.&.V G ",
"w.7.` P V :.>.+.r./ V +._ n n V C n S N :.:.0.7.0X@ O u p j.n.z.v.E.+X).x.k.t s N.T.T.B.;X' ' D [ 5.:.0.;.V ' 3.B T B N B D B T 7.",
"_ >.7.[ 4 A _ +.] &.V m 4 V ;.-.q.[ 8 3 &.:.+.5.0XX o o p k.x.n.v.E.$X(.p p s s N.E.F.x.-Xe.>.8 K &._ [ :.R V 8 8 ' 3.0.*.B 4 } O.",
"/ { &.Z V V +.>.[ >.A 4 R >.g.;.<.e.` B S | ) ) wXv v f a h k.l.v.A.XX/.k j k j.F.F.}.K.3X2.! 4 < ) <.-.:.' 7 S %.8.q.6.w.X.m S X.",
"V D P 4 A 4 A ` +.&.S 1 S ' &.[ ( ,.$.$.V S q K C J n z . a a l n.z.z.b.A./.Z.G.G.V.8XrXyX/ V Q 4 < [ [ %.' 4 R ` &.o.L o.,.X.V 6 ",
"* 5 4 A ' V 2 6 V V S S S 8 B 3.,...X.$.R 1 > V n ..J c i i u h x.l.x.n.F.C.Y.S.G.c.6X1 4 4 N ! ' 2 = 8 V V 4 2 N G ( .._ +.*.} D ",
"u.2.` 0.g.t.0 9 A R 2.4.-.D % X.#.M V , S } 2.' X.3.d.tXtXb o i s d s j n.Z.E.A.7XrXyX$.f.! ;.h.e.} 1 S Q +.g.>.Y 1 Q <.+.N 6 9 D ",
"| ;.=.H +.=.V Q 8.,.8.,.,.&.R 6 T - R 2./ V [ >...+.' [ D c   X o e . a l x.V.c.eX5.Z m @.=.*.P @.V C ;.0.*.O.,.3.' 7 8 N N ) #.S ",
"2 n 7.<.X.7.[ 2 J _ @.+.*.:.Q - n n P 7.7.G m P =...$.3.! 9X,X1X1X1X1X<X5X5X8X6XtXr.+.m C X.=.+.,.>.D n ;.6.o.X.>.Q 8 2 N / *.w./ ",
"n N *.*._ >.( = S G ' ..H C J &.+.I ; m =.P < [ o.U <.*.C = < Q ) ( &.G ` =._ V = } ;.V n $.,.X.$.[ 4 # N ( / I A S +.&.` S 4 ` =.",
"N [ X.( ( J N / S N ' r.*.n C q.7.&.4 Z >.` q &._ _ *.V 4 ! D S 8.&.( ; { r.7._ 9 Q 1.R D <.$.J ' < Q | 8 V ;.>.I m >.r.>.R 2 ;.( ",
"$ J X.$./ < S q.;.D B &.&.J J <.' ' R R S 5 6 W @.( A % / g.-.n ` ' [ 4 { =.[ ) S 6 T 8 4 ' ' X.G < ;.f./ N X.;.) V =.&.[ ' 4 W D ",
"J 2 N ! D B $.*.3.X.D = - D X.>.B 7 0 8 9 Y Y 6 Q C V m +.q.X.` > 4 D G :.[ 4 > C N S V N N S $.= / &.&.&.G 2 N , K >.K < D 4 2 N ",
"r.Q = B B Q >./ H *.%.D N D R S 4 G | :.7.y.:.n 6 S C _ O.L ( =.` 8 > 8 D R N ' *.q.=.<.;.S 2 B n =.@.I ,.*.S 2 2 / ` < < [ 0.2.>.",
",.a.D 6 T Q ' X...,.*.W B E S 4 G y.g.O.o.#.6.6.9 S 2 P =.P [ =.&.G S ! 8 B W =X+.8.X.<.y.` S B G I ..U _ >.&.S W B > A 5.w.0.' O.",
"O.=.$.B 6 R [ _ 0.[ A ; I d.8.A - Q q.I o.O.*.3.Q n n Q ) :.>.&.V 4 &.g.=.n S } @...@.<.<.,.n V C V +.0.:.G C V w.w.' B N <.+.I @.",
"A *./ R -.S $ R / 8 / &.,.6.&.O.E # n +.8...@.<.D X.( = ; / / > / =.=.=.=.` N 7 H X.,.X.J *.J [ / > 4 / G m P 2.O.5.*.! - N J 6.@.",
">.A m +.y.:.B & 8 N &.>.+.*.&.>.E B ;.@.#.&.( = A <.a.X.4 & 6 ' 2.0.+.&.0.[ 8 D 3.@.X.*.C C A d.0./ $ $ q &.0.[ I 0.3.` N [ *.*.@.",
"S S _ 5.O.7.e.} 9 R 3.,.$.%.` D N n ..@.*...D Q 7.+.X.3.e.D 6 | 0.&.) ' [ V 2 S X.3.*.J n ..@.#.7.0.:.V 4 | 7._ +.*.G 1 4 [ >.X.&.",
"- 1.7._ U ) R ! T n Q C n 6 4 B Q D 2 2 ` J S e.=.O.G G ' R 6 T Z V V 4 & D [ V 6 R D H C 6.q./ R P / A 8 V A 4 N , = Q ` , n C / ",
"R } :.[ G A m < T D ( N < G R T ,.a.@.D V V & } _ [ G V q 4 S ' _ < A / 8 [ i.=.%.C & H D X.:.( 4 > < 4 A +.` 4 N C C 3.f.! ( N 4 ",
"V > ' -.4 A 0.5.J ' r.q.3.a.%.B X.X.<.3.Q S 3 | &.m 4 ( =.:.| / d.+.;.t.` S [ &.0.*.D J 2 Q $.4 V :.q.:.R { 0.>.r.q.J D ;.3.f.' 4 ",
"w.[ 8 * S >.r.6.3.C C X.,.$.S B n Q <.` = i.u.4 7 1 / r.g.q.&.m P &.0.-.B 2 V [ =.C N a.$.4 6 6 >.>.r.0.` m ` >.%.' = , ' Q ;.B ' ",
",.<.,.J J *.,.+.,...q ]  .8 8 G ) Z & 1 | 7.,.6._ G ' &...@.,.I V &.~ 4 4 / [ > = C *.8.,.,.X.2 ,.@.X.@.@.J R %.B T S K G 2 > ` 6.",
"I ;.2.! n V ( _ ..=.Z : 3 ~ 3.r.y.&.V S ] =.{ U >.C N Q X.@.@.I 3 V 8 ) 0.y.y.[ D J X.X._ &.&.Q n J X.=.@.Q n N 8 $.0.y.0.( S W *.",
"Q X.%./ B B ' 0.I <.Q 1 Z -.r.&.,.@.[ G V Z [ &.[ V = J $.;.*.*.q w F 0.q.&.&.*.Q D D Q [ *.' 4 N / &.*.&.' D B $.0.0.=.=.+.D 8 Q ",
"4 , > N B B V R X.' V 4 G ( X.&...X.<.&.q 3 q 3 2 V N B D S J ( 7 q Z ] $.( @.,.4.' S n 4 N B B 2 S D ! ' G 7 3 / _ ( _ &.5.&./ N ",
"R S S } -.` 7 $ 2 1 N G S > , [ 8._ / Q S D ! B A &.;.R 2 1 n G ^ F q 4 J <.,.X.Q D D T S n ! 3.[ S & : D D D [ ; 4 ) >.&./ G K T ",
"2.2.7.0.3.;.` S [ &.q.a.q.[ V / } V n V A / 1.r.@.q.3.X.D R $.=.0.0.>.V V X.Q 2 n V J $.4.3.*.<.y.` 2 S %.*.>.y.) V G ' Z 4 4 A S ",
"R ..X._ I ..( S 9.7.,.( X.| w 7 : w / >.>.G C %...I X.$.G G :.7.@.,.q./ 8 Z 8 w ,.3.Q B $.2.*.I @.! T %.a.a.+...y.G 2 0 S D =.0.D ",
"= ( *.+.#.<.X.n w K ,.@.&.-.Y x Y Y T &.*.C n X.,.I ,.3.J 4 G X.@.( +.K S F 5 x M <.*.n V &.*...3.@.V < Q X.@.O.+.C S T 8 S [ :.X.",
"6 Q ,.....X.C N 8 B ! ( ( C S 9.8./ 5 V >._ , %.@.@.....2 N 0 B / / [ n ' 0.>.A 5 / =.A S %.@.o.X.G N 8 0 F ( ( ' 4 &.0.>.2 4 { *."
};
