/* XPM */
static char *cf33258c85ce4cd7cddba3a1dcd4e709cOeYnAobZ4UCisnm[] = {
/* columns rows colors chars-per-pixel */
"65 65 160 2 ",
"   c #A53A3B",
".  c #A43B43",
"X  c #B74946",
"o  c #B84846",
"O  c #B64A4F",
"+  c #B44B55",
"@  c #BB4A53",
"#  c #B44F5B",
"$  c #C65B5D",
"%  c #CD595C",
"&  c #D15F5F",
"*  c #CD5860",
"=  c #D16163",
"-  c #DC7374",
";  c #E2716E",
":  c #E37171",
">  c #35188E",
",  c #351A96",
"<  c #3C229C",
"1  c #3B1FA9",
"2  c #331BB5",
"3  c #351CBC",
"4  c #391CBB",
"5  c #3A20A1",
"6  c #3221AD",
"7  c #3922AD",
"8  c #3221BC",
"9  c #463293",
"0  c #4B3499",
"q  c #51339C",
"w  c #5037A2",
"e  c #553AA5",
"r  c #4426B2",
"t  c #4426BC",
"y  c #4928BF",
"u  c #6F59A4",
"i  c #6F56B3",
"p  c #7157B4",
"a  c #735AB6",
"s  c #351EC3",
"d  c #391DC3",
"f  c #361ECC",
"g  c #371FD0",
"h  c #3A1FD1",
"j  c #3F1FDC",
"k  c #3420C3",
"l  c #3E29C0",
"z  c #3621CD",
"x  c #3921CF",
"c  c #3621D5",
"v  c #3A22D4",
"b  c #3C22DB",
"n  c #3C28D8",
"m  c #3C24E4",
"M  c #3C28E6",
"N  c #3D26EB",
"B  c #3F26F4",
"V  c #3F29F3",
"C  c #402AC1",
"Z  c #4021D7",
"A  c #4122DC",
"S  c #4123E3",
"D  c #4028E6",
"F  c #4324EB",
"G  c #4228EB",
"H  c #4425F3",
"J  c #4825F6",
"K  c #4428F4",
"L  c #4327FB",
"P  c #4528FC",
"I  c #4B2AFD",
"U  c #C7778C",
"Y  c #CF7D8D",
"T  c #D07E8E",
"R  c #7FAAF3",
"E  c #7EA7FC",
"W  c #7DAAFF",
"Q  c #AF87AE",
"!  c #B586AC",
"~  c #BF9EB6",
"^  c #CA8896",
"/  c #D98795",
"(  c #DB8A97",
")  c #8C9FD1",
"_  c #A19EDF",
"`  c #B49CDE",
"'  c #8EA0CF",
"]  c #8DA1DC",
"[  c #93A2D3",
"{  c #92A1DA",
"}  c #B29AE2",
"|  c #86A7ED",
" . c #88A6ED",
".. c #85A8EF",
"X. c #96A1E5",
"o. c #84A6F4",
"O. c #88A7F7",
"+. c #85A8F4",
"@. c #8AAAF3",
"#. c #81A7FE",
"$. c #81A8FC",
"%. c #A7B7E5",
"&. c #A6B9E5",
"*. c #DFB2CE",
"=. c #C6BDDD",
"-. c #C9BDDD",
";. c #DCB3D3",
":. c #DEB4DA",
">. c #E1B2CE",
",. c #E0B4D6",
"<. c #C8B4E7",
"1. c #CBBEE3",
"2. c #CDBEEA",
"3. c #CFBFF0",
"4. c #CFBEF8",
"5. c #D2BFF6",
"6. c #D4BFFD",
"7. c #ACC3EB",
"8. c #AEC1F0",
"9. c #B7C3F3",
"0. c #BDC8F6",
"q. c #DFC3DC",
"w. c #E2C3DB",
"e. c #CCC0EA",
"r. c #D0C0EF",
"t. c #C4C1F5",
"y. c #CDC0F5",
"u. c #C2CAF6",
"i. c #C6C2FC",
"p. c #CDC2FA",
"a. c #D2C0F5",
"s. c #DDC3F1",
"d. c #D4C1FD",
"f. c #DBC2FE",
"g. c #D3CAFD",
"h. c #DED2F5",
"j. c #D6D5FC",
"k. c #DDD3FB",
"l. c #DFDDFE",
"z. c #F4CDEB",
"x. c #E1C3FE",
"c. c #E1D1F4",
"v. c #E4D4FE",
"b. c #ECD5FE",
"n. c #E4D8FF",
"m. c #F1D6FF",
"M. c #F3D8FF",
"N. c #EEECFD",
"B. c #FBE6FE",
"V. c #F6EAFA",
"C. c #F5E8FF",
"Z. c #F6E8FE",
"A. c #F6EFFF",
"S. c #FDEEFA",
"D. c #F9EAFD",
"F. c #F8E9FE",
"G. c #FEEBFF",
"H. c #FFEDFC",
"J. c #FFECFE",
"K. c #FFF0FA",
/* pixels */
"W W W W W W W W W W W W W W W W W W W W W W W W W W W W W W W W W W W W W W W W W W W W W W W W W W W W W W W W W W W W W W W W W ",
"W W W W W W W W W W W W W W W W W W W W W W W W W W W W W W W W W W W W W W W W W W W W W W W W W W W W W W W W W W W W W W W W W ",
"W W W W W W W W W W W W W W W W W W W W W W W W W W W W W W W W W W W W W W W W W W W W W W W W W W W W W W W W W W W W W W W W W ",
"W W W W W W W W W W W W W W W W W W W W W W W W W W W W W W W W W W W W W W W W W W W W W W W W W W W W W W W W W W W W W W W W W ",
"W W W W W W W W W W W W W W W W W W W W W W W W W W W W W W W W W W W W W W W W W W W W W W W W W W W W W W W W W W W W W W W W W ",
"W W W W W W W W W W W W W W W W W W W W W W W W W W W W W W W W W W W W W W W W W W W W W W W W W W W W W W W W W W W W W W W W W ",
"W W W W W W W W W W W W W W W W W W W W W W W W W W W W W W W W W W W W W W W W W W W W W W W W W W W W W W W W W W W W W W W W W ",
"W W W W W W W W W W W W W W W W W W W W W W W W W W W W W W W W W W W W W W W W W W W W W W W W W W W W W W W W W W W W W W W W W ",
"W W W W W W W W W W W W W W W W W W W W W W W W W W W W W W W E W W W W W W W W W W W W W W W W W W W W W W W W W W W W W W W W W ",
"W W W W W W W W W W W W W W W W W W W W W W W W W W W E W W W R W W R W $.$.$.W W W W W W W W W W W W W W W W W W W W W W W W W W ",
"W W W W W W W W W W W W W W W W W W W W W W W W W W E Q - - - $ $ $ # # # { W W W W W W W W W W W W W W W W W W W W W W W W W W W ",
"W W W W W W W W W W W W W W W W W W W W W W W W W W R ! - - ; % % % + + @ _ W W W W W W W W W W W W W W W W W W W W W W W W W W W ",
"W W W W W W W W W W W W W W W W W W W W W W W W E W W Q ; : : % * % @ $ . _ W W W W W W W W W W W W W W W W W W W W W W W W W W W ",
"W W W W W W W W W W W W W W W W W W W W W W W W 7.8.8.~ ( / ( ^ T Y U U U -.9.%.7.$.W W W W W W W W W W W W W W W W W W W W W W W ",
"W W W W W W W W W W W W W W W W W W W W W W W W V.Z.Z.w.*.;.;.;.;.:.:.:.:.B.D.B.N.W W W W W W W W W W W W W W W W W W W W W W W W ",
"W W W W W W W W W W W W W W W W W W W W W W W W V.Z.Z.q.,.;.;.;.,.,.,.,.,.B.Z.D.V.W W W W W W W W W W W W W W W W W W W W W W W W ",
"W W W W W W W W W W W W W W W W W W W W W W W W V.D.Z.w.>.>.,.>.>.>.*.*.*.B.D.Z.N.#.W W W W W W W W W W W W W W W W W W W W W W W ",
"W W W W W W W W W W W W W W W W W W W W W W W W D.D.D.^ = = * @ O O . . . z.h.k.j.W W W W W W W W W W W W W W W W W W W W W W W W ",
"W W W W W W W W W W W W W W W W W W W W W W W W V.D.Z.^ = = & o o o       z.c.h.j.W W W W W W W W W W W W W W W W W W W W W W W W ",
"W W W W W W W W W W W W W W W W W W W W W W W W V.D.V.^ = = & o X o       z.h.h.j.$.W W W W W W W W W W W W W W W W W W W W W W W ",
"W W W W W W W W W W W W W W W W W W W W W W W W E E W 0.k.h.k.#.E #.=.-.-...E $.W W W W W W W W W W W W W W W W W W W W W W W W W ",
"W W W W W W W W W W W W W W W W W W W W W W W W W W W 0.v.k.j.W W E =.=.-...#.W W W W W W W W W W W W W W W W W W W W W W W W W W ",
"W W W W W W W W W W W W W W W W W W W W W W W W W W W 0.v.v.k.W W E =.=.1. .$.W W W W W W W W W W W W W W W W W W W W W W W W W W ",
"W W W W W W W W W W W W W W W W W W W W W W W W W W W 0.v.v.k.W W E e.1.1...E W W W W W W W W W W W W W W W W W W W W W W W W W W ",
"W W W W W W W W W W W W W W W W W W W W W W W W W W W u.v.v.k.W W E 2.2.2. .W W W W W W W W W W W W W W W W W W W W W W W W W W W ",
"W W W W W W W W W W W W W W W W W W W W W W W W W W W 0.v.v.n.W W E y.2.2. .E W W W W W W W W W W W W W W W W W W W W W W W W W W ",
"W W W W W W W W W W W W W W W W W W W W W W W W o...| u.n.v.l.W W R i.i.4. .o.R +.W W W W W W W W W W W W W W W W W W W W W W W W ",
"W W W W W W W W W W W W W W W W W W W W W W W W S.J.J.&.W W W W W W W W W 4.1.1.t.W W W W W W W W W W W W W W W W W W W W W W W W ",
"W W W W W W W W W W W W W W W W W W W W W W W W S.J.J.%.W W W W W W W W W 4.2.3.t.$.W W W W W W W W W W W W W W W W W W W W W W W ",
"W W W W W W W W W W W W W W W W W W W W W W W W S.S.J.&.W W W W W W W W W 0.i.4.i.$.W W W W W W W W W W W W W W W W W W W W W W W ",
"W W W W W W W W W W W W W W W W W W W W R J.J.J.G V V <.J.J.D.h v c s s 8 n b m l a.a.a.W W W W W W W W W W W W W W W W W W W W W ",
"W W W W W W W W W W W W W W W W W W W W W K.J.J.G H B <.J.J.J.N m m h s z M M m l a.a.e.W W W W W W W W W W W W W W W W W W W W W ",
"W W W W W W W W W W W W W W W W W W W W R H.H.H.H L L <.S.J.B.H N S h h f N N m C a.6.a.W W W W W W W W W W W W W W W W W W W W W ",
"W W W W W W W W W W W W W W W W E ) A.Z.Z.r t t J.D.D.u C y y F N S S j h F N N n 7 7 1 p.p.p.+.W W W W W W W W W W W W W W W W W ",
"W W W W W W W W W W W W W W W W W ' H.H.H.j j S J.S.S.p S S S S S S S S b G V V N h z f f.d.d.o.W W W W W W W W W W W W W W W W W ",
"W W W W W W W W W W W W W W W W E ' H.H.H.m S S D.J.J.p S S F S S S S S m K L L B j b c f.d.f.+.W W W W W W W W W W W W W W W W W ",
"W W W W W W W W W W W W W W W W W [ D.H.J.b S S S.J.S.p S S S A S S F F F I I P H A b b f.d.d.E W W W W W W W W W W W W W W W W W ",
"W W W W W W W W W W W W W W W W W [ m.b.m.Z b S J.S.B.i F S F Z Z Z J H J I I I I b j g f.d.p.R W W W W W W W W W W W W W W W W W ",
"W W W W W W W W W W W W W W W W W { b.m.m.v b m H.H.H.a F H F S S S H H F I I P H v g z 6.6.y.o.W W W W W W W W W W W W W W W W W ",
"W W W W W W W W W W W W W W W W W { m.m.m.Z S F H.S.H.a J J J A A Z F F F J I L G g f s 6.a.y.o.W W W W W W W W W W W W W W W W W ",
"W W W W W W W W W W W W W W W W W { M.M.m.A D F I I I H H G F d d d A S b f.f.f.d.2 2 2 d.d.p.o.W W W W W W W W W W W W W W W W W ",
"W W W W W W W W W W W W W W W W W { M.M.M.S F F P L I H S S A 2 4 4 v j b d.f.f.f.3 2 2 d.d.p.o.W W W W W W W W W W W W W W W W W ",
"W W W W W W W W W W W W W W W W E { m.m.m.v j b B B B m Z j x 2 2 2 h v b 6.f.f.f.4 3 2 d.f.d.+.W W W W W W W W W W W W W W W W W ",
"W W W W W W W W W W W W W W W W W ) m.b.b.h c g N N N m v v x 3 2 2 v v v 6.f.f.f.3 s 3 f.f.f.O.W W W W W W W W W W W W W W W W W ",
"W W W W W W W W W W W W W W W W W X.b.b.b.s k k m M M c x v c 3 4 3 v v v d.f.f.f.3 d d f.f.6.O.W W W W W W W W W W W W W W W W W ",
"W W W W W W W W W W W W W W W W E ) v.v.v.s k k m N M c z z x 3 3 3 v c v d.f.f.6.d d 8 x.f.f.+.W W W W W W W W W W W W W W W W W ",
"W W W W W W W W W W W W W W W W E ] v.v.v.9 9 0 z n b c c v c f g f w e e ` } } ` q q q x.x.f.O.W W W W W W W W W W W W W W W W W ",
"W W W W W W W W W W W W W W W W W X.v.v.v.y.a.a.8 s s n m G N F B B f.f.x., 2 d 5 f.x.f.f.f.f.+.W W W W W W W W W W W W W W W W W ",
"W W W W W W W W W W W W W W W W W ] n.v.v.a.y.a.8 s k n M N N N G H f.f.x., 4 4 5 f.f.f.f.f.g.+.W W W W W W W W W W W W W W W W W ",
"W W W W W W W W W W W W W W W W W ] v.n.v.y.a.a.6 k k c m M M M G F 6.f.6.> d 4 < s.s.f.f.f.f.@.W W W W W W W W W W W W W W W W W ",
"W W W W W W W W W W W W W W W W R W W W W W E W 4.d.d.a.d.d.f.d.f.a.6.x.x.f.f.f.j.W W W W W W W W W W W W W W W W W W W W W W W W ",
"W W W W W W W W W W W W W W W W W W W W W W W W p.a.a.d.6.d.d.d.f.f.x.6.x.f.x.x.g.W W W W W W W W W W W W W W W W W W W W W W W W ",
"W W W W W W W W W W W W W W W W W W W W W W W W 4.5.5.5.6.6.d.d.d.f.f.f.f.x.x.x.g.W W W W W W W W W W W W W W W W W W W W W W W W ",
"W W W W W W W W W W W W W W W W W W W W W W W W W W W W W $.$.W W $.E W W E $.$.W W W W W W W W W W W W W W W W W W W W W W W W W ",
"W W W W W W W W W W W W W W W W W W W W W W W W W W W W W W W W W W W W W W W W W W W W W W W W W W W W W W W W W W W W W W W W W ",
"W W W W W W W W W W W W W W W W W W W W W W W W W W W W W W W W W W W W W W W W W W W W W W W W W W W W W W W W W W W W W W W W W ",
"W W W W W W W W W W W W W W W W W W W W W W W W W W W W W W W W W W W W W W W W W W W W W W W W W W W W W W W W W W W W W W W W W ",
"W W W W W W W W W W W W W W W W W W W W W W W W W W W W W W W W W W W W W W W W W W W W W W W W W W W W W W W W W W W W W W W W W ",
"W W W W W W W W W W W W W W W W W W W W W W W W W W W W W W W W W W W W W W W W W W W W W W W W W W W W W W W W W W W W W W W W W ",
"W W W W W W W W W W W W W W W W W W W W W W W W W W W W W W W W W W W W W W W W W W W W W W W W W W W W W W W W W W W W W W W W W ",
"W W W W W W W W W W W W W W W W W W W W W W W W W W W W W W W W W W W W W W W W W W W W W W W W W W W W W W W W W W W W W W W W W ",
"W W W W W W W W W W W W W W W W W W W W W W W W W W W W W W W W W W W W W W W W W W W W W W W W W W W W W W W W W W W W W W W W W ",
"W W W W W W W W W W W W W W W W W W W W W W W W W W W W W W W W W W W W W W W W W W W W W W W W W W W W W W W W W W W W W W W W W ",
"W W W W W W W W W W W W W W W W W W W W W W W W W W W W W W W W W W W W W W W W W W W W W W W W W W W W W W W W W W W W W W W W W ",
"W W W W W W R W W W W W R W W W W W W R W W W W W R W W W W W R W W W W W W W W W R W W W W W W R W W W W W R W W W W W R W W W W "
};
