/* XPM */
static char *_1543_5cc370fa206e628f2901187e3e6cc01de969d054ad9025bd85a06d983f8ed594[] = {
/* columns rows colors chars-per-pixel */
"65 65 241 2 ",
"   c #0D0602",
".  c #150505",
"X  c #150C05",
"o  c #1B0C04",
"O  c #150B09",
"+  c #190C0A",
"@  c #161005",
"#  c #181209",
"$  c #1B140A",
"%  c #1E1A0D",
"&  c #1B1B11",
"*  c #281506",
"=  c #22140B",
"-  c #2B1509",
";  c #221B0E",
":  c #2B1C0D",
">  c #241C12",
",  c #2A1B14",
"<  c #281917",
"1  c #361E14",
"2  c #1E2215",
"3  c #242214",
"4  c #2A2315",
"5  c #2A2A17",
"6  c #26251A",
"7  c #2B241B",
"8  c #262A1B",
"9  c #2B2C1D",
"0  c #332414",
"q  c #3A2716",
"w  c #33251A",
"e  c #3B2519",
"r  c #332C1D",
"t  c #3A2B1D",
"y  c #2B311E",
"u  c #34311D",
"i  c #2B2220",
"p  c #2D2E21",
"a  c #322E22",
"s  c #3B2C22",
"d  c #2E3121",
"f  c #343223",
"g  c #3B3324",
"h  c #3B3728",
"j  c #3B3A2B",
"k  c #3D3D32",
"l  c #411F10",
"z  c #42240A",
"x  c #442817",
"c  c #442C1C",
"v  c #4B2C1C",
"b  c #512D17",
"n  c #4A3218",
"m  c #4D341D",
"M  c #53331B",
"N  c #573619",
"B  c #643B1D",
"V  c #6D3C1C",
"C  c #703F1C",
"Z  c #432C23",
"A  c #492C27",
"S  c #433524",
"D  c #4C3423",
"F  c #493A26",
"G  c #43342A",
"H  c #4C362B",
"J  c #453A2C",
"K  c #4A3A2C",
"L  c #523B25",
"P  c #5D3E25",
"I  c #553928",
"U  c #543B2C",
"Y  c #473D33",
"T  c #563934",
"R  c #6D3B23",
"E  c #643D28",
"W  c #723F25",
"Q  c #713E2B",
"!  c #643E33",
"~  c #3E412F",
"^  c #3E4135",
"/  c #73431E",
"(  c #47422D",
")  c #594027",
"_  c #5C422C",
"`  c #434333",
"'  c #4A4334",
"]  c #4A4936",
"[  c #45443A",
"{  c #4C463A",
"}  c #4C4B3C",
"|  c #544333",
" . c #5A4534",
".. c #52453E",
"X. c #534C3D",
"o. c #5D4C3B",
"O. c #57513F",
"+. c #674729",
"@. c #64442B",
"#. c #6B442B",
"$. c #744325",
"%. c #794626",
"&. c #744A23",
"*. c #7A4A26",
"=. c #74442B",
"-. c #79462C",
";. c #764A2D",
":. c #7C4A2C",
">. c #78512E",
",. c #684736",
"<. c #654A33",
"1. c #614C3B",
"2. c #794633",
"3. c #734D32",
"4. c #7D4B33",
"5. c #7A4939",
"6. c #6E543D",
"7. c #765236",
"8. c #7C5135",
"9. c #74533A",
"0. c #7C543B",
"q. c #7D593B",
"w. c #4C4C42",
"e. c #554E43",
"r. c #4E5041",
"t. c #535243",
"y. c #5A5543",
"u. c #5C5A45",
"i. c #57554A",
"p. c #5C5A49",
"a. c #61594B",
"s. c #625B4C",
"d. c #765641",
"f. c #7D5B42",
"g. c #665E53",
"h. c #675C56",
"j. c #68654C",
"k. c #656353",
"l. c #6A6553",
"z. c #6D6959",
"x. c #756A56",
"c. c #79775B",
"v. c #756E61",
"b. c #7A7763",
"n. c #814D2D",
"m. c #83522D",
"M. c #89582F",
"N. c #814E34",
"B. c #814E39",
"V. c #845334",
"C. c #885636",
"Z. c #845836",
"A. c #8A5A35",
"S. c #85533A",
"D. c #89563B",
"F. c #845A3C",
"G. c #8C5B3C",
"H. c #915C34",
"J. c #915D3E",
"K. c #8B613B",
"L. c #936236",
"P. c #95663B",
"I. c #94633D",
"U. c #99663D",
"Y. c #9B6A3D",
"T. c #875544",
"R. c #895642",
"E. c #835C42",
"W. c #8D5B42",
"Q. c #8A5649",
"!. c #915E43",
"~. c #925F4A",
"^. c #8C6344",
"/. c #886547",
"(. c #946343",
"). c #9A6644",
"_. c #956A44",
"`. c #9B6A45",
"'. c #95644A",
"]. c #99664B",
"[. c #946B4B",
"{. c #9C6B4B",
"}. c #9B714B",
"|. c #9D6C52",
" X c #9A6954",
".X c #847D5F",
"XX c #9C7353",
"oX c #9B7556",
"OX c #A26D46",
"+X c #A26E4C",
"@X c #A27246",
"#X c #AB7447",
"$X c #A3724C",
"%X c #AA744D",
"&X c #A7784C",
"*X c #AA7A4D",
"=X c #B07348",
"-X c #A16E53",
";X c #A36E59",
":X c #A47353",
">X c #A97553",
",X c #AB7A54",
"<X c #A57459",
"1X c #A9765A",
"2X c #A47A58",
"3X c #AD7C5B",
"4X c #B27D54",
"5X c #B17E5C",
"6X c #817D62",
"7X c #837C6B",
"8X c #827B70",
"9X c #AC7B62",
"0X c #B27E63",
"qX c #B27F6A",
"wX c #AC8158",
"eX c #B6875A",
"rX c #B2825C",
"tX c #B8835D",
"yX c #858064",
"uX c #86826B",
"iX c #8D8C79",
"pX c #AA8265",
"aX c #B48363",
"sX c #B98565",
"dX c #BB8A63",
"fX c #B58369",
"gX c #B8876A",
"hX c #BC8B6B",
"jX c #BF926F",
"kX c #B78571",
"lX c #BC8A72",
"zX c #C08E6D",
"xX c #C49469",
"cX c #C39271",
"vX c #CA9978",
"bX c #9A9782",
"nX c #A29D87",
"mX c #AEAB95",
"MX c #B1AB9A",
"NX c #B6B7A2",
"BX c #CAC6B0",
/* pixels */
"5.'.>XG.L.I.V.|.2X4.'.lX;Xn.J.4X{.,XW.S. X~.2.|.%Xm.+XN.:.9X^.4.3XgX{.R >XrX&X,XQ |.-X-.(.>XA.`.$X:.(.1X4.'.sX:X!.V.aX,X3X!.5. X!.",
"2.4.].$XA.*.G.hX3XG.S.~.!.~.%X=X).G.4.4.B.2.2.W.-X{.C.n.:XlX1X0.4.(.{.V.>XXXA.I.S.$.:.N.$.G.3XG./ V.,XhX:XA.G._.'.4.3X(.J.A.B.Q.S.",
"].:.:.'.S.:.{.&X5XOXG.n.W -.'.5X&.:.A.G.S.K.!.-.4.'.%.G.5X+X:X+X:.=.S.G.1X).%.&.G.G.G.+XZ.$.(.G.=.<X3X:X,XG.R B.F.S.9XJ.%.V.G.S.G.",
"eX$X=.2.5.'.rXL.H.>X>XJ.N.4.4.N.:.:XhXeX1XxXgXG.#.q.$.|.1Xn.OX5X1X4.=.:.4.N.W.1X&XtX5XsX3XV.2.B.5.9X`.m.,XrXG.T.=.N.!.N.G.aXrXrX0X",
"*XhX'.2.B.W.:X&X#X5XOXn.J.3X|.=.Z.3XrX$X*XrXpX,X(.3.:.{.:X:X4X>X!.N.].<XS.4.W.hXzXOX#X1X1X1XR.-.R.-X{.`.wX5X!.B.{.:X4.$.:XhX>XwX%X",
"&XaX].D.W.N.Z.].sXU.n.m.OXrXaX2X2.V.G.U.&X`.].sX'.:.W.C.V.:X-XZ.N.Z.5XvX3X'.-.F.U.OX#X).5X5XS.!.G.Z.{.3X`.m.Z.G.sXcX].V.A.(.Z.&X%X",
":XG.K.`.:X'.-.2.B.%.I.dXtX$X$X>XT.2.G.rXrX$X|.-XC.).>XC.$.8.V.V.3X$X}.,X$X-X:.N.H.4X4XOX%X!.N.,XJ./ n.W.B.S.:XeX`.wX:X'.$.D.+XsX%X",
"].$.I.wXeXaX!.2.=.!.rX*XH.#XzX).~.S.`.wX`.$X{.R `.sXsX-X^.-.=.[.*X&X{.:X:X1XV.S.sX+X+X=Xn.%.sXaXxX`.4.Q T.;X3XY.&X&X}.:X-.{.aX'.#X",
"V.'.rXrX`.>XsX].4.G.3X{.I.|.R.2.:.:.].~.9X'.D.`.dX`.$X>X5XJ.J.G.,X`.{.<XS.Q S.$.{.{.aXS.W.<X3X{.%X>X1XW.N.-X5XI.{.(.=.=.5.S.{.-X>X",
":.$X:X$X$XI.:.Z.S.-.W.A.%.-.=.S.:XG.S.S.B.4.V.3X`.>X+XC.S.N.:.N.C.%.R =.=.!.9X'.*.$.:.S.W.1X>X$XI.C.C.S.N.S.C.W V :.R.|.|.S.V.n.S.",
"4.Z.}.:XV.*.G.'.G.W.{.(.A.].'.Q.sX>X|.<X4.4.-.`.,X{.%.n.J.G.C.-X>X(.G.|.'.'.1X<X:X'.:.D.N.:XXX(.C n.J.S.S.;X<XJ.{.'.V.:XkXqX:X:.2.",
"].n.G.G.&.I.gXfX{.{.:X3XaXgX-X4.G.XXlXaXF.].J.V.J.%.%.aXzXsX(.(.rX9XaXfX].4.{.,XgX,XV.(.V.N.Z.%.I.5XzX>X!.;X0X5X0XrX(.S.(.2XsX:XN.",
"sX3XZ.$.'.aXrXrXrXA.V.3XaX^.:.:.*.*.].S.^.3XsX`.n.N.).zX>XaX:Xn.G.9X:XZ.C :.(.8.!.Z.I.aXaXV.G.:.sX5XaXsX:XV.G.qX:XJ.V $.A.(.(.-.3X",
",XaX:XJ.G.{.:X`.wX(.n.G.S.4.(.{.rXC.V.%.{.3XfX:XaXG.C.{.G.+X3X).S.^.V.V.(.$X$X:.R D.3X3XgX,X1XV.'.).).>X:X!.S.].:.J.}.rX`.$.:.G.4X",
"I.'.sX1X$.:.&X`.$X,XI.:.-.].cXrXcX,X'.A.].:X`.`.5XV.%.T.,.b b x c c x v vXhXeX3XN.!.-XA.G.3X:X:.N.+X:X).+X+XS.=.{.:X,XhXeX{.(.G.+X",
"L.`.(.F.N.N.I.rX`.&XG.Z.S.:XsX`.`.wX{.S.:.(.A.{.@.T c L E 3X:X|.G.{.N.4.M c Z T T T :.`.I.{.4.'.=.).$X$X>X].B.S.'.aX,X$X}.:X{.:.C.",
"#.#.:.Z.G.4.=.0.N.{.4.-.D.V.'.:X).5X5X{.W.4.T x N P v 9.,XP.`.).).U.I._.q.@.@./.3.1 W.R 2.N.-.C.-.S.4.2.9X4.V V.4.].`.*X*XI.aX~.N.",
"|.].).+XaX:XF.=.;.(.'.].(.%.:.:XaX(.N.:.V.W.E rX2XXX3.N &X_._.^./.F./.K.7.z ^.:X&X2Xb L T W.{.zXaXG.-.=.4.G.:X:XS.$._.>X}.'.4.W.W.",
":X3X3X%X4X>X(.8.:X,XaXsXgX{.:.G.).-.T T e Z.,X*X*X:X9.b [.N m x Z q c x _ z XX*X=X#X[._ l A T >X3X).!.<X3XhXhXwXrXC.V.'.8.W.:.`.N.",
"V.}.>X).OX+X(.Z.2X$X3X{.,XrXV.&.;.#.H ,.+.#X4X>X{./.L : q o $ a.r % @ o 1 - 0.].%X$XoX#.2.,.I G.{.{.:.D.:XeXU.$X*X'.$.5.2.G.,XdX!.",
"%.J.+X#X4X5X!.%.*.A.:X`.I.).V.(.[.T.d.:X$XN XX2X@.q = + + + + h.r $ O X + o * L 3.q.#.4.}._.#.! wX3XN.:.G.:XI.*XI.G.W.'.~.S.{.@X%X",
":.(.:X>X>X).G.S.S.Z.+X3X{.A.J.aXH 5.>X%X%X/.n n : $ > 7 7 i i i.y 8 & i i 7 7 7 , q P 2X_.}.^.#.`.:.V.'.*.G.&X(.`.%.gX9X9XW.$.I.+X",
"3.W.}.+XA.-.V.9X1XG.S.:X-XZ.(.Z f.5X=X%X*X<.0 u p p ~ ` ` [ [ a d d p ` [ [ ~ ` f y n oX_._.`.I.E E d.1XW.D.3X3X^.$.rX>X{.{.:.<X!.",
"3.8.W.{.'.V.E.fX0X].:.!.!.V.H A |.:X,X:X7.u 5 5 8 p 6 6 9 y p p y d 7 6 6 8 8 p y f w F /.I.`.(.7.D T fX9X:.:.I.W.].&X@X*.C.-.=.n.",
"sX:.$.F.4.G.1X$X{.,X'.-.-.B.A +.M K._.+.q l.` % # $ + + $ & % } p 3 @ @ @ # O & 2 2 ] j.q ,.[.E.1 @.v ,.,X:XN.4.2.W. X~.Q Z.:X`.-X",
"3X:XG.=.V.|.}.G.(.$X:X'.J.:./.XX7.q m * k 9 b.t.f @ X + . O X k.d $ X o X X O O j v.l.u $ - D L (.wX/.v $X3X'.D.D.-.V 8.1XkXaX3X>X",
"$XxX-X$.N.'.!.-X1X3X].%.V.,.{.I.^.D =   [ 5 ^ k.t.= X X O O + h.p % X X + O X % g.z.^ 6 % o * f.,X&X_.P wX$XG.*.&XhX{.%.(.gX3X).>X",
"`.rX].C.W.B.4.'.3XV.N.6.U T.+X{.E.c =   [ d 8 h p.y.r o O O & h.f % X O O + a e.i.j f p $ X o P $X%X1X3.H C.I.{.&XdXwXA.:.:.J.3X+X",
"`.A.A.}.aX|.5.Q -.:.{.9.D  X`.-X,.- o   [ a > X u iXe.> X O + h.d a X X X > v.v.d X w.p $ o X - Z.4XXXf.H (.5X,X@X&X:X).4.G.<XaX%X",
"I.C.I.2X1XaX1XS.V ].9X,.M +.>.+.x o +   [ p 8 X ; { k.f $ # $ t.9 9 @ o $ g z.X.% O w.5 $ X O + q +.B P v <XsX(.,X:X{.S.%.{.sX`.%X",
"V.'.1X>X_.{.1X-XG.G.(.c XXxXq.c * X O   ^ 5 y # o + 6 5 t.e.} [ ] ] O.y.y.8 4 # X O } 5 $ X O + % n K.dXW.Z -XG.(.%.$.F.R.V.D.`.+X",
"4.].,X>X`.C.:.-.C.G.V.x !.OX}.m $ . . . [ y 9 X + + O a nXBXBXNXNXNXbXyXuXf X . . O w.8 % O . . o K.eX,XZ.Z 4.-.R F.T.|.fX{.%.&.N.",
"V.A.:X~.B.4.:X$XW.(.sX@.&X#X[.x 3 p ^ ` [ p d 3 & & y f MXBXnXc.] c..X.XyXu ^ k ` ^ ~ 9 8 h ^ ` 4  .:X#XL.H sX`.rX`.I.).$XsXtX`.5.",
"OXZ.-.-.V.9XxXrX2XV.I.f.wXwX3.0 f f ^ ~ d d d a f p h u MXBX6Xu 2 u .XyXc.y k k k k d y y h ~ k a 0 ^.*XOXH `.rXsX{.N.n.!.5X:XV.G.",
"sXrX).(.V.>X3X:XgX'.Z.@.oXK._ 4 6 3 3 8 d d p 3 3 5 3 f MXBX6X( 6 J 6XyXz.5 5 f a a 8 p 5 6 3 8 4 4 +./.F.S ].0XS.R.B.B.S.S.B.R.4X",
"_.rXwX}.:.G.`.$X{.$XA.c @.N c > O X @ O ^ d 3 > > % % u mXnX6Xc.6 b.yXc.j.p > > 4 3 [ p & @ O O X ; U N P t V.4.4.].9X0X1XS.-. X*X",
"(.{.:XZ.m.C.+X3X].3XG.9.aX}.f.* X X $ = w.a > > , > > 9 b.6XyX.X} yXc.j.p.p > < , > w.8 > , $ . o : oXdXeXo.4.B.-XaXdXeXsX`.V.C.+X",
"S.A.I.:.C.:.A.'.}.:XS.f.$XU.f.: o $ , = { d 3 > > < ; 9 l.b.6X6X6Xj.j.u.^ 3 < < < ; X.8 % , > = o * }.L.U.1.-.W.).&XOXL.#X4X+XV.N.",
"R 2.:.A.].Z.=.2.V.V.F.9.}.`.8.* + < < = ..d 3 > < , e.p.h ( z.j.u.u.u.( t.p.r < , > } 9 ; , , < o * [.L.`.<.:.:.B.G.).`.OX+X>X XS.",
"kX9X'.fXcXkXB.4.D.!.0X,.}.].8.* = < , ; { p 9 < > Y 8Xz.r r t h u y s r y.s.X.w r > r.5 % , < < = - [.I.U.U jX3XT.Q !.0X+XB.2.2.G.",
" X>X1XL.@X,XC.!.tX5X4X,. XK.9.: , < > > w.p p 7 a g.j.s r s g z.d 4 r s r p.l.c 5 a w.5 3 w > < > : f._.!.K *X*X0X].4.4.N.:.`.*XN.",
"-.N.5XrX$X3X{.-.J.`.%Xv B N b 4 , , 1 s e.p a s.b.} w t s s a h.d u t s s a h iXu.a w.p s s w , , : ) P N Z @XOX3X!.4.-.4.'.1XdX(.",
"n.N.>X>X{.,X).W V.G.).6.oXf.6.4 , 1 s w [ f h bXO.: u s w s s h.y r t s a a 4 y.z.[ ^ p a s Z w : : pX/.7.T ).).G.V.$X:X'.S.%.'.,X",
"N.{.+X).).J.N.(.F.V.'.6.q.>.<.0 r a { i.h j p.{ h r.t.t.t.t.i.Y y 9 r f t.t.t.g ` k.[ p p p w.t.] 0 [.&.8.U <X3XP.m.5XgX<X'.=.,X).",
"V !.+X+X).-.V.aX1XF.S.,.f.3.P 0 a f a 3 i.bXr.8 u d 5 9 a 9 p p y y f 9 p p 8 u 9 f iXt.y 9 d 8 r q +.;.9.H |.1X_.C.,X:X{.{.2.~.D.",
"J.-.N.~.D.N.;X>X5X-XS.I 0.7._ 4 3 ; % f z.p.y 2 , > 3 3 7 f f p d 5 > 4 3 > 9 r u 5 e.c.` ; ; 3 > : +.7.3.Z -.N.%.K.3XG.%.A.:.-.N.",
"hX!.Q N.B.!.3X(.H.%X>XA P M c 0 f 9 } k.] 5 3 J Y Y J K K J K J d % J J J K K K J J 7 f z.X.u d s 0 L M M s V.-.-.~.'.*.&.`.aX9X3X",
"4XgXD.2.W.!.].+X+X4X>XU d.@.D w r y.b.p.~ u 4 K H H H H H H L g.d ; J H H H H H H J { 8 X.x.y.4 f 0 1.@.I s :XB.~.S.$.A.rXdXsX].$X",
"%X,X:XB.5.W.{.).aX+XA.1.,.P D 7 g g.k.u [ u 4 K H H F H H H J g.p ; J K K F D H H J e.p 5 a.z.J r 0 L P T G S.S.dXdX{.B.N.3X%XI.%X",
"H.:X(.W.<XS.B !.!.:.I.K @._ q e.b.' t J h 9 a J K F K K F H ( s.d 8 J K K L K H K h j d y g g 7Xs.0 L ) T G (.rX$X4X:X~.Q N.I.5X%X",
">XG.m.$XhX,XB.R 4.B.:X_ <._ q G g.w K J f f f ] | U  .1.1.o.o.g 9 f o.o.<.o.o.| K ' f p f F s X.l.X.L L L 1 aX{.P.aX0X'.B.{.>X%X*X",
"T.Z.}.,X*X5XfX X2.!.0XA _  .q s h S F T h r r o.1.1.1.1.1.o.o.u u t o.1.o.1.1.1.o.1.u u h | F g ' J L ) D , aX`.$X,XD.-.2.{.3XOX:X",
"Q 1XsX`.Y.`.G.'.W.N.G.S ) L q s Y K o.1.( h S o.1.1.1.o.<.1.o.S h F o.o.1.1.1.1.1.o.F g K o. .K S 4 F P e 0 A.:.n.W W !.].%.N.C.(.",
"D. X:X}.G.Z.8.%.W.D.(.w s w , s T ,.1.1.1.o.o.o.1.1.1.1.1.1.1.o.o.o.1.1.1.o.1.1.1.1.o.1.o.o.1.1. .s r t 0 7 '.%.V.S.G.0XzX).!.N.:.",
"V.%.'.|.:.A.sX,XD.].gXsXaXzX;XB.%X+X4XqX!.S.3.|.:XN.:.`.,X<X|.'.cX{.<XgX].S.].2XsX>XA.G.-.(.-X-.V.:XgX:XG.+XaX5XhX0XJ.C.1X5XvX'.:.",
"sX-X4.Q S.3XdXeX5XC.A.OX1X-XS.N.n.!.3X'.Q lXgX4.4.$.(.fXcXfX:Xm.P.:XaX<X4.-.A.{.>XZ.V.cX+X2.:.2.1XwXhXsX(.N.'.3X;X+XQ %.{.!.<XB.].",
"4X0X1X!.J.>X4X$X4XOX>.[.oX4.4.W._.V.R =.$XrX4XeX`.A.).>X+X%X=XY.Z.:XI.:.:.(.{.%.W C.>XtX4X,X].n.1X%X+X#XOXJ.W.;XB.R.Z.J.G.%.W '.rX",
"U.,X5X(.n.C.).`.OX,XD.=.:.W.0XhXhX:XZ.S.{.:X$XP.3XC.N.!.+X>X%XU.%.V.>.].aXgXhX{.D.J.+X+X).>X<X!.n.!.OX5X>X!.n.N.2.-XdXhXaX).S.'.,X",
"!.+X|.'.B.B.].aXI.5X(.$.S.:XsX-X4X:X{.G.V.G.{.:X|.V.W J.-X1X>X>Xq.S.F.aXhX>X:X>X!.D.C.!.{.>X].n.n.'.:X>X>X].S.S.-XaXaX1X,X|.G.:.J.",
"4.$.-.4.B.N.V.R.-X].V.:.G.'.+X>XOX+X5X>X8.=.8.;.:.V.N.B.D.S.J.).3.4.S.].+X).+X4XqX].S.n.:.N.B.B.:.V.G.!.'.W.4.3.).).)._.:X,X$X'.B.",
"W.S.S.{.:X'.4.R =.=.n.D.A.$.%.`.0XOX!.J.V.S.~.B.D.:X1XW.-.$.N.G.^.F.4.:.!.5X1X+XJ.D.D.W.S.N.~.0X].S.R #.D.G.R.`./ :.`.3X:X_.G.G.R.",
"0X9X9XaXaX1X(.S.{.:XgXzXsX{.S.^.{.S.n.V.A.'.9XqX%XtXsX|.D.W.-X>XaXsX1XC.V.+XJ.:.n.V.W.-X0X0X>X5XhX].-.S.;X1X3XhX).Z.G.].G.%.:.A.S.",
"W.{.+X).).+X).V.aX3X5XOX+X-X0.5.#.4._.3X,XW.D.-X#XU.+X+XG.G.:XaX%X5XsX(.4.F.4.0.4X5X~.B.-X0X>XI.%X!.W.-XzXhX$XOXdXG.-.5.B.G.1XrXA.",
"W ).>X#X%X5X+X:.Z.^.>X#X>X<XT.0.T.T.F.$X1XD.n.+X4XU.>X0XG.:.^.+X=XU.$XJ.S.F.=.f.M.5X>Xn.C.-X>XOX0X%XS.-.!.+X#X#X-XZ.S.W.4.S.}.1X+X",
"-.).>X#X+X+XN.N.2.S.!.).].G.Z.9XrX'.-.N.3X`.n.-X#XOX+X+X-.N.B.B.(.'.{.:.`.sX1XA.=.'.1XA.C.-X*XOX+XG.N.4.5.G.'.`.].:.&XsX1X=.4.{.>X"
};
