/* XPM */
static char *_81eb8e95c804f06f857fc8bad3143cfdFxwfry9FyllUGN0[] = {
/* columns rows colors chars-per-pixel */
"65 65 41 1 ",
"  c black",
". c #140E0C",
"X c #1B110F",
"o c #1F1311",
"O c #101518",
"+ c #221614",
"@ c #271A17",
"# c #281C18",
"$ c #2E201B",
"% c #2F211C",
"& c #34241E",
"* c gray13",
"= c #362620",
"- c #3E2723",
"; c #3D2A24",
": c #263238",
"> c gray19",
", c #373233",
"< c #531705",
"1 c #5F1B06",
"2 c #5E1D09",
"3 c #6B1E06",
"4 c #79250B",
"5 c #462D28",
"6 c #442F28",
"7 c #4E342E",
"8 c #5B3E35",
"9 c #5D4037",
"0 c #604239",
"q c #63443B",
"w c #66463C",
"e c #37474F",
"r c gray26",
"t c #6D4C41",
"y c #795548",
"u c gray38",
"i c #BF360C",
"p c #C93B0F",
"a c #CB3C10",
"s c #CD3D11",
"d c #D84315",
/* pixels */
" ttttttt yyyyyyyyy 99999999 9999999999 99999999 yyyyyyyy 99999999",
"tttttttt yyyyyyyyy 99999999999 77 9999 99999999 yyyyyyyy 99999999",
"t ttttttyyyyyyyyy  999999999  7yy7  999 9999999 yyyyyyyy 99999999",
"ttttttttyyyyyyyyyy 9999999 7yyy-9yyy7 9 99999999 yyyyyyy 99999999",
"tttttt;   yyyyyyyy 999999 7yyyyyyyyyyy  99999999 yyy   y 99999999",
"9999999999 t     ttt -- 7y7 ---  ---7 7y       9 y t ----        ",
"9999999999 ttt==tttt o@0y8y5oo1i<1oo+5yyqq=ttt====tt ---------o--",
"9999999999 tttttttt;-7yyyyy- iii<iii ---yy7 tttttttt ------------",
"9999999999 tttttttt;7yy--- iiiii<iiii  --yyy7&t  tttt------------",
"9999999999 tttttttt+yyy-- iiiiii<iiii i --y-y#ttttttt------------",
"9 99999999 ttttttt7yy5-- iiiiiii<iiii ii --yyw tttttt------------",
"9999999999 tttttt 70yy- iiiiiiii<iiii iii -yy7 tttttt------------",
"9999999999 ttttt 77# - iiiiiiddi2iiii iiii - 7y7 tttt------------",
"9999999999 ttttt7yyw- iiiiiidddi2iiii iiii  7yy7 tttt -----------",
"9y 9999999 tttt yy--  iiiiiddddd2idid iiii i--yyy ttt -----------",
" y 9           7yy--  iiiidddidd2idid iiii i -yyy ttt --- X------",
"yyyyy --------7yy--<i iiiidddidd2dddd iddi iiX--y7      yyy      ",
"yyyyy ------- yyy--<i ididdddddd2dddd dddd iiX---y7yyyyyyyy ttttt",
"yyyyy-------- yyy- ii iddddddddd2dddd dddd ii3-yyy7 yyyyyyy ttttt",
"yyyyy----oo- 78-8-iia iddddddddd2dddd ddad aii yy8y yyyyyyy ttttt",
"yyyyy------  7yy- iid dddddddidd2dddd didd dii -y-y yyyyyyy ttttt",
"yyyyy------- 7yy- dpd dddddddidd2didd didd ddsi-yyy yyyyyy6tttttt",
"yyyyy------- 77y- dpd dddddddddd2ddid dddd ddsi-777 yyyyyy5tttttt",
"yyyy ------- 777- ddd didd uuddd2dddd dddd dddi-777 yyyyyy5tttttt",
"yyyy ------- 7yy- ddd did  ::                  -yyy yyyyyy6tttttt",
"yyy  ------- 7-y- idd di ::7::e:,::::::e::7::::--yy yyyyyy6tttttt",
"     ---     7yy- idd did :::e:::e::::e::::e:::--yy              ",
"777777  9999 7yy- idd dddd eeiii<iiii iiii iiii--yy 9999999999yyy",
"777777#99999 7yy- ddd ddddd  ddd2dddd dddd dddd--yy 9999999999yyy",
"777777#99999 7yy- ddi dddddddddd2dddd ddid dddd-yy- 999999999 yyy",
"777777#99999 7yy- ddi dddddddddd2dddd ddid dddd-y-- 999999999 yyy",
"777777#99999 y-y- ddi ddiddddddd2ddid ddid ddpd-yyy 999999999 yyy",
"777777.99999 y-y- ddd dddddddddd2dddd dddd ddpd-yyy 999999999 yyy",
"777777# 9999 yyy- ddd dddddddddd2dddd dddd dddd-yyy 999999999 yyy",
"777777#99999      dd  :ddddddddd2dddd dddd dddd     99999999 yyyy",
"777777#99999 7y7- d4 :  dddddddd2dddd dddd dddd-777 99999999 yyyy",
"777777#99999 yyy- dO  d: ddddddd2dddd dddd dddd-yyy  99999&  yyyy",
"777777#99999 yyy- dO  d: ddddddd2dddd dddd dddd-yyy       %tt    ",
"ttttttttyyyy yy-- d4::: iddddddd2dddd didd dddd--yy -----tttttttt",
"ttttttttyyyy yyy- dd   idddddddd2dddd dddd dddd--yy -----tttttttt",
"ttttttttyyyy y-y- ddd dddddddddd2dddd dddd dddd--yy -----tttttttt",
"ttttttttyyyy yyy- ddd dddddddddd2dddd dddd dddd--yy -----tttttttt",
"ttttttt yyyy yyy- ddd dddddddddd2dddd dddd ddsd-yy- ---- tttttttt",
"ttttttt yyyy yyy- ddd dddddddddd2ddid dddd ddpd-yy- ---- tttttttt",
"ttttttt yyyy yyy- ddd dddddddddd2dddd dddd ddpd-yyy ---- tttttttt",
"ttttttt yyyy qqy- ddd dddddddddd2dddd dddd dddd-qqq ---- tttttttt",
"tttt  t yyyy      dpd ddddd  ddd2dddd dddd dddd     ---- tttttttt",
"  -99999     yyy- dpd ddd  ::                  --yy              ",
"---999999999 yyy- ddd ddd :::uuuuuuuuuuuuuuuuuu--yy 99999 99 tttt",
"---999999999 yyy- ddd ddd :::e:::e::::e::::e:::--yy 9999 999 tttt",
"---999999999 yy-- ddd ddd  ::                  --yy 9999 999 tttt",
"---999999999 yy-- dsd ddddd  ddd2dddd dddi dddd-yy- 99999999 tttt",
"---999999999 yy-- dsd ddiddiiddd2dddd dddd dddd-yy- 99999999 tttt",
"---99999999  yy-- ddi ddddddddid2ddid dddd dddd-yyy 99999999ttttt",
"---99999999  -yy- ddd ddddddddid2didd dddd dddd-yyy 99999999ttttt",
"---999999999 yyy- ddd dddddddddd2dddd didd ddpd--yy 99999999ttttt",
"---999999999 yyy- ddd dddddddddd2dddd iddd didd--yy 99999999ttttt",
"---99999 999 777- ddd dddddddddd2dddd dddd dddd-777 99999999ttttt",
"ooo$$$$ $ $$>>>>>>>>>>>>>>>>>>>>>>>>>>>>>>>>>>>>>>>>$$$$$$$$=====",
"**************uuuuuuuuuuuuuuuuuuuuuuuuuuuuuuuuuuuuu*************r",
"r************************************uuuuuuuu****rr*****rr*******",
"**************************************uuuuu*****r****************",
"************rr*********************************************rrr***",
"*****rr*****************r*************rrr************************",
"********************************************r**********rr********"
};
