/* XPM */
static char *_d5ba1526ff446c4e4e4f5993684070encFZFyUz4dcRGYRN[] = {
/* columns rows colors chars-per-pixel */
"65 65 163 2 ",
"   c #2C7233",
".  c #2D7D34",
"X  c #2D7338",
"o  c #367F36",
"O  c #307639",
"+  c #377F3F",
"@  c #3C7C3E",
"#  c #795D31",
"$  c #4D662D",
"%  c #5C6E37",
"&  c #42773C",
"*  c #4D7339",
"=  c #517336",
"-  c #5A7031",
";  c #507239",
":  c #59723E",
">  c #756A30",
",  c #7D6837",
"<  c #736F39",
"1  c #7B6B3C",
"2  c #367E42",
"3  c #387F40",
"4  c #814317",
"5  c #814B1A",
"6  c #884A1C",
"7  c #844B23",
"8  c #8A4E26",
"9  c #8C4F29",
"0  c #914F21",
"q  c #8F532A",
"w  c #935326",
"e  c #91532A",
"r  c #875633",
"t  c #8C5833",
"y  c #925631",
"u  c #965D33",
"i  c #9B5D34",
"p  c #925E38",
"a  c #A25732",
"s  c #A15932",
"d  c #806737",
"f  c #8C6334",
"g  c #806832",
"h  c #81653A",
"j  c #8B653B",
"k  c #976036",
"l  c #986030",
"z  c #96613A",
"x  c #99623C",
"c  c #9D6A45",
"v  c #A46B45",
"b  c #A36F4D",
"n  c #AC7345",
"m  c #AA754F",
"M  c #A77250",
"N  c #3B832E",
"B  c #34803D",
"V  c #3D8238",
"C  c #559E2E",
"Z  c #4B973E",
"A  c #469B3F",
"S  c #499A3E",
"D  c #549E33",
"F  c #559D39",
"G  c #5B9B3B",
"H  c #4FA12E",
"J  c #4DA33E",
"K  c #53A135",
"L  c #59A335",
"P  c #5FA937",
"I  c #53A33C",
"U  c #5AA23A",
"Y  c #57A93B",
"T  c #63AA3B",
"R  c #6CB23D",
"E  c #3A8243",
"W  c #42894B",
"Q  c #4C9746",
"!  c #479C40",
"~  c #4B9C43",
"^  c #4F994A",
"/  c #509747",
"(  c #539F46",
")  c #539D4B",
"_  c #599D4F",
"`  c #4FA446",
"'  c #4DA841",
"]  c #4CA349",
"[  c #4FA84D",
"{  c #51A345",
"}  c #58A042",
"|  c #55AC40",
" . c #5EAF43",
".. c #51A54A",
"X. c #54A94C",
"o. c #59A94E",
"O. c #49A452",
"+. c #54A352",
"@. c #5DA354",
"#. c #55A951",
"$. c #5CAC54",
"%. c #68A848",
"&. c #6BB241",
"*. c #76BB43",
"=. c #7ABB46",
"-. c #72B648",
";. c #62A555",
":. c #62A659",
">. c #63AA5B",
",. c #6DB35B",
"<. c #67B261",
"1. c #6CB463",
"2. c #6BBB63",
"3. c #6FB66A",
"4. c #70B567",
"5. c #75B76C",
"6. c #73BD6C",
"7. c #7DC24C",
"8. c #7AC253",
"9. c #76C16E",
"0. c #79C172",
"q. c #8ABE35",
"w. c #8EC336",
"e. c #8EC33A",
"r. c #91C536",
"t. c #93C53C",
"y. c #95C73E",
"u. c #95C839",
"i. c #94C93B",
"p. c #91CA3E",
"a. c #96C93D",
"s. c #95C83E",
"d. c #B18058",
"f. c #8BB747",
"g. c #81BF49",
"h. c #84C444",
"j. c #8EC242",
"k. c #8DCA45",
"l. c #8ECA46",
"z. c #84C54C",
"x. c #89C74A",
"c. c #8CC94B",
"v. c #8DCE4C",
"b. c #95C741",
"n. c #92C645",
"m. c #93C745",
"M. c #93C746",
"N. c #97C746",
"B. c #93C943",
"V. c #95C841",
"C. c #90C846",
"Z. c #93C949",
"A. c #88C650",
"S. c #84CB52",
"D. c #8BCA55",
"F. c #9FCF5F",
"G. c #A2CF56",
"H. c #A6D261",
"J. c gray96",
"K. c #F6F6F8",
"L. c #FAFAFB",
"P. c gray99",
"I. c white",
/* pixels */
"I.I.I.K.I.I.I.I.I.I.I.I.I.I.I.I.I.I.J.I.I.I.I.I.I.I.I.I.I.I.I.I.I.I.I.J.I.I.I.I.I.I.I.I.I.I.I.I.I.I.K.I.I.I.I.I.I.I.I.I.I.I.I.I.I.",
"I.J.j.y.s.V.i.s.V.s.s.s.s.s.s.s.i.e.s.s.s.b.s.s.s.s.b.s.V.V.s.i.s.G.t.s.s.s.V.V.s.V.s.V.s.s.V.V.s.s.t.s.b.s.V.s.V.s.s.s.s.V.C.I.I.",
"L.f.' ` ` [ ` ` ` ` ] ] ` ` ` ` J ] [ ` ` ` ` ] ] ` ` ` ` ` ` ` @.) ` ` ` ` ` ..` ` ` ' ` ` ` ` ` ` ` ` ` ` ` ` ` ` ] ` ` ` J c.L.",
"I.C.X.` ` ` ` ` ` ` ` ` ` ` ` ` ` ` v.` ` ` ~ ` ] ` ` ` ` ` ` ` { ` ` ` ` ` ` ` ~ ` ` ` ` ` ` ` ] ` ` ` ` ` ` ` ` ` ` ` ` ` ~ M.L.",
"I.M.[ ` `  .J ` ` ` ` ` ` ` ` ` ` ] h.` ` ` ~ ` ` ' ` ` ` ` P ` ` ` [ { ` ` ` ] ` ` ` ` ` P { ` ` ` ` ` ` ` ..` ` ` S T P ` ] M.I.",
"I.M...` { v.U { ` ` { ` [ { ` ` ` ` ` ` ` ` ` ` ` ` { ` ` ` j.` ` ` ` ` ` ` { S ^ ` ` ` ..s.{ ` ` ` ` ` ] ` ` ` ` ` U y.l.{ ] M.I.",
"I.M...` ` ` { ` ` ` ` ~ ..i.` ` ` ^ ` ` ` ` ` { ` ` ` $.` ` ` ` ` ` ` ` ` ` ` ` ' ` ` ` b.] s.` ` ` ` ` { ` ` ` ` ` ` +...` ] M.I.",
"I.M.[ ` ` ~ ^ ` ` ` ` ` { ` ` ` ` ` ` ` ` ` ` ` ` ` ` ` ` ` ` ` { ` ` ` ` ..` ` ` ` ` ` ` ` ` ` ` ~ ` ` s...` ` ` ` ` ..Q ` ] M.I.",
"I.C.X.` ` ` ..` ` ` ` ` ` ` ` ` ` ` ..` ` ` { { ` ` { ~ ` ` ` ` ` ` ` ` ` s.` ` ` ` ` ` ` ` ` ` ` ` { ` ] ` ` ` ` ` ` { ` ` ` M.I.",
"I.Z.` ` ` ` ` ` ` ` ..` ` ` ` ` ` ` ` ` ` ` C.T ` ` ` ` ` ` { ` ` ` { ` ` ` e.K ` ` ` ` ` ` ` ` ` ` ` ` ` { ` ` ` ` ` ` ` ` ] M.I.",
"I.M...` ` ` ` &.x.` ` ` ` ` i.{ ` ` ` ` ` ` X.>.` ` ` ` ` ] y.` ` ` ` ` ` ` { ` ` ` ` ` ` ` ` ` ` ` { ` ` ` ` 4.` ` ` ` ` ` ] j.I.",
"I.Z.[ S ` ` { { I ` ` ` ` ` K ` { { ] ` ` ` ) ] ` ` ` ` ` c.I l.` X.` ` ` ` ` ` ` ` ` ..` ` ` ` ` M.c.` { ` ^ ( ~ ~ ` { c.` ] M.I.",
"I.M.` ~ ` ` ` ` ` ` ..` ` ` ..` ` ` ~ ` ..6.` ` ` ` ` ` { z.] 7.' ` ~ ` ` ` ` ` ` ` ` ` T ` ` ` ` z.=.` { 9...] ~ ~ { ' 7.{ ] M.I.",
"I.M.] ` ` ` ` ` ` ` ` ` ` ` ` ` ` { ~ { ) ` ` ` ` ` ` ` ` ` ` ` ` ` ` ` ` ` ` ` ` ` ` ` V.` ` ` ` ` ` ` Q X.{ { ` ` ` { ` ` ] M.I.",
"I.M...+.] ` ` ` ` ` ` ` ` { ` ` ` ` ..) 6...` ` ` ` { ] ` ` ` ` ` ` ` ..] ! ..` ..` ` ` ` ` ` ` ` ` ..@.9.` ` ` ` ] { { ` ` ] M.I.",
"I.M.] y.y.I ` ` ..` ` ` ` ` ` ` { { X.` ` ` ` ` { ` ` { ` ` ` ` ` ` r.` { ` ` ` ` ` ` ` ` ` ` ` ` ] ] ..` ` ` ` S.y.z.` ` ` ] M.I.",
"I.M.[ ` ` ` ` ` ` ` ..y.` ` ` ` ) 6.s.s.` ` J ` { ` ` ` { ` ` ` ` ` { ` ` ` ~ ` { { ` ` ` ` ` Q o.6.t.` { ` ` ` ` ` ` ` ` { ] M.I.",
"I.M...` ` ` ` ` ` J l.J s.{ { ` ) ` ` ` ` ` ` ` ) ! ` ` ` ..` ` ` ` ` ` ` ` ` ` ` ..` ` ` ` ` ` / M.] y.` ` ` ` ` ` ` ` ` ` ] Z.I.",
"I.M.` ` ` ` ` ` ] ] ` s.' ` ` ] ` ` ` ` ` ` ` ` { ] ` ` ` V.{ ` ` ` ` ` ` ` ` ` =.c.` ` ` ` ` ` ` ` ` ` ` ` ` ` ` ` ` ] ` ` ] M.I.",
"I.M...` ` ~ ` ` ` ` ] Y ` ` ` ! ` { ` ` ` ` ` ` ` ` ` ` ` y.{ { ..` ` ` ` { ` ` { ' { ` ` ` ` ` ` ` ` ` ` ` { ` ` ` ` ` ` ` ] M.I.",
"I.M.` ` ` ~ ^ ` ` ` ` ` ` ` ` ` ` ` ` ` ` ` ` ` ` ` ` ` ` &.` ` ` ` ` ` ` ` ` ` ` ` ` ` ` ` ` ` ` ` ` ` ` ] ` ` ` ` ` ` ` ~ ] Z.I.",
"I.M.X.` ` ` ` ` ` ` ` $.` ` ` ` ` ` ` { ` J ` ` ` ` ` ~ #.` ` ` ` ` ` Y ] ` ` ` ` ` ` $...` ` ` ` ` ` ~ ` ` ` { ` } ` ~ o.! ^ M.I.",
"I.M.[ ` ` ` ` ` ` ` { { ` ` ` ` { ` ` ` ` l.F ` ` ` ` ` ..` ` ` ` ` ` N.` ` ` ` ` ` ` ! ` ` ` ` ` ` ` ` ` ` ` ] ` &.x.` ` ` ] M.I.",
"I.M.X.` ` ` ` ` ` ~ ` s.` ` ` ' ` ` ` ` ` ` ` ` ` ~ ! ` { ` ` ` ` ` ` { { ] { ` ` ~ ` ` ` ` ` ` ` ` ` ` ` ` ` ` ` ` ` ` ` ` ] M.I.",
"I.M.` ` ` c.D { ` ` ` ` ` ` ` B.` ` ` ` ` ` ` ` ~ ` ` ` ` ` ` ` { ` ~ ] ` ` { ` ' ` ` ` ` ` V.{ ` ` ` ` ` ` ` ` ` ` ` ` ` ` ] M.I.",
"L.M.] ` ` l.D 5.{ { ` ` ` ` ` ` ` ` ` ~ ` ` ` ` ` ` ` ` ` ` ` ` ` ` ` ` ` ` ..6.] ` ` ` ` ` ..` ` [ ` ` ` ` ` ` ` ` ` ` ` ` ] C.J.",
"I.j.[ ` { ( ;...` { ` ` ` ` ` ` ` ` ` ` ` ` ` ` ` ` ` ` ` ` ` ` ` ` ` ` ` ` _ ..` ` ` ` ` ` ` ` ` J { ` i.] ` ` ` ` ` ` ` ` ] M.I.",
"I.Z.` ` 1.1.{ ` ` ] ~ ` ` ` ` ` ` ` ` ` ` ` ` ` ..` ` ` ` l.` ` ` ` ` ` 5.:.` ` ` ` ` ` ` ` ` ` ` ` ` ` I h.` ` ` ` ` ` ` ` ] M.I.",
"I.M.] 3.) ` ` ` ` ` ~ ` ` ` ` ` ` ` ` $.` ` ` ` ` ` ` ` { &.` ` { ` 8.@.) ..{ ` ` U 8.` ` ` ` ` ` ` ` o.` T { ` ` ` ` ` { ` ] M.I.",
"I.M.+.3...` ` ` ] { ` ` ` ` I ` ` ` ` ` I ~ ` ` ` ` ` ` ` { ` ` ` { Z.,.O.` ` ` ] Y Z.` ` ` ` ` ` ` ` ` ` ` { { ` ` ` ` F ` ] M.I.",
"I.F.2.~ ..~ ` ` { ` ` ` ` ] i.] ` ` ` ` i.` { ` ` ` ` ` ` ` ` ` ` <.2.V.' ` ` ` ` ` ` { ` ` ` ` ` ` ` ` ` ` ` ` ~ ~ ` F s.` ] M.I.",
"I.H.` ` ` ` ` ` ` ` { ` ` s.` s.` ` ` ` ` b.K ` ` ..Z ` ` ` ` ` <.2.~ { ] ` ` { ` ` ` ] { ` ` ` ` ..` ` ` ` ` ` ` ` ` ` ] ` ] Z.I.",
"P.Z.[ ` ` ` ` ` F M.` ` ` ` ` ` ` ` ` ` { ` ` ` ` ` ' ] ` ` ` ' 4.` { ` ` ` ` ..` ` ` ` ` ` ` ` ` ` ` i.` ` ` ` ` ` ` ` ` ` ] j.L.",
"I.Z.` ` ` ` ` ` ` ` ` ` ` ~ ` ` ` ` ` ` ` ` ` ` ` ` ` ] ` ` ` ` ` ` ] ~ ` ` ` ` ` ` ` ` ` t.` ` ` ` ` ` ` ` ` ` ` ` ` ` ` ` ] Z.I.",
"I.M.` s.{ ` ..` ` ` ` ` ` ` ` ....` ..` ` ` ` ` ` ` ` J y.` ` ` ` ` ` ` ` { M.F ` ` ` ` i.] b.` ` { ` ` ` ` ` ` ` ` J ` ` ` ] M.I.",
"I.M.[ I ` ` ` ` ` ` ` ..` ` ` ` ` M.` ` ` ` ` ` ` ` ` ] } ` ` ` ` ` ` { ` { K ] ` ` ` ` J y.I ` ` ` ` ` ` ` [ ` S.*.` ` ` ` ] M.I.",
"I.M...` { ` ` ` ` { ` X.` ` ` ` ` T ` ` ` ` ` { ` ` ` ~ ` ` ` ` ` ` ` ` ` ..` ` ` ` { ....T ` ` ` ` ` ` ~ ` ` 7.R R 8.` ` ` ] M.I.",
"I.M...] ` ` ` ` ` ` ` ` K ` ` ` ` ` ` ` { ` { I ` ` ` ` ` ` ` ` ..` { ` ` ` ` ` ` ` ` ` { ` ` ` ` ` ` ` ~ ` { S.U R D.` ` ` ^ M.I.",
"I.M...~ ` ` ` ` ` ` ` ` V.` ` ` ` ` ` ` ` ` x.T ` ` ` ` ` ` ` ` Q { { { ` ..` ` ` ` ` ` ` ` ` ` ` ` ` ` ` ` ` { S.*.` ` ` ` ] j.I.",
"I.Z.` ` ` ` ` ` ..` ` ` ` ` ` ` ` ` ..~ ` ` ` ` ` ` ` ` ` ` ` ` ` ` V.` ` ` ` ` ` ` ` { ` ` ` ` ..` ` ` ` ` ` ] ` ` ` ` ` ` ] j.I.",
"I.M...` ` ..` ` ` ` ` ` ` ` ` ` ` ` ` ` ` ` S / ` ` ` ` ` ` ` ` ` ` ` ` ` { ] ` ` ` ..` ` ` ` ` ` b.` ` ` ' ../ ` ` ] ` ` ` ] C.I.",
"I.M...] ` ` D.-.` ` ` ` Q ` { ` ` ] { ` [ 9.o.{ ` { ` ` M.` ` ` ` ` ` ` ` ` ~ ( ` ` J V.` ` ` { ` ` ` ` { 2.) ` ` &.y.j.` ` ] C.I.",
"I.M.` ` ` ` ` ` ` ` ` ` ` ` ` ` ` { y.` 3.{ ` ` { A ` ` ] s.` ` ` ` ` ` ] { ` ` ` ` ` ] ` ` ` ` Q ` ` ..6...` ` ` ` ] ` ` ` ] M.I.",
"I.M.[ $.{ ` ` ` ` ` ` ` { ` ` ` ` I { @.@.{ ` ` ` ` ` ` ] I ` ` ` ` ` o...` ` ` { ` ` ` ` ` ` ` { ` ` _ >...` ` ` ` ` ` ` ` ] M.I.",
"I.Z.` ' ] ` ` ` ` ` ` ` ` ` ` ` ` ` @.~ ' ` ` ` ` ` ` ` { ` ` ` ` ` ' ` ` ` ` ` ` ` ` ` ` ` ` ` ` ` @...] ` ` ` ` ` ` ` ` ` ] M.I.",
"I.j.` ` D D S ` ` F ` J F ` ` ` ` G ` K { F J ` ` ` ` C ` ` C { ` ` C ` ` ` ` ` I K ` ` ` ` K ] { %.H ` ` ` ` K S ` ` ` K D ] M.I.",
"J.j.` ] t.y.T ` K V.' ] s.J ` ` ;.M.` s.' V.K ' ` ` } C.` J M.{ A J p.` ` ' ` ' *.z.` ' ` ` l.I ) b.s.{ ` ` ' V.L { ` } y.i.[ M.J.",
"I.j.t.s.y.i.i.r.w.e.s.i.t.y.s.w.i.i.i.i.t.t.y.e.r.p.p.i.i.i.i.w.i.p.i.t.e.s.s.j.t.i.i.i.s.s.t.w.s.i.s.V.s.p.s.i.w.s.s.i.i.t.r.j.I.",
"I.O B 3 b.V + + + + b.+ + 2 q.s.+ B 3 + + B + g.V.t.s.E B 3 @ + l.2 + + + s.V.N + + 3 o s.s.2 3 2 B V.B b.+ + + + F D.3 3 + . b.I.",
"I.X E B + E + + + + E + + + + + 3 + 3 + 3 3 3 3 2 + + + B O + + + + + + + + + 3 + + + + + + 3 B B 2 + 3 + + + + + + B E 3 + + X I.",
"I.O + 3 B B + + + + + W 2 2 + + + + + + + + + 3 + + + X W + + + + + + + + + 3 3 3 + + W 2 2 + + + + + + E + + B + 2 + O E 2 +   I.",
"I.O u i & + + E + B B i i i a 2 B + + + 3 + B h i u f + @ u B + + + 2 E u i i - + + + + + + + E u i B + + + + 2 1 i i t B + +   I.",
"I.# i i , & + B B B , i i i i j d E + + E h j t i i a j 1 a 1 + + B < j s u i g : + + 3 E + , j s i h E E + E 1 f i i i , + 2   I.",
"I.w i i u % ; = ; = i i i i i i i * * * ; i i i i i i i i i s ; * * s i i i i s > * * * ; ; i i i i i * * * * u i i i i x * ; $ I.",
"I.6 i i i i u m i i i i i i i i u i i i u i i i i i u i i i u i i i u i i i l z l i i i i l i i u i i i i i i k i i i i i i k 0 L.",
"I.6 i i i i p u i i i i i i i i i i i i i i i i u e e i i i i i i u i i u e q y u i i i i i i i i i i i i i i i i i i i i i i 0 L.",
"I.7 e e v d.k i i i i i k e e e i i i i i i i e e e e e i i i u i i u e x m y i i i i i i i s k i e u i i i k l e e e w i u i w I.",
"I.6 e y 9 e i u i i i e e e e e e e e i i 9 e e e w e e e w i l i i e q q e e e y u i i l i e e e e e e i i i e e e e e e e i 0 I.",
"I.6 e c v e e e e e e e e e e e e e e q e e e e e e e e e e e e e e q M v e e e e e e e e e e e e e e q e e e e e e e e e e w 6 I.",
"I.7 t e e e e e e e e e e e e e e y q e e e e e e e e e e e e e e q r e e 9 e e e e e q e e e e e e e e e e e e e e e e e e e 4 I.",
"I.c w q w w q e e e e w e e e e e e e e e e 9 0 e e e e e e e e q b w w e e e e q e e w e e e e e e e e e e 9 e e e e e e e e 6 I.",
"L.8 e e 9 w q q e e e w e e e e e 0 e e e e e 0 e e e e e e e e q e e 9 e e e e w w e e e e e e e e e e e w w q e e e e e e w 5 I.",
"I.5 w e 0 w w 0 q q 0 w e q e e 0 0 0 0 e q 0 0 0 0 q q e e e w q q w 0 w 0 e q 0 0 w 0 q q 9 e 0 0 e q 0 0 w 0 q q q q q q 8 7 I.",
"I.I.6 5 4 4 # 4 # 5 4 # 5 6 5 5 # 5 5 4 # 5 # 5 5 # 6 5 5 5 5 4 4 # 4 4 # 4 # 5 4 # 6 4 # 5 6 5 4 # 5 5 4 4 # 4 # 6 6 5 6 n 4 I.I.",
"I.I.I.I.I.I.I.I.I.I.I.I.I.L.I.I.I.I.I.I.I.I.I.I.I.I.I.I.I.I.I.I.I.I.I.I.I.I.I.I.I.I.I.J.I.I.I.I.I.I.I.I.I.I.I.I.I.I.I.I.I.I.I.I.I."
};
