/* XPM */
static char *_447_d458aa331bdca189aecfcb971f2f2a2fc79884550aa956e815554bb6a18d9fbc[] = {
/* columns rows colors chars-per-pixel */
"65 65 131 2 ",
"   c #63341A",
".  c #69371D",
"X  c #6D3C1C",
"o  c #703F1C",
"O  c #6D3C22",
"+  c #6E3B2A",
"@  c #713E24",
"#  c #713D2B",
"$  c #73431D",
"%  c #6E4329",
"&  c #744325",
"*  c #794626",
"=  c #7A4A26",
"-  c #74442B",
";  c #79462C",
":  c #76492D",
">  c #7C4A2C",
",  c #744432",
"<  c #794633",
"1  c #764931",
"2  c #7D4B32",
"3  c #7B4639",
"4  c #7E4E3A",
"5  c #7E5034",
"6  c #7E5239",
"7  c #7E5841",
"8  c #814E2E",
"9  c #825327",
"0  c #83522D",
"q  c #8A522F",
"w  c #89582F",
"e  c #814E34",
"r  c #824E3A",
"t  c #845334",
"y  c #895635",
"u  c #865837",
"i  c #8A5935",
"p  c #85533A",
"a  c #89563B",
"s  c #86593C",
"d  c #8C5B3C",
"f  c #915C35",
"g  c #915D3E",
"h  c #8F6036",
"j  c #8F623F",
"k  c #926337",
"l  c #94633D",
"z  c #99653D",
"x  c #9B6A3D",
"c  c #814D40",
"v  c #865443",
"b  c #895641",
"n  c #865B41",
"m  c #8D5B42",
"M  c #8F5C4B",
"N  c #915E43",
"B  c #925F49",
"V  c #935F51",
"C  c #8F6044",
"Z  c #8E6449",
"A  c #946343",
"S  c #9A6644",
"D  c #956945",
"F  c #9B6A45",
"G  c #95644A",
"H  c #99664B",
"J  c #96694D",
"K  c #9D6B4B",
"L  c #9F7044",
"P  c #9D714E",
"I  c #976652",
"U  c #9B6751",
"Y  c #9D6B52",
"T  c #9F6B5D",
"R  c #9E7152",
"E  c #9E7259",
"W  c #A26D46",
"Q  c #A26E4C",
"!  c #A27246",
"~  c #A87347",
"^  c #A3724C",
"/  c #A9744D",
"(  c #A7784D",
")  c #AA7A4D",
"_  c #A16E53",
"`  c #A36E59",
"'  c #A47353",
"]  c #A97554",
"[  c #A77957",
"{  c #AB7A54",
"}  c #A5745A",
"|  c #A9765A",
" . c #A7795D",
".. c #AD7B5B",
"X. c #B17C55",
"o. c #B17D5C",
"O. c #A16D60",
"+. c #A27560",
"@. c #AA7761",
"#. c #A77D64",
"$. c #AD7C62",
"%. c #B17E63",
"&. c #B17E69",
"*. c #AF8055",
"=. c #AC805D",
"-. c #B38455",
";. c #B2825C",
":. c #B9835D",
">. c #BA8A5F",
",. c #AF8064",
"<. c #AE836D",
"1. c #B48363",
"2. c #B98665",
"3. c #BB8A65",
"4. c #B5836A",
"5. c #B9866A",
"6. c #B78A6B",
"7. c #BC8B6B",
"8. c #B78571",
"9. c #BB8771",
"0. c #BB8B71",
"q. c #BF9072",
"w. c #C08E6E",
"e. c #C19361",
"r. c #C5946D",
"t. c #C18F73",
"y. c #C49372",
"u. c #CC9C74",
"i. c #C59379",
"p. c #CE9B7C",
"a. c #C79481",
/* pixels */
"3 G ' k k l t U [ 2 B 9.` q g / K  .d s ` m 4 U ^ y Q 8 ; ,.Z 1 ..5.Q X ] 1.^ { # U } ; l ] u F ^ > H } t m 2.] C 5 1...o.A 2 ` S ",
"< 2 H ^ i = d 3.=.d p B N S ] ] F d > 2 r < 2 b Q K a 8 ' 0. .t 2 A K e ] ^ i l p @ > e & d ..m $ t  .7./ u d H A >  .D d u r v r ",
"K ; : G t 2 P ] ..W d 8 @ : N o.= > d d y C N ; 2 H * d o.Q ' K ; & t d | D * * d g f Q y & G i & | o.^ { d O r b p $.d * t d p f ",
">.Q - < 4 G *.k f / { N e > e e : ^ 7.;.{ 7.1.d % t % Y { e W ;. .4 : : 2 5 d  ./ :.o.&...t < e 4 %.D 9 { ;.b v - t A 2 d 1.;.o.%.",
"( 7.G < r m ] ! ~ o.W 8 g ..Y - y  .1.^ ( ;.1...Z : > J ' ' { ] m 4 H ' a < m 0.e.W / X.| | N # m Y K F -...A 4 Y Y e & ' 7.{ ../ ",
"! 1.H a m t t H %.z 8 9 W ;.;.[ 1 t i x ^ D F 1.D 5 m y t ] ' t 0 y ..p...A : a x S / S o.%.q N d p H ..F 0 y m 3.y.H e s l u / / ",
"[ d j D ^ D : < a * l 3.:./ ' ] r 4 m *.;./ ' Y y D ] y & t 5 u *.P K ..R Y > e f X.X.W ] g t ..d & > m t p ' -.F ;.' D & a P ;.~ ",
"H & l *.;.1.B 3 # N ;.( f / 2.W V p K *.L ! J O S :.4.' C & - J ( ' ^ ' ^ { t a 2.W W / 8 * 1.;.e.W 4 # 7 O.o.x ! ! ^ ' - Y 1.D / ",
"t A ;.-.F ] 4.H e d ..K A ' b - : 8 G B @.G i H 3.F ^ { o.g d d { F J } p - r - W K 1.p m } ..K / ] | N 8 _ o.l ^ A - - 3 p K _ ] ",
"; ' ' P ^ k > t p > g u * - - v ' d p p t 4 t o.F ] Q y a 2 > e i = O - , B %.N > & > p m } { ^ k y a p e p t @ & ; s E _ r t 8 p ",
"2 y P ^ t = d D a d K A i G G m 1. .Y ' : e : H { F * = d g y ' { A d U G N ..' ^ S : a t R ' A o 8 N p p ` | g K A y Y 9.5.' > 2 ",
"H 0 d d * A 7.2.K K ' o.1.5.Y 2 d ' 7.&.a H g 0 g > > 1.7.2.S A ....1.7.D 5 J { 7. .t A y 2 y * l o.7.] A ` %.o.=.,.A a C ' 1.' e ",
"1.=.y & A 1.1.;.;.u u ..1.A > : > = H i A ..1.F 8 e S w.' 1.' > m ..{ y X : A 5 N y l 1.1.t d ; 1.o.1.2._ t g &.' j $ & i D A - { ",
"..;.' j d K ' D -.A 0 d a 2 A K ;.t 0 : J ..1.{ %.d y Q d ^ o.F u A t 0 l / ^ > X a ..o.5.{  .t S S S ] ' N p H : d K ;.F & > d ..",
"l A 1. .& : ' F ^ { A ; ; J r.;.y.{ D a J _ S F %.q & N 1./ K / 4 - * ' u.7.1.=.4 l ' i h  .' 2 e Q ' F Q Q p - K ' { 3.>.H A d / ",
"k S D a t 5 l *.L ^ i t a ' 1.F F ..Q i > A u W p A e @ ' K z  .2 m A ^ { x P ] } 2 : D l K e N - A ' W ] S r p H 4...P L ' ^ ; p ",
"% % ; t d 2 - 6 t J > ; d t G } S o...K m 4 % , : t D - < B t m - # p a ] W Q ] ` | m O , e ; t ; p 2 <  .4 X t 2 H K ( ) l 4.B 8 ",
"Y J D ' 1.] s % : A A H D - > ' 1.l 0 t t m Y J F *.%.H : @ t i ` | g X 8 2.%.g 8 y 8 V | m Q w.4.i : - t s P { t & l ' P S 2 m m ",
"E ..../ ] ] A 5 ' ..1.1.1.K > h G * t J m N  .$.( ..' ..H d 2.1.o.1.] Q e H d : q Q t F %._ ;.] %.D N } ..7.7.*.$.y t G t m = K e ",
"t ^ / S W ^ A u ] ( ..K ..o.t * : - Z 6.] y y _ ^ l A ' a t ' ' ] / ] | 8 @ - b / 7.S y A _ ( i F W > a ' 1.F ! ( F - 4 1 i ..>.N ",
"* g Q ~ X.o.g * = u ' D l D t A J d 5 G %.g * B *.L 7.=.> : i F W S W e g B H p g F ] a e F W :.....2 > d ] z ( l i M G B p K ! / ",
"; A _ { ] W y p y t P o.K i l 1.,.' : 2 | G 8 ] F i P d ; i 5 t W ] Q 8 ] %.o.N > a %.t r o.W ^ F > t G = d ^ D L * 6.$.@.m & A ^ ",
"< C P K i * p @. .d y ' _ t A  .' K y t G b r U { H m t H 4._ > | %.B q Q ` Q o.r m Y < 8 | F 9 G e ` @.m d =.*.C & 1.{ K W > ' g ",
": 5 C K G 5 n 6.1.G < N N p `  .f u 0 > 2 1 , < g _ 2 < Y 4.5.y O H r a | X.8 q < ; < r 8 r F ] & a $.4.@.; > d b H ! ! = t - 1 < ",
"2.= - s 2 d { ! H  .H : ; p Z } 1 1 G P d  .=.o 4 1 t J ' F W X.b - - b Y C 5 : D ' ' W H > + v * ^ ^ x ..' e 2 4 b T b O s ' F K ",
"=.' d - p K _ d A ^ ' S d > @ @ d [ 7.6.o.1.7.{ 4 1 a Y ^ l S ..$.G > 2 5 % C i.3.X.^ o.7.Q e r A ' D w !  .D a i * . t @.7.1...o.",
"^ r.' & 4 N N _ } ..F - t 1.1.i 5 ' =.] / W Q o.C a 4 d ^ ..{ ' * t A ..| t t &.^ ' ! ^ ..] a @ ; D [ ;.o.^ d > ' 7.P - A 7...F / ",
"L *.H y N p < G ..y e F ] ;.-.F - 5 i z / / / %.s C t * 5 K H y 0 W { ;.%.H : < l L { / W F A A m 2 d K l t l F ( 3.*.i : > d ../ ",
"F i i P ,.Y 4 O : : K 3.{ P ^ ( A : A { X.X.A f d ' { A - & > t X.;.] ' ..Q a p / W ] o.F 0 l 7.$.t + O - A ;...^ ! ' D 2 d  .;./ ",
"l t l ] ..1.| p X H 1.K d { 1.F m - K ..Q K 8 e { ..2.7.Y > 6 I ] F S ] ` N p p Q { { A e g / / 1.} H e e | 1.D { ' Q a - K 3.K ] ",
"t A  .' D Q  .` l d l G H t - - s 1 Z m S K d @.X.W z Q K m s n $.d s m t 2 a e A _ _ p t ..3.D ' ..} p 2 G ' d A * + s d t y K W ",
"4 H  .{ D w * : t d t - t 4 < b <.+.Z O 5 s O @.( ( g > > p n 1 n + % 4 4 ` 7._ y o @ m B U  .! 0 = < p m b 4 - O s m U 4.K > $ e ",
"0 u } N r 2 ^ P d A 3.^ D ;.' t ~ ] ..4.b n s n E Z % n <.Z 6 $.6.P ' 6.J Z 4.+.4.4.t t 2 _ | t 4 d  .d i 3.3.F :.x l S ^ 1.2.W 3 ",
"^ u : ; t  .y.>.} t l ..3.1.D > 9 F ..H C R ' s 6 p G  .0.4.R g P =.,.} p 6 J T 5.N N @.` ; - @ K 1.w.2.l t P ..2.K y < N ..] e d ",
"3.;.A A t { ..' 7.A t P F 8 8 2 t 8 t e  . .1.=.J d ' %.[ 6.2.i C ,.J t s s j 5 G ;  .5.1.J K a K ;.' 3.] t K %.t m r e a p r a o.",
"D o.;.K > d D ^ K ' a 0 = t | } 5.W 2 1 ' ' ^ =.4.a a S A ^ ] g 4 a - i { 1.{ z : > 4.' ` 1.| e k ^ D K } m p 2 2 G @.4.| t < U / ",
"l _ ' t t t ^ ..H ..s : d ..i.] o.2.G e t R D D } r * g ] ] Q / r e d %.2.{ *.{ b > G ` A @.N 2 = A %.] ' U > p } :.:.>.2.W 0 t W ",
"t i A = i : i G ^ ' t - v H ' K S o.` _ t a > j t f 8 e _ / H Q r : a o.[ l ! ! | A 2 d 2 A a m = : H K _ J : m D ' F k ! X.K y e ",
"+ < > i S y - 4 t t a t p 2 t o.X.W F ` b - - t 8 S g ; # < r v ; r @ 8 S ' ..! ` _ e - ; 2 t N K : @ e y t : ; e d S W F / | U p ",
"8.$.G 1.y.4.4 3 y N $.&.} a @ Q ) i t & s I 1.J Q 2.t.| e 3 M ` ] p.S X d ^ K l - t t _ 0.A | i.4.I - p N ' r...v # N o.^ r , 3 a ",
"K | { k W { a d o.:.X.X.X.' N , a # C $.D t K ..^ ^ H U d g 7.:.X.^ -...- b c < A ;.i 0 ] X.] l ^ t p ] %.{ ) { %.H > 2 e 2 D { p ",
"; e o.;.^ ..W : g F / / { ' N # 8 8 j >.;.i 0 A { F Q $.A e A ' ! W  .S & t b b H 3.^ 0 y W { ^ X.o.a 8 ] ;.! ! ..A 2 - e A ( 3.A ",
"> e ] ] F ..H @ t d S W g t g Q / z $ = { A = K ! x o.] t @ ; S x D ^ d D ' H t # I | t 8 _ o.Q _ Q : . r S S z d t ' } H p : S { ",
"e W _ A S g e A a e G w.] 8 q w.;.' > t  .G 5 ' W F ' q ; S a t 1.{ A $ L 7.;.F e N @.N d | Q g H > N _ 8 t | | l 0 o.2.| N : | S ",
". N Q Q S > e 1.| a t ` ] a N o.J H m b s < 3 M / z y o l y.} > D J K > W { W F r 3 b e < F H Q a * ] t.N e Q | D t { ' K K : B a ",
"g ; 8 V p r _ { %.Q p # # a Q ..t < r 6 2 r v 3 N a t t ^ 2._ S @ > d d ' K > & t 8 t t e e p _ & A ] ] ' g ; e * l ..d : y ; ; e ",
"w.g # e r B o.N f ] ` a e a m s ; d Y ' ;.7.' 8 : p t F / k A ..H 2 @ 2 b m 4 G { 2.{ o.| r ; r 8 ..^ z { { p < ; A S = = F 1.%.{ ",
"o.5.a ; m B H W W X.] B c b p : h 7.r./ ! *.-.-.3 b ; l { z W { } d p B 4 t m a.Q :.Q o.t.B a r d z F x F { } t M t & u ..7.1.K ( ",
"( ..Q r < m J D 1.Q d $ k r.:.i # m 1.z ! ~ ] o.N ; e B H [ ..' t 5 ' y.{ 0 a U / W / o.o.] 8 q y y P 1.' d i y 3.3.F r 3 o./ z / ",
"f / l m } y X A N > g / X.-./ { M . t ! :./ ] o.a Q S & X N D & A [ { { [ D 2 < f Q X.Q g ] N F l * ; A l > A $.! ..} B @ e l ;./ ",
" .u 5 ^ 7. .e + 2 r ] ..^ ] ' ..b p ] ] / / A @ d o.5.Q > O 2 G  .;.Q ' 1.Y 2 b %.] / ] f q f w.1.C $ X 0 ' 1.Y x 1.%.G r K ] ( ] ",
"p y K *./ ;.4.I 3 N %..._ } G p e 8 H / { F a N -.' W ;.1.a < T ;.' D F H y - p Q o.] N > W ( { ;.2.] 5 : ' ..F ^ ] d ; < K ..W ' ",
"# @.1.L x D m G m e g a 8 e ; e N a 8 < D A t 1...^ d d H d < p d t y > X a Y y # N a y y 1.2.A d A A d 0 y a > q @ @ N G * 8 t A ",
"m J ' K k u 0 : m a A e * a m M ] w./ q e t + Y F K d t > e s G F = u A 2 K 7.' } a o g i Q ' F > * : > d K D * r y a %.t.S A e > ",
"t - H ` : a 1.X.a F 3.2.%.t.` r / Q o.%.N p < Y ' 0 > D .. .K D r.K  .5.G a J ' 1.] y g : A U 2 t ' 7.' d P 1.;.5.2.N y | o.i.H 2 ",
"3.Q 2 + p ..3.-.%.y a W { _ r e 8 B | S # 9.6.< > - A 7.y.2.' 0 z } 1.' r * u K { y e t.Q ; 2 <  ...3.1.A t A ..} G & # F N | r H ",
"X.o.| N g ] X.^ X.W > J E 2 5 d D y O - Y ;.X.-.F d F ] Q ~ X.z y ' k > > A J * @ y ] 2.X.{ W ; X./ W ( / g g ` r d a d d * - G -.",
"z ..o.N 8 y S F W ] s - : C %.5.3.} t u K ' P x ..p e N W ] ~ z : 5 5 H 1.7.7.K a N W Q F ] | N 8 g Q { ] N ; e 3 _ 1.7.1.D p B { ",
"N Q ` A r r H 1.z o.N - a } 2.' X.^ K d t s K ' Q t # a ` | { ] 5 6 j ,.3.] ] ] N p a N F ] H ; 8 G } ' ` S s 6 _ 1.1.{ { Q i 2 d ",
"2 & - 4 t e t b _ F t ; s H W ' W Q o.] 5 : 5 : ; t e e a a g S 6 : 5 J Q S Q X.&.H y ; ; e r p : t d N H N 2 ; A F S F ' ..' D r ",
"m t s J } G < O - & e y y $ & J ;.W N N t s m r d ] | m ; * > d C s 5 > N o...W g a d m r e N %.H r + & a a d H $ > S  .' A d k a ",
"@.%.o.4.1.| D t J ' 7.w.2.K t D J y 8 t i G @.9./ :.2.H a m _ ..1.1.{ t t Q N ; > t m _ &.%.] o.7.H - a ` | ..7.D t d H i : 8 u v ",
"g Q Q S S W S p 1.=.o.F Q Y 6 4 % 4 A .. .d q ` ~ x Q _ d d ' 1.] X.2.A 5 s 4 5 o.o.S r _ %.] z / B m _ w.w.^ W 3.g : r t b ' 1.i ",
"@ A / / / o.Q 8 t l ../ ] } p 4 v v b ' { y 8 Q X.z ] %.g : j W / S ^ A t 6 : 7 w o.] ; y ] / W &./ t ; N Q / ! ^ y p b 4 p K { Q ",
"< N X.W ~ W r e 4 4 N A W a t 1.;.A < e  .F 8 _ ~ ~ W V 8 r e r A S K > H 1...i < A ' d t _ ] ~ Q d e 2 4 s S S G > / 1. .- 2 ^ / "
};
