/* XPM */
static char *_6741_2900f73514309d3edcdb56ae85e3685159ce8965401be3720fb9eed8a44bf9fd[] = {
/* columns rows colors chars-per-pixel */
"65 65 212 2 ",
"   c #010101",
".  c #0A0303",
"X  c #05080C",
"o  c #0B0D0E",
"O  c #1B0808",
"+  c #11100F",
"@  c #070C13",
"#  c #090D16",
"$  c #0E1315",
"%  c #131313",
"&  c #161718",
"*  c #151A1C",
"=  c #1E1E1E",
"-  c #2A0D0D",
";  c #271314",
":  c #361111",
">  c #381011",
",  c #141D25",
"<  c #141E33",
"1  c #172022",
"2  c #1A2225",
"3  c #1E282C",
"4  c #242424",
"5  c #212A2D",
"6  c #2B2A2A",
"7  c #342123",
"8  c #232E32",
"9  c #273437",
"0  c #2B3335",
"q  c #26343A",
"w  c #2D363A",
"e  c #2B393D",
"r  c #353435",
"t  c #35393A",
"y  c #3C3C3C",
"u  c #4A1819",
"i  c #511717",
"p  c #651E1D",
"a  c #6D1E1F",
"s  c #67351C",
"d  c #6D3C1C",
"f  c #743F1F",
"g  c #6E1F20",
"h  c #4B2222",
"j  c #552326",
"k  c #6E252A",
"l  c #732122",
"z  c #792426",
"x  c #6D3C24",
"c  c #713E25",
"v  c #723E2B",
"b  c #762B32",
"n  c #782E37",
"m  c #792E38",
"M  c #753232",
"N  c #73411D",
"B  c #6F4228",
"V  c #744325",
"C  c #784727",
"Z  c #7A4927",
"A  c #75442A",
"S  c #79462C",
"D  c #77482C",
"F  c #7C4A2C",
"G  c #7A4633",
"H  c #7D4C33",
"J  c #7B4A36",
"K  c #7A463A",
"L  c #7E5034",
"P  c #7E5139",
"I  c #1B2B47",
"U  c #242A44",
"Y  c #2D3B40",
"T  c #25364A",
"R  c #383F41",
"E  c #23375D",
"W  c #25395C",
"Q  c #263D64",
"!  c #313D64",
"~  c #364448",
"^  c #3C4D52",
"/  c #27416C",
"(  c #2C4774",
")  c #2D4877",
"_  c #334470",
"`  c #394D7C",
"'  c #444546",
"]  c #454B4C",
"[  c #4D4D4D",
"{  c #504C4C",
"}  c #46555B",
"|  c #565555",
" . c #5B5B5B",
".. c #445C61",
"X. c #676767",
"o. c #696969",
"O. c #862526",
"+. c #892627",
"@. c #8A2728",
"#. c #8D2929",
"$. c #922A2A",
"%. c #9C2D2E",
"&. c #8C3535",
"*. c #8E3738",
"=. c #923A39",
"-. c #A32F2F",
";. c #AA2F30",
":. c #A43636",
">. c #AA3132",
",. c #B43435",
"<. c #B63C3C",
"1. c #814E2D",
"2. c #82512E",
"3. c #814E33",
"4. c #824E39",
"5. c #845334",
"6. c #885636",
"7. c #8A5935",
"8. c #85533A",
"9. c #89563B",
"0. c #86593A",
"q. c #8C5B3C",
"w. c #925C36",
"e. c #915E3E",
"r. c #8F613F",
"t. c #946338",
"y. c #94633D",
"u. c #9A663D",
"i. c #974948",
"p. c #875744",
"a. c #8A5741",
"s. c #8D5B42",
"d. c #8D5649",
"f. c #915E43",
"g. c #965A4B",
"h. c #BA4242",
"j. c #B55757",
"k. c #946344",
"l. c #996645",
"z. c #9B6A44",
"x. c #95644A",
"c. c #99664B",
"v. c #9D6B4B",
"b. c #996B4D",
"n. c #986851",
"m. c #9E6C52",
"M. c #A16C45",
"N. c #A16E4C",
"B. c #A47245",
"V. c #A3724C",
"C. c #A9774B",
"Z. c #A9744E",
"A. c #B07D4E",
"S. c #A26E52",
"D. c #A26E5A",
"F. c #A57353",
"G. c #A97554",
"H. c #AB7A55",
"J. c #A5745A",
"K. c #A9775A",
"L. c #A7795A",
"P. c #AD7B5B",
"I. c #B17B56",
"U. c #B27D5C",
"Y. c #A86E6E",
"T. c #AD7B61",
"R. c #B17E62",
"E. c #C15959",
"W. c #C66060",
"Q. c #C37676",
"!. c #B6865A",
"~. c #B2825D",
"^. c #B48363",
"/. c #B88665",
"(. c #BA8964",
"). c #B5836A",
"_. c #BA856C",
"`. c #BC8A6B",
"'. c #B88872",
"]. c #C28F67",
"[. c #C3926D",
"{. c #C18E71",
"}. c #C69475",
"|. c #2F4E81",
" X c #314F83",
".X c #3B4F80",
"XX c #325085",
"oX c #9B9D9D",
"OX c #BD8685",
"+X c #9FA1A1",
"@X c #AEAEAE",
"#X c #B3B3B3",
"$X c #BBBBBB",
"%X c #C88482",
"&X c #CB9594",
"*X c #D1B5B5",
"=X c #CFC2C1",
"-X c #CECECE",
";X c #D1C3C3",
":X c #CFD0D0",
">X c #D5D5D5",
",X c #DCDCDC",
"<X c #E9C9C8",
"1X c #ECD9DA",
"2X c #F4DCDC",
"3X c #DEE0E0",
"4X c #E2E2E2",
"5X c #EDE1E0",
"6X c #EBEBEB",
"7X c #F5F4F4",
"8X c #FBF5F4",
"9X c #FEFEFE",
/* pixels */
"K x.F.t.t.t.5.c.L.L f._.D.6.e.Z.v.L.s.9.D.s.J n.G.6.N.1.H T.x.J L.(.v.d F.~.V.H.c n.J.F f.G.6.z.V.Z c.K.8.q./.L.f.L ~.U.^.k.H D.l.",
"G H x.F.7.C r.(.P.q.9.f.f.c.G.Z.z.q.F F 8.H J s.N.v.6.1.F.`.L.L F x.b.5.L.V.6.y.8.c S 3.V w.P.q.V 5.L.(.G.6.q.b.x.J L.k.q.0.H a.4.",
"v.C A x.0.F v.C.H.z.e.3.c S g.U.C L q.r.0.s.f.A S b.C f.L.N.F.v.C A 0.q.J.z.Z C e.e.q.N.9.c l.q.A J.U.F.H.q.c 4.0.9.T.q.V 6.s.8.w.",
"!.v.A G P x.~.t.w.G.H.k.3.F 1.3.C F.(.~.H.`._.q.B 5.v v.H.6.z.~.J.L A A L H s.L.Z.!.U.!.I.3.G 3.4.L.z.2.H.I.s.4.A P f.H e.^.^.P.R.",
"C.`.x.J J s.G.V.N.U.M.1.w.P.v.9   ~ ~.V.H.~.^.L.x.D D z.F.F.H.F.s.5.b.L.0.J s.'.].M.Z.G.I.K.  o s.m.N.z.I.P.k.P v.N.L V N.`.H.H.Z.",
"V./.v.L s.5.5.x./.u.1.6.N.^.^.R 6 ~ 6.u.V.k.z./.x.H r.5.6.J.F.5.5.5.T.}.L.f.A q.M.u.Z.l.R.R.6 6 q.5.v.L.z.5.0.k.`.[.k.L q.f.6.F.Z.",
"G.q.q.t.F.z.D G 6.C k.!.!.    [ o.'     ~.V.N.S.6.k.H.q.V 5.5.5.P.V.v.P.F.N.F 3.6.A.I.,   6 o.X.%   H 9.0.5.S.~.z.~.F.x.A 0.N.~.B.",
"b.V u.~.~.^.s.K c f.!.H.7.    [ o.| r 0 z.V.v.d l.^.^.F.s.V A n.C.V.z.G.N.L.5.6.].V.M.y 6 ' o. .%   J A p.S.H.z.B.V.V.F.D b./.k.G.",
"L k.~.~.z.H.^.b.3.q.I.v.k.    [ o.X.o.X.=   0 c./.M.V.G.R.e.q.q.G.k.v.L.p.v 8.C v.     .o.X.X.X.%   K.f.3.S.U.e.N.k.A A K 8.n.S.G.",
"F V.H.v.V.r.C 5.8.S f.6.C   X [ o.X.X.X.' 6 ~ U.z.G.N.6.6.1.F 3.7.F B A A x.T.s.F r t  .o.o.X. .%   9.3.G 6.6.f N F 0.m.m.0.5.2.0.",
"F 5.N.V.2.F q.x.9.q.N.e.6.    { o.o.X.X.X.o.{     z.C Z 6.f.6.F.G.f.6.b.x.x.$   r o.o.o.X.X.o. .%   f.9.9.S.T.g.v.k.8.m.`.).F.F S ",
"l.5.q.q.Z k.`.(.N.c.S.U./.    | o.X.X.X.X.o. .r r C 1.R.{./.z.k.L.~.^.`.k.3.t r [ o.X.X.X.X.o.X.%   ].G.f.D.R.R.~.~.x.0.s.J.^.F.4.",
"^.P.0.B k.^.~.~.!.6.5.P.^.    [ o.X.X.X.X.X.X.o.o.4                       o  .X.X.X.o.X.X.X.X. .%   ^./.S.3.f.R.V.k.N B q.l.k.Z H.",
"H.~.F.f.q.v.F.k.~.l.5.q.0.    [ o.X.X.o.o.X.X.X.X.] r r r t y r t t y r r y X.o.X.X.X.X.X.X.o. .%   z.G.G.q.8.c.D q.v.~.v.V F q.I.",
"y.y.^.L.V Z V.z.B.H.k.C C   X { o.X.X.X.X.X.X.o.X.o.o.o.o.o.o.o.o.o.o.o.o.X.X.X.X.X.X.X.X.X.X.X.%   F.l.N.N.0.A b.F.H.(.!.v.k.q.Z.",
"t.z.k.q.5.L f.~.B.V.6.5.s.    [ o.X.o.X.X.X.X.X.X.X.X.o.X.X.X.X.o.X.X.X.X.X.X.X.X.X.X.X.X.o.X. .%   S.N.G.x.8.8.b.^.~.V.z.F.N.C 8.",
"B B A 6.q.H A P 5.x.S G q.    [ o.o.X.X.X.X.X.X.X.X.X.X.X.X.X.X.X.o.X.X.X.o.X.X.o.X.X.X.o.o.o. .%   H G J.L d 0.H x.v.V.~.y.^.x.1.",
"b.b.l.F.~.G.0.A D k.k.z.x.V Z ~ 6 y X.X.X.X.X.X.X.X.o.X.X.X.o.X.X.X.X.X.X.X.X.X.X.X.X.X.o.[ 6 0 ^.q.G S 8.q.S.G.8.V y.F.z.k.L q.s.",
"F.~.P.F.H.G.k.L L.P.^./.^.v.F 9   = X.X.X.X.o.X.X.X.X.X.X.X.X.X.X.X.X.X.X.X.X.X.X.X.X.X.o.y   o U.l.k.F.L.`.(.~.~.0.5.x.5.q.F v.H ",
"L V.F.l.M.V.k.5.F.G.P.V.G.P.5.q   = X.X.X.X.X.X.o.X.X.X.o.X.X.X.X.X.o.X.X.X.o.X.X.X.X.X.X.y   o z.v.F 0.F.!.z.V.V.z.Z P J 0.H.(.k.",
"V y.V.V.I.U.k.V Z 5.F.x.y.k.5.9   = X.X.o.X.X.X.X.X.X.X.X.X.o.X.X.X.X.X.o.X.X.X.X.X.X.X.o.y   o P.K.5.H q.V.z.C.u.7.s.x.x.0.v.M.Z.",
"D k.F.L.G.l.6.5.q.5.v.H.v.q.y.q   = X.X.X.X.o.X.X.X.o.X.X.X.X.X.o.X.X.X.X.X.X.X.X.o.X.X.o.y   o l.1.8.s.S q.V.z.v.D '.~.J.q.V k.V.",
"D s.V.v.q.A 8.T.P.s.5.F.F.8.k.q   = X.X.X.X.X.X.X.X.X.X.X.X.X.X.X.X.o.X.X.X.o.X.X.X.X.X.o.y   o x.J S.T.s.q.L.H.f.V ^.H.v.z.F J.q.",
"D L s.v.k.L s.).^.x.S f.s.8.S.9   = X.X.o.X.X.X.o.X.X.X.X.o.X.X.X.X.X.X.X.X.X.X.X.X.X.o.o.y   o V 0.T.).T.D C r.s.x.V.B.Z 2.A H &.",
"^.F A 0.H s.H.B.c.L.c.S S 0.f.q   = X.o.o.X.X.X.X.o.X.X.X.X.X.X.o.X.X.X.X.X.X.X.X.X.X.X.o.y   o Z V.V.y.H.F.5.J L p.m.p.x s.F.z.N.",
"~.F.q.S 3.m.v.r.k.F.F.x.q.H V q   & | | | | | | | | | | | | | | | | | | | | | | | | | | | r   o r.F.z.7.V.L.k.0.q.A B L T.`.^.P.U.",
"V.[.F.A 3.s.f.m.L.P.z.D 5.^.!.9   & [ { { { { { { { { { { { { { { { { { { { { { { { [ [ [ 6   o H x.L.~.H.V.q.F F.`.V.V x.(.L.z.Z.",
"z.H.z.q.s.8.H x.L.5.5.k.F.~.H.9   - M M M M M M M M M M M M M M M M M M M M M M M M M M M u   o q.H q.v.y.6.r.z.V.(.H.q.D F s.P.Z.",
"z.7.7.N.T.m.P x C F v.^.H.V.Z.0   - O.O.O.O.O.O.O.O.O.O.O.O.O.O.O.O.O.O.+.O.O.O.@.+.+.O.+.i   o T.8.x x A k.I.P.B.V.F.x.L q.G.^.Z.",
"r.7.k.G.P.^.L.8.x z.^.v.r.e w j p l ;.;.;.;.>.>.;.;.>.>.>.>.>.>.>.>.>.>.;.;.>.;.>.>.;.;.;.@.p p r q x.H 3.K./.l.H.V.v.0.V z.(.v.G.",
"5.k.L.F.x.S.L.m.e.q.y.c.k.  o p O.#.,.,.,.,.,.,.,.,.,.,.,.,.,.,.,.,.,.,.,.,.,.,.,.,.,.,.,.%.z z O   J.0.H x.F.q.k.D V 0.r.L q.l.N.",
"J v.L.H.z.6.Z F 5.q.F S 8.J G r O i ,.,.>.,.,.,.,.,.,.,.,.,.,.,.,.,.,.,.,.,.,.,.,.,.,.,.,.l - ; 2.C S 8.p.s.J A v 0.p.n.^.N.F N 1.",
"2.q.F.s.L H V.V.q.k./.V.u.^.F.q   : ,.>.,.,.,.,.,.,.,.,.,.,.,.,.,.,.,.,.,.,.,.,.,.,.,.,.,.p   o J s.P.q.6.(./.z.!.u.y.k.V.^./.M.K ",
"M.6.S J 8.T.[.(.G.5.k.P.(.^.k.q   - #.#.#.#.$.,.,.,.,.,.,.,.,.,.,.,.,.,.,.,.,.,.-.#.#.#.$.i   o v.^.`.^.r.6.V.P.(.N.5.S k.L.G.3.6.",
"(.~.k.k.5.L.H.F.'.k.6.V.z.5.F w   - O.@.O.O.$.,.,.>.,.,.,.,.,.,.,.h.h.<.,.,.,.,.%.+.+.+.@.u   o v.~.H.(.J.5.z.^.8.a.8.4.4.9.4.9.U.",
"z.~.~.N.F q.k.V.v.V.5.5.S 5.G.9   : >.>.>.>.-.$.#.#.@.$.,.,.,.,.j.<X2XQ.+.#.#.#.%.>.>.>.>.p   o q.F.z.v.F.s.8.J H n.T.).J.6.G c.G.",
"f.N.V.0.5.5.v.P.z.P.9.S q.U.}.8   > ,.,.,.,.>.@.@.@.O.$.,.,.<.h.j.5X8XOXO.+.+.+.-.,.,.,.,.a   o F k.~.F.F.v.H 8.F.^.~././.N.2.5.M.",
"P q.r.D q.C q.x.S.F.~ 2 2 2 2 o   : ,.,.,.,.,.>.>.>.>.-.#.#.&X2X<Xj.g.:.;.;.>.>.,.,.,.,.,.p     1 3 3 2 3 x.C s.l.Z.z.u.M.I.z.6.3.",
"x J F 6.l.6.G J 5.5.e % & & &     > ,.,.,.,.,.,.,.,.,.>.=.*.*X9X5Xi.&.:.,.,.,.,.,.,.,.,.<.p     + & % & * 5.C F 3.6.l.M.M.F.K.n.8.",
"'.T.x./.}.).4.H * 3 #X,X>X>X:Xr   > >.,.,.,.,.,.,.,.,.E.1X1X8X9X8X;X=XQ.,.,.,.,.,.,.,.,.,.p   o @X>X>X>X>X] * H.p.A f.U.F.4.G K 6.",
"v.K.I.e.M.I.6.f.& 4 >X9X9X9X8X~   : ,.,.,.,.,.,.,.,.,.W.8X9X9X9X7X3X3X%X;.,.,.,.,.,.,.,.,.a   + >X9X9X9X8X[ + A.R.c.S J 5.F z.H.8.",
"C 3.I.U.V.e * o.,X,X8X9X9X9X8Xy   : ,.,.,.,.,.,.,.,.,.E.8X9X6X,X3X3X3X%X,.,.,.,.,.,.,.,.,.a   % -X9X9X9X9X4X,X+X2 , H C 3.y.F.(.k.",
"F 3.G.G.v.1   o.9X9X9X9X9X9X7Xy   : ,.,.,.,.,.,.,.,.,.W.8X9X6X,X,X,X3X%X,.,.,.,.,.,.,.,.,.a   + -X9X9X9X9X9X9X#X    F.J.x.0.C l.P.",
"3.v.F.l.l.1   o.9X9X9X9X7X4X>Xr   : ,.,.,.,.,.,.,.,.,.W.8X9X6X,X,X,X3X%X,.,.,.,.,.,.,.,.,.p   o #X4X6X9X9X9X9X#X    R._.J.k.S L.l.",
"d e.c.S.l.e & o.1X3X7X9X6X,X>Xr   > >.>.>.>.>.>.>.>.>.W.7X9X4X,X,X,X,XOX;.>.>.>.,.>.>.>.,.p   + #X,X6X8X8X4X4X+X1 1 H.F.v.k.F f.6.",
"e.S 3.c.9.3.S.K.& 4 $X4X4X3X>Xr   - #.#.@.@.#.#.@.+.+.i.,X3X3X1X3X,X,XOX+.@.+.O.@.@.+.+.@.i   + #X4X3X4X>X[ & ] Z k.H.q.C 0.S G 3.",
"].f.c G 4.g.L.l.* 5 oX$X$X$X#X] * 7 g l z O.O.O.O.O.z i.*X=X=X=X=X=X=XY.O.O.O.O.O.O.O.a l h , 5 oX$X$X$X#X~ * G D k.k.F A v.R.R.H.",
"R._.9.G s.f.N.c.M.H.w + % % & A t.(.o . p O.O.O.O.+.+.@.&.*.*.&.*.*.*.#.O.O.O.O.+.O.l - . } 9.4.w o % % & H.S.8.s.5.V q.P.(./.v.Z.",
"Z.I.S.4.G s.x.x.^.m.~ 2 2 2 3 q.v d.    j m m m m m m b a g g a a a g k n n n n n n k O   ..1.6.~ 2 2 2 3 6.6.0.!.(.n.8.G T.V.u.Z.",
"w.V.f.f.J.8.N k.k.F y.V.H.!.F.H.f.s X   W ` ` ` ` ` ` ! X . . . . . . U .X.X` ` ` ` _ #   ..f.l.q.Z C z.k.F k.P.B.~.J.g.v 5.t.~.G.",
"P.q.5.V.`.L.L x J H J.H.F.K.F.P.s.4.    E  X X X X) Q Q 3 3 3 3 3 3 3 T / / |. X|. X) #   ..e.].^.k.V s 5.L.~.N.z.^.U.x.3.v.G.H.G.",
"4.5.N.H.F.~.^.n.H s.^.P.N.G.x.9.J 5..   E  X X X X<   8 ^.9.G n.U.F.x.v.  # ( XX X X) #   ..V.H.~.(.J.2.D m.~.l.V.H.q.S H c.H.N.F.",
"v K.^.z.z.z.k.c.s.3.f.6.F 3.G 3.e.f.    E XX XXX X<   5 v.s.J 8.q.5.6.F   @ (  X X X) @   ..~.l.q.y.x.q.L 7.6.F 3.c c f.x.F 1.6.k.",
"s.m.J.N.q.5.5.C a.9.l.3.C f.d.s.G.`.    E XXXXXX X,   3 Z J 0.b.z.C q.x.  X (  XXXXX) @   ..J.z.F A F F 7.v.k.Z 5.6.6.R.{.x.f.1.F ",
"5.A k.m.S q.^.H.q.c././.~.{.D.4.F.F.    I Q / Q Q T 8 } P.J.N.k.[.V.L./.8 q Q Q Q Q Q X   ..v.S 5.F.(.F.q.N.^.^._.R.e.6.I.R.}.x.F ",
"/.S.H c s.L.(.!.U.5.7.N.G.S.3.3.5.y.      X       C k.`.}./.V.L u.J.T.J.4.A *   X         ..H J P.H.`.^.k.7.r.P.J.N.c c l.f.K.4.c.",
"I./.G.s.f.G.I.M.I.M.F c.D.L L q.k.q.              6.l.I.M.Z.A.u.0.F.f.F F k.*             ~ z.S I.Z.M.Z.V.e.e.D.4.9.q.q.q.A A x.~.",
"l.G.K.k.3.6.l.N.M.I.6.A H f.^.).                  9.1.f.N.G.V.u.D H L b.^.`.$                 + 2.e.V.G.G.e.H H 3.S./.`.^.k.0.k.G.",
"f.N.F.x.4.3.c.R.l.U.f.A 5.J./.J.e e Y e e Y Y Y t 5.v 6.S.I.K.G.L L s.~.`.G.^ e Y Y Y Y e Y e ~ 1.l.F.G.F.c.8.4.S.R./.G.G.N.q.F e.",
"S A D J 8.3.8.a.S.c.3.C q.k.v.F.M.V.U.S.5.A J D Z 3.3.4.8.9.w.l.L D L b.N.v.V.H.R.c.8.S S 3.3.8.C 8.q.f.x.f.3.S f.c.l.l.F.P.F.k.4.",
"s.8.6.n.J.x.H x V V 3.q.6.V V z.U.v.k.e.8.0.g.4.q.G.K.s.G A 1.q.x.0.L Z e.U.U.N.q.9.a.a.8.3.f.R.c.3.x v 9.q.9.c.N F z.L.V.k.q.r.6.",
"P.T.R.^.^.P.x.3.v.F.`.`.^.N.5.x.c.0.1.5.6.k.T._.G././.c.0.s.S.P.^.~.L.5.3.N.f.C 1.6.f.S.R.R.K.U.'.x.G 6.F.K.K.{.z.5.q.x.s.D F 0.p.",
"f.N.G.l.z.N.l.5.R.R.U.z.N.m.L P G K k.P.K.q.6.S.B.u.N.N.q.q.J.~.H.L.(.x.L q.J 5.U.U.x.9.m.R.G.u.F.l.s.S.`./.G.M.(.q.S 8.8.0.F.~.7.",
"c e.G.V.Z.I.N.1.5.k.I.Z.G.J.8.P p.P q.J.H.6.1.G.A.u.G.R.q.Z r.V.Z.u.F.k.5.P B p.6.U.F.C 6.K.Z.z.U.D.6.C e.G.V.B.V.5.5.s.J 0.v.L.N.",
"3.f.I.M.B.M.4.3.4.4.f.g.M.6.6.^.~.k.G 3.K.z.3.S.B.B.M.g.5.3.3.4.l.l.S.F c.^.P.6.G k.F.s.5.N.K.B.V.q.3.3.H 0.c.l.x.1.V.^.L.A H V.Z."
};
