/* XPM */
static char *_390_9e6774232a7f92d329df50e0278313816e24203bc222560cb6561a4146838e96[] = {
/* columns rows colors chars-per-pixel */
"65 65 211 2 ",
"   c #010101",
".  c #090708",
"X  c #050809",
"o  c #1A0606",
"O  c #090C10",
"+  c #0E1316",
"@  c #131517",
"#  c #1B1B1B",
"$  c #260B0B",
"%  c #320E0E",
"&  c #351617",
"*  c #0E1725",
"=  c #121B2E",
"-  c #111D30",
";  c #2D1E2C",
":  c #1A2426",
">  c #16233A",
",  c #252525",
"<  c #232C2E",
"1  c #2C2C2C",
"2  c #312F2F",
"3  c #232E31",
"4  c #2B373A",
"5  c #353434",
"6  c #363839",
"7  c #3A3B3B",
"8  c #491616",
"9  c #5A1A19",
"0  c #651D1D",
"q  c #6A1E1F",
"w  c #67351C",
"e  c #6D3B1C",
"r  c #733F1C",
"t  c #6D1F20",
"y  c #4A3234",
"u  c #5C3535",
"i  c #692726",
"p  c #792323",
"a  c #6D3C23",
"s  c #713E24",
"d  c #713E2A",
"f  c #68393A",
"g  c #73421B",
"h  c #6F4228",
"j  c #744325",
"k  c #784726",
"l  c #7A4927",
"z  c #75442A",
"x  c #79472C",
"c  c #77482D",
"v  c #7C4A2C",
"b  c #7A4632",
"n  c #7D4C32",
"m  c #7A4836",
"M  c #7E5034",
"N  c #7E5139",
"B  c #1D2D4C",
"V  c #1E3050",
"C  c #313344",
"Z  c #233858",
"A  c #273E66",
"S  c #593E40",
"D  c #34464A",
"F  c #3E5459",
"G  c #424343",
"H  c #4C4C4C",
"J  c #4E5A5D",
"K  c #545353",
"L  c #5D5555",
"P  c #5C5C5C",
"I  c #694948",
"U  c #7B4444",
"Y  c #47466E",
"T  c #48466E",
"R  c #54696E",
"E  c #666666",
"W  c #686868",
"Q  c #6B6B6B",
"!  c #647175",
"~  c #727373",
"^  c #7C7C7C",
"/  c #832525",
"(  c #81272A",
")  c #872728",
"_  c #8A2728",
"`  c #8D292A",
"'  c #952B2C",
"]  c #9B2D2D",
"[  c #8D3A39",
"{  c #933737",
"}  c #A22E2F",
"|  c #A92E2F",
" . c #AB2F30",
".. c #A63030",
"X. c #AB3132",
"o. c #B43435",
"O. c #B93636",
"+. c #B73B3B",
"@. c #814E2D",
"#. c #83522D",
"$. c #814E33",
"%. c #814E39",
"&. c #845334",
"*. c #895635",
"=. c #8A5935",
"-. c #85533A",
";. c #89563B",
":. c #87593B",
">. c #8C5B3C",
",. c #915D36",
"<. c #915E3E",
"1. c #8F613F",
"2. c #906137",
"3. c #94633D",
"4. c #99663D",
"5. c #864641",
"6. c #865644",
"7. c #895641",
"8. c #8D5B42",
"9. c #915E43",
"0. c #9A514B",
"q. c #925F49",
"w. c #AA5454",
"e. c #946343",
"r. c #996645",
"t. c #9B6A44",
"y. c #95644A",
"u. c #99664B",
"i. c #9D6B4B",
"p. c #996B4D",
"a. c #986851",
"s. c #9E6C52",
"d. c #A16D45",
"f. c #A16E4C",
"g. c #A37146",
"h. c #A3724C",
"j. c #A87549",
"k. c #A9744E",
"l. c #AB794F",
"z. c #B07D4E",
"x. c #A26E52",
"c. c #A26E5A",
"v. c #A57353",
"b. c #A97554",
"n. c #AC7A55",
"m. c #A6745A",
"M. c #A9765A",
"N. c #A7795A",
"B. c #AC7B5B",
"V. c #B17C55",
"C. c #B17D5B",
"Z. c #AD6767",
"A. c #AD7B61",
"S. c #B17E62",
"D. c #B17473",
"F. c #CB7575",
"G. c #B7865A",
"H. c #B2815C",
"J. c #B48363",
"K. c #B98665",
"L. c #BA8964",
"P. c #B5836A",
"I. c #BA856C",
"U. c #BC8A6B",
"Y. c #B88872",
"T. c #C1916B",
"R. c #C18F71",
"E. c #C49273",
"W. c #2F4E82",
"Q. c #314F83",
"!. c #335085",
"~. c #7C7F80",
"^. c #788589",
"/. c #7F9EA6",
"(. c #848383",
"). c #8C8C8C",
"_. c #918D8D",
"`. c #929292",
"'. c #939798",
"]. c #9B9B9B",
"[. c #B88E8E",
"{. c #A19F9F",
"}. c #BB9594",
"|. c #A4A4A4",
" X c #ACACAC",
".X c #B3ADAD",
"XX c #B5B4B4",
"oX c #BCBCBC",
"OX c #C68F8E",
"+X c #C5A9A8",
"@X c #C6BCBC",
"#X c #E4B7B7",
"$X c #8AB9C6",
"%X c #9BC0C9",
"&X c #A7DAE7",
"*X c #C4C3C3",
"=X c #CDCDCD",
"-X c #D1C5C4",
";X c #D3CACA",
":X c #D2D2D2",
">X c #DCDCDC",
",X c #EAC7C5",
"<X c #E1DCDC",
"1X c #DFE1E1",
"2X c #E4E3E3",
"3X c #E8E3E3",
"4X c #ECECEC",
"5X c #F2EFEF",
"6X c #EBF3F5",
"7X c #F4F4F4",
"8X c #FEFEFE",
/* pixels */
"m y.v.,.2.3.&.u.N.M 9.I.c.*.<.k.i.N.8.:.c.q.n a.b.*.f.@.c A.q.M N.I.f.e N.H.h.n.a s.m.l e.v.*.t.h.v r.N.-.>.K.N.q.M J.B.J.e.n c.d.",
"b n u.v.=.k 1.L.B.>.;.9.9.u.b.b.r.1.v v $.n m 8.f.i.;.@.v.E.N.M v e.y.#.n.h.&.3.-.h x $.j <.B.<.j &.N.I.v.*.>.u.q.M N.e.>.*.$.6.%.",
"i.x z y.-.v i.l.n.d.>.$.d d 9.C.l v >.>.-.8.e.z c u.x >.B.i.b.i.x z -.>.N.r.l k >.2.>.t.*.s r.;.z b.C.h.n.>.a %.:.;.A.>.k &.>.-.,.",
"G.i.z b -.e.H.2.2.b.n.9.@.@.@.$.x v.L.H.n.U.I.>.h -.j i.b.&.i.G.N.n c c n N 7.B.b.G.H.J.B.$.b $.N B.t.#.n.C.8.-.z &.q.v <.J.J.B.S.",
"l.U.y.m N 8.v.h.f.V.d.@.<.C.x.x -.N.H.h.b.H.J.B.y.c v u.b.v.n.h.1.M t.v.:.c c c L.g.l.b.C.M.8.z 7.s.f.t.H.B.e.N i.v.M h v.U.n.B.k.",
"h.G.t.&.:.&.&.u.K.4.@.*.f.C.J.v.n ;.>.S.C.r.4 t.t.n >.&.&.N.v.&.M :.H.OXB.8.>.M 4 P.y.t.C.S.-.:.8.&.r.N.i.#.*.1.L.T.e.M -.3.*.h.f.",
"N.>.2.3.v.i.c b *.k 3.L.G.h.v.b.,.B.*.3.b.d.  4 *.r.N.=.j &.&.-.n.f.t.B.v.f.N.e.  J V.h.b.<.-.B.>.j v 7.-.N v.H.g.H.v.e.k :.x.H.j.",
"y.j e.H.H.J.8.m s 9.H.l.=.j.L.d.T.S.J.l D J `.~.D *.&.v.f.v.t.h.l.p.z j 8.v.D !  X^ D h.@.k K.C.T.i.$.z ;.v.B.t.t.f.h.v.c s.J.e.b.",
"M e.G.H.t.N.J.y.$.7.B.i.e.x.8.d k.i.B.N.  6 >X].  4 k.d 6.m.i.e.l.>.>.>.C.b.  Q 8X`.  y.7.N.B.i.k.V.M.7.$.x.C.<.h.e.z z m -.a.v.b.",
"v s.l.i.h.2.v -.$.@.9.*.k x z 7.3.h.n.m.  7 >X X5 6 F q.c z e l >.M v v F ! '.*X8X`.  $.8.N.M.h.<.*.;.&.$.;.*.s g v ;.v.s.-.&.v ;.",
"v =.f.h.#.v 1.e.;.>.f.9.&.y.q.q.g r.v.x.  7 >XXXK 5   D >.u.:.e.n.x.>.<.  E 8X8X8X_.  n &.s.v.e.r @.>.;.;.x.M.9.p.e.-.s.U.P.v.v v ",
"t.M >.>.v 3.U.L.f.u.x.C.K.I.x.$.3.j &.#.  5 *XoX].~ < 6 y.U.P.C.M.e.i.! (. X3X5X8X`.  e.=.#.&.j <.V.R.b.9.c.S.S.J.H.e.:.8.m.K.v.$.",
"J.B.:.j e.J.H.H.H.=.&.B.J.e.v z J.v =.&.. 2 .X@X1XXXK 5   =.N.B.>.v   P 8X5X-X2X8X`.  B.J.&.>.x K.V.J.K.x.&.9.S.v.3.h g >.r.e.c b.",
"N.H.v.1.>.i.v.e.H.r.#.>.-.v e.i.e.n B.N.  5 .X@X>X X1 #   : &.9.:.r.~ {.3X<X;X3X8X_.  B.K.N.B.&.r.r.t.b.b.>.-.a.c >.i.H.t.j v >.B.",
"3.e.J.N.j x h.t.h.n.e.x c u.E.H.&.n v.B.  5 .X*X2X].              P 8X5X;X;X;X<X8X_.  i.>.B.v.n &.f.v.d.f.f.-.c p.v.N.L.G.i.e.>.k.",
"2.t.e.>.&.M 3.H.t.j.*.&.:.v.L.r.z q.$.i.  , `.{.XX`.E H , , , , , E *X*X;X;X;X2X8X`.  e.3.i.M 8.d q.x.f.v.i.&.-.y.J.H.g.i.h.f.v -.",
"h h x &.>.n z N -.y.v x >.-.u.m.c &.c $.  @ E E E `.8X:XQ E E E E E E _.;X;X;X2X8X_.  n d $.@.$.@.%.n b m.M g :.n e.t.v.H.3.J.e.@.",
"p.p.e.k.J.b.:.z c 9.e.y.e.j c v.J.U.x.8., 5 E E E `.8X=XQ E E E E E E (..X.X.X=X8X_.  8.B.7.x.T.S.>.n x :.:.p.N.-.j 3.b.i.e.M 8.<.",
"s.H.B.v.n.b.e.M v.H.J.J.J.i.v 2.B.b.. # P ! E E E `.8X:XQ E E E E E W W W Q W  X8X`.  9.S.f.S.b.C.r.9.m.N.U.L.H.H.*.:.e.N >.c t.$.",
":.f.v.4.t.k.e.&.v.v.H.x.N.H.&.k i.=.X , ).^.^.D.E `.8X:XE ~ ).).).^ E E E E E `.>X^   ;.9.f.l.,.i.f.v &.v.G.t.h.h.r.z N c *.H.L.9.",
"j 3.h.g.V.C.e.j x =.v.r.e.e.&.e.n.G.X 7 6X7X8X:XQ `.8X=XE '.7X8X8X*XQ Q E W E Q ~ 7   9.@.f.f.C.B.b.n @.>.v.t.j.3.>.q.q.y.-.i.g.h.",
"z e.v.N.b.r.=.&.&.&.i.B.i.>.3.J.r.h.  7 6X6X2X*XW `.8X:XE '.7X7X3XXXE E W E W E W 7   u.$.C.d.f.r.v N q.x >.h.4.i.l P.H.m.9.j 3.h.",
"c 8.h.x.>.j -.N.B.8.&.v.s.&.y.M.u.#.X 4 &X%X~ ~ E ).8X:XW ^.&X$X~ Q E W E W E E E 7   ;.$.n.t.#.y.&.s.A.8.>.B.H.e.j H.B.t.r.v N.>.",
"c N 8.p.e.M 8.Y.J.u.c 8.e.-.v.M.j l.X 3 $X/.W Q ^ |.8X=XQ ^.$X/.W W W E W E E E Q 7   n $.#.r.b.j :.A.P.A.c k >.8.e.h.h.v #.z n [ ",
"J.v z :.n >.n.f.r.N.u.c c -.y.m.k 6.X   + 1 E ).4X7X8X=XQ H @ 5 W W W E W E W E W 7   b.r.v d 6.k h.g.3.n.v.&.n N 7.s.7.a :.v.t.f.",
"H.h.>.c &.s.s.2.e.v.v.y.>.v s s 9.N X . + 1 Q ].8X8X8X:X~ K X < W W E W E W E W E 7   J.K.x.$.$.1.N.t.=.f.B.e.:.>.z h N A.Y.J.H.C.",
"h.T.b.z n 8.9.s.N.B.y.v *.J.N.e.< @   5 =X>X3X4X8X8X8X8X3XoXP P E Q W E E W W E Q 7   d.C.b.;.s v e.N.H.H.x.>.v v.U.x.g e.U.N.y.k.",
"t.B.t.;.8.-.n y.N.=.M r.v.B.>.n X     G 8X8X8X8X8X8X8X8X8X=X~ Q Q Q W W W E W E E 7   b.f.4.3.e.8.M =.i.>.*.1.t.h.L.H.=.l v 1.B.k.",
"t.2.=.f.H.s.n d k x i.K.n.f.a -.X     7 7X8X8X8X8X8X8X8X8X7X2X>X>XXXE E E E W P K 2   @ < v.e.L.A.-.a h z e.H.n.h.j.b.e.M :.N.H.k.",
"3.&.e.b.N.J.N.-.g r.J.i.>.N.u.N.X     G 7X8X8X8X8X8X8X8X8X8X8X8X8X=XQ W E E W P K 1       R v.c J.m.u.n n N.J.r.l.h.i.:.k r.L.i.M.",
"-.r.N.v.y.s.N.x.>.1.e.e.u.-.b.B.X # ~ ].8X8X8X8X8X8X8X8X8X8X8X8X8X5X>X|.K K K K H f / / / u 4 c b.B.v.-.m u.v.>.e.c h :.>.v >.r.f.",
"n y.n.N.t.*.v x &.>.v c &.n c x X , ].oX8X8X8X8X8X8X8X8X8X8X8X8X8X8X8X@XH H H H H U o.O.O.9   m.M 6.b -.8.7.m z d :.7.s.J.x.M g @.",
"#.:.m.8.N c v.h.>.e.L.h.r.J.N.8.  1 oX=X*X*X*X*X*X:X8X8X8X8X8X8X8X7X3XXXH H H I %.] ] } o.' p u D -.v.>.=.U.L.t.G.t.3.3.k.H.K.t.m ",
"g.=.c c -.H.U.G.M.&.e.B.K.J.T.S.X 5 >X=X|.{.|.|.|.oX8X8X8X8X8X8X8X7X2X|.H H H U O.} / ] o.o.O.9   n e.J.e.&.t.B.K.i.;.n 8.A.b.$.;.",
"L.H.e.e.-.B.H.h.I.e.&.h.t.#.n.J.i.:.P ^ :X>X>X:X:X3X8X8X8X8X8X7X4X2X1X|.H I 5.{ ' ` / ] o.o.O.0   n M L.b.&.i.A.-.8.;.%.%.;.-.;.V.",
"r.H.H.f.v >.e.f.i.h.&.&.v &.r.v.>.n   7 7X8X8X8X8X8X8X8X8X8X8X7X>X>X1X|.H U O.} / / / ] o.o.o.9   N.b.t.v.>.-.n n a.M.S.c.-.x a.b.",
"9.x.h.*.&.&.x.B.i.B.;.x ;.C.E.r.l n e.B.^ ~.^ ].4X4X4X4X4X4X5X3X<X-XOXD.U [ ] ] ] ' / ` ] ..O.9   b.E.b.b.a.n -.b.C.C.L.L.f.#.*.d.",
"N :.1.v =.x >.u.x.v.&.j -.u.x.x v >.;.e.      7 >X>X>X>X<X<X1X>X2XOXo.o.O.} / ] O.} / / / ] O.9   i.x.i.s.u.x 8.r.b.d.4.d.V.t.*.$.",
"d b M =.i.&.b n &.&.;.-.-.@.@.C.V.q.-.n   o % u [.+X>X-X[.[.[.[.}.Z.] } ] ] ' } o...] ` / p 0 S V.C.&.$.;.&.x l $.;.r.d.d.x.m.a.-.",
"Y.A.u.H.E.P.%.b *.8.A.J.c.;.s x.l.E.N.q.  $ / / p c.>X+X/ / / / / _ / / / ] o.o.o.o.o.} _ 8   *.l.x.s -.e.v.T.B.6.z 9.C.v.%.m m *.",
"u.N.B.,.h.V.*.<.C.C.C.V.V.b.9.*.h.<.b.B.  & D.Z.' 0.+XD.' 0.D.w.] ' ' ' ' ..o.o.o.] p 0 9 y 8.a ;.z 8.m.J.n.b.z.S.u.c n $.v t.n.;.",
"j $.C.C.f.C.i.x <.f.k.k.b.b.7.M.B.k..     G 7X,X+.../ ' o.F.8X#Xo.o.o.o.o.o.o.o.O.0       J.e.M C.B.;.@.b.J.g.d.b.q.n c $.e.v.L.e.",
"v &.b.b.f.b.r.s $.>.t.d.<.@.>.f.x.f.H 5   G 8X,X+...' ]  .F.5X#Xo.o.o.o.o.o.o.} / f G H G ! g 3.b.i.x e $.t.r.e.>.-.v.v.u.&.l r.n.",
"$.i.k.e.u.<.@.e.;.$.u.T.V.@.<.@.X 7 7XoX. D 8X,X+.o.o.o.O.F.<X+Xo.o.o.o.o.o.O.t   E 8X8X8X(.  h.C.U.9.x.$.$.b.B.e.#.B.K.b.q.c N.r.",
"e 9.a.x.e.x *.S.A.;.$.x.v.<.N.x 6 E 7XoX  G 5X,XX.X.X...| Z.@XOXo.o.o.o.o...` i , ).8X8X8X|.5 y.r.C.b.R.9.$.f.m.e.*.N.v.i.y.c e.;.",
">.l $.y.;.$.x.b.C.f.%.d j h.+ 7 4X4X2X|.. 7 >X+X` / ) ) _ ) ) ] o.o.o.o.o.p   P :X3X8X8X8X7X7X(.  B.b.b.v.<.l $.k 3.B.>.x *.x c $.",
"T.9.a n -.0.C.9.<.x.N.;.b 3.X 6 7X7X2X|.  y @XOX` _ _ _ _ _ _ ' X.X.o.o.o.t   P 1X3X8X8X8X8X8X(.  ;.k.3.n.n.-.c c e.r.v k i.S.S.b.",
"H.F.-.b 8.q.d.f.d.V.m.q.-.4.  5 7X8X1X|.. % +.w.o.o.o.o. .o.o.} _ ] o.o.o.i   P >X<X1X4X8X8X8X(.  c t.4.t.N.v.;.8.&.j =.B.U.K.u.l.",
"j.H.i.-.b 8.y.e.J.p.>.g 2.J.: D >X>X1X|.  % o.o.o.o.o.o.o.o.o...) ] X.o.o.p . L *X=X>X4X8X5X3X~.+ =.i.J.v.:.*.*.G.L.s.%.b S.f.4.k.",
"=.h.3.8.v.:.h e.e.M <.k.3.r.l k , H >X|.X % X.o.o.o.o.o.o.o.o.o.X.} _ ] o.X.} i @ ~ >X<X3X(.# w q.v.b.r.3.M e.B.g.H.m.q.d &.3.H.k.",
"B.>.&.h.U.N.M h n n v.C.$.e r <.+ 6 *X].X % } ..o.o.o.X.o.o.o.o.o.} / ' o.o.o.q   L :X=X=X~ . $.8.B.v.e #.v.H.x.t.J.C.y.%.u.l.l.b.",
"-.-.i.n.v.H.J.u.n 8.S.B.f.m.r.K.J.n.1 #     o 8 _ ` _ ` ` ` _ ` _ _ / ) _ _ ` 9   + , , , x.u.$.n P.b.#.M p.H.r.h.N.>.x b t.M.f.v.",
"d M.J.i.t.r.9.y.0.$.9.*.v $.z 9.>.t.O X .     $ p ( ( ( ( ( / p ( ( ( ( p ( ( 8     X .   @.@.>.8.3.e.>.#.&.*.v #.s s 9.u.z $.*.e.",
"8.u.b.i.1.*.M j :.;.r.&.l 9.9.j x u.n.h.<.<.  * T T Y Y T C o ; T T T T Y Y T C   a.a $.;.&.f.R.v z v v =.x.e.k &.&.>.S.R.t.q.@.n ",
"-.j u.s.x >.J.H.>.u.K.J.S.R.c.%.*.v i.9.l 9.  * Q.Q.Q.Q.!.Z   - W.Q.Q.Q.Q.Q.!.B   s.n -.q.S.a.v &.v.U.v.>.x.H.J.I.S.<.*.b.S.E.u.c ",
"K.x.n a ;.B.L.G.C.&.;.d.n.f.%.$.M.b n x f.R.. * Q.Q.!.A = c.P.b.* B Q.Q.Q.Q.!.B   b Y.Y.s t.n v N.n.U.K.e.=.1.B.m.f.s s r.9.B.%.u.",
"B.S.b.8.9.b.V.f.V.d.x y.v.M M :.C.l t.V.V.G.  * W.!.!.Z   x 3.v.  = !.Q.Q.!.!.B   G.n.H.i.z i.x C.j.d.l.v.<.<.c.%.7.;.<.>.k z y.H.",
"9.b.B.e.$.*.e.f.d.V.>.z m e.J.K.@.9.b.B.d.f.  * Y !.!.Z   i.n M x 3.- V Q.Q.!.B   t.g.v.i.&.b.>.@.<.f.n.b.<.n n $.x.J.R.H.e.&.y.b.",
"9.k.m.y.$.$.i.S.r.B.9.j &.N.K.v.@.x u.m.q.>.  * W.!.!.Z   J.B.n N b.  - Q.!.!.B   v.u.;.&.>.u.b @.r.v.b.v.r.;.%.x.S.S.n.b.x.>.n <.",
"@.x c n -.$.%.7.x.i.$.x :.e.i.v.x %.$.$.x @.. O - B > Z t.u.&.r.M r.>.;.> > > *   c m c &.v.$.-.x %.:.9.u.8.$.x 9.u.r.r.h.B.v.e.%.",
";.%.;.u.m.u.n a z j @.*.;.j j r.u.S.q.n -.:..         C.x z $.>.y.>.$.x           %.q.;.*.<.9.S.u.$.a z 7.;.;.u.g v e.N.v.3.>.1.;.",
"A.C.J.J.J.M.y.$.u.v.U.R.J.f.&.u.I.A.b.S.S.s.          v.-.8.f.B.J.B.f.>.          I.B.u.;.$.n.C.I.u.x -.x.B.B.U.r.&.>.u.>.c v :.-.",
"9.f.v.r.t.d.r.&.J.S.C.r.i.s.N N z n e.J.              ;.:.>.b.H.n.H.              x.*.;.b.B.b.4.v.u.8.x.U.K.b.t.L.>.c &.&.:.v.J.>.",
"s 4.b.f.l.V.f.@.&.e.C.k.b.b.-.N 6.d.b.M.&.x v.C.=.6.z N &.e.v.4.l.i.>.v >.J.h.4.z.x.@.*.B.b.b.4.S.x.&.x <.v.j.g.k.=.-.8.n :.i.N.f.",
"b 9.V.d.k.d.%.$.%.%.<.q.d.;.*.S.C.e.b x.M.t.$.x.j.j.d.q.$.$.$.%.r.r.f.x u.S.C.;.b r.v.;.*.x.b.j.f.>.$.n n :.u.t.y.v b.J.N.z v h.k."
};
