/* XPM */
static char *_3953_6a2bced8378f5806e8093e6147fa16d3ae6283e3b538c323f4a34313e6713010[] = {
/* columns rows colors chars-per-pixel */
"65 65 220 2 ",
"   c #000101",
".  c #080606",
"X  c #090A0B",
"o  c #140505",
"O  c #150B0A",
"+  c #1C0909",
"@  c #050910",
"#  c #0D1213",
"$  c #131313",
"%  c #151B1D",
"&  c #1A1A1A",
"*  c #260B0B",
"=  c #2F1313",
"-  c #381515",
";  c #171D23",
":  c #131929",
">  c #251F20",
",  c #1A2325",
"<  c #1D272A",
"1  c #132137",
"2  c #16233A",
"3  c #242626",
"4  c #212A2C",
"5  c #2C2C2C",
"6  c #352526",
"7  c #2E2333",
"8  c #232E31",
"9  c #283336",
"0  c #29373A",
"q  c #2A393C",
"w  c #343434",
"e  c #3B3C3C",
"r  c #441414",
"t  c #4C1717",
"y  c #5D1B1B",
"u  c #6D3B1C",
"i  c #723E1D",
"p  c #6E1F20",
"a  c #492223",
"s  c #602424",
"d  c #772425",
"f  c #7D2424",
"g  c #6E3C23",
"h  c #713E24",
"j  c #713E2A",
"k  c #74421C",
"l  c #6F4228",
"z  c #744324",
"x  c #784727",
"c  c #7A4927",
"v  c #75442A",
"b  c #79472C",
"n  c #77492C",
"m  c #7C4A2C",
"M  c #7A4633",
"N  c #7D4C32",
"B  c #7A4937",
"V  c #7E5034",
"C  c #7E5139",
"Z  c #1B2B47",
"A  c #1E2F4E",
"S  c #2B3B43",
"D  c #2B3553",
"F  c #263D65",
"G  c #374548",
"H  c #374B50",
"J  c #364A53",
"K  c #35426A",
"L  c #2C4876",
"P  c #404041",
"I  c #484A4B",
"U  c #455256",
"Y  c #545454",
"T  c #505658",
"R  c #5A5A5A",
"E  c #675150",
"W  c #435B61",
"Q  c #464770",
"!  c #474872",
"~  c #586B70",
"^  c #666565",
"/  c #6A6A6B",
"(  c #737373",
")  c #727374",
"_  c #7C7B7B",
"`  c #842526",
"'  c #892627",
"]  c #8A2728",
"[  c #82292B",
"{  c #8C2A2A",
"}  c #952B2B",
"|  c #9C2D2D",
" . c #8C3535",
".. c #943737",
"X. c #A42E2F",
"o. c #A82F30",
"O. c #B02F30",
"+. c #A43536",
"@. c #AD3233",
"#. c #B43434",
"$. c #B73A3B",
"%. c #814E2D",
"&. c #83512D",
"*. c #814E33",
"=. c #814E39",
"-. c #845334",
";. c #885635",
":. c #8A5935",
">. c #85533A",
",. c #89563B",
"<. c #86593A",
"1. c #8C5B3C",
"2. c #915C37",
"3. c #915E3E",
"4. c #8F613F",
"5. c #96643A",
"6. c #94633D",
"7. c #934343",
"8. c #875542",
"9. c #8D5B42",
"0. c #915E43",
"q. c #92564E",
"w. c #925F49",
"e. c #AB4D4C",
"r. c #B95453",
"t. c #8F6046",
"y. c #946344",
"u. c #996645",
"i. c #9B6A44",
"p. c #95644A",
"a. c #99664B",
"s. c #9D6B4B",
"d. c #976651",
"f. c #9E6C52",
"g. c #9E7151",
"h. c #A16D46",
"j. c #A16E4C",
"k. c #A77549",
"l. c #A3724C",
"z. c #A9744E",
"x. c #A16E52",
"c. c #A26E5A",
"v. c #A47353",
"b. c #A97554",
"n. c #AC7A55",
"m. c #A5745A",
"M. c #A9765A",
"N. c #A7795A",
"B. c #AD7B5B",
"V. c #B17C55",
"C. c #B17D5B",
"Z. c #B46C6C",
"A. c #AD7C62",
"S. c #B17E62",
"D. c #C25E5D",
"F. c #C66463",
"G. c #C47775",
"H. c #B7865B",
"J. c #B2825D",
"K. c #B48263",
"L. c #B88665",
"P. c #BA8965",
"I. c #B58369",
"U. c #BA856C",
"Y. c #BC8A6B",
"T. c #AE8372",
"R. c #B88872",
"E. c #C08F64",
"W. c #C1916C",
"Q. c #C18F71",
"!. c #C49272",
"~. c #C9977B",
"^. c #314F84",
"/. c #325085",
"(. c #788B8F",
"). c #858484",
"_. c #8C8C8C",
"`. c #949494",
"'. c #959898",
"]. c #9C9C9C",
"[. c #A29D9D",
"{. c #BA9493",
"}. c #87A7AE",
"|. c #A4A3A3",
" X c #A4A9AA",
".X c #ACACAC",
"XX c #B4B3B3",
"oX c #BAB3B3",
"OX c #BCBCBC",
"+X c #C88383",
"@X c #D29493",
"#X c #C8A7A7",
"$X c #D0AAA9",
"%X c #C6BDBD",
"&X c #D6BDBD",
"*X c #E0A6A5",
"=X c #8CBBC6",
"-X c #D6BFC0",
";X c #99C2CC",
":X c #BFC1C1",
">X c #A6D9E6",
",X c #C3C3C3",
"<X c #CCC4C4",
"1X c #CBCBCB",
"2X c #D5CCCC",
"3X c #DBC9C9",
"4X c #CDD7D9",
"5X c #D4D4D4",
"6X c #DAD2D2",
"7X c #DAD8D7",
"8X c #DDDCDC",
"9X c #E9CCCC",
"0X c #E9DFDF",
"qX c #DEE0E0",
"wX c #E2E2E2",
"eX c #E3E9EA",
"rX c #EDECEC",
"tX c #EEF3F4",
"yX c #F4F4F4",
"uX c #FEFEFE",
/* pixels */
"B p.v.2.5.5.-.a.N.V 0.U.c.;.3.z.s.N.9.<.c.w.C d.b.;.h.%.n A.p.B N.P.s.u v.J.l.n.h f.c.m 0.b.:.i.l.m u.N.;.1.K.N.t.N J.B.K.y.M m.u.",
"M N a.v.:.x 1.P.J.1.,.0.0.a.b.b.u.3.m m =.N N 8.j.s.,.*.v.Q.N.V m y.s.-.n.v.:.6.>.h m *.x 1.B.1.z -.N.U.v.;.9.s.p.V N.y.1.>.=.>.=.",
"s.n v p.>.m g.k.n.j.1.*.h b 0.C.c m 1.4.;.9.0.b n s.x 3.N.j.l.s.n b >.1.N.a.z x 1.2.2.h.;.h p.,.v N.C.l.n.1.g =.,.,.A.1.z ;.1.>.2.",
"H.s.v M C y.J.5.:.k.n.y.*.m *.*.n g.P.J.n.Y.U.1.l C z s.n.-.s.J.m.V v v V V <.B.b.H.C.L.n.*.*.*.=.B.u.&.n.B.9.>.v =.y.N 3.K.K.B.S.",
"k.W.p.B C 1.v.l.z.V.h.&.2.C.f.b >.B.K.; # J.K.B.p.b n s.v.v.n.v.t.V a.N.>.N 9.R.E.l.H   C.M.9.v 8.x.j.i.J.B.y.C s.g.V z v.Y.n.n.z.",
"l.K.s.-.9.-.-.a.K.5.%.;.j.C.K.m.M ,.;.T Y i.s.K.p.N 4.;.-.m.v.;.V ;.B.~.B.9.n <.h.5.~ I S.S.>.<.<.-.u.N.s.&.;.4.P.W.u.V 1.9.;.v.k.",
"b.1.1.5.g.s.n M ;.x y.P.J.k.l.b.C 8 $ 2X8X, & v.;.y.n.<.z -.-.-.n.g.s.B.v.s.m V :.  ].uXY . ;.B.3.z m 9.>.>.f.J.i.J.v.y.z ;.g.J.k.",
"a.z 5.J.J.K.9.B h 0.H.z.:.k.P.h.d.< $ 6XrXI S u u.K.K.v.3.z v d.k.k.i.b.j.M.;.;.P.5 .XuXY   K.K.W.s.*.j >.v.J.i.h.k.g.v.n g.K.u.b.",
"V 6.J.J.i.n.K.a.*.9.n.j.0.c.1.j n < $ 5XuXtX1X, 9 h.j.b.C.3.1.1.n.u.s.m.>.j >.@ _.yXyXuXY   B.i.z.b.M.0.=.x.C.3.l.y.v b M >.s.f.b.",
"m l.n.h.l.1.m >.*.b 0.;.x b b 8.n.< $ 7XuXuX7X> < b.j.-.;.b %.*.:.m u v M p.A.  `.uXuXuXY   N.v.3.;.,.=.*.,.;.h z m >.c.f.,.-.-.>.",
"m ;.g.g.V c 1.u.1.1.j.0.;.p.w.w.K.4 $ 5XuX7X%X^ I , H %.1.3.,.v.n.4.<.f.p.& S Y [.6XrXuXY   l.u.i &.2.>.,.x.A.9.s.t.>.f.Y.I.g.m m ",
"i.V 1.4.c 6.Y.L.j.a.x.C.K.U.x.*.1.< $ 5XuX6X%X( R . 4 S.Q.L.u.y.N.J.I.Y.u.  e / |.2XrXuXY   ;.x 3.V.Q.b.0.x.S.S.J.J.y.<.9.N.K.v.*.",
"K.B.<.z y.K.J.J.J.:.;.B.K.y.m b m < $ 5XuX6X<XoX[.Y I 9 0 0 0 0 0 0 q 0 G I ).oX%X2XrXuXY   ,.n L.V.K.L.x.*.0.S.g.4.k k 1.u.y.n b.",
"n.J.v.t.1.s.v.y.J.y.&.1.>.m y.s.J.4 $ 7XuX6X2X2X%X) Y                   5 / [.2X2X2XrXuXY   B.>.u.u.j.b.b.0.>.a.n 1.g.J.u.z m 1.C.",
"6.6.K.N.z c l.i.l.n.y.n n a.!.J.!.4 $ 5XuX2X%X`.)./ R P P P P G P e P e Y ^ c._.oX2XrXuXY   v.M -.j.j.h.j.s.,.v s.m.b.P.H.s.y.1.z.",
"5.i.y.1.-.V 6.J.h.k.;.-.<.v.L.u.i.< $ 6XuX6X%X( ^ ^ / / / / ^ ^ ^ / / / / ^ ~ ~ [.2XrXuXY   *.0.x w.x.j.b.u.>.>.u.K.J.g.h.k.g.m >.",
"l l b ;.1.%.v C >.a.n v <.>.a.N.u.4 $ 7XyX.X`./ ^ ^ ^ / ^ ^ _ XX'.^ ^ ^ ^ ^ / ^ ).].8XuXY   b *.m *.M M m.C k V V a.s.l.n.6.K.t.%.",
"d.a.u.v.J.m.>.v n y.y.a.y.z n v.K.< X 8XyX_ ^ ^ ^ ^ ^ ^ ^ ^ '.uX1X^ / / ^ ^ ^ ~ ^ ^ 1XuXY   x.Q.S.9.N b >.1.g.v.-.z 6.v.g.u.-.1.9.",
"g.J.J.v.n.m.y.V v.B.K.K.K.s.m 1.u.v H '.|.) / '.].]._./ ^ ^ '.uX<X^ ^ ^ _ ].'.]._ ^ _.|.^ J C.b.S.u.0.m.B.Y.P.J.J.-.<.a.-.9.n i.*.",
"-.g.v.5.h.l.y.;.v.n.J.s.N.C.;.c b v a., @ W c.yXuXuXqX/ / ^ '.uX1X/ / ^ .XuXuXuX.X^ 5   0.l.b.2.u.j.m -.v.H.h.l.l.i.n V N <.n.P.y.",
"z 6.s.l.V.C.6.z n ;.v.u.6.y.;.y.p.1.V , @ T _ 5XqXtX4X) ^ ^ '.uX,X^ ^ ^ XXtXeXqX'.^ 3   -.h.j.H.B.n.*.*.1.l.i.k.5.1.t.t.p.-.s.j.l.",
"n 6.v.n.b.u.,.-.;.-.s.B.s.1.9.K.K.v.n , X R ^ / _ >X;X/ ^ ^ '.uX1X^ ^ ^ (.>X}.) / ^ 3   *.B.h.j.u.m -.0.m 1.l.5.s.n Y.J.N.9.z 6.l.",
"n 9.g.s.1.z -.A.B.9.;.v.g.>.y.B.g.g.;., X R ^ ^ ) =X}./ / _ |.uX1X_ ( ^ (.;X(.^ ^ / 5   *.b.5.&.a.V f.A.9.1.B.B.y.z J.n.s.s.m m.1.",
"M V 4.g.y.N 9.R.S.a.n 9.y.>.x.M.:.:.&., X R ^ / R % 5 R _.eXyXuXuXyXOX^ P $ P / ^ ^ 3   *.;.i.b.z <.A.T.A.v n 1.8.a.l.l.c &.z N  .",
"K.m z <.N 1.n.l.u.N.s.b n >.p.N.n B t., X ^ / / Y X & ^ `.rXyXtXrXyXOX/ P   e ^ / ) 3   u.m j 8.x g.l.6.n.v.-.M N 8.f.9.g <.v.s.j.",
"J.v.9.n =.f.s.4.y.v.g.a.1.m l g <.N.Y., & ,X2X( ^ Y / :X].e w w w w ( ,X_.Y R ^ .XwXY   P.x.*.=.4.N.i.;.g.B.a.<.1.b g C A.R.K.B.C.",
"l.W.v.v *.9.0.f.N.B.u.n -.K.J.;.V l.J., & qXrX_ / / ).8X|..         R wX X/ / / %XuX^   C.b.,.h m y.n.J.J.h.1.m v.Y.l.x y.U.B.u.z.",
"5.J.u.1.9.>.N p.N.-.-.u.l.J.J.i.n V <., & qXyX5X1X1X5XyXwX.X_   e .X1XyXwX2X1X1XeXuX^   j.i.6.y.<.V 1.u.4.:.6.i.l.P.B.;.n m 4.B.z.",
"h.:.:.s.A.f.=.g b n s.K.B.g.l.n.t.m t., % 8XuXuXuXuXuXuXuXuXXX  R uXuXuXuXuXuXuXuXuX^   u.&.u.P.A.>.g h b y.J.B.h.l.n.y.m :.n.K.z.",
"4.:.y.n.B.K.M.>.i u.K.s.6.v.C.s.t.n g.; & 8XuXuXuXuXuXuXuXuX,Xe ).uXuXuXuXuXuXuXuXuXR   -.6.l.z.K.M.p.N N B.K.y.J.v.s.;.n i.L.s.b.",
"-.y.N.v.a.g.N.f.1.1.6.u.a.>.v b <.B t., & qXuXuXuXuXuXuXuXuX5X^ ].uXuXuXuXuXuXuXuXuX^   *.B.P.u.v.B.m.,.M p.v.1.1.n l <.1.V 1.i.j.",
"V a.N.n.i.;.c n ;.1.m n -.N M 8.T.c.t., & 1XyXuXuXuXuXuXyX,XXX|..X,X8XuXuXuXuXuXyXrXR   t.f.b.k.&.n M >.9.8.N v l <.9.d.K.g.m k *.",
"&.1.v.w.V N v.l.1.y.P.l.5.K.v.-.k.k.B., $ :XwXuXuXuXuXuX5X^ `.uX1X^ |.uXuXuXuXuXrXqXY   n x.M.>.*.9.B.1.:.P.K.u.H.5.6.6.l.K.L.i.B ",
"s.:.n n >.J.Y.P.N.;.y.n.P.K.y.m &.y.n.6 - @X&XrXyXyXyXuXwX`.XXuX7X_.OXuXuXyXyXyX9X$XE * x.b b h s.S.Q.K.y.;.s.J.L.l.;.M 0.A.b.-.,.",
"H.J.y.y.>.N.n.k.U.y.;.s.s.*.%.*.&.8 . p [ #.r.3XwX8XeXuXuXuXuXuXuXuXuXuXtX8XqXqX+X#.} ` = . a.<.s.K.m.P.M.-.s.S.>.9.>.=.=.,.=.,.V.",
"u.J.J.s.m 1.y.g.s.l.;.-.m -.m.v.K.H , s d X.e.$X&X<X3XyXuXyXyXuXyXuXyXuX0X-X&X<XZ.O.` p 6 < M.M 4.l.u.s.v.<.>.N M f.A.S.c.;.M a.b.",
"y.s.v.;.-.;.s.B.s.B.1.b <.A.!.M.J.Y.p.3 o d ]  ...$.Z.7X8XqXqXqXqXqXqXqX@Xe.+. .{ ' - . p.N.0.N c u.B.N.v.s.N >.v.K.J.P.L.h.&.-.h.",
">.<.4.m :.n 1.a.x.x.-.z ,.u.v.j.u.C.x., . d ' ' } O.r.3X2X2X2X8X7X2X2X5X+X@.| ' ] ] =   %.p.>.9.c x s.s.f.p.b 1.u.v.h.5.l.V.i.;.*.",
"g M m 1.u.>.M M -.;.>.>.>.n -.A.V.h.u., o } @.@.o.{ } 7.7.7.Z.qX#X7.7.7...] | O.@.@.r   b m >.y.s.n g N >.-.n c *.1.u.h.h.x.M.f.>.",
"R.A.a.K.!.I.>.M ;.1.A.I.N.>.h x.z.;.-., o | #.#.O.' [ ' ' ` c.7X{.` ` { ' ` | #.#.#.r   R.0.N.R.I.s.b ,.p.v.Q.B.8.v 0.V.c.=.M B ;.",
"s.M.n.2.j.b.,.3.C.C.C.V.V.b.9.v q q 9 X o | #.#.#.O.r.-X*Xo.+.d.e.X.Z.9X+XX.@.#.#.#.r   < q q G x.;.;.v.K.n.k.V.S.p.n *.*.m i.n.>.",
"b *.C.C.k.C.s.b 3.j.z.z.b.z.9.8         o | #.#.#.#.D.uX9X$.o.` { #.@XuX*X#.#.#.#.#.r         . C.M.;.%.N.K.k.h.M.0.N b *.3.v.P.y.",
"m *.b.n.h.n.u.h *.1.u.h.3.-.U _.].].`.& O | #.#.#.O.D.uX9X$.#.o.@.#.G.rX@X#.#.#.#.#.r   / ].].].~ U b u *.u.u.6.1.;.v.m.a.,.c u.n.",
"m j.v.u.a.3.%.y.;.*.a.Q.M.w   ,XuXuXrX3 o | #.#.#.#.F.yX9X$.#.#.#.#.G.wX@X#.#.$.#.#.r   .XuXuXyXe   0.x.%.*.b.B.6.-.N.P.m.0.n N.u.",
"u 3.j.x.u.m *.S.M.,.>.x.~ ) _ 8XuXuXtXT.R s p @.#.#.D.rX-X+.| | X.| e.{.r.@.#.#.` y E / 1XuXuXuX'.( ~ !.y.*.s.m.y.;.n.b.s.y.n 0.,.",
"3.j *.w.>.=.b.b.C.x.=.H   OXuXuXuXuXtXeX<X& o +.#.O.D.7X$X[ ` ` ` ` ` ` } #.#.#.t   _.wXyXuXuXuXuXyX5 # v.3.m *.x y.B.1.c ;.n M -.",
"E.0.j *.=.0.B.0.2.b.v.H   XXuXuXuXtXtXqX,X& o X.O.X.e.#X{.} } } } } } } | X.@.#.t   _.qXrXyXuXuXuXyXw # n.b.>.b n y.y.m c s.K.S.n.",
"J.G.>.M 0.q.h.j.h.n.m.H   OXuXuXuXqX8XqX1X& o X.O.` } #.#.#.#.#.#.#.#.#.| [ | #.t   _.qX8X8XyXuXuXyX5 @ i.B.v.>.9.-.z :.B.U.K.s.z.",
"k.C.j.>.M 9.a.y.P.g.2.k 8 '.1XrXyXwX8XXX].6 - X.X.} } #.#.#.#.#.#.#.#.#.X.{ | o.y * ( .X1X8XrXyX5XOXI S v.;.;.;.P.P.f.=.M S.j.5.z.",
"2.l.y.9.v.C l t.t.m 6.l.V.G # .XwX8X1X5 + | o.' ' O.#.#.#.#.#.#.#.#.#.#.#.#.| ` | #.t . ].wXqX7Xe $ n u.y.&.y.B.k.n.m.w.j -.3.H.z.",
"B.1.-.l.Y.n.V g n *.v.B.n.H & '.,X,XXXw > { | ` ] @.O.@.@.@.#.@.@.@.#.@.@.@.| [ } | a % ).1X%XOXG , k u -.v.K.s.i.K.B.p.*.a.b.z.b.",
"=.-.s.n.b.J.I.d.*.9.S.C.x.m.0.G $ & 3 j.b.> * d ` ' ] ' ] ] ] ] ] { ] ] ] ] ' ' r o n.y.m $ & , J.L.v.V n g.J.u.l.n.1.b N s.B.l.v.",
"j M.J.i.i.s.6.p.9.=.0.,.%.*.M S . . % %.a.% o f [ [ f [ f f f f f f ` f [ [ f [ -   ;.;.;.. X # 1.6.y.1.&.:.<.m %.x h 0.p.b %.;.p.",
"9.f.m.j.1.;.V x ,.,.u.%.x 3.9.9.b.Q.x.*.;.% @ F Q Q Q Q D + + + + + 7 ! ! ! ! ! <   h 0.2.j.m.u.m z m m 1.s.y.x -.*.1.C.Q.a.0.%.m ",
"-.z a.f.n 1.K.J.1.a.L.K.S.Q.c.=.b.z.S.S.0.% @ L /.^.^.^.K           1 ^././.^./.2   *.3.b 0.a.m ;.v.Y.v.1.l.J.J.S.S.0.;.n.S.~.p.N ",
"U.f.N g ,.B.P.J.C.;.,.h.n.j.=.*.%.3.M.a.h % @ L ^./.L : D P.v.V y.N.K.: A ^.^.^.2   %.Q.a.M *.m N.N.Y.K.y.;.y.B.A.x.h h u.0.M.*.u.",
"b.S.b.1.0.b.V.j.V.h.%.p.x.B -.<.y.;.l v s.% @ L ^./.F   q z.V.5.;.v.6.  2 /././.1   n.L.V.V.a.b C.k.h.z.l.3.1.c.=.,.,.2.1.x v p.J.",
"u.B.M.p.*.-.u.j.h.n.,.v N y.K.U.P.v.;.;.s.% @ L ^./.F   q z.z.6.n V V   2 /././.1   j.j.h.b.b.0.%.6.j.n.b.3.*.N *.x.L.Y.K.y.-.p.b.",
"0.x.v.p.=.*.u.S.u.B.0.h ;.m.K.m.V.z.a.3.-.% @ L /./.F   9 b.n.b.V V 9.  2 /././.1   ,.1.u.b.a.m %.u.v.v.v.u.,.=.x.S.S.n.n.l.<.N 1.",
"%.b n N >.*.>.8.x.j.*.b ;.y.j.v.h.j.C.v.-.% . Z A A D =.,.1.2.u.V n C y.J A A A :   ;.b b *.*.=.b -.9.0.a.9.*.M 0.a.u.a.v.N.v.u.=.",
",.>.>.s.c.u.N g z z %.,.;.z z s.C.h.p.3.;.%         8 0.M v %.1.p.<.V n 1.          1.9.=.*.0.S.a.=.g v ,.,.<.a.k m u.m.v.y.1.4.,.",
"B.S.S.K.L.B.p.-.s.v.U.Q.K.j.-.y.d.>.%.*.>.$         9 a.,.9.x.B.K.K.n.-.-.          9.f.S.S.B.C.U.p.b >.v.M.B.Y.i.-.1.s.1.v m :.8.",
"0.j.b.u.u.h.u.-.K.S.C.u.j.s.C C l C p.,             8 x.<.1.m.J.b.n.P.p.*.            . x.S.b.5.v.u.9.x.Y.Y.k.i.P.1.b =.C 1.v.K.:.",
"h 3.b.j.z.C.j.&.*.y.V.b.b.N.>.C 8.8.<.G , , < , , ; H S.3.c 4.l.b.5.l.y.-., , , < , , < -.M.z.h.C.c.-.b 3.b.z.h.l.;.>.9.V C s.n.j.",
"*.0.b.j.k.h.=.%.=.=.3.w.h.2.*.S.K.y.M *.M.i.*.x.k.k.h.q.&.*.*.>.y.u.j.%.a.S.M.2.B 0.v.9.-.j.B.k.h.,.*.*.N <.u.u.a.m b.K.N.v N l.z."
};
