/* XPM */
static char *_2997_9f3a3697612d1838fa2fca688d317b5a89c6adf76698a16d0758f6aa6f0428e0[] = {
/* columns rows colors chars-per-pixel */
"65 65 208 2 ",
"   c #010101",
".  c #090708",
"X  c #050809",
"o  c #090C10",
"O  c #0E1316",
"+  c #131517",
"@  c #1B1B1B",
"#  c #260B0B",
"$  c #320E0E",
"%  c #351617",
"&  c #0E1725",
"*  c #121B2E",
"=  c #111D30",
"-  c #2D1E2C",
";  c #1A2426",
":  c #16233A",
">  c #252525",
",  c #232C2E",
"<  c #2C2C2C",
"1  c #312F2F",
"2  c #2B373A",
"3  c #353434",
"4  c #363839",
"5  c #3A3B3B",
"6  c #491616",
"7  c #5A1A19",
"8  c #651D1D",
"9  c #6A1E1F",
"0  c #67351C",
"q  c #6D3B1C",
"w  c #733F1C",
"e  c #6D1F20",
"r  c #4A3234",
"t  c #5C3535",
"y  c #692726",
"u  c #792323",
"i  c #6D3C23",
"p  c #713E24",
"a  c #713E2A",
"s  c #68393A",
"d  c #73421B",
"f  c #6F4228",
"g  c #744325",
"h  c #784726",
"j  c #7A4927",
"k  c #75442A",
"l  c #79472C",
"z  c #77482D",
"x  c #7C4A2C",
"c  c #7A4632",
"v  c #7D4C32",
"b  c #7A4836",
"n  c #7E5034",
"m  c #7E5139",
"M  c #1D2D4C",
"N  c #1E3050",
"B  c #313344",
"V  c #233858",
"C  c #273E66",
"Z  c #34464A",
"A  c #3E5459",
"S  c #424343",
"D  c #4C4C4C",
"F  c #4E5A5D",
"G  c #545353",
"H  c #5D5555",
"J  c #5C5C5C",
"K  c #694948",
"L  c #7B4444",
"P  c #47466E",
"I  c #48466E",
"U  c #54696E",
"Y  c #666666",
"T  c #686868",
"R  c #6B6B6B",
"E  c #647175",
"W  c #727373",
"Q  c #7C7C7C",
"!  c #832525",
"~  c #81272A",
"^  c #872728",
"/  c #8A2728",
"(  c #8D292A",
")  c #952B2C",
"_  c #9B2D2D",
"`  c #8D3A39",
"'  c #933737",
"]  c #A22E2F",
"[  c #A92E2F",
"{  c #AB2F30",
"}  c #A63030",
"|  c #AB3132",
" . c #B43435",
".. c #B93636",
"X. c #B73B3B",
"o. c #814E2D",
"O. c #83522D",
"+. c #814E33",
"@. c #814E39",
"#. c #845334",
"$. c #895635",
"%. c #8A5935",
"&. c #85533A",
"*. c #89563B",
"=. c #87593B",
"-. c #8C5B3C",
";. c #915D36",
":. c #915E3E",
">. c #8F613F",
",. c #906137",
"<. c #94633D",
"1. c #99663D",
"2. c #864641",
"3. c #865644",
"4. c #895641",
"5. c #8D5B42",
"6. c #915E43",
"7. c #9A514B",
"8. c #925F49",
"9. c #AA5454",
"0. c #946343",
"q. c #996645",
"w. c #9B6A44",
"e. c #95644A",
"r. c #99664B",
"t. c #9D6B4B",
"y. c #996B4D",
"u. c #986851",
"i. c #9E6C52",
"p. c #A16D45",
"a. c #A16E4C",
"s. c #A37146",
"d. c #A3724C",
"f. c #A87549",
"g. c #A9744E",
"h. c #AB794F",
"j. c #A26E52",
"k. c #A26E5A",
"l. c #A57353",
"z. c #A97554",
"x. c #AC7A55",
"c. c #A6745A",
"v. c #A9765A",
"b. c #A7795A",
"n. c #AC7B5B",
"m. c #B17C55",
"M. c #B17D5B",
"N. c #AD6767",
"B. c #AD7B61",
"V. c #B17E62",
"C. c #B17473",
"Z. c #CB7575",
"A. c #B7865A",
"S. c #B2815C",
"D. c #B48363",
"F. c #B98665",
"G. c #BA8964",
"H. c #B5836A",
"J. c #BA856C",
"K. c #BC8A6B",
"L. c #B88872",
"P. c #C08F64",
"I. c #C1916B",
"U. c #C18F71",
"Y. c #C49273",
"T. c #C9977B",
"R. c #2F4E82",
"E. c #314F83",
"W. c #335085",
"Q. c #7C7F80",
"!. c #788589",
"~. c #848383",
"^. c #8C8C8C",
"/. c #918D8D",
"(. c #929292",
"). c #939798",
"_. c #9B9B9B",
"`. c #B88E8E",
"'. c #A19F9F",
"]. c #BB9594",
"[. c #8DAEB7",
"{. c #A4A4A4",
"}. c #ACACAC",
"|. c #B3ADAD",
" X c #B5B4B4",
".X c #BCBCBC",
"XX c #C68F8E",
"oX c #C5A9A8",
"OX c #C6BCBC",
"+X c #E4B7B7",
"@X c #8AB9C6",
"#X c #A7DAE7",
"$X c #C4C3C3",
"%X c #CDCDCD",
"&X c #D1C5C4",
"*X c #D3CACA",
"=X c #D2D2D2",
"-X c #DCDCDC",
";X c #EAC7C5",
":X c #E1DCDC",
">X c #DFE1E1",
",X c #E4E3E3",
"<X c #E8E3E3",
"1X c #ECECEC",
"2X c #F2EFEF",
"3X c #EBF3F5",
"4X c #F4F4F4",
"5X c #FEFEFE",
/* pixels */
"q.k.@.8.D.n.S.v e.z.D.5.&.c.q.x d.t.%.l.0.j v.u.a x.a.A.g.q i.G.b.v e.S.v x t.$.l.u.+.8.k.&.5.b.t.g.:.$.c.J.8.+.v.r.#.<.,.,.l.e.b ",
"@.*.+.$.>.0.b.+.8.r.-.#.z.K.b.#.g -.b.:.g +.j p &.:.%.a.x.n t.e.x m n.K.i.n %.t.l.4.v c +.v x -.w.v.z.q.6.6.$.-.n.J.,.j %.l.t.v v ",
";.&.-.&.g -.B.*.3.m i %.x.d.n.z.k *.e.g $.a.-.:.-.g l 0.b.-.&.k x t.l.t.n.5.x q.z k 0.5.*.-.-.x k M.6.x p +.-.w.m.z.d.x &.e.k x y.",
"M.n.D.D.-.v 0.#.k &.5.S.S.O.w.B.@.v v +.M.V.M.A.h.B.=.#.n k k n c.S.w.#.b.t.g m g =.K.K.x.S.K.l.x +.x o.+.0.x.g.;.,.x.e.@.c k t.A.",
"g.n.z.K.d.g #.i.t.v 0.n.S.1.t.i.4.k 5.v.n.g.g.p.G.v z v =.k.e.n 6.g.x.l.l.t.z z e.b.D.S.g.d.D.b.@.l t.n.-.O.p.m.d.d.l.5.m c e.I.d.",
"f.l.$.0.=.n 0.I.K.0.&.#.w.b.w.#.-.-.*.V.D.w.y.H.2 x 6.5.S.T.S.#.n #.l.z.#.#.-.v p.w.2 w.D.S.%.&.c z.D.S.d.#.o.q.D.q.#.#.4.&.t.S.d.",
"f.S.a.=.k 0.l.S.w.S.l.#.&.=.n g -.n.#.,.l.d.x.F   q.b.t.d.b.a.a.S.#.#.#.g *.x.0.$.2   p.l.<.#.S.:.z.g.g.A.A.<.h &.v z t.d.q.-.-.b.",
"g.0.D.i.l l.d.d.s.w.M.j.3.f n t.I.S.D.h O.d.Z Q.}.E Z d.5.f k y.f.d.t.z.a.l.$.*.Z Q.).F Z g D.S.G.s.G.f.%.h.D.6.i b 5.D.S.h.1.h r.",
"z.d.t.&.v k k 0.d.<.M.j.@.5.v.v.g.t.n.c.4.e.  (.5XR   l.V.:.-.:.x.q.t.c.&.a l.B   '.-X4   c.n.t.z.a 4.l.0.t.n.-.+.r.D.x.w.S.S.0.#.",
"&.n n *.i.k.#.x g d #.&.+.&.$.$.<.d.x.c.5.#.  /.5X$X).E A o.x +.%.j i k k 8.A 4 3 }.-X5   c.b.g.:.3.k k h $.6.x @.&.j <.d.t.b.d.x ",
"v x l.H.L.i.&.0.t.6.l.j.$.*.:.o.d q.l.a.#.+.  (.5X5X5XY   :.-.j.b.6.=.y.-.Z   3 G |.-X4   l.l.q.w 8.e.e.$.0.t.=.-.0.-.x n d.a.#.z ",
"m l.D.l.0.&.e.S.B.D.V.l.0.z.K.M.<.g #.+.&.e.  /.5X2X<X}.~.E e.0.b.S.D.K.0.5 < W _..X$X3   +.#.h :.o.i.K.F.n.l.t.t.F.K.0.j -.-.#.0.",
"x.h 0.0.-.g d 0.k.V.5.@.j.F.V.M.D.j *.#.D.n.  /.5X,X&X1X5XJ   j -.n.b.%.  3 G  X>XOX|.1 . O.*.j S.k x 0.D.n.$.%.S.S.D.D.1.g #.S.D.",
"m.-.x g t.S.t.-.o.r.&.:.z.z.r.q.0.#.n.n.D.n.  (.5X<X*X:X<X'.W w.=.0.#.;   @ 1 {.-X$X|.1 X x.b.&.q.a.0.x #.-.#.q.S.q.d.t.-.6.l.S.S.",
"z.-.0.t.A.G.n.z.r.a *.a.a.p.l.a.#.z l.b.>.a.  ^.5X,X*X*X%X2X5XJ               _.>X$X|.1   x.l.v #.S.Y.t.k x ,.S.d.w.d.z g b.S.0.<.",
"#.x t.g.t.p.n.V.r.*.@.q.z.a.j.q.k 8.+.t.<.0.  /.5X,X*X*X*X%X$XJ > > > > > D Y ).|.'.(.< X t.+.5.k w.D.l.=.n $.d.w.S.<.O.m =.0.w.,.",
"O.8.V.0.x.d.a.e.n #.d m b.v v v v #.x v k m   /.5X<X*X*X*X/.Y Y Y T Y Y T *X5X).J Y Y @   v x #.v c.e.#.4.z z e.#.m k v -.#.h g f ",
"5.=.#.q.a.g.0.g n l.y.=.m z v =.D.K.j.6.v.5.  (.5X%X|.|.|.~.Y U T Y Y Y R =X5X(.Y Y Y 3 > 5.j.K.B.l.z g 0.t.0.0.z k &.z.D.l.q.r.u.",
"+.t.j 6.#.0.#.%.S.S.K.K.n.c.0.q.n.z.S.j.V.6.  (.5X}.Y T Y T T U Y Y Y Y T =X5X(.Y Y T Y J @ . z.S.<.x t.D.D.D.n.z.#.0.l.x.g.n.B.l.",
"6.G.x.=.v m k q.h.s.w.G.l.#.x t.t.%.v.p.6.#.  Q :X).Y T Y Y Y C.^.^.^.W T =X5X).Y Q.^.^.~.> X :.w.h #.n.x.d.n.b.l.#.e.d.p.q.l.d.#.",
"f.s.t.#.8.e.5.-.<.f.w.d.-.x n x.M.M.p.a.O.:.  5 W T Y T Y T T $X5X4X5X).Y *X5X(.Y %X5X4X3X5 X A.b.0.#.q.0.0.l.%.h g 0.S.m.s.a.0.g ",
"d.<.g >.b.B.K.x a.1.d.-.x 6.#.n q.d.p.M.+.e.  5 T T Y Y T Y T .X,X3X3X).Y =X5X).Y $X1X4X1X5   s.q.D.:.-.d.n.t.#.=.n $.q.z.z.l.0.z ",
"6.c.x t.t.x.S.g 8.n.n.=.5.n.i.m q.O.q.z.v 4.  5 T T T Y Y T Y R W [.#X!.T =X5X(.Y R W @X#X2   O.0.b.0.#.i.z.&.-.b.n.&.h -.d.a.5.z ",
"c v z O.j a.d.e.=.>.z k B.H.H.m g x.q.#.#.l   5 T T Y T T Y T Y R [.@X!.T %X5X'.Q R T [.@X, X z.k b.c.&.6.5.z e.D.L.5.n 0.y.5.v z ",
"t.t.l.=.i 3.i.3.m v +.l.x.1.a.d.h 3.i v w.z.  5 T T Y T Y T Y T T 2 + D Y %X5X4X1X^.Y < O X X 3.k c.8.#.l z r.b.q.a.x.-.v *.k z S.",
"M.n.D.K.S.m f k =.*.e.b.d.$.w.g.:.@.v a.F.D.  5 T T T Y T Y T Y T > X G Q =X5X5X5X_.R < +   X &.0.i g v =.e.l.l.0.>.i.t.&.l -.z.S.",
"z.w.n.K.0.f d.K.l.x -.d.n.S.v.0.x p *.z.M.s.  5 T Y Y T Y T Y T T J H  X1X4X5X5X5X1X<X-X%X4   + , 0.x.D.$.x w.n.b.i.0.5.v k l.I.f.",
"g.n.-.x g =.S.G.f.w.<.$.:.t.-.v 5.0.<.q.p.z.  5 T Y T Y T Y T R W R W =X5X5X5X5X5X5X5X5X5X5     X v -.S.l.0.#.#.b.e.z &.0.%.t.n.w.",
"g.S.b.=.x q.g.d.d.x.S.0.k g i &.B.G.0.z., O   1 G J T T Y T Y  X,X-X,X4X5X5X5X5X5X5X5X5X4X5     X &.i p.x.D.t.z k a m i.B.d.#.%.q.",
"v.p.F.t.g $.t.l.z.q.D.b.v v e.v.V.l d.U       < G J T T Y T T %X5X5X5X5X5X5X5X5X5X5X5X5X4XS     o c.e.z.0.t.D.q.q &.c.D.n.z.0.#.0.",
"a.q.-.o.5.=.f z 0.-.l.e.v 3.c.n.z.b 2 t ! ! ! s D G G G G {.-X2X5X5X5X5X5X5X5X5X5X5X5X5X5X_.W @ X n.c.&.e.q.<.-.6.i.b.d.w.l.x.e.&.",
"+.w o.a.D.u.5.=.i k v 4.5.&.c 3.O.k.  7 ......L D D D D D .X5X5X5X5X5X5X5X5X5X5X5X5X5X5X5X.X'.> X x z v &.z x -.#.x x #.w.b.b.q.+.",
"c p.F.V.d.<.1.w.A.w.G.G.-.-.l.#.Z t u )  .] ) ' ' K D D D }.1X4X5X5X5X5X5X5X5X=X$X$X$X$X$X$X$X< X 4.b.F.q.d.F.0.-.d.l.v n 5.c.=.O.",
"*.+.l.B.0.z #.t.F.n.t.#.0.D.0.j   8 .. . .) ! ] ..L D D D {.>X4X5X5X5X5X5X5X5X.X'.{.'.'.{.=X=X3 X D.K.D.F.M.<.$.c.G.K.S.&.z z %.p.",
"M.-.&.*.&.@.@.4.&.n.t.#.z.D.o.+.  7 .. . ._ ~ ( _ ` 2.K D }.:X,X1X4X5X5X5X5X5X<X-X=X=X-X=XQ J =.t.S.x.O.t.t.#.0.K.l.b.x.&.0.0.S.G.",
"z.r.l @.c.H.B.t.v +.&.5.z.t.v.j.  7  . . ._ ! ! ~ ]  .L D {.:X:X-X4X5X5X5X5X5X5X5X5X5X5X5X5   v ,.l.q.#.j #.%.j.t.d.q.%.n t.n.S.w.",
"p.O.+.p.A.F.D.D.l.&.v r.l.l.Y.v.  7 ..[ ) ( ^ ) _ _ _ ` @.N.XX+X>X<X2X1X1X1X1X1X<X_.Q.Q.Q.n.6.v x 0.Y.B.-.l =.M.t.n.t.#.O.#.g.d.6.",
"+.$.a.M.s.<.p.g.t.5.l e.i.i.l.a.  7 .._ ^ ~ ^ _ ..) ^ ] .. . .oX>X-X-X-X>X-X-X>X-X4       8.$.6.h z z.e.&.g #.l.j.e.-.x %.x 5.*.@.",
"@.i.z.j.p.p.q.*.+.h x #.$.v #.M.S.t 8 u ^ ( ) [  .] ) _ _ _ ] C.].`.`.`.`.&X-XoX`.y $ . X c &.6.S.M.#.x &.m =.#.$.v l &.q.=.n z a ",
"*.b c @.j.M.6.k 3.n.I.l.e.&.p j.h.$.  6 / ] .... . ...) ! ! ! ~ ! u ! ! ^ |.>X9.! ! ! # X 6.n.Y.h.s.p &.c.H.B.-.$.c &.H.Y.D.e.B.L.",
"*.v.q.x #.v l e.D.z.h.x.D.l.5.k *.a 6.r 6 8 u )  . . .] ) ) ) ) ) 9.C.7.) C.oX7.) N.C.%   M.z.:.a.$.5.z.m.m.M.M.M.-.$.m.p.:.m.v.r.",
"0.G.l.:.+.x v 0.x.p.d.S.v.v $.n.n.o.6.D.      8 .... . . . . . . .+X5XZ.{ ) ! [ ..;X4XS     X a.M.n.5.z.h.g.g.p.:.l a.M.a.M.M.o.h ",
"x.q.x *.e.z.l.#.-.1.q.q.#.0 o.a.h.<.d E S D D s ! _  . . . . . ...+X4XZ.{ _ ) [ X.;X5XS   3 D p.j.a.-.o.:.p.e.-.@.p q.v.p.m.v.O.l ",
"q.v.l 6.c.F.n.#.0.n.z.+.x a.6.J.S.d.  ~.5X4X5XR   9 .... . . . ...oX,XZ. . . . .X.;X5XS   .X4X5 . x 5.o.m.U.r.+.*.0.O.:.e.q.j.a.o.",
"$.8.z e.t.z.b.#.0.v.t.+.0.U.z.M.t.e.3 {.5X5X5X^.< y ) _  . . . . .XXOX9. .| { | | ;X3XZ . .X4XY 4 o.z.:.l.j.&.*.n.V.$.x 8.a.a.6.q ",
"+.z z =.z %.n.<.l +.x :.z.l.z.n.  ~.4X4X5X5X5X,X%XJ   u .. . . . .) ( ^ ^ ^ ^ ^ ( oX>Xr . {.,X1X<XB O g.k a +.t.M.z.j.@.*.e.+.l :.",
"x.V.S.r.h x q.e.l l *.z.x.1.g.=.  ~.5X5X5X5X4X1X-XJ   e  . . . .{ ) / ^ ( ( ( / ( XXOX3   {.>X5X4X3   q.c *.c.z.:.6.n.8.&.@.p 6.U.",
"g.t.D.G.S.$.g #.5.&.l.x.w.1.q.k   ~.5X5X5X2X-X>X>XJ   9 .. ...) / ]  . . .|  .| X.9.X.$ . {.,X4X4X4 X 1.&.7.z.m.p.p.r.8.7.a @.P.M.",
"g.1.d.n.+.@.j.V.P.$.#.=.z.D.t.%.O C.>X3X5X1X-X%X$XH . u .. .| ) ^ }  . . . . . . . .{ $ X {.>X>X-XZ @ D.;.d ;.a.J.0.r.4.c m i.S.g.",
"z.S.<.#.a 8.k.m.g.n.0.x 0.0.g.z.8.0 & !.,X-X>XR @ y _ {  .) / ] |  . . . . . . . . . .$ X {.-XD > h x w.:.a.<.x 0.e.d &.c.5.<.d.:.",
"v.z.z.t.@.8.M.A.1.a.D.z.#.q z.n.4.@.X W %X%X%XJ   8  . . .) ~ ]  . . . .|  .|  . .[ ] #   _.$X5 O <.q q $.M.k.+.v i m b.K.l.#.=.n.",
"z.p.b.t.+.l -.v.j.q.M.j.x n z.K.+.+.r.p.> > > O   7 ( ( ( ^ ^ ( ( ( ( ( ( ( ( ' / % # .   @ < x.D.H.0.z.a.M.V.5.v e.D.B.h.x.t.#.@.",
"0.#.o.x q.6.p p O.x =.$.n -.0.>.:.6.x o.    X     6 ~ ~ ~ ~ u ~ u ~ ~ ~ u u ~ ~ ! #     . X o 0.-.0.c +.x $.6.+.4.t.5.w.w.w.D.b.a ",
"x o.0.r.U.V.-.$.#.h 0.t.%.x x h x K.j.$.&.#.i u.  2 I P P I P P I - # B P P I I P +   :.-.a.z.t.x g 6.5.h +.e.*.5.k #.%.-.d.z.t.5.",
"v e.T.V.v.$.:.H.H.S.D.d.-.l.K.l.$.x r.F.e.*.v u.  M E.E.W.W.W.R.R.= X V R.R.R.R.E.& X 6.x 6.r.x #.&.j.U.V.D.G.q.=.M.D.-.z i.e.k #.",
"e.@.v.:.8.w p r.c.n.<.#.0.D.K.x.b.c v e.i L.L.k   M W.E.W.R.R.M & c.V.k.= C W.W.P &   U.t.c v l b.+.@.a.v.p.%.$.M.S.F.n.*.i v i.F.",
"A.r.g g -.-.=.*.&.c.-.:.d.g.p.g.M.j w.k t.M.S.A.  M W.E.E.E.E.*   l.>.x   V W.R.P & X F.x.m.t.x M.-.n n k.e.o.p.m.s.M.z.6.:.k.M.m.",
"b.5.=.q.D.K.D.i.c v v 6.z.x.d.:.o.6.z.$.t.z.a.w.  M W.W.E.N * 1.z v m r.  V W.R.E.& X t.p.v.z.:.o.H.S.6.n k $.v.p.a.0.*.+.q.n.m.q.",
"%.n -.a.x.x.D.D.j.+.*.t.l.l.l.q.o.l e.6.+.=.t.l.  M W.W.W.=   g.n n x.H.  V W.W.E.& X -.q.l.e.x x z.G.c.&.f :.n.q.V.r.+.@.e.j.j.0.",
"&.0.l.b.l.w.0.t.0.c v 5.e.8.-.#.l @.+.l.#.k v c   & : : : *.:.q.n e.#.q.a.V : : : o   x l +.@.@.x l.t.0.$.x +.t.j.5.#.+.#.v l k x ",
"=.6.,.6.l.x.0.O.w r.-.*.*.k i +.r.V.8.:.&.*.8.@.          k o.-.e.-.x x l M.        X *.&.+.8.D.r.t.g g %.*.o.g p i c r.c.r.*.&.4.",
"&.=.n z -.e.-.#.q.J.n.v.j.*.c e.K.M.z.+.&.e.B.J.          -.l.b.D.b.l.5.*.j.          i.B.V.l.B.J.e.#.t.D.U.J.z.t.@.e.n.D.D.D.B.n.",
"%.D.l.=.&.@.x -.F.p.g.F.J.j.5.0.l.q.z.n.x.-.$.j.              S.z.S.l.-.=.-.              D.e.v k m n a.a.q.M.M.D.&.q.a.q.p.l.a.:.",
"d.b.t.#.v 4.#.$.l.s.g.z.:.x $.j.M.1.x.l.x.$.o.g.h.1.g.V.-.x >.a.h.1.l.0.#.m f 3.$.M.l.x #.z.z.w.3.m &.c.z.g.M.<.#.+.p.m.g.s.z.6.p ",
"d.d.x k B.D.l.x e.q.w.=.v v +.=.d.f.v.a.#.-.l.0.c -.b.D.r.o.t.q.0.@.@.@.o.8.p.f.f.j.+.p.v.a.c 6.M.H.$.*.p.8.:.@.@.+.@.p.f.a.m.6.c "
};
