/* XPM */
static char *_34c17c2db264ca8eed8c8f7672658fdRLTLRrDosL0PwzW3[] = {
/* columns rows colors chars-per-pixel */
"65 65 165 2 ",
"   c #000000",
".  c #0B0503",
"X  c #090805",
"o  c #090909",
"O  c #190D08",
"+  c #0E120F",
"@  c #1E150C",
"#  c #111112",
"$  c #161D1A",
"%  c #23110A",
"&  c #29130C",
"*  c #2A180C",
"=  c #261513",
"-  c #2A1614",
";  c #351D11",
":  c #351E1A",
">  c #1E251E",
",  c #2E2318",
"<  c #362514",
"1  c #0E1C3C",
"2  c #1A2635",
"3  c #222721",
"4  c #2C2C2C",
"5  c #3B2820",
"6  c #212636",
"7  c #272D3C",
"8  c #32243C",
"9  c #313131",
"0  c #3E3E3E",
"q  c #421E18",
"w  c #432A16",
"e  c #47271A",
"r  c #4C221B",
"t  c #55271C",
"y  c #56281D",
"u  c #5C2A1E",
"i  c #4F311B",
"p  c #52331A",
"a  c #58371D",
"s  c #5B3A1E",
"d  c #632E1F",
"f  c #4A2A23",
"g  c #4B3524",
"h  c #5C3B21",
"j  c #57312A",
"k  c #663220",
"l  c #683521",
"z  c #673D23",
"x  c #6D3D35",
"c  c #354134",
"v  c #394838",
"b  c #3F503E",
"n  c #54432E",
"m  c #564438",
"M  c #40523F",
"N  c #674123",
"B  c #6B4324",
"V  c #724426",
"C  c #754927",
"Z  c #774B28",
"A  c #7A4D29",
"S  c #7F502B",
"D  c #694638",
"F  c #735A3B",
"G  c #2B3C46",
"H  c #343F55",
"J  c #463656",
"K  c #2D484D",
"L  c #444444",
"P  c #4C4C4C",
"I  c #4B5E4B",
"U  c gray32",
"Y  c #595959",
"T  c #625A53",
"R  c #436445",
"E  c #4E624C",
"W  c #556A54",
"Q  c #4E7251",
"!  c #524D6B",
"~  c #5E5F61",
"^  c #525D7B",
"/  c #664479",
"(  c #644A7A",
")  c #646464",
"_  c #6C6C6C",
"`  c #637D62",
"'  c #78797A",
"]  c #9B080A",
"[  c #9E0D11",
"{  c #A01115",
"}  c #AD3B35",
"|  c #85542D",
" . c #88552E",
".. c #8C582F",
"X. c #84503F",
"o. c #B54A35",
"O. c #B8533B",
"+. c #9B6234",
"@. c #A56836",
"#. c #A36838",
"$. c #AB6C38",
"%. c #B0703A",
"&. c #955846",
"*. c #9B6B4D",
"=. c #A86550",
"-. c #BB6D5B",
";. c #BF705D",
":. c #C16F5D",
">. c #C67360",
",. c #C97362",
"<. c #CC7C64",
"1. c #D07B66",
"2. c #5B9B64",
"3. c #638866",
"4. c #63AB6D",
"5. c #76C37F",
"6. c #A98558",
"7. c #AD885A",
"8. c #BD9665",
"9. c #CE8066",
"0. c #D4846A",
"q. c #D38C6A",
"w. c #D7946E",
"e. c #CFA36F",
"r. c #DEA777",
"t. c #E1A676",
"y. c #E3B379",
"u. c #E8B47C",
"i. c #EBB97E",
"p. c #133A88",
"a. c #1B428F",
"s. c #6B5B87",
"d. c #736C96",
"f. c #627099",
"g. c #77709B",
"h. c #6B7CA7",
"j. c #6C7DA9",
"k. c #5E93A2",
"l. c #6F82AF",
"z. c #6197A4",
"x. c #7194B7",
"c. c #6EADBC",
"v. c #7CD487",
"b. c #77AAC6",
"n. c #7EC5D7",
"m. c #7FC7D9",
"M. c #888888",
"N. c #989898",
"B. c #A2A0A0",
"V. c #B4B4B4",
"C. c #BABABA",
"Z. c #EFBC80",
"A. c #F4C084",
"S. c #83CBDF",
"D. c #84CEE2",
"F. c #C3C3C3",
"G. c #C8C8C8",
"H. c #D3D3D3",
"J. c gray85",
"K. c #E3E3E3",
"L. c #E3E6EB",
"P. c #ECECEC",
"I. c #E9ECF2",
"U. c #F5F5F5",
"Y. c #FFFFFF",
/* pixels */
"Y.Y.Y.Y.Y.Y.Y.Y.Y.Y.Y.Y.Y.Y.Y.Y.Y.Y.Y.Y.Y.Y.Y.Y.Y.Y.Y.Y.Y.Y.Y.Y.Y.Y.          Y.Y.Y.Y.Y.Y.Y.Y.Y.Y.Y.Y.Y.Y.Y.Y.Y.Y.Y.Y.Y.Y.Y.Y.Y.Y.",
"Y.Y.Y.Y.Y.Y.Y.Y.Y.Y.Y.Y.Y.Y.Y.Y.Y.Y.Y.Y.Y.Y.Y.Y.Y.Y.Y.Y.Y.Y.Y.Y.V.0 N N N N   Y.Y.Y.Y.Y.Y.Y.Y.Y.Y.Y.Y.Y.Y.Y.Y.Y.Y.Y.Y.Y.Y.Y.Y.Y.Y.",
"Y.Y.Y.Y.Y.Y.Y.Y.Y.Y.Y.Y.Y.Y.Y.Y.Y.Y.Y.Y.Y.Y.Y.Y.Y.Y.Y.Y.U.P.P.P.N.. C C Z Z . P.U.Y.Y.Y.Y.Y.Y.Y.Y.Y.Y.Y.Y.Y.Y.Y.Y.Y.Y.Y.Y.Y.Y.Y.Y.",
"Y.Y.Y.Y.Y.Y.Y.Y.Y.Y.Y.Y.Y.Y.Y.Y.Y.Y.Y.Y.Y.Y.Y.Y.Y.Y.Y.Y._       < A C A Z Z Z   P Y.Y.Y.Y.Y.Y.Y.Y.Y.Y.Y.Y.Y.Y.Y.Y.Y.Y.Y.Y.Y.Y.Y.Y.",
"Y.Y.Y.Y.Y.Y.Y.Y.Y.Y.Y.Y.Y.Y.Y.Y.Y.Y.Y.Y.Y.Y.Y.Y.Y.Y.    s Z Z $...Z Z Z Z C C Z s     Y.Y.Y.Y.Y.Y.Y.Y.Y.Y.Y.Y.Y.Y.Y.Y.Y.Y.Y.Y.Y.Y.",
"Y.Y.Y.Y.Y.Y.Y.Y.Y.Y.Y.Y.Y.Y.Y.Y.Y.Y.Y.Y.Y.Y.Y.Y.N.) i i N Z Z $...Z Z Z S +.A Z B i i ) ' Y.Y.Y.Y.Y.Y.Y.Y.Y.Y.Y.Y.Y.Y.Y.Y.Y.Y.Y.Y.",
"Y.Y.Y.Y.Y.Y.Y.Y.Y.Y.Y.Y.Y.Y.Y.Y.Y.Y.Y.Y.Y.Y.Y.Y.Y   Z V Z Z Z %...Z Z Z  .$.C Z Z Z Z   4 Y.Y.Y.Y.Y.Y.Y.Y.Y.Y.Y.Y.Y.Y.Y.Y.Y.Y.Y.Y.",
"Y.Y.Y.Y.Y.Y.Y.Y.Y.Y.Y.Y.Y.Y.Y.Y.Y.Y.Y.Y.Y.Y.Y.  z Z Z $. .Z Z Z Z Z C C  .$.Z Z Z Z Z   4 Y.Y.Y.Y.Y.Y.Y.Y.Y.Y.Y.Y.Y.Y.Y.Y.Y.Y.Y.Y.",
"Y.Y.Y.Y.Y.Y.Y.Y.Y.Y.Y.Y.Y.Y.Y.Y.Y.Y.Y.Y.Y.Y.Y.  s Z Z @.| C A C Z Z Z Z Z Z Z Z Z Z Z Z C   Y.Y.Y.Y.Y.Y.Y.Y.Y.Y.Y.Y.Y.Y.Y.Y.Y.Y.Y.",
"Y.Y.Y.Y.Y.Y.Y.Y.Y.Y.Y.Y.Y.Y.Y.Y.Y.Y.Y.Y.Y.Y.M.< N Z Z +.| A C C Z Z A C Z Z Z Z Z Z Z Z B   Y.Y.Y.Y.Y.Y.Y.Y.Y.Y.Y.Y.Y.Y.Y.Y.Y.Y.Y.",
"Y.Y.Y.Y.Y.Y.Y.Y.Y.Y.Y.Y.Y.Y.Y.Y.Y.Y.Y.Y.Y.Y.  Z Z Z A Z C C C A Z Z C A A A Z Z Z Z Z Z N   Y.Y.Y.Y.Y.Y.Y.Y.Y.Y.Y.Y.Y.Y.Y.Y.Y.Y.Y.",
"Y.Y.Y.Y.Y.Y.Y.Y.Y.Y.Y.Y.Y.Y.Y.Y.Y.Y.Y.Y.Y.Y.  Z *       a Z A A Z Z Z         Z Z Z C $.#.Z   H.Y.Y.Y.Y.Y.Y.Y.Y.Y.Y.Y.Y.Y.Y.Y.Y.Y.",
"Y.Y.Y.Y.Y.Y.Y.Y.Y.Y.Y.Y.Y.Y.Y.Y.Y.Y.Y.Y.Y.Y.  X &.;.;.;.j   . A p X   ,.:.:.:.    X Z $.#.A   H.Y.Y.Y.Y.Y.Y.Y.Y.Y.Y.Y.Y.Y.Y.Y.Y.Y.",
"Y.Y.Y.Y.Y.Y.Y.Y.Y.Y.Y.Y.Y.Y.Y.Y.Y.Y.Y.Y.Y.Y.  = =.9.9.9.D = = h g = = 0.9.9.9., , = s @.+.C   H.Y.Y.Y.Y.Y.Y.Y.Y.Y.Y.Y.Y.Y.Y.Y.Y.Y.",
"Y.Y.Y.Y.Y.Y.Y.Y.Y.Y.Y.Y.Y.Y.Y.Y.Y.Y.Y.Y.Y.Y.  ,.t.i.i.i.q.>.>.  D >.>.i.i.i.i.i.r.,.  Z Z Z   H.Y.Y.Y.Y.Y.Y.Y.Y.Y.Y.Y.Y.Y.Y.Y.Y.Y.",
"Y.Y.Y.Y.Y.Y.Y.Y.Y.Y.Y.Y.Y.Y.Y.Y.Y.Y.Y.Y.Y.Y.  i.i.A.    6.i.i.>.q.i.i.i.7.    i.r.>.  C C d   H.Y.Y.Y.Y.Y.Y.Y.Y.Y.Y.Y.Y.Y.Y.Y.Y.Y.",
"Y.Y.Y.Y.Y.Y.Y.Y.Y.Y.Y.Y.Y.Y.Y.Y.Y.Y.Y.Y.Y.Y.  i.D X L.p.2 o i.u.y.i.i.o ) K.a.O f ,.  C C d   H.Y.Y.Y.Y.Y.Y.Y.Y.Y.Y.Y.Y.Y.Y.Y.Y.Y.",
"Y.Y.Y.Y.Y.Y.Y.Y.Y.Y.Y.Y.Y.Y.Y.Y.Y.Y.Y.Y.Y.Y.  i.n   L.p.1   i.i.i.i.i.  ~ I.a.  e ,.  A V d   H.Y.Y.Y.Y.Y.Y.Y.Y.Y.Y.Y.Y.Y.Y.Y.Y.Y.",
"Y.Y.Y.Y.Y.Y.Y.Y.Y.Y.Y.Y.Y.Y.Y.Y.Y.Y.Y.Y.Y.Y.  Z.n   a.a.1   Z.i.i.i.i.  1 a.a.  f >.  d d d   H.Y.Y.Y.Y.Y.Y.Y.Y.Y.Y.Y.Y.Y.Y.Y.Y.Y.",
"Y.Y.Y.Y.Y.Y.Y.Y.Y.Y.Y.Y.Y.Y.Y.Y.Y.Y.Y.Y.Y.Y.  i.Z.Z.    6.Z.>.>.,.>.i.i.7.    >.>.>.  d d d   H.Y.Y.Y.Y.Y.Y.Y.Y.Y.Y.Y.Y.Y.Y.Y.Y.Y.",
"Y.Y.Y.Y.Y.Y.Y.Y.Y.Y.Y.Y.Y.Y.Y.Y.Y.Y.Y.Y.Y.Y.  < 8.i.e.e.y.Z.- ,.X.= i.u.y.e.e.>.=.- y d y O J.U.Y.Y.Y.Y.Y.Y.Y.Y.Y.Y.Y.Y.Y.Y.Y.Y.Y.",
"Y.Y.Y.Y.Y.Y.Y.Y.Y.Y.Y.Y.Y.Y.Y.Y.Y.Y.Y.Y.Y.Y.    7.Z.i.i.i.Z.  ,.x   i.i.u.i.i.>.&.  d u y   Y.Y.Y.Y.Y.Y.Y.Y.Y.Y.Y.Y.Y.Y.Y.Y.Y.Y.Y.",
"Y.Y.Y.Y.Y.Y.Y.Y.Y.Y.Y.Y.Y.Y.Y.Y.Y.Y.Y.Y.Y.Y.  A *   u.u.i.i.i.i.i.i.i.i.Z.Z.    % d d   4 Y.Y.Y.K.      X Y.Y.Y.Y.Y.Y.Y.Y.Y.Y.Y.Y.",
"Y.Y.Y.Y.Y.Y.Y.Y.Y.Y.Y.Y.Y.Y.Y.Y.Y.Y.Y.Y.Y.Y.  $. .Z   Z.O.] i.i.u.i.[ i.7.  d d l Z d   4 Y.    @ Z.,.:   Y.Y.Y.Y.Y.Y.Y.Y.Y.Y.Y.Y.",
"Y.Y.Y.Y.Y.Y.Y.Y.Y.Y.Y.Y.Y.Y.Y.Y.Y.Y.Y.Y.Y.Y.   .Z S   q.} [ o.o.o.o.{ i.7.  d k l l %   # Y s s h n >.: X Y.Y.Y.Y.Y.Y.Y.Y.Y.Y.Y.Y.",
"Y.Y.Y.Y.Y.Y.Y.Y.Y.Y.Y.Y.Y.Y.Y.Y.Y.Y.Y.Y.Y.Y.  A A A   ,.} { [ { { { { A.7.  d d d d         Z Z B   1.:   Y.Y.Y.Y.Y.Y.Y.Y.Y.Y.Y.Y.",
"Y.Y.Y.Y.Y.Y.Y.Y.Y.Y.Y.Y.Y.Y.Y.Y.#           Y.  h A   ,.} { { { { { { >.&.  d       Z Z | $.A C Z d   V.Y.Y.Y.Y.Y.Y.Y.Y.Y.Y.Y.Y.Y.",
"Y.Y.Y.Y.Y.Y.Y.Y.Y.Y.Y.Y.o       y.Z.Z.Z.Z.Z.                          ,.&.    d d d Z Z C C d .     Y.Y.Y.Y.Y.Y.Y.Y.Y.Y.Y.Y.Y.Y.Y.",
"Y.Y.Y.Y.Y.Y.Y.Y.Y.Y.Y.Y.o $ k.  r.i.i.i.w.q.  k.z.k.k.k.k.k.k.k.k.z.  j j r r +. .B Z Z B ; & B.C.C.Y.Y.Y.Y.Y.Y.Y.Y.Y.Y.Y.Y.Y.Y.Y.",
"Y.Y.Y.Y.Y.Y.Y.Y.Y.Y.Y.Y.X 2 D.  y.Z.i.i.9.<.  S.n.S.S.D.S.D.D.D.S.D.    % d d $.#.C A A B     H.Y.Y.Y.Y.Y.Y.Y.Y.Y.Y.Y.Y.Y.Y.Y.Y.Y.",
"Y.Y.Y.Y.Y.Y.Y.Y.Y.Y.Y.Y.Y.F.    -.>.>.>.=   h.h.h.l.                d d l Z Z Z Z A     4 Y.Y.Y.Y.Y.Y.Y.Y.Y.Y.Y.Y.Y.Y.Y.Y.Y.Y.Y.Y.",
"Y.Y.Y.Y.Y.Y.Y.Y.Y.Y.Y.Y.Y.Y.Y.Y.#       u l   j.7   d   a A A A A A $.Z Z Z Z A s   Y.Y.Y.Y.Y.Y.Y.Y.Y.Y.Y.Y.Y.Y.Y.Y.Y.Y.Y.Y.Y.Y.Y.",
"Y.Y.Y.Y.Y.Y.Y.Y.Y.Y.Y.Y.Y.Y.Y.Y.M.M.  q z z   j.7   ;   a Z Z Z Z Z $.Z Z Z Z e m M.Y.Y.Y.Y.Y.Y.Y.Y.N.B.B.Y.Y.Y.Y.Y.Y.Y.Y.Y.Y.Y.Y.",
"Y.Y.Y.Y.Y.Y.Y.Y.Y.Y.Y.Y.Y.Y.Y.Y.Y.K.  d C Z   j.7       a Z Z Z Z Z $.Z Z Z A   P Y.Y.Y.Y.Y.Y.Y.Y.Y.    X Y.Y.Y.Y.Y.Y.Y.Y.Y.Y.Y.Y.",
"Y.Y.Y.Y.Y.Y.Y.Y.Y.Y.Y.Y.Y.Y.Y.Y.Y.Y.Y.  t l   j.7   Y.  a Z @.Z Z Z Z Z C A   Y.Y.Y.Y.Y.Y.Y.Y.Y.K.  | Z C   Y.Y.Y.Y.Y.Y.Y.Y.Y.Y.Y.",
"Y.Y.Y.Y.Y.Y.Y.Y.Y.Y.Y.Y.Y.Y.Y.Y.Y.Y.Y.Y.9     j.7   Y.  a Z $.Z Z Z Z Z Z A   Y.Y.Y.Y.Y.Y.Y.Y.$ . A C @     Y.Y.Y.Y.Y.Y.Y.Y.Y.Y.Y.",
"Y.Y.Y.Y.Y.Y.Y.Y.Y.Y.Y.Y.Y.Y.Y.Y.Y.Y.Y.Y.' _   j.7   Y.  a Z #.Z Z Z Z Z Z A   Y.Y.Y.Y.Y.Y.Y.F.5 < C s T ) ) Y.Y.Y.Y.Y.Y.Y.Y.Y.Y.Y.",
"Y.Y.Y.Y.Y.Y.Y.Y.Y.Y.Y.Y.Y.Y.Y.Y.Y.Y.Y.Y.Y.Y.  h.7   Y.  a Z Z Z Z Z Z Z Z A   Y.Y.Y.Y.Y.Y.Y.  N C A   V.Y.Y.Y.Y.Y.Y.Y.Y.Y.Y.Y.Y.Y.",
"Y.Y.Y.Y.Y.Y.Y.Y.Y.Y.Y.Y.Y.Y.Y.Y.Y.Y.Y.Y.Y.Y.  m.K   Y.  a C Z Z Z Z Z A Z A   Y.Y.Y.Y.Y.Y.Y.  B C   Y.Y.Y.Y.Y.Y.Y.Y.Y.Y.Y.Y.Y.Y.Y.",
"Y.Y.Y.Y.Y.Y.Y.Y.Y.Y.Y.Y.Y.Y.Y.Y.Y.Y.Y.Y.Y.Y.  n.K   Y.  r d Z Z Z Z Z %.+.Z d   P Y.Y.      A k u   Y.Y.Y.Y.Y.Y.Y.Y.Y.Y.Y.Y.Y.Y.Y.",
"Y.Y.Y.Y.Y.Y.Y.Y.Y.Y.Y.Y.Y.Y.Y.Y.Y.Y.Y.Y.Y.Y.  n.K   Y.  r d C C Z Z Z $.#.Z d   L G.G.% * % B y f U Y.Y.Y.Y.Y.Y.Y.Y.Y.Y.Y.Y.Y.Y.Y.",
"Y.Y.Y.Y.Y.Y.Y.Y.Y.Y.Y.Y.Y.Y.Y.Y.Y.Y.Y.Y.Y.Y.  m.K   Y.  r d d Z Z Z Z $.#.C d         A V d d . = Y.Y.Y.Y.Y.Y.Y.Y.Y.Y.Y.Y.Y.Y.Y.Y.",
"Y.Y.Y.Y.Y.Y.Y.Y.Y.Y.Y.Y.Y.Y.Y.Y.Y.Y.Y.Y.9   n.n.K   Y.Y._   d   w C Z Z V d d   % d d d u     H.Y.Y.Y.Y.Y.Y.Y.Y.Y.Y.Y.Y.Y.Y.Y.Y.Y.",
"Y.Y.Y.Y.Y.Y.Y.Y.Y.Y.Y.Y.Y.Y.Y.Y.Y.Y.Y.Y.9   n.  F.Y.Y.Y._   d   w C A Z V d d           4 Y.Y.Y.Y.Y.Y.Y.Y.Y.Y.Y.Y.Y.Y.Y.Y.Y.Y.Y.Y.",
"Y.Y.Y.Y.Y.Y.Y.Y.Y.Y.Y.Y.Y.Y.Y.Y.Y.Y.Y.Y.9   n.  F.Y.Y.Y._   d   w Z Z Z V d u 4 4 4 4 4 P Y.Y.Y.Y.Y.Y.Y.Y.Y.Y.Y.Y.Y.Y.Y.Y.Y.Y.Y.Y.",
"Y.Y.Y.Y.Y.Y.Y.Y.Y.Y.Y.Y.Y.Y.Y.Y.Y.Y.Y.Y.9   n.  F.Y.Y.Y._   d   w Z Z Z z d   Y.Y.Y.Y.Y.Y.Y.Y.Y.Y.Y.Y.Y.Y.Y.Y.Y.Y.Y.Y.Y.Y.Y.Y.Y.Y.",
"Y.Y.Y.Y.Y.Y.Y.Y.Y.Y.Y.Y.Y.Y.Y.Y.Y.Y.Y.Y.9   n.  F.Y.Y.Y._   d   w C C Z V d   Y.Y.Y.Y.Y.Y.Y.Y.Y.Y.Y.Y.Y.Y.Y.Y.Y.Y.Y.Y.Y.Y.Y.Y.Y.Y.",
"Y.Y.Y.Y.Y.Y.Y.Y.Y.Y.Y.Y.Y.Y.Y.Y.Y.Y.Y.Y.9   n.  F.Y.Y.Y.K.J.. B | @.Z Z l . H.Y.Y.Y.Y.Y.Y.Y.Y.Y.Y.Y.Y.Y.Y.Y.Y.Y.Y.Y.Y.Y.Y.Y.Y.Y.Y.",
"Y.Y.Y.Y.Y.Y.Y.Y.Y.Y.Y.Y.Y.Y.Y.Y.Y.Y.Y.Y.9   n.  F.Y.Y.Y.Y.Y.  A  .$.C C h   Y.Y.Y.Y.Y.Y.Y.Y.Y.Y.Y.Y.Y.Y.Y.Y.Y.Y.Y.Y.Y.Y.Y.Y.Y.Y.Y.",
"Y.Y.Y.Y.Y.Y.Y.Y.Y.Y.Y.Y.Y.Y.Y.Y.Y.Y.Y.Y.9   n.  F.Y.Y.Y.Y.Y.  A  .$.C d r   Y.Y.Y.Y.Y.Y.Y.Y.Y.Y.Y.Y.Y.Y.Y.Y.Y.Y.Y.Y.Y.Y.Y.Y.Y.Y.Y.",
"Y.Y.Y.Y.Y.Y.Y.Y.Y.Y.Y.Y.Y.Y.Y.Y.Y.Y.Y.  c.n.n.  F.Y.Y.Y.Y.Y.  A C C A d r   Y.          4 Y.Y.Y.Y.Y.Y.Y.Y.Y.Y.Y.Y.Y.Y.Y.Y.Y.Y.Y.Y.",
"Y.Y.Y.Y.Y.Y.Y.Y.Y.Y.Y.Y.Y.Y.Y.Y.Y.Y.Y.  c.n.n.  F.Y.Y.Y.N.K s Z Z Z l O * r 0 k.k.k.k.^ ^ 0 Y.Y.Y.Y.Y.Y.Y.Y.Y.Y.Y.Y.Y.Y.Y.Y.Y.Y.Y.",
"Y.Y.Y.Y.Y.Y.Y.Y.Y.Y.Y.Y.Y.Y.Y.Y.Y.Y.Y.  c.n.n.  F.Y.Y.Y._   Z Z A Z u   - d X n.n.n.n.h.f.  Y.Y.Y.Y.Y.Y.Y.Y.Y.Y.Y.Y.Y.Y.Y.Y.Y.Y.Y.",
"Y.Y.Y.Y.Y.Y.Y.Y.Y.Y.Y.Y.Y.Y.Y.Y.Y.Y.Y.  c.n.n.  F.Y.Y.Y._             d r   n.n.b.h.j.h.f.  Y.Y.Y.Y.Y.Y.Y.Y.Y.Y.Y.Y.Y.Y.Y.Y.Y.Y.Y.",
"Y.Y.Y.Y.Y.Y.Y.Y.Y.Y.Y.Y.Y.Y.Y.Y.Y.K.X j.h.h.h.l.6   Y.  6.i.Z.i.r.,.    6 /         h.      Y.Y.Y.Y.Y.Y.Y.Y.Y.Y.Y.Y.Y.Y.Y.Y.Y.Y.Y.",
"Y.Y.Y.Y.Y.Y.Y.Y.Y.Y.Y.Y.Y.Y.Y.Y.Y.K.  H H K H b.G   '   *.w.w.F D x 8 8 J s.  9 c 0 K 3 >   Y.Y.Y.Y.Y.Y.Y.Y.Y.Y.Y.Y.Y.Y.Y.Y.Y.Y.Y.",
"Y.Y.Y.Y.Y.Y.Y.Y.Y.Y.Y.Y.Y.Y.Y.Y.Y.K.          n.K       &.>.>.      / / ( g.  3.3.`   M v   Y.Y.Y.Y.Y.Y.Y.Y.Y.Y.Y.Y.Y.Y.Y.Y.Y.Y.Y.",
"Y.Y.Y.Y.Y.Y.Y.Y.Y.Y.Y.Y.Y.Y.Y.Y.Y.K.  ` ` `   n.K   g.        / ( g.g.      Y.  @ K `   4 Y.Y.Y.Y.Y.Y.Y.Y.Y.Y.Y.Y.Y.Y.Y.Y.Y.Y.Y.Y.",
"Y.Y.Y.Y.Y.Y.Y.Y.Y.Y.Y.Y.Y.Y.Y.Y.Y.K.  M M b   S.x.l.  g.d.d.d.  X     U.U.U.Y.U.F.  X U.U.Y.Y.Y.Y.Y.Y.Y.Y.Y.Y.Y.Y.Y.Y.Y.Y.Y.Y.Y.Y.",
"Y.Y.Y.Y.Y.Y.Y.Y.Y.Y.Y.Y.Y.Y.Y.Y.Y.K.  Q E I   b.x.l.  ! ! ! ! Y Y Y Y Y.Y.Y.Y.Y.H.Y Y Y.Y.Y.Y.Y.Y.Y.Y.Y.Y.Y.Y.Y.Y.Y.Y.Y.Y.Y.Y.Y.Y.",
"Y.Y.Y.Y.Y.Y.Y.Y.Y.Y.Y.Y.Y.Y.Y.Y.Y.K.  v.3.`   j.h.l.          Y.Y.Y.Y.Y.Y.Y.Y.Y.Y.Y.Y.Y.Y.Y.Y.Y.Y.Y.Y.Y.Y.Y.Y.Y.Y.Y.Y.Y.Y.Y.Y.Y.Y.",
"Y.Y.Y.Y.Y.Y.Y.Y.Y.Y.Y.Y.Y.Y.Y.Y.Y.K.  v.R b `       `   C.Y.Y.Y.Y.Y.Y.Y.Y.Y.Y.Y.Y.Y.Y.Y.Y.Y.Y.Y.Y.Y.Y.Y.Y.Y.Y.Y.Y.Y.Y.Y.Y.Y.Y.Y.Y.",
"Y.Y.Y.Y.Y.Y.Y.Y.Y.Y.Y.Y.Y.Y.Y.Y.Y.U.K.$ 4.5.` v W W + K.U.Y.Y.Y.Y.Y.Y.Y.Y.Y.Y.Y.Y.Y.Y.Y.Y.Y.Y.Y.Y.Y.Y.Y.Y.Y.Y.Y.Y.Y.Y.Y.Y.Y.Y.Y.Y.",
"Y.Y.Y.Y.Y.Y.Y.Y.Y.Y.Y.Y.Y.Y.Y.Y.Y.Y.Y.4 2.4.W v E E 4 Y.Y.Y.Y.Y.Y.Y.Y.Y.Y.Y.Y.Y.Y.Y.Y.Y.Y.Y.Y.Y.Y.Y.Y.Y.Y.Y.Y.Y.Y.Y.Y.Y.Y.Y.Y.Y.Y.",
"Y.Y.Y.Y.Y.Y.Y.Y.Y.Y.Y.Y.Y.Y.Y.Y.Y.Y.Y.Y.9           Y.Y.Y.Y.Y.Y.Y.Y.Y.Y.Y.Y.Y.Y.Y.Y.Y.Y.Y.Y.Y.Y.Y.Y.Y.Y.Y.Y.Y.Y.Y.Y.Y.Y.Y.Y.Y.Y.Y."
};
