/* XPM */
static char *_1d1d1a3930d49fad458ca44b52eb5b9IoXyA0T5jCqinMCf[] = {
/* columns rows colors chars-per-pixel */
"65 65 53 1 ",
"  c #3B2532",
". c #3F2532",
"X c #3F2633",
"o c #3E363F",
"O c #402533",
"+ c #402633",
"@ c #402734",
"# c #5F2D39",
"$ c #5F2D3A",
"% c #31325A",
"& c #463848",
"* c #4A3E4F",
"= c #583241",
"- c #7E3440",
"; c #7F3440",
": c #7F3540",
"> c #7E3541",
", c #7F3541",
"< c #703D4F",
"1 c #703E50",
"2 c #463D66",
"3 c #385E5D",
"4 c #385F5D",
"5 c #3B6263",
"6 c #3B6364",
"7 c #595469",
"8 c #49487E",
"9 c #576764",
"0 c #8A474C",
"q c #955857",
"w c #B6605E",
"e c #BE7068",
"r c #EC8A7A",
"t c #EE8C7B",
"y c #EF8C7B",
"u c #F18D7C",
"i c #4B4D8B",
"p c #594B81",
"a c #4D5499",
"s c #656A84",
"d c #686F8A",
"f c #2F9787",
"g c #2F9988",
"h c #309988",
"j c #72809E",
"k c #73819F",
"l c #7483A1",
"z c #7584A2",
"x c #C89687",
"c c #F4A490",
"v c #F9BEA6",
"b c #FBC0A7",
"n c white",
/* pixels */
"lllllllllllllllllllllllllllllllllllllllllllllllllllllllllllllllll",
"lllllllllllllllllllllllllllllllllllllllllllllllllllllllllllllllll",
"lllllllllllllllllllllllllllllllllllllllllllllllllllllllllllllllll",
"lllllllllllllllllllllllllllllllllllllllllllllllllllllllllllllllll",
"lllllllllllllllllllllllllllllllllllllllllllllllllllllllllllllllll",
"lllllllllllllllllllllllllllllllllllllllllllllllllllllllllllllllll",
"lllllllllllllllllllllllllllllllllllllllllllllllllllllllllllllllll",
"lllllllllllllllllllllllllllllllllllllllllllllllllllllllllllllllll",
"lllllllllllllllllllllllllllllllllllllllllllllllllllllllllllllllll",
"lllllllllllllllllllllllllllllllllllllllllllllllllllllllllllllllll",
"lllllllllllllllllllllllllllllllllllllllllllllllllllllllllllllllll",
"lllllllllllllllllllllllllllllllllllllllllllllllllllllllllllllllll",
"lllllllllllllllllllllllllllllllllllllllllllllllllllllllllllllllll",
"lllllllllllllllllllllllllllllllllllllllllllllllllllllllllllllllll",
"lllllllllllllllllllllllllllllllllllllllllllllllllllllllllllllllll",
"lllllllllllllllllllllllllllllllllllllllllllllllllllllllllllllllll",
"lllllllllllllllllllllllllllllllllllllllllllllllllllllllllllllllll",
"lllllllllllllllllllllllllllllllllllllllllllllllllllllllllllllllll",
"lllllllllllllllllllllllllllllllllllllllllllllllllllllllllllllllll",
"lllllllllllllllllllllllllllllllllllllllllllllllllllllllllllllllll",
"lllllllllllllllllllllllllllllllllllllllllllllllllllllllllllllllll",
"llllllllllllllllllllllllllllllldddddlllllllllllllllllllllllllllll",
"lllllllllllllllllllllllllllllll.++++lllllllllllllllllllllllllllll",
"llllllllllllllllllllllllllllll++=11<+llllllllllllllllllllllllllll",
"lllllllllllllllllllllllllllll+++=1111.Xzlllllllllllllllllllllllll",
"lllllllllllllllllllllllllllll+++=1111.Xzlllllllllllllllllllllllll",
"lllllllllllllllllllllllllllll++@qy111XXzlllllllllllllllllllllllll",
"lllllllllllllllllllllllllllll+..qy<<1XXzlllllllllllllllllllllllll",
"lllllllllllllllllllllllllllll+y.qyyy1..llllllllllllllllllllllllll",
"lllllllllllllllllllllllllllll++ycvvvXzlllllllllllllllllllllllllll",
"llllllllllllllllllllllllllllll+ycvvvXllllllllllllllllllllllllllll",
"lllllllllllllllllllllllll.....+;wyy;@llllllllllllllllllllllllllll",
"lllllllllllllllllllllllll@333@3;0qw>577llllllllllllllllllllllllll",
"lllllllllllllllllllllllll@gggXh;#.;;gXXllllllllllllllllllllllllll",
"llllllllllllllllllllllll+h55@;;h9;.;h@Xzlllllllllllllllllllllllll",
"llllllllllllllllllllllll@5@X;;@f9;;;h;;Xlllllllllllllllllllllllll",
"llllllllllllllllllllllll+5@.,,@@$,,,@;;Xlllllllllllllllllllllllll",
"llllllllllllllllllllllll+5@X,,@;$X,,@,;@lllllllllllllllllllllllll",
"llllllllllllllllllllllll@5@.,,@>$@,,X;;Xkzlllllllllllllllllllllll",
"llllllllllllllllllllllll@.;;,,@;,;,,,XX,Xllllllllllllllllllllllll",
"llllllllllllllllllllllll@@;;>>@;,,,,:++:+zzklllllllllllllllllllll",
"llllllllllllllllllllllll@XXX,,X;,,,X:++:@zzzlllllllllllllllllllll",
"llllllllllllllllllllllll@9XX@@aa8X@,:@@Xkzkzlllllllllllllllllllll",
"llllllllllllllllllllllll9%XXxxaai88p8ee@zzkzlllllllllllllllllllll",
"lllllllllllllllllllllllllXXXvbaaiaaaaurXzkzzkzlllllllllllllllllll",
"llllllllllllllllllllllllllXXvyaa2X@%ayy@zzkzkzlllllllllllllllllll",
"llllllllllllllllllllllllllllXaaX7k@aaX@kkkzzzzzllllllllllllllllll",
"llllllllllllllllllllllllllllXaaX7k@aa.@kzzzkzkkzlllllllllllllllll",
"llllllllllllllllllllllllllllXbXzll.u.lzllllllllllllllllllllllllll",
"llllllllllllllllllllllllllll bXllzXy.llllllllllllllllllllllllllll",
"llllllllllllllllllllllllllllXbXzll.y.llllllllllllllllllllllllllll",
"llllllllllllllllllllllllll. ;XzzllX:.llzlllllllllllllllllllllllll",
"llllllllllllllllllllllllllXX;nXzllX;n..llllllllllllllllllllllllll",
"lllllllllllllllll l  &l       XX          l*  l lllllllllllllllll",
"lllllllllllllllllkkkkklkldzzlkdzzdlkkkklzzldkklklllllllllllllllll",
"lllllllllllllllllllllkllllzzlllzzlllllkzzzzzlllllllllllllllllllll",
"llllllllllllllllllllllllllllllllzzlllllllllllllllllllllllllllllll",
"llllllllllllllllllllllllllllllllzzlllllllllllllllllllllllllllllll",
"llllllllllllllllllllllllllllllllzzzllllllllllllllllllllllllllllll",
"llllllllllllllllllllllllllllllllzzzzlllllllllllllllllllllllllllll",
"lllllllllllllllllllllllllllllllllllllllllllllllllllllllllllllllll",
"lllllllllllllllllllllllllllllllllllllllllllllllllllllllllllllllll",
"lllllllllllllllllllllllllllllllllllllllllllllllllllllllllllllllll",
"lllllllllllllllllllllllllllllllllllllllllllllllllllllllllllllllll",
"lllllllllllllllllllllllllllllllllllllllllllllllllllllllllllllllll"
};
