/* XPM */
static char *_9719a2255494c88acef32eca57f3dec9UxQmllteXaNCVWv[] = {
/* columns rows colors chars-per-pixel */
"65 65 226 2 ",
"   c #070A09",
".  c #0D0D0D",
"X  c #180C05",
"o  c #140E0B",
"O  c #1A0D0B",
"+  c #02130E",
"@  c #0E130D",
"#  c #1A1004",
"$  c #14130C",
"%  c #181608",
"&  c #1A110C",
"*  c #0A0E14",
"=  c #0C0D19",
"-  c #1C0A13",
";  c #170C18",
":  c #0D1214",
">  c #081817",
",  c #0D151A",
"<  c #131313",
"1  c #1B1213",
"2  c #181816",
"3  c #12141C",
"4  c #151C1B",
"5  c #1B1B1B",
"6  c #240D02",
"7  c #2B0900",
"8  c #220D0C",
"9  c #390909",
"0  c #241108",
"q  c #240B12",
"w  c #270916",
"e  c #261719",
"r  c #371615",
"t  c #33131B",
"y  c #1F231F",
"u  c #29211E",
"i  c #0E0D26",
"p  c #061828",
"a  c #181D23",
"s  c #021D31",
"d  c #00173C",
"f  c #281E26",
"g  c #331D23",
"h  c #381928",
"j  c #3D1D2C",
"k  c #2D1E34",
"l  c #341E34",
"z  c #052725",
"x  c #16252C",
"c  c #09273A",
"v  c #1C2434",
"b  c #162938",
"n  c #142B3C",
"m  c #043338",
"M  c #252525",
"N  c #2B2325",
"B  c #242924",
"V  c #292927",
"C  c #26262A",
"Z  c #2B232B",
"A  c #2A2A2A",
"S  c #38272B",
"D  c #292635",
"F  c #352735",
"G  c #3C2234",
"H  c #2E3B39",
"J  c #343434",
"K  c #353938",
"L  c #3C3C3C",
"P  c #490B18",
"I  c #531316",
"U  c #611B1D",
"Y  c #7D1A1F",
"T  c #46221F",
"R  c #562118",
"E  c #580D21",
"W  c #4A1C29",
"Q  c #521C25",
"!  c #5B1826",
"~  c #551B2A",
"^  c #5B1B2B",
"/  c #471937",
"(  c #4E1D33",
")  c #581A37",
"_  c #661826",
"`  c #781927",
"'  c #7C1F2A",
"]  c #6A1836",
"[  c #791F36",
"{  c #492326",
"}  c #43232C",
"|  c #53222B",
" . c #5A222D",
".. c #442534",
"X. c #472638",
"o. c #572838",
"O. c #43383C",
"+. c #573437",
"@. c #6C212F",
"#. c #762426",
"$. c #672837",
"%. c #6B2935",
"&. c #772537",
"*. c #722A3B",
"=. c #64353B",
"-. c #174B3D",
";. c #06503F",
":. c #2F443F",
">. c #41403E",
",. c #001F48",
"<. c #062A47",
"1. c #162844",
"2. c #0B3552",
"3. c #272E41",
"4. c #3A2A44",
"5. c #3A3D44",
"6. c #03376D",
"7. c #023A6B",
"8. c #053577",
"9. c #013B74",
"0. c #023D7B",
"q. c #5B2D40",
"w. c #493447",
"e. c #693643",
"r. c #7A3B45",
"t. c #194A44",
"y. c #095141",
"u. c #244543",
"i. c #3D4146",
"p. c #02447A",
"a. c #1F607A",
"s. c #434343",
"d. c #4A4947",
"f. c #4E4E4E",
"g. c #514A4F",
"h. c #545454",
"j. c #5F5458",
"k. c #5C5C5C",
"l. c #6D4B4B",
"z. c #785543",
"x. c #66635F",
"c. c #616161",
"v. c #6B6B6C",
"b. c #687570",
"n. c #767676",
"m. c #7D7D7D",
"M. c #891929",
"N. c #96162A",
"B. c #841D35",
"V. c #8F1D31",
"C. c #831C39",
"Z. c #A5103E",
"A. c #842329",
"S. c #862536",
"D. c #952836",
"F. c #8A3631",
"G. c #A7282E",
"H. c #B2242F",
"J. c #AA2A35",
"K. c #B62836",
"L. c #C01F2F",
"P. c #C81C34",
"I. c #C52438",
"U. c #8E4433",
"Y. c #971443",
"T. c #8C3248",
"R. c #973743",
"E. c #A72C47",
"W. c #AC3748",
"Q. c #946F58",
"!. c #BB6E45",
"~. c #BD6D4B",
"^. c #B87249",
"/. c #BC724D",
"(. c #B37252",
"). c #B17054",
"_. c #BC7251",
"`. c #856D7C",
"'. c #827F7E",
"]. c #887B79",
"[. c #8B7B7C",
"{. c #C36D46",
"}. c #C26D4A",
"|. c #C36E51",
" X c #6D857B",
".X c #77827F",
"XX c #7E817E",
"oX c #81807D",
"OX c #8A817C",
"+X c #E6995D",
"@X c #DF9161",
"#X c #D69475",
"$X c #E49A6B",
"%X c #003D82",
"&X c #064683",
"*X c #044984",
"=X c #0C5A92",
"-X c #10638E",
";X c #056999",
":X c #186495",
">X c #0365A4",
",X c #0767A6",
"<X c #0464AB",
"1X c #026AAD",
"2X c #0073B0",
"3X c #6C7489",
"4X c #7E7E82",
"5X c #717B8E",
"6X c #817E81",
"7X c #8C7A81",
"8X c #778682",
"9X c #7E8181",
"0X c #0C92CB",
"qX c #049AE3",
"wX c #808080",
"eX c #888885",
"rX c #8C9298",
"tX c #8C96A5",
"yX c #949EAA",
"uX c #94A0B1",
"iX c #D0A086",
"pX c #BDC5CF",
"aX c #CACDCE",
"sX c #C9D0D8",
"dX c #C6D1E5",
"fX c #FDFDFD",
/* pixels */
"wXwXwXwXwXwXwXwXwXwXwXwXwXwXwXwXwXwXwXwXwX9XoX4XwXwXwXwXwXwXwXwXwXwXwXwXwXwXwXwXwXwXwXwXwXwXwXwXwXwXwXwXoX9XwX6X9XwXwXwXwXXXwXwXwX",
"wXwXwXwXwXwXwXwXXX6XwXwXwXwXwXwXwXwXwXwXwX6XwXwXwXwXwXwXwXwXwXwXwXwXwXwX9XwXwXwXwXwXwXwXwXwXwXwXwXwXwXwXwXwXwXwXwXwXwXwXwX6XwXwXwX",
"wXwXwXwXwXwXwXwXwXwXwXwXwXwX6XXXwXwXwXwXwXwXwXwXwXwXwXwXwXwX4X'.wXoX9XwXwXwXwXwXwXwXwXwXwXwXwXwXwXwXwXwXwXwXwXwXwXwXwXwXwXwXwXwXwX",
"wXwXwXwXwXwXwXwXwXwXwXwXwXwXwXwXwXwXwXwXwXwXwXwXwXwXwXwXoX4X'.4X9X6X6XwXwX9X6XoXwXwXwXwXwXwXwXwXwXwXwXwXwX6XwXwXwXwXwXwXwXwXwXwXwX",
"wXwXwXwXwXwXXXwXwX9XwXwXwXwXwXwXwXwXwXwXwXwXwX6XwXwX6X< .   < < * < < o . . 4Xm.wXwXwXwXwXwX6XwXwXwXwX6XXXwXwXwXwXwXwXwXwXwXwXwXwX",
"4XoXwXwXwXwX6XwXwX6XwXwXwXwXwXwXwXwX4XoXwXwXm.n.n.n.n.< 2 < < < < < < < 2 2 m.n.'.wXwXm.wXwXwXwX9XoXwXwXwXwXwXwXwXwXwXwXwXwXwXwXwX",
"wXwXwXwXwXwXwXwXwXwXwXwXoX6XwXwXwXwX6X9XeXwXh.< 2 < < 5 5 M M M A M 5 5 5 5 2 . m.4XoX4XwXwXwXwX6XwXwXwXwXwXwXwXwX6XwXwXwXwX6XXXwX",
"wXwXwXwXwXwXwXwXwXwXwXwX9XwXwXwXwXwXm.6X< < 2 2 5 B M c.c.c.k.s.L L L L B C 5 5 < . f.4XeXwXm.wX9XwXwXwXwXwXwXwX9XoXwXwXwXwXwXwXwX",
"wXwXwXwXwXwXwXwXwXwXwXwXwXwXwXwXwXwXB 5 . 5 a V A k.k.s.s.A A M V Z A A M Z 5 5 < 2 5 5 2 2 2 wXwXwXwXwXwXwXwXwXwXwXwXwXwXwXwXwXwX",
"wXwXwXwXwXwXwXwXwXwXwXXXwXwXwXwXwXwX< 2 5 2 2 A V c.x.K L A B V M B A A B B 5 5 2 < < < < : < wXwXwXwXwXwXwXwXwXwXwXwXwXwXwXwXwXwX",
"wXwXwXwX6XXXwXwXwXwXwX6XwXwXwXwXXXwX< 2 Z B L k.c.K K M A V N J s.J B B 5 5 < < 2 5 5 5 2 2 5 $ . eXwXwXwXwXwXwXwXwX6XwXwXwXwXwXwX",
"wXwXwXwXwXwXwXwXwXwXwXwXwXwXwXm.. < 5 5 M M J L K M M x e L >.f.h.g.M M . < 5 5 B A J L L L L 2 2 < < n.m.wXwXwXwXwX9XwXwXwX4XoXwX",
"wX9XwXwXwXwXwXwXwXwX6XwXwXwXwXwX. < 5 5 J A A K K M M V f :.s.g.h.s.V M 2 < 5 y C A J >.d.J K N M < * n.m.wXwXwXwXwXXX6XwXwXwXwXwX",
"6XoXwXwX6XwX9XwXwXwXwXwXwXwXwXeX: 2 B Z K O.J B N 2 2 L L k.k.J Z B 5 2 M V L L L L f.c.k.V N :.L < < n.m.wXwXwXwXwXwXwXwXwXwXwXwX",
"9X6XwXwXwXwXwXwXwXwXwXwXwXwX< . y 2 V N A M M 5 5 A Z k.k.B B 5 5 5 5 2 5.L c.k.J Z B V C k.c.5 2 < < n.m.wXwXwXwXwXwXwXwXwXwXwXwX",
"wXwXwXwXwXwXwXwX9XwX9X6Xm.eXn.n.< @ e x Z B 5 5 5 L L k.k.A C e 5 y M Z h.k.J J < 5 5 a e :.w.B M < < n.m.wXwXwXwXwXwXwXwXwXwXwX9X",
"wXwXwXwXwXwXwXwXwXwXwXwXwXn.m.n.2 < 2 5 M C x 2 5 :.s.k.c.V B a 5 M Z B k.k.B B x 5 5 5 e :.L B V < < n.m.wXwXwXwXwXwXwXwXwXwXwX6X",
"wXwX4XoXwXwXwXwXwXwXwXwXwXwXwXwXn.m.. < 2 5 y N V O.O.M V B Z 5 5 5 L L k.c.M C e 5 u M B M Z 5 < . < n.wXwXwXwXwXwXwXwXwXwXwXwXoX",
"wXwXwXwXwXwXwXwXwXwXwXwXwXwXwXwX.   2 5 5 2 f B Z i.L 2 2 M Z M M A k.c.M A 2 5 M V V M M 2 5 .   wXeXeXm.wXwXwXwXwXwXwXwXwXwXwXwX",
"wXwXwXwXwXwXwXwXwXwXwXwXwXwXwXwX2 < < : 5 2 f C A J K 2 5 B B B A A h.h.B Z M 5 M V M u x 3 2 < 2 6X4X6XwXwXwX9XwXwXwXwXwXwXwXwXwX",
"6XwXwXwXwXwXwXwXwXwXwXwXwXwXwXwX: < # 0 1 a M u A B Z 5 5 M B B M A L s.5 2 B B B V 5 a e 0 % 2 < 4XwXwX6XwXoX6XwXwX6XwXwXwXwXwXwX",
"XXwXwXwXwXwXwXwXwXwXwXwXwXwXwXm.< $ #X#X7 4 4 e 5 B B 5 2 2 5 J L J B B Z A B Z 5 e 3 , 7 #XiX& < m.wXwXwXwX9XwXwXwXwXwX6XXXwXwXwX",
"wXwXwXwXwXwXwX'.wXwXwXwXwXwXwXwX9XoX8 0 O > > 2 a 4 e N B 4 4 y B M M M B N f 4 5 5 4 > O 6 # '.'.wXwXwXwXwXwXwXoX9XwXwXwXwXwXwXwX",
"wXwXwXwXwXwXwX9XwXwXwXwXwXwXwXwXwX9X: o 2 < 1 e 5 4 4 Z N f e f N Z N Z N Z 4 2 5 e 2 : < o < 9Xm.wXwXwXwXwXwXwXwXwXwXwXwXwXwXwXwX",
"wXwXwXwX6X9XoXwXwXwXwX6XwXwXwXwXwX9Xm.6X$ 1 t | S $ $ } Q Q Q Q Q Q Q Q { { $ $ } W t < < 7XwXwXwXwXwXwXwXwXwXwXwXwXwXwXwXwXwX6XwX",
"wXwXwXwXwXwXwXwXwXwXwX9XwXwXwXwXwXwX'.'.: $ t ^ ` S.N.I.P.P.P.P.P.P.P.P.P.I.N.S._ ! t o < wXwXwXwXwXwXwXwXwXwXwX9X6XwXwXwXwXwXXXwX",
"wXwXwXwXwXwXwXwXwXwXwXwX6XwXoXXX'.m.v.b.e P E  .` ] _ G.G.J.J.H.L.H.J.H.H.G.@.] #.| I P N b.v.XXXXXXoXwX6X6XwXwXwXwXwXwXwXwXwXwXwX",
"6XwXwXwXwXwXwXwXwXwXwXwX6XwXoX'.].[.< 8 %.A.M.A.+.: O } Q B.N.M.@.V.N.B.~ } q > +.M.M.A.%.8 2 ].].oXXXXX6X6XwXwXwXwXwXwXwXwXwXwXwX",
"XXwXwXwXwXwXwXwXwXwXwXwX6X9XoX[.W Q A.S.O.;.3.) X.n b A.B.D <.+.A.+.<.D A.B.x m / ] 3.;.L B.S.Q W ].'.XX6X6XwXwXwXwXwXwXwXwXwXwXwX",
"wXwXwXwXwXwXwXwXwXwXwX6X6XXX'.[.Q Q :.K r.R.D.#.F.E.T.J u.o.&...x j %.+.u.J T.E.A.A.D.R.=.O.L Q Q [.XX9X6XwXwXwXwXwXwXwXwXwXwXwX9X",
"wXwXwXwXwXwXwXwXwXwX6X9X8X.XXX7XW ~ K :.r.K.D.C.V.J.R.s.L $.%.G v G %.$.H i.T.K.V.&.D.K.T.:.:.| } 7XXXXX'.m.wX9XwXwXwXwXwXwXwXwX6X",
"wXwXwXwX6XXXwXwXwXwXXX'.[.7X4X8X+ $ G.I.h <.D { F 1.k E.K.J -.r.P.*.t.L K.K.D 1.F T 4.<.S L.G.8 : wXwX6X'.6XwXoX6XwXwXwXwXwXXX6XwX",
"wXwXwXwXwXwXwXwXoX6X6X9X Xb.= 9 W.E.k z w.Y.M.R M.Z.q.z a e.' l <.G ' *.v z =.Z.Y R N.Y.g.z l E.R.9 ; m.wX9XwXwXwXwXwXwXoXwXwXwXwX",
"wX6X9XwXwXwXwXwXwX4Xm.6X7Xm.o & l.r.W F o.@.} Z h o.o.S G ) q.X.G X.q.o.l G o.o.j l W  .) F X.S.z.q : b.m.m.4XwXwXwXwXwX9XwXwXwXwX",
"wXwXwXwXwXwXwXwXwXwX6XwXm.6X; , :.t.=.C./ <.z q : m k C.e.k v ~ A.o.b b =.Y.Z m , q z m l B.$.t.t.> ; `.[.eXeXwXwXwXwXwXwXwXwXwXwX",
"wXwXwXwXwXwXwXwXwX4X].K = = m Z &.%.k m 4. .g 2 @ T / 1.v &.S./ m W B.*.x c ) { 1 1 M | w.c k &.[ k m = > J wXwXwXwXwXwX6XwXwXwXwX",
"wXwXwX9XwXwXwXwXwXXXwXL 2 q $.o.l Z A / w 0 & ; 2 1.D S } F D o.e.o.F D G S D 1.; - 1 % g / F D D o.$.7 - J wXwXwXwXwXwX9XwXwXwXwX",
"wXwXwXwXwXwX6X6XwX9X[.O.1 9 &.%.M x G ( w < < $ 3 1.b { ( D n X.[ o.n v | | b 1., < $ < w ( G z C $.&.P 1 ..OX.XXX6X6XwXwXwXwXwXwX",
"wXwX6XwXwXwXwX6X9X@ O | M.M._ ^ ) ) v m z , ; , 8 U ) 2.<.S ^ F 1.l | } m <.] U O , 3 3 p m x ) ) ! _ #.V.| O @ oX6X4XoXoXwXwXwXwX",
"wXwXwXwXwXwX6X6X9X4 o t ~ ! S.' Y ` _ ~ O @ t ^ X.m c _ _ b <.o.C.o.n n ) _ b <.X.Q t $ O Q ! Y Y ` S.^ Q r o < oX6X6XwX4XwXwXwX9X",
"wXwXwXwXwX6X6X6XoX: & +.F.U.#.@.! ~ h N & O e h g A F 4.J F W X.o.o.} F K 4.D F h h e O & N W | ! @._ F.U.=.o @ wX6X4XoXwXwXwXwXoX",
"9XwXwXwX9X9X9XoX4X: & Q.$X#XI { X o O # 2 , < $ e ^ / t.u.e.C.5.y.5.C.*.:.-.X.) 8 % < , 2 # X @ # T I #X$XQ.O : wXoXm.4XwXwXwXwX6X",
"wXwXwX6XwX4XXX'.9X* O Q.$X@X^._._./.}.(.6 % r R S <.v M.C.5.t.+.B.+.t.L &.&.C b F { t O 6 ).|././.!.!.@X+XQ.O : wXoX'.9XwXwXwXwXwX",
"wXwXwXwXwXoXXXoXXX3 & z.^./.^./.~.}.}.(.6 3 ; w q i < R _ ( X.~ ` ~ X.( ! | 3 ; - 8 ; o 6 ^.{.{.}.}.^.^.@Xz.& 3 wXoXXXoXwXwXwXwXwX",
"wX9XwXwXwX9XXX'.XX3 % z.|.}.}.{.{.^.^.(.7 O : < > + 1 4.G W ( ~ W ~ ~ ....} w z > < 3 < 7 (.(./.!.}.!./._.z.1 : wXoXm.9XwXwXwXwX9X",
"wX6XwXwXwXwX9XoX'.m.6XL o 6 (.~.^.).X & 4X4Xh.% p 0.9.,X<X>X>X*X0.*X>X,X>X,X7.9.s % f.4Xm.O 6 ).{.}.|.9 X K wXoXwXwXwXwXwXwXwXwXwX",
"wXwXwXwX9XoXwXwXwX4Xm.eX9XoXe 6 # # oXOX9X4Xh.& p 7.6.6.9.p O x n a < p 8.9.6.9.s - f.4X9XeXOX$ % # % eX8XeXm.m.wXwXwXwXwXwXwXwXwX",
"wXoXwXwXwX6XwXwXwXwX9X9XoXm.K K 5.L 4X9Xm.9Xh.O p &Xp.&X&X<.d c x s ,.,.&X&Xp.*Xp o f.m.9XwX6XL L L O.'.7XwXwXwXwXwXwXwXwXwXwXwXwX",
"wX6X9XwXwXwXwX9XwXwX6X'.'.9X9X4X6Xm.wX9XwXm.h.< s >X<X,X1X8.7.s 8 p 7.0.1X>X<X;Xs < f.'.9XwXwXwX4X9X9XXXm.wXwXwXwXwXwXwXwXwXwXwXwX",
"wXwXwXwXwXwXwX6XwXwX9XwX4XoXwXoXwXwXwXwXwX4Xh.< p 7.%X>X1X<X<X<.: <.1X<X1X,X%Xp.p < h.m.9XwXwXwXXX6X9X9XwXwXwXwXwXwX9X6XwXwXwXwXwX",
"wXwXwXwXoXwXwXwXwXwXwXwXwXwXwXwX9X6XwXwXwXwXwX6X4X> d -X;X%X%Xc # z 0.0.;X;Xd , m.m.6X9XwXwXwXwXwXwX4XoXwXwXXX6XwXwXwXoXwXwXwX6XwX",
"wXwXwXwXwX9X6XwXwXwXwXwXwXwXwXwXoXwXwXwXwXwXwXwXXX$ p ;X1X0.9.<.i ,.0.0.2X;Xp $ XX9XwXwXwXwXwXwXwXwXwXwXwXwXwXwXwXwXwXwXwXwXoX9XwX",
"wXwX9XwXwXwXwXwXwXwXwXwXwXwXwXwXwXwXwX9XwXwXwX4X7X6 p 0XqX2X>X&X8.0.<X2XqX0Xp 6 ].9X9X9XwXwXwXwXwXwXoX9X6X9XwXwXwXwXoX6XwXwXwX6XwX",
"6X9XwXwXwXwXwXwXwXwXwX6XwXwXwXwXwXwXwX6XwXwXwX4Xm.o s 0XqXqXqX>X0.=XqXqXqX0Xc O m.9X6X9XwXwXwXwX9XwXwXwXwXwXwXwXwX6X9X9XwXwXwX9XwX",
"oXwXwXwXwX6XoXwXwXwXwX9XwXwXwX6XwXwXwXwXwXwXn.h.j.5 a a.-X-X:X2.2.2.:X:X-Xa.p 5 j.k.v.wXwXwXwXwX6XwXwXwXwXwXwXwXwXwXwXwXwXwXwXwXwX",
"9X6XwXwXwXwX9XwXwXwXwXwXwXwXoX9XwXwXwX9X6Xm.h.o   B V $ # $ $ u C C $ o % % A C   < f.m.wXwXwXwXwXwXwXwXwXwXwXwXwXwXwXwXwXwXwXwX6X",
"6X9XwXwXwXwXwXwXwXwXwXwXwXwXoX6XwXwX4Xb.M C K x.c.L J L O.N M 3 < < M B L K L K c.v.K B > b.wXwXwXwXwXwXwXwXwXwX9XwXwXwXwXwXwX6X9X",
"wXwXwXwXwXwXwXwX6X9X9XwXwXwXwX9XwXwXC M pXsXtXJ O.k.c.k.k.:.L A A A O.5.k.k.c.k.w.J eXsXaXV 5 wXwXwXwXwXwXwXwXwXwXwXwXwXwXwXoX9XoX",
"wXwXoXwXwXwXwXwXoXwXwXwXwXwXwXwXwXwXC M pXdXtXK K k.k.c.h.H 5.D N Z i.H k.k.h.k.K K rXdXpXD M XXwXwX6XXXwXwXwXwXoXwXwXwXwXwXwXwX9X",
"wXwX9X6XwXwXwXwX9X6XwXwXwXwXwXwXm.4X2 : 3X5XtXsXaXfXfXfXfXyXuX5.< D uXyXfXfXfXfXaXsXuX5Xb.= < XXwXwXwXwXwXwXwXwX6X9XwXwXwXwXwXwX6X",
"wXwXwXwXwXwXoXwXwXwXwXwXwXwX6X9XwXwXeXn.* i , 3 2 < . < < 3 *   :   * 3 < @ < 2 < < = ,   9X9X9XwXwXwXwXwXwXwXwX9X6XwXwX4XwXwXwXwX",
"wXwX9XwXwX9X6X9XwXwXwXwXwXwXwXoXwXoXn.oX>.d.d.s.s.s.s.s.s.s.d.>.>.>.d.s.w.s.s.i.s.5.s.s.s.oXoX'.wXwX6XwXwXwX6XXXwXwXwXwXwXwXwXwXwX",
"wXwX'.9XwXwXwX6X9X6XwXwX9XwXwXwXwXwX6X6XoX'.wX'.wXwXwXwXwXwX4X6X4X9XXXoXwXwXXXoXwX'.oX'.'.'.6X9XwXwX9XoXwXwXwXwXwXwXwXwXwXoXwXwXwX",
"wXwXwXwXwXwXwXwX9XoXwXwX6XwXwXwXwXwX6X6XwXoXwXwXwXwXwXwXwXwXwX9XwX9X9XwXoXwXwXwXwXwX6X6XwX4X6XwXwXwXwXwXwXwXwXwXwXwXwXwXwXwXwXwXwX",
"wXwX6XoX9XwXwXwXwXwXwXwXwX6X9XwXwXwXwXwXwXwXwXwXwXwXoX4XwXwXwXwXwXwXwXwXwXwXwXwXwXwXwXwXwXwXwXwXwXwXwXwXwXwXoX6X9XwXwXwXwXwXwXwXwX"
};
