/* XPM */
static char *_70e6e75865c4dd2db5f0dc5c23c2e70GeEBcZHaxi1d57RH[] = {
/* columns rows colors chars-per-pixel */
"65 65 174 2 ",
"   c #010203",
".  c #030506",
"X  c #040404",
"o  c #060606",
"O  c #0D0505",
"+  c #0E0707",
"@  c #0A0806",
"#  c #02070A",
"$  c #000A08",
"%  c #07090B",
"&  c #030A0E",
"*  c #040B0F",
"=  c #0A0B0B",
"-  c #0B0B0B",
";  c #0F0909",
":  c #0B0F0E",
">  c #0C0C0C",
",  c #100D0D",
"<  c #100E0E",
"1  c #00110D",
"2  c #0C0E10",
"3  c #0B1110",
"4  c #0E1011",
"5  c #07141C",
"6  c #101011",
"7  c gray7",
"8  c #151514",
"9  c #161514",
"0  c #161716",
"q  c gray10",
"w  c #221E19",
"e  c #2B231A",
"r  c #14212F",
"t  c #182B3D",
"y  c #2A282A",
"u  c #332A20",
"i  c #3D3021",
"p  c #3F3224",
"a  c #3F3529",
"s  c #373737",
"d  c #3B3836",
"f  c #3B383B",
"g  c #3C393C",
"h  c #3D3A3D",
"j  c #3F3F3F",
"k  c #40391B",
"l  c #443E1B",
"z  c #423527",
"x  c #45382A",
"c  c #4B3A29",
"v  c #4F3E2B",
"b  c #513F2B",
"n  c #443D37",
"m  c #0F6730",
"M  c #0F7135",
"N  c #0E7D39",
"B  c #52402D",
"V  c #54422F",
"C  c #4D4030",
"Z  c #404A35",
"A  c #494E31",
"S  c #504231",
"D  c #574430",
"F  c #1A2E41",
"G  c #153A52",
"H  c #1C3A52",
"J  c #235376",
"K  c #494949",
"L  c #665641",
"P  c #6D5C45",
"I  c #7D6245",
"U  c #7A654C",
"Y  c #646164",
"T  c #686368",
"R  c #747474",
"E  c #7F7375",
"W  c #797379",
"Q  c #7B757B",
"!  c #7E7578",
"~  c #7D767B",
"^  c #7D777D",
"/  c gray50",
"(  c #C10D30",
")  c #C2193B",
"_  c #8D7557",
"`  c #CF484B",
"'  c #D14E56",
"]  c #0E8A3F",
"[  c #3F954F",
"{  c #B29570",
"}  c #C2A37A",
"|  c #C0A47B",
" . c #C0A57C",
".. c #E6D047",
"X. c #225A80",
"o. c #26648E",
"O. c #266691",
"+. c #286A97",
"@. c #296F9D",
"#. c #2B72A1",
"$. c #2D78AA",
"%. c #477396",
"&. c #4D7292",
"*. c #667386",
"=. c #667487",
"-. c #61758A",
";. c #837C83",
":. c #D77585",
">. c #2D83BE",
",. c #3184BD",
"<. c #3285BC",
"1. c #3285BD",
"2. c #358BBF",
"3. c #4981A7",
"4. c #5792A8",
"5. c #5792AD",
"6. c #4685B2",
"7. c #358CC6",
"8. c #3B9ADB",
"9. c #3C9DDD",
"0. c #3C9DDE",
"q. c #3DA1E2",
"w. c #47A5DE",
"e. c #4DA7DF",
"r. c #43B0F7",
"t. c #45B5FF",
"y. c #48BDFF",
"u. c #8E888E",
"i. c #928D92",
"p. c #9C969A",
"a. c #A6A2A6",
"s. c #A9AAA8",
"d. c #AEAEAD",
"f. c #AEAEAE",
"g. c #AAADB2",
"h. c #B5ACB5",
"j. c #B4AEB4",
"k. c #B8B0B8",
"l. c #E1908E",
"z. c #C7AA80",
"x. c #C7AC84",
"c. c #C8AA80",
"v. c #CBAD82",
"b. c #DAB789",
"n. c #CDB99A",
"m. c #DFBF90",
"M. c #E0BC8D",
"N. c #E0BD8E",
"B. c #C0BEBF",
"V. c #DFC494",
"C. c #DAC9B3",
"Z. c #FFD6A1",
"A. c #FFD7A2",
"S. c #FFD8A2",
"D. c #ECD7BD",
"F. c #89BFC3",
"G. c gray78",
"H. c #CACACA",
"J. c #CDCDCC",
"K. c gray81",
"L. c #D4CED0",
"P. c gray85",
"I. c #DBDADB",
"U. c #E5D9CA",
"Y. c #FFE6C8",
"T. c #F3E6D5",
"R. c #FFEFDD",
"E. c #E0DDE0",
"W. c #E2DEE2",
"Q. c gray88",
"!. c #FFF4E8",
"~. c #FFF7ED",
"^. c #FFFAF6",
"/. c white",
/* pixels */
"/././././././././././././././././././././././././././././././././././././././././././././././././././././././././././././././././.",
"/././././././././././././././././././././././././././././././././././././././././././././././././././././././././././././././././.",
"/././././././././././././././././././././././././././././././././././././././././././././././././././././././././././././././././.",
"/././././././././././././././././././././././././././././././././././././././././././././././././././././././././././././././././.",
"/././././././././././././././././././././././././././././././././././././././././././././././././././././././././././././././././.",
"/././././././././././././././././././././././././././././././././././././././././././././././././././././././././././././././././.",
"/././././././././././././././././././././././././././././././././././././././././././././././././././././././././././././././././.",
"/././././././././././././././././././././././././././././././././././././././././././././././././././././././././././././././././.",
"/././././././././././././././././././././././././././././././././././././././././././././././././././././././././././././././././.",
"/././././././././././././././././././././././././././././././././././././././././././././././././././././././././././././././././.",
"/././././././././././././././././././././././././././././././././././././././././././././././././././././././././././././././././.",
"/././././././././././././././././././././././././././././././././././././././././././././././././././././././././././././././././.",
"/./././././././././././././././././././././././././.q q q q q q q q q q q q q q q /./././././././././././././././././././././././.",
"/./././././././././././././././././././././././././.X 7 7 7 7 7 7 7 7 7 7 7 7 7 > /./././././././././././././././././././././././.",
"/./././././././././././././././././././././.> 7 7 7 B B B B B B B B B B B B B B B 7 7 7 R /./././././././././././././././././././.",
"/./././././././././././././././././././././.> 2 2 2 B B B B B B B B B B B B B B B 2 2 2 R /./././././././././././././././././././.",
"/././././././././././././././././././././ 7 v B B B B B B B B B b b D b b b b b b S S b p 7 d././././././././././././././././././.",
"/././././././././././././././././././././ 7 v B B B B B B B B B D b b b b z z b b b b b p 7 d././././././././././././././././././.",
"/././././././././././././././././././././ 7 v B B B B B B B B B b b b b b 2 6 b D b b S p 7 d././././././././././././././././././.",
"/././././././././././././././././././././ 7 v B B B B B B B B B n b b w 0 V.m.0 0 b b b p 7 d././././././././././././././././././.",
"/././././././././././././././././././././ 7 v B B B B B B B B B D b b q 2 Z.S.2 7 b b b p 7 d././././././././././././././././././.",
"/./././././././././././././././././././././.> 7 B B B B 7 4 7 4 0 7 7 M.Z.Z.Z.7 2 b b D p 7 d././././././././././././././././././.",
"/./././././././././././././././././././././.> 7 B B B B - - - - : % - M.Z.Z.Z.% - b b b i - d././././././././././././././././././.",
"/./././././././././././././././././././.C.} @ 7 7 7 7 X Z.Z.Z.Z.Z.Z.Z.Z.Z.Z.Z.S.Z.7 5 b U } U././././././././././././././././././.",
"/./././././././././././././././././././.D.b.P L > 7 7 % | | | c.Z.Z.Z.c.} |  . .| 7 . _ { b.T././././././././././././././././././.",
"/./././././././././././././././././././.Y.Z.Z.Z.> 7 7 7 7 7 7 C Z.Z.Z.a 6 7 7 7 7 7 X Z.Z.Z.R././././././././././././././././././.",
"/./././././././././././././././././././.~.!.` ' : 7 K.K.M m 7 S Z.Z.Z.a 6 M M L.J.8 $ ' l.!.^././././././././././././././././././.",
"/./././././././././././././././././././././.( ) 3 7 /./.] N 7 C Z.Z.Z.a 6 ] ] /./.7 1 ) :././././././././././././././././././././.",
"/./././././././././././././././././././././.> 4 7 7 Z.Z.] [ Z.S.Z.Z.Z.Z.Z.] ] Z.S.7 7 - R /./././././././././././././././././././.",
"/./././././././././././././././././././././.> > 7 7 S.Z.] [ Z.Z.Z.Z.Z.Z.Z.] ] Z.Z.7 7 : R /./././././././././././././././././././.",
"/././././././././././././././././.^ a./././././.- 7 ^ W Z.Z.Z.Z.Z.Z.Z.Z.Z.Z.Z.& & 7 X /./././././././././././././././././././././.",
"/././././././././././././././././.^ p.P.P.P.P.P.y y ^ Q z.x.n.n.n.n.n.n.n.z.v.& # H G K.Q././././././././././././././././././././.",
"/././././././././././././././././.^ ^ ^ ^ ^ ^ ! ^ ^ ^ ^ % 5 X.J X.X.X.X.X.. * * X t.y.7 R /./././././././././././././././././././.",
"/././././././././././././././././.^ =.%.%.%.%.%.%.%.^ ^ O.@.$.$.$.$.$.$.$.O.O.O.o.t.t.2.%.Y H././././././././././././././././././.",
"/././././././././././././././././.^ -.#.#.#.#.#.#.#.^ ^ 7.>.1.1.,.,.,.1.1.1.,.,.<.t.t.t.7.9 d././././././././././././././././././.",
"/././././././././././././././././.^ -.#.0.t.t.t.@.#.^ ! <.<.1.1.,.,.1.1.1.,.,.< , - X ! ^ *.n - /././././././././././././././././.",
"/././././././././././././././././.^ -.#.0.t.t.t.@.#.^ ^ 1.1.1.,.>.>.>.1.1.1.1.< < > X ^ ^ ^ h > /././././././././././././././././.",
"/././././././././././././././././.^ -.#.0.t.t.t.@.#.^ ^ 7 7 7 l ......k 7 7 + t.t.^ ^ ^ ^ ^ ^ ^ /././././././././././././././././.",
"/././././././././././././././././.^ -.#.0.t.t.t.@.#.^ ^ F t r A ......Z r F t t.t.Y T ;.;.;.u.i./././././././././././././././././.",
"/././././././././././././././././.^ -.#.0.t.t.t.@.#.^ E t.r.1.4.......5.1.t.t.t.t.7 X h.h.h.E././././././././././././././././././.",
"/././././././././././././././././.H.g.=.6.,.,.,.*.*.h d 8.9.0.w.F.F.F.e.q.8.8.J J 7 X h.h.h.E././././././././././././././././././.",
"/./././././././././././././././././.L.! &.#.#.#.^ Q 7 + ,.7.t.t.t.t.t.t.t.,.,.7 7 7 X h.h.h.E././././././././././././././././././.",
"/./././././././././././././././././././.j.^ ^ ^ . - 7 7 - + + , + < < + + + , 7 7 7 X h.h.h.E././././././././././././././././././.",
"/./././././././././././././././././././.j.^ Q ^ - 7 7 7 7 7 7 7 < < < 7 7 7 7 7 7 - X h.h.h.E././././././././././././././././././.",
"/./././././././././././././././././././././.> 7 B B 7 2 b c 7 K /././.j 7 b B 7 > B v h.h.h.E././././././././././././././././././.",
"/./././././././././././././././././././././.> 7 D D 0 0 b c 7 K /././.j 7 b B 0 0 D b h.h.h.E././././././././././././././././././.",
"/./././././././././././././././././././././.> 7 I I I I B c 7 K /././.j 7 B B I I I I h.h.h.E././././././././././././././././././.",
"/./././././././././././././././././././././.d.s.z x x x u n s.G./././.B.s.e u x x x i h.h.h.E././././././././././././././././././.",
"/./././././././././././././././././././././././.- 7 7 7 7 s /././././././.X 7 7 7 7 X h.h.h.E././././././././././././././././././.",
"/././././././././././././././././././././././././././././././././././././././././././.h.h.h.I././././././././././././././././././.",
"/././././././././././././././././././././././././././././././././././././././././././.h.h.h.I././././././././././././././././././.",
"/././././././././././././././././././././././././././././././././././././././././././.h.h.h.E././././././././././././././././././.",
"/././././././././././././././././././././././././././././././././././././././././././.h.k.k.E././././././././././././././././././.",
"/././././././././././././././././././././././././././././././././././././././././././././././././././././././././././././././././.",
"/././././././././././././././././././././././././././././././././././././././././././././././././././././././././././././././././.",
"/././././././././././././././././././././././././././././././././././././././././././././././././././././././././././././././././.",
"/././././././././././././././././././././././././././././././././././././././././././././././././././././././././././././././././.",
"/././././././././././././././././././././././././././././././././././././././././././././././././././././././././././././././././.",
"/././././././././././././././././././././././././././././././././././././././././././././././././././././././././././././././././.",
"/././././././././././././././././././././././././././././././././././././././././././././././././././././././././././././././././.",
"/././././././././././././././././././././././././././././././././././././././././././././././././././././././././././././././././.",
"/././././././././././././././././././././././././././././././././././././././././././././././././././././././././././././././././.",
"/././././././././././././././././././././././././././././././././././././././././././././././././././././././././././././././././.",
"/././././././././././././././././././././././././././././././././././././././././././././././././././././././././././././././././.",
"/././././././././././././././././././././././././././././././././././././././././././././././././././././././././././././././././."
};
