/* XPM */
static char *_6e365b311b64eebef71fbcfd2290691E8KaD1ea3cE12iQ8[] = {
/* columns rows colors chars-per-pixel */
"65 65 79 1 ",
"  c #000000",
". c #090000",
"X c #170606",
"o c #170708",
"O c #1E080E",
"+ c #250C0D",
"@ c #2F0B0C",
"# c #330C0C",
"$ c #390D0C",
"% c #3B100F",
"& c #300D11",
"* c #391216",
"= c #490E0D",
"- c #53100B",
"; c #471315",
": c #481215",
"> c #471318",
", c #491418",
"< c #521615",
"1 c #581715",
"2 c #551A14",
"3 c #52151B",
"4 c #511819",
"5 c #631516",
"6 c #6D1D1D",
"7 c #751B1A",
"8 c #7A1C1C",
"9 c #7E201D",
"0 c #821E1B",
"q c #8B1F1D",
"w c #8C221E",
"e c #94211F",
"r c #9A231E",
"t c #851F20",
"y c #8C1F21",
"u c #941C23",
"i c #9A1E24",
"p c #852326",
"a c #942121",
"s c #9B2324",
"d c #9D2124",
"f c #9C2324",
"g c #9D2325",
"h c #992424",
"j c #9B2424",
"k c #9C2425",
"l c #9C2525",
"z c #942228",
"x c #9D2D30",
"c c #A12424",
"v c #A42726",
"b c #A02B2B",
"n c #A62C2A",
"m c #A0282C",
"M c #A02A2C",
"N c #A92B2C",
"B c #AA2F2F",
"V c #AC2E2F",
"C c #B02E2E",
"Z c #B42F2F",
"A c #AE312D",
"S c #AC302F",
"D c #AE322F",
"F c #B3312F",
"G c #B3332E",
"H c #AD2F33",
"J c #B32E31",
"K c #B32F32",
"L c #B52E35",
"P c #AD3230",
"I c #AE3330",
"U c #AF3133",
"Y c #B33130",
"T c #B03331",
"R c #B53031",
"E c #B53230",
"W c #B63033",
"Q c #B53333",
"! c #B23234",
/* pixels */
"                                                                 ",
" JFFFYFFFFD#eFGGRRFFF1aGFFFFFFFFQ aFFFFFFYF lFFFFFFFGR<#FFFYFFFF<",
" R888888888&e88888887<u888888888J e8888888R a888888888:#w8888888<",
" R888888889#e88888888<e888888888R e8888888F a888888888-@w8888888<",
" RRFRFRFFRU#eRRRFRRGF<aFRYRFRRFRR eRRRFRRFF aRFFRYYRFR<#JFRRRRFR<",
"                                                                 ",
"ssssjs csshhlllls,isjsdjjjj7edhdjdjjdlj Ylhhlljlj Rsjdjjlhlla jjd",
"888883 V888888888<z88888888<wx88888888Y u8888888Y a888888888< D88",
"888883 B8888888882z78888888<qx88888888Y a8888888R e8888888882 D88",
"888783 H887788888<z88887888<qx88888778I a8888888F e8877788771 D88",
"=::::: :::::=:=:::u,::::::::0,>:::;:::, >:::::::, ::=:::;:::> ;::",
" $$$$$$$$$$+;$$$$$$$$$=$$$$$$$$$$ $$$$$$$$$ $$$$$$$$$$$O$$$$$$$$$",
" FF!!Q!!QIS#eYIR!!TTR<a!JRY!QY!RG uYY!Q!FGF aR!!FY!YIQ<#U!T!RYY!<",
" R888888879#e78888888<a888888888G e8888888R a8888888882@w8888888<",
" R888888889&a88888887<a888888888R e8888888G j888888888<@w8888888<",
" RIIIIIIIIT#eTIIDDDUF<aIIIIIUDDDR eIIIIIDIY jIIIIIIIDG:#RUIIIIIU<",
"                                                                 ",
"jjsssl cjdjdjjjjj4zjsssssds6ajddjjdlldl Rsjjdlddj Yjddhdldjdl dhd",
"888883 V888888888<z88888888<qx78888888Y a8888888Y a888888888< D88",
"888883 V888888888<z88888888<qx88888888! a8888888Y e888888888< D88",
"888883 V8888888882z888808881wx88888088J a8088888U e880880888< H88",
":,:>:> ,>>,::,:>::,;,>>:>>>,;>>>:>>:>>, ::>:>>:>> >;>>>,>,:;; ,,,",
" djssjssjjj5RdjjddlhlrFdssssdsldh hdjssjjdd jsjjlhhdssh$shhddhdhi",
" R888888888$e88888888<u888888888R e8888888R a888888888<#w8888888<",
" R888888888&e88888888<a888888888F e8888888F a888888888:#w8888888<",
" R888888889#a88888887<a888888888R e8888888Y a888888888-#w8888888<",
" :::>:::,>=&p::::>:>><e:::>>::::- :>>>::>:> <,::>:>:,:,#:>:::>>::",
"                                                                 ",
"YYFFF2 NYYFFFDGFY,zDFDFFYUF1qCFFDFFFYUF dFFDIYIFY aYFDFDFUYY2 RFF",
"888883 V888888888<z88888888<qm88888888F u8888888Y a888888888< D88",
"888883 V888888888<z88888888<qb88888888! e8888888Y a888888888< D88",
"888883 V8888888882z08888888<qm88888888! e0888888Y e808888888< R88",
">>;;>> >>>>>>>>>>>::>,>>>>>>*>>,>:;>>>> >>>>>>>>> >>,;>>>>>>> :>>",
" jslldhljll1YhjjsjdhljFdssjsssjjl hlssssjjs sssjssssldd%sjsjssjja",
" R888888889@e88888888<a888888888R e8888888G a888888888:#w8888888<",
" R888888889#e88888888;a888888888R e8888888R a888888888<#w8888888<",
" F888888888#a88888887<a888888888F a8888888Y j888888888<#w8888888<",
" >:>>>>;>>,&z>>:>;;;>3e:,;;;>>>;> >>>>;>>>> ,>>>>>>>:>,#>>>>>>;>>",
"                                       .                         ",
"YFYYR, UYFYYYYYRR<zFYR!YRGF,wJYFYFYFRFD aYYFYYFYU eYFFYYFFFF1 YYF",
"888883 U888888888<z88888888<qm88888888Y a8888888F e888888888< U88",
"888883 B888888888<z88888888<wm88888888! a8888888Y e888888888< D88",
"YYYYF3 VFFGGTGGGR<zGFFYYFFF2qRFFFFYYGGU aGGRYFGGI eFFFFFFFFF< FFF",
"                                                                 ",
" jsjjjjjjja#rhhrhjhjj<ajrlhldljhl Fjjjlldll Wlldjjjjrl1@jjjjjjjjr",
" F888888889#e88888888<a888889888F e8888888R a8888888882#w8888888<",
" R788888789#e88888888<e888888888R e8888888G a888888888;#w9788888<",
" R798878797#e77988886<a879779778R e8778887G a887787888<#w7798878<",
" >>>>>::>>:@,:::;;;>>=;;;;;;>;;:: >:>;:,;:, ;;;;,,>>;;;X;;,;;;;;,",
"djljdh lhldhhldalzRlllhljjsrndlhdljaljj sssshsjjj hlhllhhddhe ldd",
"888883 S888888888<z78888888<qm88888888! e8888888F e888888888< D88",
"888883 D888888888<z888888882qx88888888F a8888888F e888888888< D88",
"888883 D888888888<z78888889<wm88888898U a8888888U e888978889< D88",
";:;>;> >;;>>>;;;;2u;;;;::;;:w:;;>>;;;,: :;;;;;;;: >:;;;>;;;;> ;;;",
"                                                                 ",
" vvvvvvvvvn#avvvvvvvv2evvvvvvvvvn nvvvvvvvv Vvvcvvvvvv5@vvvvvvvv0",
" Y888888988&e78888888<u888888888F e8888888R a888888888<@w9888888<",
" J888888889#e98888888:e888888888R e8888888F s888888888-#w7888888<",
" R788888889#e78887888<u888788888F e8888888R s888888888,#a8888787<",
" >>:::>>>>>+>>:::>>>::>>:>>>::>:> >>:>::>>> >>>:::>>>>>o>>>>:>>>>",
"djsslh dhhdhllhhsdLsssssidjlNhdhjjjdijs dsssssssi hdllhddhdhr hdj",
"888883 V888888888<z888888883wm88888888! a8888888U e8888888881 D88",
"888883 V888888888<z88888888<qx88888888U a8888888F e888888888< D88",
"888883 V888888888<z88888888<yx88888888Y z8888888Y e888888888< U88",
">::::: :::;;;=;;;:w;:::=;;;<w;;;=;;;;;: >:::=;;;; ;;;:=;;;;;= >;;"
};
